# MagicaVoxel @ Ephtracy

# group
g CavernWall

# material
mtllib CavernWall.mtl
usemtl palette

# normals
vn -1 0 0
vn 1 0 0
vn 0 0 1
vn 0 0 -1
vn 0 -1 0
vn 0 1 0

# texcoords
vt 0.216797 0.5
vt 0.220703 0.5

# verts
v -8 0 -3
v -8 0 -8
v -8 1 -3
v -8 1 -4
v -8 2 -3
v -8 2 -4
v -8 13 -3
v -8 13 -4
v -8 14 -3
v -8 14 -4
v -8 16 -3
v -8 16 -8
v 8 0 -3
v 8 0 -8
v 8 1 -3
v 8 1 -4
v 8 3 -3
v 8 3 -4
v 8 16 -3
v 8 16 -8
v -8 0 -3
v -8 1 -3
v -8 2 -3
v -8 13 -3
v -8 14 -3
v -8 16 -3
v -7 0 -3
v -7 1 -3
v -7 2 -3
v -7 3 -3
v -7 10 -3
v -7 11 -3
v -6 0 -3
v -6 3 -3
v -6 9 -3
v -6 10 -3
v -6 11 -3
v -6 13 -3
v -6 14 -3
v -5 11 -3
v -5 12 -3
v -4 5 -3
v -4 6 -3
v -4 9 -3
v -4 11 -3
v -4 12 -3
v -4 13 -3
v -3 3 -3
v -3 4 -3
v -3 5 -3
v -3 6 -3
v -3 14 -3
v -3 15 -3
v -2 7 -3
v -2 8 -3
v -1 3 -3
v -1 4 -3
v -1 7 -3
v -1 8 -3
v -1 14 -3
v -1 15 -3
v 0 6 -3
v 0 8 -3
v 0 11 -3
v 0 13 -3
v 1 6 -3
v 1 8 -3
v 1 11 -3
v 1 12 -3
v 2 3 -3
v 2 4 -3
v 2 13 -3
v 2 14 -3
v 3 8 -3
v 3 10 -3
v 3 11 -3
v 3 12 -3
v 4 4 -3
v 4 5 -3
v 4 10 -3
v 4 11 -3
v 4 13 -3
v 4 14 -3
v 5 2 -3
v 5 3 -3
v 5 8 -3
v 5 13 -3
v 6 1 -3
v 6 2 -3
v 6 4 -3
v 6 5 -3
v 7 3 -3
v 7 4 -3
v 8 0 -3
v 8 1 -3
v 8 3 -3
v 8 16 -3
v -8 0 -8
v -8 16 -8
v 8 0 -8
v 8 16 -8
v -8 0 -3
v -7 0 -3
v -6 0 -3
v 8 0 -3
v -7 0 -4
v -6 0 -4
v -8 0 -8
v 8 0 -8
v -8 16 -3
v 8 16 -3
v -8 16 -8
v 8 16 -8

# faces
f 3/1/1 2/1/1 1/1/1
f 4/1/1 2/1/1 3/1/1
f 5/2/1 4/2/1 3/2/1
f 6/1/1 2/1/1 4/1/1
f 6/2/1 4/2/1 5/2/1
f 7/1/1 6/1/1 5/1/1
f 8/1/1 2/1/1 6/1/1
f 8/1/1 6/1/1 7/1/1
f 9/2/1 8/2/1 7/2/1
f 10/1/1 2/1/1 8/1/1
f 10/2/1 8/2/1 9/2/1
f 11/1/1 10/1/1 9/1/1
f 12/1/1 2/1/1 10/1/1
f 12/1/1 10/1/1 11/1/1
f 13/1/2 14/1/2 15/1/2
f 15/1/2 14/1/2 16/1/2
f 15/2/2 16/2/2 17/2/2
f 16/1/2 14/1/2 18/1/2
f 17/2/2 16/2/2 18/2/2
f 17/1/2 18/1/2 19/1/2
f 18/1/2 14/1/2 20/1/2
f 19/1/2 18/1/2 20/1/2
f 27/1/3 22/1/3 21/1/3
f 28/2/3 23/2/3 22/2/3
f 28/1/3 22/1/3 27/1/3
f 29/1/3 24/1/3 23/1/3
f 29/2/3 23/2/3 28/2/3
f 30/1/3 24/1/3 29/1/3
f 31/1/3 24/1/3 30/1/3
f 32/1/3 24/1/3 31/1/3
f 33/2/3 28/2/3 27/2/3
f 33/2/3 29/2/3 28/2/3
f 33/2/3 30/2/3 29/2/3
f 34/1/3 31/1/3 30/1/3
f 34/2/3 30/2/3 33/2/3
f 35/1/3 31/1/3 34/1/3
f 36/2/3 32/2/3 31/2/3
f 36/1/3 31/1/3 35/1/3
f 37/1/3 24/1/3 32/1/3
f 37/2/3 32/2/3 36/2/3
f 38/2/3 25/2/3 24/2/3
f 38/1/3 24/1/3 37/1/3
f 39/1/3 26/1/3 25/1/3
f 39/2/3 25/2/3 38/2/3
f 40/2/3 38/2/3 37/2/3
f 40/2/3 36/2/3 35/2/3
f 40/2/3 37/2/3 36/2/3
f 41/2/3 38/2/3 40/2/3
f 42/1/3 34/1/3 33/1/3
f 42/1/3 35/1/3 34/1/3
f 43/1/3 35/1/3 42/1/3
f 44/2/3 40/2/3 35/2/3
f 44/1/3 35/1/3 43/1/3
f 45/1/3 41/1/3 40/1/3
f 45/2/3 40/2/3 44/2/3
f 46/2/3 38/2/3 41/2/3
f 46/1/3 41/1/3 45/1/3
f 47/1/3 39/1/3 38/1/3
f 47/2/3 38/2/3 46/2/3
f 48/1/3 42/1/3 33/1/3
f 49/1/3 42/1/3 48/1/3
f 50/2/3 43/2/3 42/2/3
f 50/1/3 42/1/3 49/1/3
f 51/1/3 46/1/3 45/1/3
f 51/2/3 43/2/3 50/2/3
f 51/1/3 45/1/3 44/1/3
f 51/1/3 44/1/3 43/1/3
f 51/1/3 47/1/3 46/1/3
f 52/1/3 26/1/3 39/1/3
f 52/1/3 47/1/3 51/1/3
f 52/1/3 39/1/3 47/1/3
f 53/1/3 26/1/3 52/1/3
f 54/1/3 51/1/3 50/1/3
f 54/1/3 50/1/3 49/1/3
f 54/1/3 52/1/3 51/1/3
f 55/1/3 52/1/3 54/1/3
f 56/1/3 48/1/3 33/1/3
f 56/2/3 49/2/3 48/2/3
f 57/1/3 54/1/3 49/1/3
f 57/2/3 49/2/3 56/2/3
f 58/2/3 55/2/3 54/2/3
f 58/1/3 54/1/3 57/1/3
f 59/1/3 52/1/3 55/1/3
f 59/2/3 55/2/3 58/2/3
f 60/2/3 53/2/3 52/2/3
f 60/1/3 52/1/3 59/1/3
f 61/1/3 26/1/3 53/1/3
f 61/2/3 53/2/3 60/2/3
f 62/1/3 60/1/3 59/1/3
f 62/1/3 59/1/3 58/1/3
f 62/1/3 61/1/3 60/1/3
f 62/1/3 58/1/3 57/1/3
f 62/1/3 57/1/3 56/1/3
f 63/1/3 61/1/3 62/1/3
f 64/1/3 61/1/3 63/1/3
f 65/1/3 61/1/3 64/1/3
f 66/1/3 62/1/3 56/1/3
f 66/2/3 63/2/3 62/2/3
f 67/1/3 64/1/3 63/1/3
f 67/2/3 63/2/3 66/2/3
f 68/2/3 65/2/3 64/2/3
f 68/1/3 64/1/3 67/1/3
f 69/2/3 65/2/3 68/2/3
f 70/1/3 56/1/3 33/1/3
f 70/1/3 67/1/3 66/1/3
f 70/1/3 69/1/3 68/1/3
f 70/1/3 68/1/3 67/1/3
f 70/1/3 66/1/3 56/1/3
f 71/1/3 69/1/3 70/1/3
f 72/2/3 65/2/3 69/2/3
f 72/1/3 61/1/3 65/1/3
f 73/1/3 61/1/3 72/1/3
f 74/1/3 69/1/3 71/1/3
f 75/1/3 69/1/3 74/1/3
f 76/1/3 69/1/3 75/1/3
f 77/2/3 72/2/3 69/2/3
f 77/1/3 69/1/3 76/1/3
f 77/2/3 73/2/3 72/2/3
f 78/2/3 71/2/3 70/2/3
f 78/1/3 74/1/3 71/1/3
f 79/1/3 74/1/3 78/1/3
f 80/1/3 76/1/3 75/1/3
f 80/2/3 75/2/3 74/2/3
f 81/2/3 77/2/3 76/2/3
f 81/1/3 76/1/3 80/1/3
f 82/2/3 73/2/3 77/2/3
f 82/2/3 77/2/3 81/2/3
f 83/1/3 61/1/3 73/1/3
f 83/2/3 73/2/3 82/2/3
f 84/1/3 70/1/3 33/1/3
f 85/2/3 79/2/3 78/2/3
f 85/1/3 70/1/3 84/1/3
f 85/2/3 78/2/3 70/2/3
f 86/2/3 82/2/3 81/2/3
f 86/2/3 81/2/3 80/2/3
f 86/1/3 74/1/3 79/1/3
f 86/2/3 80/2/3 74/2/3
f 87/1/3 83/1/3 82/1/3
f 87/2/3 82/2/3 86/2/3
f 88/1/3 84/1/3 33/1/3
f 89/2/3 85/2/3 84/2/3
f 89/1/3 84/1/3 88/1/3
f 90/2/3 79/2/3 85/2/3
f 90/2/3 85/2/3 89/2/3
f 91/1/3 86/1/3 79/1/3
f 91/2/3 79/2/3 90/2/3
f 91/1/3 87/1/3 86/1/3
f 92/2/3 89/2/3 88/2/3
f 92/2/3 90/2/3 89/2/3
f 93/1/3 91/1/3 90/1/3
f 93/2/3 90/2/3 92/2/3
f 94/1/3 88/1/3 33/1/3
f 95/2/3 92/2/3 88/2/3
f 95/1/3 88/1/3 94/1/3
f 96/1/3 93/1/3 92/1/3
f 96/2/3 92/2/3 95/2/3
f 97/1/3 26/1/3 61/1/3
f 97/1/3 93/1/3 96/1/3
f 97/1/3 87/1/3 91/1/3
f 97/1/3 91/1/3 93/1/3
f 97/1/3 83/1/3 87/1/3
f 97/1/3 61/1/3 83/1/3
f 98/1/4 99/1/4 100/1/4
f 100/1/4 99/1/4 101/1/4
f 106/1/5 103/1/5 102/1/5
f 106/2/5 104/2/5 103/2/5
f 107/1/5 105/1/5 104/1/5
f 107/2/5 104/2/5 106/2/5
f 108/1/5 106/1/5 102/1/5
f 108/1/5 107/1/5 106/1/5
f 109/1/5 105/1/5 107/1/5
f 109/1/5 107/1/5 108/1/5
f 110/1/6 111/1/6 112/1/6
f 112/1/6 111/1/6 113/1/6
