# MagicaVoxel @ Ephtracy

# group
g Crystal

# material
mtllib Crystal.mtl
usemtl palette

# normals
vn -1 0 0
vn 1 0 0
vn 0 0 1
vn 0 0 -1
vn 0 -1 0
vn 0 1 0

# texcoords
vt 0.185547 0.5
vt 0.189453 0.5
vt 0.216797 0.5

# verts
v -4 0 1
v -4 0 -2
v -4 1 1
v -4 1 -2
v -3 0 2
v -3 0 1
v -3 0 -2
v -3 0 -3
v -3 1 2
v -3 1 1
v -3 1 -1
v -3 1 -2
v -3 1 -3
v -3 2 -1
v -3 2 -2
v -2 0 3
v -2 0 2
v -2 0 -3
v -2 0 -4
v -2 1 3
v -2 1 2
v -2 1 1
v -2 1 -0
v -2 1 -1
v -2 1 -3
v -2 1 -4
v -2 2 1
v -2 2 -0
v -2 2 -1
v -2 3 1
v -2 3 -0
v -2 4 1
v -2 4 -0
v -2 4 -1
v -2 4 -2
v -2 5 -0
v -2 5 -1
v -2 5 -2
v -2 5 -3
v -2 6 -1
v -2 6 -2
v -2 6 -3
v -2 7 -2
v -2 7 -3
v -1 0 4
v -1 0 3
v -1 1 4
v -1 1 3
v -1 1 2
v -1 1 1
v -1 2 2
v -1 2 1
v -1 2 -0
v -1 2 -1
v -1 2 -2
v -1 3 2
v -1 3 1
v -1 3 -0
v -1 3 -1
v -1 3 -2
v -1 4 1
v -1 5 3
v -1 5 2
v -1 5 1
v -1 6 2
v -1 6 1
v -1 7 3
v -1 7 2
v 0 1 -2
v 0 1 -3
v 0 2 -2
v 0 2 -3
v 0 3 -1
v 0 3 -2
v 0 4 1
v 0 4 -0
v 0 4 -1
v 0 4 -2
v 0 4 -3
v 0 5 1
v 0 5 -0
v 0 5 -1
v 0 5 -2
v 0 5 -3
v 0 6 -2
v 0 6 -3
v 0 7 -2
v 0 7 -3
v 2 4 1
v 2 4 -0
v 2 5 1
v 2 5 -0
v 2 6 1
v 2 6 -0
v -1 4 -0
v -1 4 -1
v -1 4 -2
v -1 5 -0
v -1 5 -1
v -1 5 -2
v -1 5 -3
v -1 6 -1
v -1 6 -2
v -1 6 -3
v -1 7 -2
v -1 7 -3
v 0 2 2
v 0 2 1
v 0 3 2
v 0 3 1
v 0 4 2
v 0 4 1
v 0 5 3
v 0 5 2
v 0 5 1
v 0 6 2
v 0 6 1
v 0 7 3
v 0 7 2
v 1 1 2
v 1 1 1
v 1 1 -1
v 1 1 -2
v 1 2 2
v 1 2 1
v 1 2 -2
v 1 3 2
v 1 3 1
v 1 3 -0
v 1 3 -1
v 1 3 -2
v 1 4 2
v 1 4 1
v 1 4 -0
v 1 4 -1
v 1 4 -2
v 1 4 -3
v 1 5 1
v 1 5 -0
v 1 5 -1
v 1 5 -2
v 1 5 -3
v 1 6 -2
v 1 6 -3
v 1 7 -2
v 1 7 -3
v 2 0 4
v 2 0 3
v 2 0 -3
v 2 0 -4
v 2 1 4
v 2 1 3
v 2 1 1
v 2 1 -0
v 2 1 -2
v 2 1 -3
v 2 1 -4
v 2 2 1
v 2 2 -0
v 2 2 -1
v 2 2 -2
v 2 2 -3
v 2 3 1
v 2 3 -0
v 2 3 -1
v 2 3 -2
v 2 4 -1
v 2 4 -2
v 3 0 3
v 3 0 2
v 3 0 1
v 3 0 -1
v 3 0 -2
v 3 1 3
v 3 1 2
v 3 1 1
v 3 1 -0
v 3 1 -1
v 3 1 -2
v 3 2 -0
v 3 2 -1
v 3 3 1
v 3 3 -0
v 3 5 1
v 3 5 -0
v 3 6 1
v 3 6 -0
v 4 0 1
v 4 0 -0
v 4 0 -1
v 4 0 -2
v 4 0 -3
v 4 1 1
v 4 1 -0
v 4 1 -1
v 4 1 -2
v 4 1 -3
v -1 0 4
v -1 1 4
v 2 0 4
v 2 1 4
v -2 0 3
v -2 1 3
v -1 0 3
v -1 1 3
v -1 5 3
v -1 7 3
v 0 5 3
v 0 7 3
v 2 0 3
v 2 1 3
v 3 0 3
v 3 1 3
v -3 0 2
v -3 1 2
v -2 0 2
v -2 1 2
v -1 1 2
v -1 2 2
v -1 3 2
v -1 5 2
v 0 1 2
v 0 2 2
v 0 3 2
v 0 4 2
v 0 5 2
v 1 1 2
v 1 2 2
v 1 3 2
v 1 4 2
v -4 0 1
v -4 1 1
v -3 0 1
v -3 1 1
v -2 1 1
v -2 2 1
v -2 3 1
v -2 4 1
v -1 1 1
v -1 2 1
v -1 3 1
v -1 4 1
v 0 2 1
v 0 3 1
v 0 4 1
v 0 5 1
v 1 1 1
v 1 2 1
v 1 3 1
v 1 4 1
v 1 5 1
v 2 1 1
v 2 2 1
v 2 3 1
v 2 4 1
v 2 5 1
v 2 6 1
v 3 0 1
v 3 1 1
v 3 3 1
v 3 5 1
v 3 6 1
v 4 0 1
v 4 1 1
v -2 2 -0
v -2 3 -0
v -2 4 -0
v -2 5 -0
v -1 2 -0
v -1 3 -0
v -1 4 -0
v -1 5 -0
v 2 1 -0
v 2 2 -0
v 3 1 -0
v 3 2 -0
v -3 1 -1
v -3 2 -1
v -2 1 -1
v -2 2 -1
v -2 5 -1
v -2 6 -1
v -1 5 -1
v -1 6 -1
v 0 4 -1
v 0 5 -1
v 1 3 -1
v 1 4 -1
v 1 5 -1
v 2 3 -1
v 2 4 -1
v -2 6 -2
v -2 7 -2
v -1 6 -2
v -1 7 -2
v 0 5 -2
v 0 6 -2
v 0 7 -2
v 1 1 -2
v 1 2 -2
v 1 5 -2
v 1 6 -2
v 1 7 -2
v 2 1 -2
v 2 2 -2
v 3 0 -2
v 3 1 -2
v 4 0 -2
v 4 1 -2
v -1 6 2
v -1 7 2
v 0 6 2
v 0 7 2
v -1 4 1
v -1 5 1
v -1 6 1
v 0 4 1
v 0 5 1
v 0 6 1
v 0 4 -0
v 0 5 -0
v 1 3 -0
v 1 4 -0
v 1 5 -0
v 2 3 -0
v 2 4 -0
v 2 5 -0
v 2 6 -0
v 3 3 -0
v 3 5 -0
v 3 6 -0
v -2 2 -1
v -2 4 -1
v -1 2 -1
v -1 3 -1
v -1 4 -1
v 0 3 -1
v 0 4 -1
v 1 1 -1
v 1 3 -1
v 2 1 -1
v 2 2 -1
v 2 3 -1
v 3 0 -1
v 3 1 -1
v 3 2 -1
v 4 0 -1
v 4 1 -1
v -4 0 -2
v -4 1 -2
v -3 0 -2
v -3 1 -2
v -3 2 -2
v -2 4 -2
v -2 5 -2
v -1 1 -2
v -1 2 -2
v -1 3 -2
v -1 4 -2
v -1 5 -2
v 0 1 -2
v 0 2 -2
v 0 3 -2
v 0 4 -2
v 1 2 -2
v 1 3 -2
v 1 4 -2
v 2 3 -2
v 2 4 -2
v -3 0 -3
v -3 1 -3
v -2 0 -3
v -2 1 -3
v -2 5 -3
v -2 6 -3
v -2 7 -3
v -1 5 -3
v -1 6 -3
v -1 7 -3
v 0 1 -3
v 0 2 -3
v 0 4 -3
v 0 5 -3
v 0 6 -3
v 0 7 -3
v 1 1 -3
v 1 2 -3
v 1 4 -3
v 1 5 -3
v 1 6 -3
v 1 7 -3
v 2 0 -3
v 2 1 -3
v 2 2 -3
v 4 0 -3
v 4 1 -3
v -2 0 -4
v -2 1 -4
v -1 0 -4
v -1 1 -4
v 2 0 -4
v 2 1 -4
v -1 0 4
v 2 0 4
v -2 0 3
v -1 0 3
v 0 0 3
v 1 0 3
v 2 0 3
v 3 0 3
v -3 0 2
v -2 0 2
v -1 0 2
v 0 0 2
v 1 0 2
v 3 0 2
v -4 0 1
v -3 0 1
v -2 0 1
v 1 0 1
v 3 0 1
v 4 0 1
v 3 0 -0
v 4 0 -0
v -3 0 -1
v -2 0 -1
v 2 0 -1
v 3 0 -1
v 4 0 -1
v -4 0 -2
v -3 0 -2
v -1 0 -2
v 0 0 -2
v 2 0 -2
v 3 0 -2
v 4 0 -2
v -3 0 -3
v -2 0 -3
v -1 0 -3
v 0 0 -3
v 2 0 -3
v 4 0 -3
v -2 0 -4
v -1 0 -4
v 2 0 -4
v 0 3 2
v 1 3 2
v -2 3 1
v -1 3 1
v 0 3 1
v 1 3 1
v 2 3 1
v 3 3 1
v -2 3 -0
v -1 3 -0
v 2 3 -0
v 3 3 -0
v 1 3 -1
v 2 3 -1
v 1 3 -2
v 2 3 -2
v -2 4 -1
v -1 4 -1
v -2 4 -2
v -1 4 -2
v 0 4 -2
v 1 4 -2
v 0 4 -3
v 1 4 -3
v -1 5 3
v 0 5 3
v -1 5 2
v 0 5 2
v -2 5 -2
v -1 5 -2
v -2 5 -3
v -1 5 -3
v -1 1 4
v 2 1 4
v -2 1 3
v -1 1 3
v 0 1 3
v 1 1 3
v 2 1 3
v 3 1 3
v -3 1 2
v -2 1 2
v -1 1 2
v 0 1 2
v 1 1 2
v 3 1 2
v -4 1 1
v -3 1 1
v -2 1 1
v -1 1 1
v 1 1 1
v 2 1 1
v 3 1 1
v 4 1 1
v -2 1 -0
v 2 1 -0
v 3 1 -0
v 4 1 -0
v -3 1 -1
v -2 1 -1
v 1 1 -1
v 2 1 -1
v 3 1 -1
v 4 1 -1
v -4 1 -2
v -3 1 -2
v -1 1 -2
v 0 1 -2
v 1 1 -2
v 2 1 -2
v 3 1 -2
v 4 1 -2
v -3 1 -3
v -2 1 -3
v -1 1 -3
v 0 1 -3
v 1 1 -3
v 2 1 -3
v 4 1 -3
v -2 1 -4
v -1 1 -4
v 2 1 -4
v 0 2 2
v 1 2 2
v -2 2 1
v -1 2 1
v 0 2 1
v 1 2 1
v -2 2 -0
v -1 2 -0
v 2 2 -0
v 3 2 -0
v -3 2 -1
v -2 2 -1
v -1 2 -1
v 2 2 -1
v 3 2 -1
v -3 2 -2
v -1 2 -2
v 0 2 -2
v 1 2 -2
v 2 2 -2
v 0 2 -3
v 1 2 -3
v 2 2 -3
v 1 3 -0
v 2 3 -0
v -1 3 -1
v 0 3 -1
v 1 3 -1
v 2 3 -1
v -1 3 -2
v 0 3 -2
v 0 4 2
v 1 4 2
v -2 4 1
v -1 4 1
v 0 4 1
v 1 4 1
v 2 4 1
v -2 4 -0
v -1 4 -0
v 0 4 -0
v 1 4 -0
v 2 4 -0
v -1 4 -1
v 0 4 -1
v 1 4 -1
v 2 4 -1
v 1 4 -2
v 2 4 -2
v 0 5 1
v 1 5 1
v -2 5 -0
v -1 5 -0
v 0 5 -0
v 1 5 -0
v -2 5 -1
v -1 5 -1
v 0 5 -1
v 1 5 -1
v 0 5 -2
v 1 5 -2
v -1 6 2
v 0 6 2
v -1 6 1
v 0 6 1
v 2 6 1
v 3 6 1
v 2 6 -0
v 3 6 -0
v -2 6 -1
v -1 6 -1
v -2 6 -2
v -1 6 -2
v -1 7 3
v 0 7 3
v -1 7 2
v 0 7 2
v -2 7 -2
v -1 7 -2
v 0 7 -2
v 1 7 -2
v -2 7 -3
v -1 7 -3
v 0 7 -3
v 1 7 -3

# faces
f 3/2/1 2/2/1 1/2/1
f 4/2/1 2/2/1 3/2/1
f 9/2/1 6/2/1 5/2/1
f 10/2/1 6/2/1 9/2/1
f 12/2/1 8/2/1 7/2/1
f 13/2/1 8/2/1 12/2/1
f 14/2/1 12/2/1 11/2/1
f 15/2/1 12/2/1 14/2/1
f 20/2/1 17/2/1 16/2/1
f 21/2/1 17/2/1 20/2/1
f 25/3/1 19/3/1 18/3/1
f 26/3/1 19/3/1 25/3/1
f 27/3/1 23/3/1 22/3/1
f 28/1/1 24/1/1 23/1/1
f 28/3/1 23/3/1 27/3/1
f 29/1/1 24/1/1 28/1/1
f 31/3/1 29/3/1 28/3/1
f 32/2/1 31/2/1 30/2/1
f 33/3/1 29/3/1 31/3/1
f 33/2/1 31/2/1 32/2/1
f 34/3/1 29/3/1 33/3/1
f 36/2/1 34/2/1 33/2/1
f 37/3/1 35/3/1 34/3/1
f 37/2/1 34/2/1 36/2/1
f 38/3/1 35/3/1 37/3/1
f 40/3/1 38/3/1 37/3/1
f 41/2/1 39/2/1 38/2/1
f 41/3/1 38/3/1 40/3/1
f 42/2/1 39/2/1 41/2/1
f 43/1/1 42/1/1 41/1/1
f 44/1/1 42/1/1 43/1/1
f 47/2/1 46/2/1 45/2/1
f 48/2/1 46/2/1 47/2/1
f 51/1/1 50/1/1 49/1/1
f 52/1/1 50/1/1 51/1/1
f 56/3/1 52/3/1 51/3/1
f 57/2/1 53/2/1 52/2/1
f 57/3/1 52/3/1 56/3/1
f 58/2/1 53/2/1 57/2/1
f 59/3/1 55/3/1 54/3/1
f 60/3/1 55/3/1 59/3/1
f 61/2/1 57/2/1 56/2/1
f 63/2/1 61/2/1 56/2/1
f 64/2/1 61/2/1 63/2/1
f 65/3/1 63/3/1 62/3/1
f 65/1/1 64/1/1 63/1/1
f 66/1/1 64/1/1 65/1/1
f 67/3/1 65/3/1 62/3/1
f 68/3/1 65/3/1 67/3/1
f 71/3/1 70/3/1 69/3/1
f 72/3/1 70/3/1 71/3/1
f 77/2/1 74/2/1 73/2/1
f 78/2/1 74/2/1 77/2/1
f 80/1/1 76/1/1 75/1/1
f 81/1/1 76/1/1 80/1/1
f 82/3/1 79/3/1 78/3/1
f 82/3/1 78/3/1 77/3/1
f 83/3/1 79/3/1 82/3/1
f 84/3/1 79/3/1 83/3/1
f 85/2/1 84/2/1 83/2/1
f 86/2/1 84/2/1 85/2/1
f 87/1/1 86/1/1 85/1/1
f 88/1/1 86/1/1 87/1/1
f 91/2/1 90/2/1 89/2/1
f 92/2/1 90/2/1 91/2/1
f 93/3/1 92/3/1 91/3/1
f 94/3/1 92/3/1 93/3/1
f 95/2/2 96/2/2 98/2/2
f 96/3/2 97/3/2 99/3/2
f 98/2/2 96/2/2 99/2/2
f 99/3/2 97/3/2 100/3/2
f 99/3/2 100/3/2 102/3/2
f 100/2/2 101/2/2 103/2/2
f 102/3/2 100/3/2 103/3/2
f 103/2/2 101/2/2 104/2/2
f 103/1/2 104/1/2 105/1/2
f 105/1/2 104/1/2 106/1/2
f 107/3/2 108/3/2 109/3/2
f 109/3/2 108/3/2 110/3/2
f 111/2/2 112/2/2 114/2/2
f 114/2/2 112/2/2 115/2/2
f 113/3/2 114/3/2 116/3/2
f 114/1/2 115/1/2 116/1/2
f 116/1/2 115/1/2 117/1/2
f 113/3/2 116/3/2 118/3/2
f 118/3/2 116/3/2 119/3/2
f 120/2/2 121/2/2 124/2/2
f 124/2/2 121/2/2 125/2/2
f 122/2/2 123/2/2 126/2/2
f 122/2/2 126/2/2 130/2/2
f 130/2/2 126/2/2 131/2/2
f 127/2/2 128/2/2 132/2/2
f 132/2/2 128/2/2 133/2/2
f 129/2/2 130/2/2 134/2/2
f 134/2/2 130/2/2 135/2/2
f 133/1/2 134/1/2 138/1/2
f 138/1/2 134/1/2 139/1/2
f 135/3/2 136/3/2 140/3/2
f 136/3/2 137/3/2 140/3/2
f 140/3/2 137/3/2 141/3/2
f 141/3/2 137/3/2 142/3/2
f 141/2/2 142/2/2 143/2/2
f 143/2/2 142/2/2 144/2/2
f 143/1/2 144/1/2 145/1/2
f 145/1/2 144/1/2 146/1/2
f 147/2/2 148/2/2 151/2/2
f 151/2/2 148/2/2 152/2/2
f 149/2/2 150/2/2 156/2/2
f 156/2/2 150/2/2 157/2/2
f 153/1/2 154/1/2 158/1/2
f 158/1/2 154/1/2 159/1/2
f 155/2/2 156/2/2 161/2/2
f 161/2/2 156/2/2 162/2/2
f 159/2/2 160/2/2 163/2/2
f 158/2/2 159/2/2 163/2/2
f 163/2/2 160/2/2 164/2/2
f 164/2/2 160/2/2 165/2/2
f 165/3/2 166/3/2 167/3/2
f 167/3/2 166/3/2 168/3/2
f 169/2/2 170/2/2 174/2/2
f 170/1/2 171/1/2 175/1/2
f 174/2/2 170/2/2 175/2/2
f 175/1/2 171/1/2 176/1/2
f 172/1/2 173/1/2 178/1/2
f 178/1/2 173/1/2 179/1/2
f 177/2/2 178/2/2 180/2/2
f 180/2/2 178/2/2 181/2/2
f 182/2/2 183/2/2 184/2/2
f 184/2/2 183/2/2 185/2/2
f 184/3/2 185/3/2 186/3/2
f 186/3/2 185/3/2 187/3/2
f 188/2/2 189/2/2 193/2/2
f 189/1/2 190/1/2 194/1/2
f 193/2/2 189/2/2 194/2/2
f 194/1/2 190/1/2 195/1/2
f 191/2/2 192/2/2 196/2/2
f 196/2/2 192/2/2 197/2/2
f 200/2/3 199/2/3 198/2/3
f 201/2/3 199/2/3 200/2/3
f 204/2/3 203/2/3 202/2/3
f 205/2/3 203/2/3 204/2/3
f 208/3/3 207/3/3 206/3/3
f 209/3/3 207/3/3 208/3/3
f 212/2/3 211/2/3 210/2/3
f 213/2/3 211/2/3 212/2/3
f 216/2/3 215/2/3 214/2/3
f 217/2/3 215/2/3 216/2/3
f 222/1/3 219/1/3 218/1/3
f 223/3/3 220/3/3 219/3/3
f 223/1/3 219/1/3 222/1/3
f 224/2/3 221/2/3 220/2/3
f 224/3/3 220/3/3 223/3/3
f 225/2/3 221/2/3 224/2/3
f 226/2/3 221/2/3 225/2/3
f 227/2/3 223/2/3 222/2/3
f 228/2/3 223/2/3 227/2/3
f 229/2/3 225/2/3 224/2/3
f 230/2/3 225/2/3 229/2/3
f 233/2/3 232/2/3 231/2/3
f 234/2/3 232/2/3 233/2/3
f 239/3/3 236/3/3 235/3/3
f 240/3/3 236/3/3 239/3/3
f 241/2/3 238/2/3 237/2/3
f 242/2/3 238/2/3 241/2/3
f 248/2/3 244/2/3 243/2/3
f 249/2/3 244/2/3 248/2/3
f 250/1/3 246/1/3 245/1/3
f 251/1/3 246/1/3 250/1/3
f 252/1/3 248/1/3 247/1/3
f 253/2/3 249/2/3 248/2/3
f 253/1/3 248/1/3 252/1/3
f 254/3/3 250/3/3 249/3/3
f 254/2/3 249/2/3 253/2/3
f 255/3/3 250/3/3 254/3/3
f 260/2/3 256/2/3 255/2/3
f 260/2/3 255/2/3 254/2/3
f 261/3/3 257/3/3 256/3/3
f 261/2/3 256/2/3 260/2/3
f 262/3/3 257/3/3 261/3/3
f 263/2/3 259/2/3 258/2/3
f 264/2/3 259/2/3 263/2/3
f 269/3/3 266/3/3 265/3/3
f 270/3/3 266/3/3 269/3/3
f 271/2/3 268/2/3 267/2/3
f 272/2/3 268/2/3 271/2/3
f 275/2/3 274/2/3 273/2/3
f 276/2/3 274/2/3 275/2/3
f 279/2/3 278/2/3 277/2/3
f 280/2/3 278/2/3 279/2/3
f 283/3/3 282/3/3 281/3/3
f 284/3/3 282/3/3 283/3/3
f 288/3/3 286/3/3 285/3/3
f 289/3/3 286/3/3 288/3/3
f 290/3/3 288/3/3 287/3/3
f 291/3/3 288/3/3 290/3/3
f 294/1/3 293/1/3 292/1/3
f 295/1/3 293/1/3 294/1/3
f 301/2/3 297/2/3 296/2/3
f 302/1/3 298/1/3 297/1/3
f 302/2/3 297/2/3 301/2/3
f 303/1/3 298/1/3 302/1/3
f 304/2/3 300/2/3 299/2/3
f 305/2/3 300/2/3 304/2/3
f 308/2/3 307/2/3 306/2/3
f 309/2/3 307/2/3 308/2/3
f 310/3/4 311/3/4 312/3/4
f 312/3/4 311/3/4 313/3/4
f 314/2/4 315/2/4 317/2/4
f 315/1/4 316/1/4 318/1/4
f 317/2/4 315/2/4 318/2/4
f 318/1/4 316/1/4 319/1/4
f 320/1/4 321/1/4 323/1/4
f 323/1/4 321/1/4 324/1/4
f 322/3/4 323/3/4 325/3/4
f 325/3/4 323/3/4 326/3/4
f 326/2/4 327/2/4 329/2/4
f 325/2/4 326/2/4 329/2/4
f 327/3/4 328/3/4 330/3/4
f 329/2/4 327/2/4 330/2/4
f 330/3/4 328/3/4 331/3/4
f 332/3/4 333/3/4 334/3/4
f 334/3/4 333/3/4 335/3/4
f 335/3/4 333/3/4 336/3/4
f 335/2/4 336/2/4 337/2/4
f 337/2/4 336/2/4 338/2/4
f 339/2/4 340/2/4 341/2/4
f 341/2/4 340/2/4 342/2/4
f 342/2/4 340/2/4 343/2/4
f 341/2/4 342/2/4 345/2/4
f 345/2/4 342/2/4 346/2/4
f 344/1/4 345/1/4 347/1/4
f 347/1/4 345/1/4 348/1/4
f 349/2/4 350/2/4 351/2/4
f 351/2/4 350/2/4 352/2/4
f 352/2/4 353/2/4 356/2/4
f 356/2/4 353/2/4 357/2/4
f 354/3/4 355/3/4 359/3/4
f 359/3/4 355/3/4 360/3/4
f 357/3/4 358/3/4 361/3/4
f 356/3/4 357/3/4 361/3/4
f 361/3/4 358/3/4 362/3/4
f 362/3/4 358/3/4 363/3/4
f 363/2/4 364/2/4 365/2/4
f 362/2/4 363/2/4 365/2/4
f 365/2/4 364/2/4 366/2/4
f 366/2/4 364/2/4 367/2/4
f 366/3/4 367/3/4 368/3/4
f 368/3/4 367/3/4 369/3/4
f 370/2/4 371/2/4 372/2/4
f 372/2/4 371/2/4 373/2/4
f 374/2/4 375/2/4 377/2/4
f 375/1/4 376/1/4 378/1/4
f 377/2/4 375/2/4 378/2/4
f 378/1/4 376/1/4 379/1/4
f 380/3/4 381/3/4 386/3/4
f 386/3/4 381/3/4 387/3/4
f 382/3/4 383/3/4 388/3/4
f 383/2/4 384/2/4 389/2/4
f 388/3/4 383/3/4 389/3/4
f 384/1/4 385/1/4 390/1/4
f 389/2/4 384/2/4 390/2/4
f 390/1/4 385/1/4 391/1/4
f 386/2/4 387/2/4 393/2/4
f 393/2/4 387/2/4 394/2/4
f 392/2/4 393/2/4 395/2/4
f 395/2/4 393/2/4 396/2/4
f 397/3/4 398/3/4 399/3/4
f 399/3/4 398/3/4 400/3/4
f 399/2/4 400/2/4 401/2/4
f 401/2/4 400/2/4 402/2/4
f 406/2/5 404/2/5 403/2/5
f 407/2/5 404/2/5 406/2/5
f 408/2/5 404/2/5 407/2/5
f 409/2/5 404/2/5 408/2/5
f 412/2/5 406/2/5 405/2/5
f 413/1/5 407/1/5 406/1/5
f 413/2/5 406/2/5 412/2/5
f 414/3/5 408/3/5 407/3/5
f 414/1/5 407/1/5 413/1/5
f 415/2/5 410/2/5 409/2/5
f 415/3/5 408/3/5 414/3/5
f 415/2/5 409/2/5 408/2/5
f 416/2/5 410/2/5 415/2/5
f 418/2/5 414/2/5 413/2/5
f 418/2/5 412/2/5 411/2/5
f 418/2/5 413/2/5 412/2/5
f 418/2/5 415/2/5 414/2/5
f 419/2/5 415/2/5 418/2/5
f 420/1/5 416/1/5 415/1/5
f 420/2/5 415/2/5 419/2/5
f 421/1/5 416/1/5 420/1/5
f 423/2/5 421/2/5 420/2/5
f 423/2/5 422/2/5 421/2/5
f 423/2/5 420/2/5 419/2/5
f 424/2/5 422/2/5 423/2/5
f 425/2/5 418/2/5 417/2/5
f 425/1/5 419/1/5 418/1/5
f 426/2/5 423/2/5 419/2/5
f 426/1/5 419/1/5 425/1/5
f 427/2/5 423/2/5 426/2/5
f 428/1/5 424/1/5 423/1/5
f 428/2/5 423/2/5 427/2/5
f 429/1/5 424/1/5 428/1/5
f 430/2/5 427/2/5 426/2/5
f 430/2/5 425/2/5 417/2/5
f 430/2/5 426/2/5 425/2/5
f 431/2/5 427/2/5 430/2/5
f 432/2/5 427/2/5 431/2/5
f 433/2/5 427/2/5 432/2/5
f 434/1/5 428/1/5 427/1/5
f 434/2/5 427/2/5 433/2/5
f 435/1/5 428/1/5 434/1/5
f 437/2/5 432/2/5 431/2/5
f 438/2/5 432/2/5 437/2/5
f 439/3/5 433/3/5 432/3/5
f 439/2/5 432/2/5 438/2/5
f 440/2/5 436/2/5 435/2/5
f 440/3/5 433/3/5 439/3/5
f 440/2/5 435/2/5 434/2/5
f 440/2/5 434/2/5 433/2/5
f 441/2/5 436/2/5 440/2/5
f 442/2/5 436/2/5 441/2/5
f 443/3/5 439/3/5 438/3/5
f 444/2/5 441/2/5 440/2/5
f 444/3/5 439/3/5 443/3/5
f 444/2/5 440/2/5 439/2/5
f 445/2/5 441/2/5 444/2/5
f 450/2/5 447/2/5 446/2/5
f 451/2/5 447/2/5 450/2/5
f 454/2/5 449/2/5 448/2/5
f 455/2/5 449/2/5 454/2/5
f 456/2/5 453/2/5 452/2/5
f 457/2/5 453/2/5 456/2/5
f 460/3/5 459/3/5 458/3/5
f 461/3/5 459/3/5 460/3/5
f 464/3/5 463/3/5 462/3/5
f 465/3/5 463/3/5 464/3/5
f 468/3/5 467/3/5 466/3/5
f 469/3/5 467/3/5 468/3/5
f 472/3/5 471/3/5 470/3/5
f 473/3/5 471/3/5 472/3/5
f 476/2/5 475/2/5 474/2/5
f 477/2/5 475/2/5 476/2/5
f 478/2/6 479/2/6 481/2/6
f 481/2/6 479/2/6 482/2/6
f 482/2/6 479/2/6 483/2/6
f 483/2/6 479/2/6 484/2/6
f 480/2/6 481/2/6 487/2/6
f 481/1/6 482/1/6 488/1/6
f 487/2/6 481/2/6 488/2/6
f 482/3/6 483/3/6 489/3/6
f 488/1/6 482/1/6 489/1/6
f 484/2/6 485/2/6 490/2/6
f 489/3/6 483/3/6 490/3/6
f 483/2/6 484/2/6 490/2/6
f 490/2/6 485/2/6 491/2/6
f 486/2/6 487/2/6 493/2/6
f 487/2/6 488/2/6 493/2/6
f 493/2/6 488/2/6 494/2/6
f 494/2/6 488/2/6 495/2/6
f 490/1/6 491/1/6 496/1/6
f 496/1/6 491/1/6 497/1/6
f 497/1/6 491/1/6 498/1/6
f 493/1/6 494/1/6 500/1/6
f 497/2/6 498/2/6 501/2/6
f 498/2/6 499/2/6 501/2/6
f 501/2/6 499/2/6 502/2/6
f 502/2/6 499/2/6 503/2/6
f 493/1/6 500/1/6 504/1/6
f 492/2/6 493/2/6 504/2/6
f 504/1/6 500/1/6 505/1/6
f 502/1/6 503/1/6 508/1/6
f 508/1/6 503/1/6 509/1/6
f 492/2/6 504/2/6 510/2/6
f 510/2/6 504/2/6 511/2/6
f 506/2/6 507/2/6 514/2/6
f 507/1/6 508/1/6 515/1/6
f 514/2/6 507/2/6 515/2/6
f 515/1/6 508/1/6 516/1/6
f 511/2/6 512/2/6 518/2/6
f 518/2/6 512/2/6 519/2/6
f 512/3/6 513/3/6 520/3/6
f 519/2/6 512/2/6 520/2/6
f 520/3/6 513/3/6 521/3/6
f 516/2/6 517/2/6 523/2/6
f 515/2/6 516/2/6 523/2/6
f 523/2/6 517/2/6 524/2/6
f 519/3/6 520/3/6 525/3/6
f 521/2/6 522/2/6 526/2/6
f 525/3/6 520/3/6 526/3/6
f 520/2/6 521/2/6 526/2/6
f 522/2/6 523/2/6 526/2/6
f 526/2/6 523/2/6 527/2/6
f 528/2/6 529/2/6 532/2/6
f 532/2/6 529/2/6 533/2/6
f 530/3/6 531/3/6 534/3/6
f 534/3/6 531/3/6 535/3/6
f 536/2/6 537/2/6 541/2/6
f 541/2/6 537/2/6 542/2/6
f 539/2/6 540/2/6 543/2/6
f 538/2/6 539/2/6 543/2/6
f 543/2/6 540/2/6 544/2/6
f 545/3/6 546/3/6 548/3/6
f 546/2/6 547/2/6 549/2/6
f 548/3/6 546/3/6 549/3/6
f 549/2/6 547/2/6 550/2/6
f 551/2/6 552/2/6 555/2/6
f 555/2/6 552/2/6 556/2/6
f 553/3/6 554/3/6 557/3/6
f 557/3/6 554/3/6 558/3/6
f 559/2/6 560/2/6 563/2/6
f 563/2/6 560/2/6 564/2/6
f 561/2/6 562/2/6 566/2/6
f 562/2/6 563/2/6 566/2/6
f 566/2/6 563/2/6 567/2/6
f 567/2/6 563/2/6 568/2/6
f 564/3/6 565/3/6 569/3/6
f 569/3/6 565/3/6 570/3/6
f 567/2/6 568/2/6 571/2/6
f 568/2/6 569/2/6 571/2/6
f 571/2/6 569/2/6 572/2/6
f 572/2/6 569/2/6 573/2/6
f 573/3/6 574/3/6 575/3/6
f 575/3/6 574/3/6 576/3/6
f 577/1/6 578/1/6 581/1/6
f 581/1/6 578/1/6 582/1/6
f 579/2/6 580/2/6 583/2/6
f 583/2/6 580/2/6 584/2/6
f 585/3/6 586/3/6 587/3/6
f 587/3/6 586/3/6 588/3/6
f 589/1/6 590/1/6 591/1/6
f 591/1/6 590/1/6 592/1/6
f 593/3/6 594/3/6 595/3/6
f 595/3/6 594/3/6 596/3/6
f 597/3/6 598/3/6 599/3/6
f 599/3/6 598/3/6 600/3/6
f 601/3/6 602/3/6 603/3/6
f 603/3/6 602/3/6 604/3/6
f 605/1/6 606/1/6 609/1/6
f 609/1/6 606/1/6 610/1/6
f 607/1/6 608/1/6 611/1/6
f 611/1/6 608/1/6 612/1/6
