# MagicaVoxel @ Ephtracy

# group
g WormSegment

# material
mtllib WormSegment.mtl
usemtl palette

# normals
vn -1 0 0
vn 1 0 0
vn 0 0 1
vn 0 0 -1
vn 0 -1 0
vn 0 1 0

# texcoords
vt 0.162109 0.5
vt 0.166016 0.5
vt 0.189453 0.5
vt 0.216797 0.5

# verts
v -4 0 2
v -4 0 -2
v -4 1 1
v -4 1 -1
v -4 2 2
v -4 2 1
v -4 2 -1
v -4 2 -2
v -4 3 2
v -4 3 -2
v -4 4 1
v -4 4 -1
v -4 5 2
v -4 5 1
v -4 5 -1
v -4 5 -2
v -4 6 2
v -4 6 -2
v -3 0 3
v -3 0 2
v -3 0 -2
v -3 0 -3
v -3 2 2
v -3 2 -2
v -3 3 2
v -3 3 -2
v -3 5 2
v -3 5 -2
v -3 6 3
v -3 6 2
v -3 6 -2
v -3 6 -3
v -2 0 4
v -2 0 3
v -2 0 -3
v -2 0 -4
v -2 2 4
v -2 2 3
v -2 2 -3
v -2 2 -4
v -2 3 4
v -2 3 3
v -2 3 -3
v -2 3 -4
v -2 5 4
v -2 5 3
v -2 5 -3
v -2 5 -4
v -2 6 4
v -2 6 3
v -2 6 -3
v -2 6 -4
v 2 0 4
v 2 0 3
v 2 0 -3
v 2 0 -4
v 2 2 4
v 2 2 3
v 2 2 -3
v 2 2 -4
v 2 3 4
v 2 3 3
v 2 3 -3
v 2 3 -4
v 2 5 4
v 2 5 3
v 2 5 -3
v 2 5 -4
v 2 6 4
v 2 6 3
v 2 6 -3
v 2 6 -4
v 3 0 3
v 3 0 2
v 3 0 -2
v 3 0 -3
v 3 2 2
v 3 2 -2
v 3 3 2
v 3 3 -2
v 3 5 2
v 3 5 -2
v 3 6 3
v 3 6 2
v 3 6 -2
v 3 6 -3
v 4 0 2
v 4 0 -2
v 4 1 1
v 4 1 -1
v 4 2 2
v 4 2 1
v 4 2 -1
v 4 2 -2
v 4 3 2
v 4 3 -2
v 4 4 1
v 4 4 -1
v 4 5 2
v 4 5 1
v 4 5 -1
v 4 5 -2
v 4 6 2
v 4 6 -2
v -2 0 4
v -2 2 4
v -2 3 4
v -2 5 4
v -2 6 4
v -1 1 4
v -1 2 4
v -1 4 4
v -1 5 4
v 1 1 4
v 1 2 4
v 1 4 4
v 1 5 4
v 2 0 4
v 2 2 4
v 2 3 4
v 2 5 4
v 2 6 4
v -3 0 3
v -3 6 3
v -2 0 3
v -2 2 3
v -2 3 3
v -2 5 3
v -2 6 3
v 2 0 3
v 2 2 3
v 2 3 3
v 2 5 3
v 2 6 3
v 3 0 3
v 3 6 3
v -4 0 2
v -4 2 2
v -4 3 2
v -4 5 2
v -4 6 2
v -3 0 2
v -3 2 2
v -3 3 2
v -3 5 2
v -3 6 2
v 3 0 2
v 3 2 2
v 3 3 2
v 3 5 2
v 3 6 2
v 4 0 2
v 4 2 2
v 4 3 2
v 4 5 2
v 4 6 2
v -4 0 -2
v -4 2 -2
v -4 3 -2
v -4 5 -2
v -4 6 -2
v -3 0 -2
v -3 2 -2
v -3 3 -2
v -3 5 -2
v -3 6 -2
v 3 0 -2
v 3 2 -2
v 3 3 -2
v 3 5 -2
v 3 6 -2
v 4 0 -2
v 4 2 -2
v 4 3 -2
v 4 5 -2
v 4 6 -2
v -3 0 -3
v -3 6 -3
v -2 0 -3
v -2 2 -3
v -2 3 -3
v -2 5 -3
v -2 6 -3
v 2 0 -3
v 2 2 -3
v 2 3 -3
v 2 5 -3
v 2 6 -3
v 3 0 -3
v 3 6 -3
v -2 0 -4
v -2 2 -4
v -2 3 -4
v -2 5 -4
v -2 6 -4
v -1 1 -4
v -1 2 -4
v -1 4 -4
v -1 5 -4
v 1 1 -4
v 1 2 -4
v 1 4 -4
v 1 5 -4
v 2 0 -4
v 2 2 -4
v 2 3 -4
v 2 5 -4
v 2 6 -4
v -2 0 4
v 2 0 4
v -3 0 3
v -2 0 3
v 2 0 3
v 3 0 3
v -4 0 2
v -3 0 2
v -2 0 2
v 2 0 2
v 3 0 2
v 4 0 2
v -4 0 -2
v -3 0 -2
v -2 0 -2
v 2 0 -2
v 3 0 -2
v 4 0 -2
v -3 0 -3
v -2 0 -3
v 2 0 -3
v 3 0 -3
v -2 0 -4
v 2 0 -4
v -2 6 4
v 2 6 4
v -3 6 3
v -2 6 3
v 2 6 3
v 3 6 3
v -4 6 2
v -3 6 2
v -2 6 2
v 2 6 2
v 3 6 2
v 4 6 2
v -4 6 -2
v -3 6 -2
v -2 6 -2
v 2 6 -2
v 3 6 -2
v 4 6 -2
v -3 6 -3
v -2 6 -3
v 2 6 -3
v 3 6 -3
v -2 6 -4
v 2 6 -4

# faces
f 3/1/1 2/1/1 1/1/1
f 4/1/1 2/1/1 3/1/1
f 5/1/1 3/1/1 1/1/1
f 6/3/1 4/3/1 3/3/1
f 6/1/1 3/1/1 5/1/1
f 7/1/1 2/1/1 4/1/1
f 7/3/1 4/3/1 6/3/1
f 8/1/1 2/1/1 7/1/1
f 9/3/1 6/3/1 5/3/1
f 9/3/1 7/3/1 6/3/1
f 9/3/1 8/3/1 7/3/1
f 10/3/1 8/3/1 9/3/1
f 11/1/1 10/1/1 9/1/1
f 12/1/1 10/1/1 11/1/1
f 13/1/1 11/1/1 9/1/1
f 14/3/1 12/3/1 11/3/1
f 14/1/1 11/1/1 13/1/1
f 15/1/1 10/1/1 12/1/1
f 15/3/1 12/3/1 14/3/1
f 16/1/1 10/1/1 15/1/1
f 17/3/1 14/3/1 13/3/1
f 17/3/1 15/3/1 14/3/1
f 17/3/1 16/3/1 15/3/1
f 18/3/1 16/3/1 17/3/1
f 23/2/1 20/2/1 19/2/1
f 24/2/1 22/2/1 21/2/1
f 25/2/1 23/2/1 19/2/1
f 26/2/1 22/2/1 24/2/1
f 27/2/1 25/2/1 19/2/1
f 28/2/1 22/2/1 26/2/1
f 29/2/1 27/2/1 19/2/1
f 30/2/1 27/2/1 29/2/1
f 31/2/1 22/2/1 28/2/1
f 32/2/1 22/2/1 31/2/1
f 37/1/1 34/1/1 33/1/1
f 38/1/1 34/1/1 37/1/1
f 39/1/1 36/1/1 35/1/1
f 40/1/1 36/1/1 39/1/1
f 41/3/1 38/3/1 37/3/1
f 42/3/1 38/3/1 41/3/1
f 43/3/1 40/3/1 39/3/1
f 44/3/1 40/3/1 43/3/1
f 45/1/1 42/1/1 41/1/1
f 46/1/1 42/1/1 45/1/1
f 47/1/1 44/1/1 43/1/1
f 48/1/1 44/1/1 47/1/1
f 49/3/1 46/3/1 45/3/1
f 50/3/1 46/3/1 49/3/1
f 51/3/1 48/3/1 47/3/1
f 52/3/1 48/3/1 51/3/1
f 53/1/2 54/1/2 57/1/2
f 57/1/2 54/1/2 58/1/2
f 55/1/2 56/1/2 59/1/2
f 59/1/2 56/1/2 60/1/2
f 57/3/2 58/3/2 61/3/2
f 61/3/2 58/3/2 62/3/2
f 59/3/2 60/3/2 63/3/2
f 63/3/2 60/3/2 64/3/2
f 61/1/2 62/1/2 65/1/2
f 65/1/2 62/1/2 66/1/2
f 63/1/2 64/1/2 67/1/2
f 67/1/2 64/1/2 68/1/2
f 65/3/2 66/3/2 69/3/2
f 69/3/2 66/3/2 70/3/2
f 67/3/2 68/3/2 71/3/2
f 71/3/2 68/3/2 72/3/2
f 73/2/2 74/2/2 77/2/2
f 75/2/2 76/2/2 78/2/2
f 73/2/2 77/2/2 79/2/2
f 78/2/2 76/2/2 80/2/2
f 73/2/2 79/2/2 81/2/2
f 80/2/2 76/2/2 82/2/2
f 73/2/2 81/2/2 83/2/2
f 83/2/2 81/2/2 84/2/2
f 82/2/2 76/2/2 85/2/2
f 85/2/2 76/2/2 86/2/2
f 87/1/2 88/1/2 89/1/2
f 89/1/2 88/1/2 90/1/2
f 87/1/2 89/1/2 91/1/2
f 89/3/2 90/3/2 92/3/2
f 91/1/2 89/1/2 92/1/2
f 90/1/2 88/1/2 93/1/2
f 92/3/2 90/3/2 93/3/2
f 93/1/2 88/1/2 94/1/2
f 91/3/2 92/3/2 95/3/2
f 92/3/2 93/3/2 95/3/2
f 93/3/2 94/3/2 95/3/2
f 95/3/2 94/3/2 96/3/2
f 95/1/2 96/1/2 97/1/2
f 97/1/2 96/1/2 98/1/2
f 95/1/2 97/1/2 99/1/2
f 97/3/2 98/3/2 100/3/2
f 99/1/2 97/1/2 100/1/2
f 98/1/2 96/1/2 101/1/2
f 100/3/2 98/3/2 101/3/2
f 101/1/2 96/1/2 102/1/2
f 99/3/2 100/3/2 103/3/2
f 100/3/2 101/3/2 103/3/2
f 101/3/2 102/3/2 103/3/2
f 103/3/2 102/3/2 104/3/2
f 110/1/3 106/1/3 105/1/3
f 111/3/3 107/3/3 106/3/3
f 111/1/3 106/1/3 110/1/3
f 112/1/3 108/1/3 107/1/3
f 113/3/3 109/3/3 108/3/3
f 113/1/3 108/1/3 112/1/3
f 114/1/3 110/1/3 105/1/3
f 114/3/3 111/3/3 110/3/3
f 115/3/3 107/3/3 111/3/3
f 115/3/3 111/3/3 114/3/3
f 116/1/3 112/1/3 107/1/3
f 116/3/3 113/3/3 112/3/3
f 117/3/3 109/3/3 113/3/3
f 117/3/3 113/3/3 116/3/3
f 118/1/3 114/1/3 105/1/3
f 118/1/3 115/1/3 114/1/3
f 119/3/3 107/3/3 115/3/3
f 119/1/3 115/1/3 118/1/3
f 120/1/3 116/1/3 107/1/3
f 120/3/3 107/3/3 119/3/3
f 120/1/3 117/1/3 116/1/3
f 121/3/3 109/3/3 117/3/3
f 121/1/3 117/1/3 120/1/3
f 122/3/3 109/3/3 121/3/3
f 125/2/3 124/2/3 123/2/3
f 126/2/3 124/2/3 125/2/3
f 127/2/3 124/2/3 126/2/3
f 128/2/3 124/2/3 127/2/3
f 129/2/3 124/2/3 128/2/3
f 135/2/3 131/2/3 130/2/3
f 135/2/3 134/2/3 133/2/3
f 135/2/3 133/2/3 132/2/3
f 135/2/3 132/2/3 131/2/3
f 136/2/3 134/2/3 135/2/3
f 142/1/3 138/1/3 137/1/3
f 143/3/3 139/3/3 138/3/3
f 143/1/3 138/1/3 142/1/3
f 144/1/3 140/1/3 139/1/3
f 144/3/3 139/3/3 143/3/3
f 145/3/3 141/3/3 140/3/3
f 145/1/3 140/1/3 144/1/3
f 146/3/3 141/3/3 145/3/3
f 152/1/3 148/1/3 147/1/3
f 153/3/3 149/3/3 148/3/3
f 153/1/3 148/1/3 152/1/3
f 154/1/3 150/1/3 149/1/3
f 154/3/3 149/3/3 153/3/3
f 155/3/3 151/3/3 150/3/3
f 155/1/3 150/1/3 154/1/3
f 156/3/3 151/3/3 155/3/3
f 157/1/4 158/1/4 162/1/4
f 158/3/4 159/3/4 163/3/4
f 162/1/4 158/1/4 163/1/4
f 159/1/4 160/1/4 164/1/4
f 163/3/4 159/3/4 164/3/4
f 160/3/4 161/3/4 165/3/4
f 164/1/4 160/1/4 165/1/4
f 165/3/4 161/3/4 166/3/4
f 167/1/4 168/1/4 172/1/4
f 168/3/4 169/3/4 173/3/4
f 172/1/4 168/1/4 173/1/4
f 169/1/4 170/1/4 174/1/4
f 173/3/4 169/3/4 174/3/4
f 170/3/4 171/3/4 175/3/4
f 174/1/4 170/1/4 175/1/4
f 175/3/4 171/3/4 176/3/4
f 177/2/4 178/2/4 179/2/4
f 179/2/4 178/2/4 180/2/4
f 180/2/4 178/2/4 181/2/4
f 181/2/4 178/2/4 182/2/4
f 182/2/4 178/2/4 183/2/4
f 184/2/4 185/2/4 189/2/4
f 187/2/4 188/2/4 189/2/4
f 186/2/4 187/2/4 189/2/4
f 185/2/4 186/2/4 189/2/4
f 189/2/4 188/2/4 190/2/4
f 191/1/4 192/1/4 196/1/4
f 192/3/4 193/3/4 197/3/4
f 196/1/4 192/1/4 197/1/4
f 193/1/4 194/1/4 198/1/4
f 194/3/4 195/3/4 199/3/4
f 198/1/4 194/1/4 199/1/4
f 191/1/4 196/1/4 200/1/4
f 196/3/4 197/3/4 200/3/4
f 197/3/4 193/3/4 201/3/4
f 200/3/4 197/3/4 201/3/4
f 193/1/4 198/1/4 202/1/4
f 198/3/4 199/3/4 202/3/4
f 199/3/4 195/3/4 203/3/4
f 202/3/4 199/3/4 203/3/4
f 191/1/4 200/1/4 204/1/4
f 200/1/4 201/1/4 204/1/4
f 201/3/4 193/3/4 205/3/4
f 204/1/4 201/1/4 205/1/4
f 193/1/4 202/1/4 206/1/4
f 205/3/4 193/3/4 206/3/4
f 202/1/4 203/1/4 206/1/4
f 203/3/4 195/3/4 207/3/4
f 206/1/4 203/1/4 207/1/4
f 207/3/4 195/3/4 208/3/4
f 212/1/5 210/1/5 209/1/5
f 213/1/5 210/1/5 212/1/5
f 216/2/5 212/2/5 211/2/5
f 217/4/5 213/4/5 212/4/5
f 217/2/5 212/2/5 216/2/5
f 218/2/5 214/2/5 213/2/5
f 218/4/5 213/4/5 217/4/5
f 219/2/5 214/2/5 218/2/5
f 221/1/5 216/1/5 215/1/5
f 222/4/5 217/4/5 216/4/5
f 222/1/5 216/1/5 221/1/5
f 222/4/5 218/4/5 217/4/5
f 222/4/5 219/4/5 218/4/5
f 223/4/5 219/4/5 222/4/5
f 224/4/5 219/4/5 223/4/5
f 225/1/5 220/1/5 219/1/5
f 225/4/5 219/4/5 224/4/5
f 226/1/5 220/1/5 225/1/5
f 227/2/5 223/2/5 222/2/5
f 228/4/5 224/4/5 223/4/5
f 228/2/5 223/2/5 227/2/5
f 229/2/5 225/2/5 224/2/5
f 229/4/5 224/4/5 228/4/5
f 230/2/5 225/2/5 229/2/5
f 231/1/5 229/1/5 228/1/5
f 232/1/5 229/1/5 231/1/5
f 233/3/6 234/3/6 236/3/6
f 236/3/6 234/3/6 237/3/6
f 235/2/6 236/2/6 240/2/6
f 236/4/6 237/4/6 241/4/6
f 240/2/6 236/2/6 241/2/6
f 237/2/6 238/2/6 242/2/6
f 241/4/6 237/4/6 242/4/6
f 242/2/6 238/2/6 243/2/6
f 239/3/6 240/3/6 245/3/6
f 240/4/6 241/4/6 246/4/6
f 245/3/6 240/3/6 246/3/6
f 241/4/6 242/4/6 246/4/6
f 242/4/6 243/4/6 246/4/6
f 246/4/6 243/4/6 247/4/6
f 247/4/6 243/4/6 248/4/6
f 243/3/6 244/3/6 249/3/6
f 248/4/6 243/4/6 249/4/6
f 249/3/6 244/3/6 250/3/6
f 246/2/6 247/2/6 251/2/6
f 247/4/6 248/4/6 252/4/6
f 251/2/6 247/2/6 252/2/6
f 248/2/6 249/2/6 253/2/6
f 252/4/6 248/4/6 253/4/6
f 253/2/6 249/2/6 254/2/6
f 252/3/6 253/3/6 255/3/6
f 255/3/6 253/3/6 256/3/6
