# MagicaVoxel @ Ephtracy

# group
g TrainSign3

# material
mtllib TrainSign3.mtl
usemtl palette

# normals
vn -1 0 0
vn 1 0 0
vn 0 0 1
vn 0 0 -1
vn 0 -1 0
vn 0 1 0

# texcoords
vt 0.0136719 0.5
vt 0.248047 0.5

# verts
v -5.5 3 -1
v -5.5 3 -2
v -5.5 8 -1
v -5.5 8 -2
v -4.5 2 -1
v -4.5 2 -2
v -4.5 3 -1
v -4.5 3 -2
v -4.5 8 -1
v -4.5 8 -2
v -4.5 9 -1
v -4.5 9 -2
v -3.5 1 -1
v -3.5 1 -2
v -3.5 2 -1
v -3.5 2 -2
v -3.5 4 2
v -3.5 4 -1
v -3.5 7 2
v -3.5 7 -1
v -3.5 9 -1
v -3.5 9 -2
v -3.5 10 -1
v -3.5 10 -2
v -2.5 0 -1
v -2.5 0 -2
v -2.5 1 -1
v -2.5 1 -2
v -2.5 3 2
v -2.5 3 -1
v -2.5 4 2
v -2.5 4 -1
v -2.5 7 2
v -2.5 7 -1
v -2.5 8 2
v -2.5 8 -1
v -2.5 10 -1
v -2.5 10 -2
v -2.5 11 -1
v -2.5 11 -2
v -1.5 2 2
v -1.5 2 -1
v -1.5 3 2
v -1.5 3 -1
v -1.5 8 2
v -1.5 8 -1
v -1.5 9 2
v -1.5 9 -1
v 1.5 2 2
v 1.5 2 -1
v 1.5 3 2
v 1.5 3 -1
v 1.5 8 2
v 1.5 8 -1
v 1.5 9 2
v 1.5 9 -1
v 2.5 0 -1
v 2.5 0 -2
v 2.5 1 -1
v 2.5 1 -2
v 2.5 3 2
v 2.5 3 -1
v 2.5 4 2
v 2.5 4 -1
v 2.5 7 2
v 2.5 7 -1
v 2.5 8 2
v 2.5 8 -1
v 2.5 10 -1
v 2.5 10 -2
v 2.5 11 -1
v 2.5 11 -2
v 3.5 1 -1
v 3.5 1 -2
v 3.5 2 -1
v 3.5 2 -2
v 3.5 4 2
v 3.5 4 -1
v 3.5 7 2
v 3.5 7 -1
v 3.5 9 -1
v 3.5 9 -2
v 3.5 10 -1
v 3.5 10 -2
v 4.5 2 -1
v 4.5 2 -2
v 4.5 3 -1
v 4.5 3 -2
v 4.5 8 -1
v 4.5 8 -2
v 4.5 9 -1
v 4.5 9 -2
v 5.5 3 -1
v 5.5 3 -2
v 5.5 8 -1
v 5.5 8 -2
v -3.5 4 2
v -3.5 7 2
v -2.5 3 2
v -2.5 4 2
v -2.5 7 2
v -2.5 8 2
v -1.5 2 2
v -1.5 3 2
v -1.5 8 2
v -1.5 9 2
v 1.5 2 2
v 1.5 3 2
v 1.5 8 2
v 1.5 9 2
v 2.5 3 2
v 2.5 4 2
v 2.5 7 2
v 2.5 8 2
v 3.5 4 2
v 3.5 7 2
v -5.5 3 -1
v -5.5 8 -1
v -4.5 2 -1
v -4.5 3 -1
v -4.5 8 -1
v -4.5 9 -1
v -3.5 1 -1
v -3.5 2 -1
v -3.5 4 -1
v -3.5 7 -1
v -3.5 9 -1
v -3.5 10 -1
v -2.5 0 -1
v -2.5 1 -1
v -2.5 3 -1
v -2.5 4 -1
v -2.5 7 -1
v -2.5 8 -1
v -2.5 10 -1
v -2.5 11 -1
v -1.5 2 -1
v -1.5 3 -1
v -1.5 8 -1
v -1.5 9 -1
v 1.5 2 -1
v 1.5 3 -1
v 1.5 8 -1
v 1.5 9 -1
v 2.5 0 -1
v 2.5 1 -1
v 2.5 3 -1
v 2.5 4 -1
v 2.5 7 -1
v 2.5 8 -1
v 2.5 10 -1
v 2.5 11 -1
v 3.5 1 -1
v 3.5 2 -1
v 3.5 4 -1
v 3.5 7 -1
v 3.5 9 -1
v 3.5 10 -1
v 4.5 2 -1
v 4.5 3 -1
v 4.5 8 -1
v 4.5 9 -1
v 5.5 3 -1
v 5.5 8 -1
v -5.5 3 -2
v -5.5 8 -2
v -4.5 2 -2
v -4.5 3 -2
v -4.5 8 -2
v -4.5 9 -2
v -3.5 1 -2
v -3.5 2 -2
v -3.5 9 -2
v -3.5 10 -2
v -2.5 0 -2
v -2.5 1 -2
v -2.5 10 -2
v -2.5 11 -2
v 2.5 0 -2
v 2.5 1 -2
v 2.5 10 -2
v 2.5 11 -2
v 3.5 1 -2
v 3.5 2 -2
v 3.5 9 -2
v 3.5 10 -2
v 4.5 2 -2
v 4.5 3 -2
v 4.5 8 -2
v 4.5 9 -2
v 5.5 3 -2
v 5.5 8 -2
v -2.5 0 -1
v 2.5 0 -1
v -2.5 0 -2
v 2.5 0 -2
v -3.5 1 -1
v -2.5 1 -1
v 2.5 1 -1
v 3.5 1 -1
v -3.5 1 -2
v -2.5 1 -2
v 2.5 1 -2
v 3.5 1 -2
v -1.5 2 2
v 1.5 2 2
v -4.5 2 -1
v -3.5 2 -1
v -1.5 2 -1
v 1.5 2 -1
v 3.5 2 -1
v 4.5 2 -1
v -4.5 2 -2
v -3.5 2 -2
v 3.5 2 -2
v 4.5 2 -2
v -2.5 3 2
v -1.5 3 2
v 1.5 3 2
v 2.5 3 2
v -5.5 3 -1
v -4.5 3 -1
v -2.5 3 -1
v -1.5 3 -1
v 1.5 3 -1
v 2.5 3 -1
v 4.5 3 -1
v 5.5 3 -1
v -5.5 3 -2
v -4.5 3 -2
v 4.5 3 -2
v 5.5 3 -2
v -3.5 4 2
v -2.5 4 2
v 2.5 4 2
v 3.5 4 2
v -3.5 4 -1
v -2.5 4 -1
v 2.5 4 -1
v 3.5 4 -1
v -3.5 7 2
v -2.5 7 2
v 2.5 7 2
v 3.5 7 2
v -3.5 7 -1
v -2.5 7 -1
v 2.5 7 -1
v 3.5 7 -1
v -2.5 8 2
v -1.5 8 2
v 1.5 8 2
v 2.5 8 2
v -5.5 8 -1
v -4.5 8 -1
v -2.5 8 -1
v -1.5 8 -1
v 1.5 8 -1
v 2.5 8 -1
v 4.5 8 -1
v 5.5 8 -1
v -5.5 8 -2
v -4.5 8 -2
v 4.5 8 -2
v 5.5 8 -2
v -1.5 9 2
v 1.5 9 2
v -4.5 9 -1
v -3.5 9 -1
v -1.5 9 -1
v 1.5 9 -1
v 3.5 9 -1
v 4.5 9 -1
v -4.5 9 -2
v -3.5 9 -2
v 3.5 9 -2
v 4.5 9 -2
v -3.5 10 -1
v -2.5 10 -1
v 2.5 10 -1
v 3.5 10 -1
v -3.5 10 -2
v -2.5 10 -2
v 2.5 10 -2
v 3.5 10 -2
v -2.5 11 -1
v 2.5 11 -1
v -2.5 11 -2
v 2.5 11 -2

# faces
f 3/1/1 2/1/1 1/1/1
f 4/1/1 2/1/1 3/1/1
f 7/1/1 6/1/1 5/1/1
f 8/1/1 6/1/1 7/1/1
f 11/1/1 10/1/1 9/1/1
f 12/1/1 10/1/1 11/1/1
f 15/1/1 14/1/1 13/1/1
f 16/1/1 14/1/1 15/1/1
f 19/2/1 18/2/1 17/2/1
f 20/2/1 18/2/1 19/2/1
f 23/1/1 22/1/1 21/1/1
f 24/1/1 22/1/1 23/1/1
f 27/1/1 26/1/1 25/1/1
f 28/1/1 26/1/1 27/1/1
f 31/2/1 30/2/1 29/2/1
f 32/2/1 30/2/1 31/2/1
f 35/2/1 34/2/1 33/2/1
f 36/2/1 34/2/1 35/2/1
f 39/1/1 38/1/1 37/1/1
f 40/1/1 38/1/1 39/1/1
f 43/2/1 42/2/1 41/2/1
f 44/2/1 42/2/1 43/2/1
f 47/2/1 46/2/1 45/2/1
f 48/2/1 46/2/1 47/2/1
f 49/2/2 50/2/2 51/2/2
f 51/2/2 50/2/2 52/2/2
f 53/2/2 54/2/2 55/2/2
f 55/2/2 54/2/2 56/2/2
f 57/1/2 58/1/2 59/1/2
f 59/1/2 58/1/2 60/1/2
f 61/2/2 62/2/2 63/2/2
f 63/2/2 62/2/2 64/2/2
f 65/2/2 66/2/2 67/2/2
f 67/2/2 66/2/2 68/2/2
f 69/1/2 70/1/2 71/1/2
f 71/1/2 70/1/2 72/1/2
f 73/1/2 74/1/2 75/1/2
f 75/1/2 74/1/2 76/1/2
f 77/2/2 78/2/2 79/2/2
f 79/2/2 78/2/2 80/2/2
f 81/1/2 82/1/2 83/1/2
f 83/1/2 82/1/2 84/1/2
f 85/1/2 86/1/2 87/1/2
f 87/1/2 86/1/2 88/1/2
f 89/1/2 90/1/2 91/1/2
f 91/1/2 90/1/2 92/1/2
f 93/1/2 94/1/2 95/1/2
f 95/1/2 94/1/2 96/1/2
f 100/2/3 98/2/3 97/2/3
f 101/2/3 98/2/3 100/2/3
f 104/2/3 100/2/3 99/2/3
f 104/2/3 102/2/3 101/2/3
f 104/2/3 101/2/3 100/2/3
f 105/2/3 102/2/3 104/2/3
f 107/2/3 104/2/3 103/2/3
f 107/2/3 106/2/3 105/2/3
f 107/2/3 105/2/3 104/2/3
f 108/2/3 106/2/3 107/2/3
f 109/2/3 106/2/3 108/2/3
f 110/2/3 106/2/3 109/2/3
f 111/2/3 109/2/3 108/2/3
f 112/2/3 109/2/3 111/2/3
f 113/2/3 109/2/3 112/2/3
f 114/2/3 109/2/3 113/2/3
f 115/2/3 113/2/3 112/2/3
f 116/2/3 113/2/3 115/2/3
f 120/1/3 118/1/3 117/1/3
f 121/1/3 118/1/3 120/1/3
f 124/1/3 120/1/3 119/1/3
f 124/1/3 122/1/3 121/1/3
f 124/1/3 121/1/3 120/1/3
f 125/1/3 122/1/3 124/1/3
f 126/1/3 122/1/3 125/1/3
f 127/1/3 122/1/3 126/1/3
f 130/1/3 124/1/3 123/1/3
f 130/1/3 125/1/3 124/1/3
f 131/1/3 125/1/3 130/1/3
f 132/1/3 125/1/3 131/1/3
f 133/1/3 127/1/3 126/1/3
f 133/1/3 128/1/3 127/1/3
f 134/1/3 128/1/3 133/1/3
f 135/1/3 128/1/3 134/1/3
f 137/1/3 131/1/3 130/1/3
f 137/1/3 130/1/3 129/1/3
f 138/1/3 131/1/3 137/1/3
f 139/1/3 136/1/3 135/1/3
f 139/1/3 135/1/3 134/1/3
f 140/1/3 136/1/3 139/1/3
f 141/1/3 137/1/3 129/1/3
f 144/1/3 136/1/3 140/1/3
f 145/1/3 142/1/3 141/1/3
f 145/1/3 141/1/3 129/1/3
f 146/1/3 142/1/3 145/1/3
f 147/1/3 142/1/3 146/1/3
f 150/1/3 144/1/3 143/1/3
f 151/1/3 136/1/3 144/1/3
f 151/1/3 144/1/3 150/1/3
f 152/1/3 136/1/3 151/1/3
f 153/1/3 148/1/3 147/1/3
f 153/1/3 147/1/3 146/1/3
f 154/1/3 148/1/3 153/1/3
f 155/1/3 148/1/3 154/1/3
f 156/1/3 150/1/3 149/1/3
f 156/1/3 151/1/3 150/1/3
f 157/1/3 151/1/3 156/1/3
f 158/1/3 151/1/3 157/1/3
f 159/1/3 155/1/3 154/1/3
f 159/1/3 157/1/3 156/1/3
f 159/1/3 156/1/3 155/1/3
f 160/1/3 157/1/3 159/1/3
f 161/1/3 157/1/3 160/1/3
f 162/1/3 157/1/3 161/1/3
f 163/1/3 161/1/3 160/1/3
f 164/1/3 161/1/3 163/1/3
f 165/1/4 166/1/4 168/1/4
f 168/1/4 166/1/4 169/1/4
f 167/1/4 168/1/4 172/1/4
f 169/1/4 170/1/4 172/1/4
f 168/1/4 169/1/4 172/1/4
f 172/1/4 170/1/4 173/1/4
f 171/1/4 172/1/4 176/1/4
f 173/1/4 174/1/4 176/1/4
f 172/1/4 173/1/4 176/1/4
f 176/1/4 174/1/4 177/1/4
f 175/1/4 176/1/4 179/1/4
f 177/1/4 178/1/4 179/1/4
f 176/1/4 177/1/4 179/1/4
f 179/1/4 178/1/4 180/1/4
f 180/1/4 178/1/4 181/1/4
f 181/1/4 178/1/4 182/1/4
f 180/1/4 181/1/4 183/1/4
f 183/1/4 181/1/4 184/1/4
f 184/1/4 181/1/4 185/1/4
f 185/1/4 181/1/4 186/1/4
f 184/1/4 185/1/4 187/1/4
f 187/1/4 185/1/4 188/1/4
f 188/1/4 185/1/4 189/1/4
f 189/1/4 185/1/4 190/1/4
f 188/1/4 189/1/4 191/1/4
f 191/1/4 189/1/4 192/1/4
f 195/1/5 194/1/5 193/1/5
f 196/1/5 194/1/5 195/1/5
f 201/1/5 198/1/5 197/1/5
f 202/1/5 198/1/5 201/1/5
f 203/1/5 200/1/5 199/1/5
f 204/1/5 200/1/5 203/1/5
f 209/2/5 206/2/5 205/2/5
f 210/2/5 206/2/5 209/2/5
f 213/1/5 208/1/5 207/1/5
f 214/1/5 208/1/5 213/1/5
f 215/1/5 212/1/5 211/1/5
f 216/1/5 212/1/5 215/1/5
f 223/2/5 218/2/5 217/2/5
f 224/2/5 218/2/5 223/2/5
f 225/2/5 220/2/5 219/2/5
f 226/2/5 220/2/5 225/2/5
f 229/1/5 222/1/5 221/1/5
f 230/1/5 222/1/5 229/1/5
f 231/1/5 228/1/5 227/1/5
f 232/1/5 228/1/5 231/1/5
f 237/2/5 234/2/5 233/2/5
f 238/2/5 234/2/5 237/2/5
f 239/2/5 236/2/5 235/2/5
f 240/2/5 236/2/5 239/2/5
f 241/2/6 242/2/6 245/2/6
f 245/2/6 242/2/6 246/2/6
f 243/2/6 244/2/6 247/2/6
f 247/2/6 244/2/6 248/2/6
f 249/2/6 250/2/6 255/2/6
f 255/2/6 250/2/6 256/2/6
f 251/2/6 252/2/6 257/2/6
f 257/2/6 252/2/6 258/2/6
f 253/1/6 254/1/6 261/1/6
f 261/1/6 254/1/6 262/1/6
f 259/1/6 260/1/6 263/1/6
f 263/1/6 260/1/6 264/1/6
f 265/2/6 266/2/6 269/2/6
f 269/2/6 266/2/6 270/2/6
f 267/1/6 268/1/6 273/1/6
f 273/1/6 268/1/6 274/1/6
f 271/1/6 272/1/6 275/1/6
f 275/1/6 272/1/6 276/1/6
f 277/1/6 278/1/6 281/1/6
f 281/1/6 278/1/6 282/1/6
f 279/1/6 280/1/6 283/1/6
f 283/1/6 280/1/6 284/1/6
f 285/1/6 286/1/6 287/1/6
f 287/1/6 286/1/6 288/1/6
