# MagicaVoxel @ Ephtracy

# group
g FlameSword

# material
mtllib FlameSword.mtl
usemtl palette

# normals
vn -1 0 0
vn 1 0 0
vn 0 0 1
vn 0 0 -1
vn 0 -1 0
vn 0 1 0

# texcoords
vt 0.0761719 0.5
vt 0.232422 0.5
vt 0.236328 0.5

# verts
v -2 2 1
v -2 2 -0
v -2 8 1
v -2 8 -0
v -1 0 1
v -1 0 -0
v -1 2 1
v -1 2 -0
v -1 8 1
v -1 8 -0
v -1 9 1
v -1 9 -0
v -1 10 1
v -1 10 -0
v 0 0 1
v 0 0 -0
v 0 2 1
v 0 2 -0
v 0 3 1
v 0 3 -0
v 0 8 1
v 0 8 -0
v 0 9 1
v 0 9 -0
v 0 10 1
v 0 10 -0
v 1 3 1
v 1 3 -0
v 1 4 1
v 1 4 -0
v 1 7 1
v 1 7 -0
v 1 8 1
v 1 8 -0
v -2 2 1
v -2 8 1
v -1 0 1
v -1 2 1
v -1 8 1
v -1 9 1
v -1 10 1
v 0 0 1
v 0 2 1
v 0 3 1
v 0 4 1
v 0 7 1
v 0 8 1
v 0 9 1
v 0 10 1
v 1 3 1
v 1 4 1
v 1 7 1
v 1 8 1
v -2 2 -0
v -2 8 -0
v -1 0 -0
v -1 2 -0
v -1 8 -0
v -1 9 -0
v -1 10 -0
v 0 0 -0
v 0 2 -0
v 0 3 -0
v 0 4 -0
v 0 7 -0
v 0 8 -0
v 0 9 -0
v 0 10 -0
v 1 3 -0
v 1 4 -0
v 1 7 -0
v 1 8 -0
v -1 0 1
v 0 0 1
v -1 0 -0
v 0 0 -0
v -2 2 1
v -1 2 1
v -2 2 -0
v -1 2 -0
v 0 3 1
v 1 3 1
v 0 3 -0
v 1 3 -0
v -2 8 1
v -1 8 1
v 0 8 1
v 1 8 1
v -2 8 -0
v -1 8 -0
v 0 8 -0
v 1 8 -0
v -1 10 1
v 0 10 1
v -1 10 -0
v 0 10 -0

# faces
f 3/2/1 2/2/1 1/2/1
f 4/2/1 2/2/1 3/2/1
f 7/1/1 6/1/1 5/1/1
f 8/1/1 6/1/1 7/1/1
f 11/3/1 10/3/1 9/3/1
f 12/3/1 10/3/1 11/3/1
f 13/2/1 12/2/1 11/2/1
f 14/2/1 12/2/1 13/2/1
f 15/1/2 16/1/2 17/1/2
f 17/1/2 16/1/2 18/1/2
f 17/3/2 18/3/2 19/3/2
f 19/3/2 18/3/2 20/3/2
f 21/3/2 22/3/2 23/3/2
f 23/3/2 22/3/2 24/3/2
f 23/2/2 24/2/2 25/2/2
f 25/2/2 24/2/2 26/2/2
f 27/2/2 28/2/2 29/2/2
f 29/2/2 28/2/2 30/2/2
f 29/3/2 30/3/2 31/3/2
f 31/3/2 30/3/2 32/3/2
f 31/2/2 32/2/2 33/2/2
f 33/2/2 32/2/2 34/2/2
f 38/2/3 36/2/3 35/2/3
f 39/2/3 36/2/3 38/2/3
f 42/1/3 38/1/3 37/1/3
f 43/3/3 39/3/3 38/3/3
f 43/1/3 38/1/3 42/1/3
f 43/3/3 40/3/3 39/3/3
f 44/3/3 40/3/3 43/3/3
f 45/3/3 40/3/3 44/3/3
f 46/3/3 40/3/3 45/3/3
f 47/3/3 40/3/3 46/3/3
f 48/2/3 41/2/3 40/2/3
f 48/3/3 40/3/3 47/3/3
f 49/2/3 41/2/3 48/2/3
f 50/2/3 45/2/3 44/2/3
f 51/3/3 46/3/3 45/3/3
f 51/2/3 45/2/3 50/2/3
f 52/2/3 47/2/3 46/2/3
f 52/3/3 46/3/3 51/3/3
f 53/2/3 47/2/3 52/2/3
f 54/2/4 55/2/4 57/2/4
f 57/2/4 55/2/4 58/2/4
f 56/1/4 57/1/4 61/1/4
f 57/3/4 58/3/4 62/3/4
f 61/1/4 57/1/4 62/1/4
f 58/3/4 59/3/4 62/3/4
f 62/3/4 59/3/4 63/3/4
f 63/3/4 59/3/4 64/3/4
f 64/3/4 59/3/4 65/3/4
f 65/3/4 59/3/4 66/3/4
f 59/2/4 60/2/4 67/2/4
f 66/3/4 59/3/4 67/3/4
f 67/2/4 60/2/4 68/2/4
f 63/2/4 64/2/4 69/2/4
f 64/3/4 65/3/4 70/3/4
f 69/2/4 64/2/4 70/2/4
f 65/2/4 66/2/4 71/2/4
f 70/3/4 65/3/4 71/3/4
f 71/2/4 66/2/4 72/2/4
f 75/1/5 74/1/5 73/1/5
f 76/1/5 74/1/5 75/1/5
f 79/2/5 78/2/5 77/2/5
f 80/2/5 78/2/5 79/2/5
f 83/2/5 82/2/5 81/2/5
f 84/2/5 82/2/5 83/2/5
f 85/2/6 86/2/6 89/2/6
f 89/2/6 86/2/6 90/2/6
f 87/2/6 88/2/6 91/2/6
f 91/2/6 88/2/6 92/2/6
f 93/2/6 94/2/6 95/2/6
f 95/2/6 94/2/6 96/2/6
