# MagicaVoxel @ Ephtracy

# group
g KendoStick

# material
mtllib KendoStick.mtl
usemtl palette

# normals
vn -1 0 0
vn 1 0 0
vn 0 0 1
vn 0 0 -1
vn 0 -1 0
vn 0 1 0

# texcoords
vt 0.0722656 0.5
vt 0.0761719 0.5
vt 0.0800781 0.5

# verts
v -4 7 1
v -4 7 -0
v -4 8 1
v -4 8 -0
v -4 10 1
v -4 10 -0
v -4 12 1
v -4 12 -0
v -3 4 1
v -3 4 -0
v -3 6 1
v -3 6 -0
v -3 7 1
v -3 7 -0
v -2 2 1
v -2 2 -0
v -2 3 1
v -2 3 -0
v -2 4 1
v -2 4 -0
v -1 0 1
v -1 0 -0
v -1 2 1
v -1 2 -0
v -3 9 1
v -3 9 -0
v -3 10 1
v -3 10 -0
v -3 12 1
v -3 12 -0
v -2 6 1
v -2 6 -0
v -2 9 1
v -2 9 -0
v -1 4 1
v -1 4 -0
v -1 6 1
v -1 6 -0
v 0 0 1
v 0 0 -0
v 0 2 1
v 0 2 -0
v 0 4 1
v 0 4 -0
v -4 7 1
v -4 8 1
v -4 10 1
v -4 12 1
v -3 4 1
v -3 6 1
v -3 7 1
v -3 8 1
v -3 9 1
v -3 10 1
v -3 12 1
v -2 2 1
v -2 3 1
v -2 4 1
v -2 6 1
v -2 9 1
v -1 0 1
v -1 2 1
v -1 3 1
v -1 4 1
v -1 6 1
v 0 0 1
v 0 2 1
v 0 4 1
v -4 7 -0
v -4 8 -0
v -4 10 -0
v -4 12 -0
v -3 4 -0
v -3 6 -0
v -3 7 -0
v -3 8 -0
v -3 9 -0
v -3 10 -0
v -3 12 -0
v -2 2 -0
v -2 3 -0
v -2 4 -0
v -2 6 -0
v -2 9 -0
v -1 0 -0
v -1 2 -0
v -1 3 -0
v -1 4 -0
v -1 6 -0
v 0 0 -0
v 0 2 -0
v 0 4 -0
v -1 0 1
v 0 0 1
v -1 0 -0
v 0 0 -0
v -2 2 1
v -1 2 1
v -2 2 -0
v -1 2 -0
v -3 4 1
v -2 4 1
v -3 4 -0
v -2 4 -0
v -4 7 1
v -3 7 1
v -4 7 -0
v -3 7 -0
v -1 4 1
v 0 4 1
v -1 4 -0
v 0 4 -0
v -2 6 1
v -1 6 1
v -2 6 -0
v -1 6 -0
v -3 9 1
v -2 9 1
v -3 9 -0
v -2 9 -0
v -4 12 1
v -3 12 1
v -4 12 -0
v -3 12 -0

# faces
f 3/1/1 2/1/1 1/1/1
f 4/1/1 2/1/1 3/1/1
f 5/2/1 4/2/1 3/2/1
f 6/2/1 4/2/1 5/2/1
f 7/3/1 6/3/1 5/3/1
f 8/3/1 6/3/1 7/3/1
f 11/1/1 10/1/1 9/1/1
f 12/1/1 10/1/1 11/1/1
f 13/2/1 12/2/1 11/2/1
f 14/2/1 12/2/1 13/2/1
f 17/2/1 16/2/1 15/2/1
f 18/2/1 16/2/1 17/2/1
f 19/1/1 18/1/1 17/1/1
f 20/1/1 18/1/1 19/1/1
f 23/1/1 22/1/1 21/1/1
f 24/1/1 22/1/1 23/1/1
f 25/2/2 26/2/2 27/2/2
f 27/2/2 26/2/2 28/2/2
f 27/3/2 28/3/2 29/3/2
f 29/3/2 28/3/2 30/3/2
f 31/2/2 32/2/2 33/2/2
f 33/2/2 32/2/2 34/2/2
f 35/2/2 36/2/2 37/2/2
f 37/2/2 36/2/2 38/2/2
f 39/1/2 40/1/2 41/1/2
f 41/1/2 40/1/2 42/1/2
f 41/2/2 42/2/2 43/2/2
f 43/2/2 42/2/2 44/2/2
f 51/1/3 46/1/3 45/1/3
f 52/2/3 47/2/3 46/2/3
f 52/1/3 46/1/3 51/1/3
f 53/2/3 47/2/3 52/2/3
f 54/3/3 48/3/3 47/3/3
f 54/2/3 47/2/3 53/2/3
f 55/3/3 48/3/3 54/3/3
f 58/1/3 50/1/3 49/1/3
f 59/2/3 51/2/3 50/2/3
f 59/2/3 53/2/3 52/2/3
f 59/1/3 50/1/3 58/1/3
f 59/2/3 52/2/3 51/2/3
f 60/2/3 53/2/3 59/2/3
f 62/2/3 57/2/3 56/2/3
f 63/1/3 58/1/3 57/1/3
f 63/2/3 57/2/3 62/2/3
f 64/2/3 59/2/3 58/2/3
f 64/1/3 58/1/3 63/1/3
f 65/2/3 59/2/3 64/2/3
f 66/1/3 62/1/3 61/1/3
f 67/2/3 63/2/3 62/2/3
f 67/1/3 62/1/3 66/1/3
f 67/2/3 64/2/3 63/2/3
f 68/2/3 64/2/3 67/2/3
f 69/1/4 70/1/4 75/1/4
f 70/2/4 71/2/4 76/2/4
f 75/1/4 70/1/4 76/1/4
f 76/2/4 71/2/4 77/2/4
f 71/3/4 72/3/4 78/3/4
f 77/2/4 71/2/4 78/2/4
f 78/3/4 72/3/4 79/3/4
f 73/1/4 74/1/4 82/1/4
f 74/2/4 75/2/4 83/2/4
f 76/2/4 77/2/4 83/2/4
f 82/1/4 74/1/4 83/1/4
f 75/2/4 76/2/4 83/2/4
f 83/2/4 77/2/4 84/2/4
f 80/2/4 81/2/4 86/2/4
f 81/1/4 82/1/4 87/1/4
f 86/2/4 81/2/4 87/2/4
f 82/2/4 83/2/4 88/2/4
f 87/1/4 82/1/4 88/1/4
f 88/2/4 83/2/4 89/2/4
f 85/1/4 86/1/4 90/1/4
f 86/2/4 87/2/4 91/2/4
f 90/1/4 86/1/4 91/1/4
f 87/2/4 88/2/4 91/2/4
f 91/2/4 88/2/4 92/2/4
f 95/1/5 94/1/5 93/1/5
f 96/1/5 94/1/5 95/1/5
f 99/2/5 98/2/5 97/2/5
f 100/2/5 98/2/5 99/2/5
f 103/1/5 102/1/5 101/1/5
f 104/1/5 102/1/5 103/1/5
f 107/1/5 106/1/5 105/1/5
f 108/1/5 106/1/5 107/1/5
f 109/2/6 110/2/6 111/2/6
f 111/2/6 110/2/6 112/2/6
f 113/2/6 114/2/6 115/2/6
f 115/2/6 114/2/6 116/2/6
f 117/2/6 118/2/6 119/2/6
f 119/2/6 118/2/6 120/2/6
f 121/3/6 122/3/6 123/3/6
f 123/3/6 122/3/6 124/3/6
