# MagicaVoxel @ Ephtracy

# group
g Shotgun

# material
mtllib Shotgun.mtl
usemtl palette

# normals
vn -1 0 0
vn 1 0 0
vn 0 0 1
vn 0 0 -1
vn 0 -1 0
vn 0 1 0

# texcoords
vt 0.0253906 0.5
vt 0.0761719 0.5

# verts
v -1 3 4
v -1 3 2
v -1 3 -1
v -1 3 -4
v -1 4 4
v -1 4 3
v -1 4 2
v -1 4 -1
v -1 4 -4
v -1 5 3
v -1 5 2
v -1 5 -4
v 0 3 4
v 0 3 2
v 0 3 -1
v 0 3 -4
v 0 4 4
v 0 4 3
v 0 4 2
v 0 4 -1
v 0 4 -4
v 0 5 3
v 0 5 2
v 0 5 -4
v -1 3 4
v -1 4 4
v 0 3 4
v 0 4 4
v -1 4 3
v -1 5 3
v 0 4 3
v 0 5 3
v -1 3 -1
v -1 4 -1
v 0 3 -1
v 0 4 -1
v -1 3 2
v -1 4 2
v 0 3 2
v 0 4 2
v -1 3 -4
v -1 4 -4
v -1 5 -4
v 0 3 -4
v 0 4 -4
v 0 5 -4
v -1 3 4
v 0 3 4
v -1 3 2
v 0 3 2
v -1 3 -1
v 0 3 -1
v -1 3 -4
v 0 3 -4
v -1 4 2
v 0 4 2
v -1 4 -1
v 0 4 -1
v -1 4 4
v 0 4 4
v -1 4 3
v 0 4 3
v -1 5 3
v 0 5 3
v -1 5 2
v 0 5 2
v -1 5 -4
v 0 5 -4

# faces
f 5/2/1 2/2/1 1/2/1
f 6/2/1 2/2/1 5/2/1
f 7/2/1 2/2/1 6/2/1
f 8/2/1 4/2/1 3/2/1
f 9/2/1 4/2/1 8/2/1
f 10/2/1 7/2/1 6/2/1
f 11/1/1 9/1/1 8/1/1
f 11/2/1 7/2/1 10/2/1
f 11/1/1 8/1/1 7/1/1
f 12/1/1 9/1/1 11/1/1
f 13/2/2 14/2/2 17/2/2
f 17/2/2 14/2/2 18/2/2
f 18/2/2 14/2/2 19/2/2
f 15/2/2 16/2/2 20/2/2
f 20/2/2 16/2/2 21/2/2
f 18/2/2 19/2/2 22/2/2
f 20/1/2 21/1/2 23/1/2
f 22/2/2 19/2/2 23/2/2
f 19/1/2 20/1/2 23/1/2
f 23/1/2 21/1/2 24/1/2
f 27/2/3 26/2/3 25/2/3
f 28/2/3 26/2/3 27/2/3
f 31/2/3 30/2/3 29/2/3
f 32/2/3 30/2/3 31/2/3
f 35/2/3 34/2/3 33/2/3
f 36/2/3 34/2/3 35/2/3
f 37/2/4 38/2/4 39/2/4
f 39/2/4 38/2/4 40/2/4
f 41/2/4 42/2/4 44/2/4
f 42/1/4 43/1/4 45/1/4
f 44/2/4 42/2/4 45/2/4
f 45/1/4 43/1/4 46/1/4
f 49/2/5 48/2/5 47/2/5
f 50/2/5 48/2/5 49/2/5
f 53/2/5 52/2/5 51/2/5
f 54/2/5 52/2/5 53/2/5
f 57/1/5 56/1/5 55/1/5
f 58/1/5 56/1/5 57/1/5
f 59/2/6 60/2/6 61/2/6
f 61/2/6 60/2/6 62/2/6
f 63/2/6 64/2/6 65/2/6
f 65/2/6 64/2/6 66/2/6
f 65/1/6 66/1/6 67/1/6
f 67/1/6 66/1/6 68/1/6
