# MagicaVoxel @ Ephtracy

# group
g C4ControllerOff

# material
mtllib C4ControllerOff.mtl
usemtl palette

# normals
vn -1 0 0
vn 1 0 0
vn 0 0 1
vn 0 0 -1
vn 0 -1 0
vn 0 1 0

# texcoords
vt 0.0214844 0.5
vt 0.0253906 0.5
vt 0.146484 0.5
vt 0.236328 0.5

# verts
v -2.5 1 0.5
v -2.5 1 -0.5
v -2.5 4 0.5
v -2.5 4 -0.5
v -1.5 0 0.5
v -1.5 0 -0.5
v -1.5 1 1.5
v -1.5 1 0.5
v -1.5 1 -0.5
v -1.5 1 -1.5
v -1.5 4 1.5
v -1.5 4 0.5
v -1.5 4 -0.5
v -1.5 4 -1.5
v -1.5 5 0.5
v -1.5 5 -0.5
v 1.5 1 0.5
v 1.5 1 -0.5
v 1.5 3 0.5
v 1.5 3 -0.5
v -0.5 1 1.5
v -0.5 1 0.5
v -0.5 1 -0.5
v -0.5 1 -1.5
v -0.5 2 1.5
v -0.5 2 0.5
v -0.5 2 -0.5
v -0.5 2 -1.5
v 0.5 0 0.5
v 0.5 0 -0.5
v 0.5 2 1.5
v 0.5 2 0.5
v 0.5 2 -0.5
v 0.5 2 -1.5
v 0.5 3 0.5
v 0.5 3 -0.5
v 0.5 4 1.5
v 0.5 4 0.5
v 0.5 4 -0.5
v 0.5 4 -1.5
v 0.5 5 0.5
v 0.5 5 -0.5
v 1.5 3 0.5
v 1.5 3 -0.5
v 1.5 4 0.5
v 1.5 4 -0.5
v 2.5 1 0.5
v 2.5 1 -0.5
v 2.5 3 0.5
v 2.5 3 -0.5
v -1.5 1 1.5
v -1.5 4 1.5
v -0.5 1 1.5
v -0.5 2 1.5
v 0.5 2 1.5
v 0.5 4 1.5
v -2.5 1 0.5
v -2.5 4 0.5
v -1.5 0 0.5
v -1.5 1 0.5
v -1.5 4 0.5
v -1.5 5 0.5
v -0.5 1 0.5
v -0.5 2 0.5
v -0.5 4 0.5
v -0.5 5 0.5
v 0.5 0 0.5
v 0.5 2 0.5
v 0.5 3 0.5
v 0.5 4 0.5
v 0.5 5 0.5
v 1.5 1 0.5
v 1.5 3 0.5
v 1.5 4 0.5
v 2.5 1 0.5
v 2.5 3 0.5
v -2.5 1 -0.5
v -2.5 4 -0.5
v -1.5 0 -0.5
v -1.5 1 -0.5
v -1.5 4 -0.5
v -1.5 5 -0.5
v -0.5 1 -0.5
v -0.5 2 -0.5
v -0.5 4 -0.5
v -0.5 5 -0.5
v 0.5 0 -0.5
v 0.5 2 -0.5
v 0.5 3 -0.5
v 0.5 4 -0.5
v 0.5 5 -0.5
v 1.5 1 -0.5
v 1.5 3 -0.5
v 1.5 4 -0.5
v 2.5 1 -0.5
v 2.5 3 -0.5
v -1.5 1 -1.5
v -1.5 4 -1.5
v -0.5 1 -1.5
v -0.5 2 -1.5
v 0.5 2 -1.5
v 0.5 4 -1.5
v -1.5 0 0.5
v 0.5 0 0.5
v -1.5 0 -0.5
v 0.5 0 -0.5
v -1.5 1 1.5
v -0.5 1 1.5
v -2.5 1 0.5
v -1.5 1 0.5
v -0.5 1 0.5
v 1.5 1 0.5
v 2.5 1 0.5
v -2.5 1 -0.5
v -1.5 1 -0.5
v -0.5 1 -0.5
v 1.5 1 -0.5
v 2.5 1 -0.5
v -1.5 1 -1.5
v -0.5 1 -1.5
v -0.5 2 1.5
v 0.5 2 1.5
v -0.5 2 0.5
v 0.5 2 0.5
v -0.5 2 -0.5
v 0.5 2 -0.5
v -0.5 2 -1.5
v 0.5 2 -1.5
v 0.5 3 0.5
v 1.5 3 0.5
v 0.5 3 -0.5
v 1.5 3 -0.5
v 1.5 3 0.5
v 2.5 3 0.5
v 1.5 3 -0.5
v 2.5 3 -0.5
v -1.5 4 1.5
v 0.5 4 1.5
v -2.5 4 0.5
v -1.5 4 0.5
v -0.5 4 0.5
v 0.5 4 0.5
v 1.5 4 0.5
v -2.5 4 -0.5
v -1.5 4 -0.5
v -0.5 4 -0.5
v 0.5 4 -0.5
v 1.5 4 -0.5
v -1.5 4 -1.5
v 0.5 4 -1.5
v -1.5 5 0.5
v -0.5 5 0.5
v 0.5 5 0.5
v -1.5 5 -0.5
v -0.5 5 -0.5
v 0.5 5 -0.5

# faces
f 3/3/1 2/3/1 1/3/1
f 4/3/1 2/3/1 3/3/1
f 8/2/1 6/2/1 5/2/1
f 9/2/1 6/2/1 8/2/1
f 11/3/1 8/3/1 7/3/1
f 12/3/1 8/3/1 11/3/1
f 13/3/1 10/3/1 9/3/1
f 14/3/1 10/3/1 13/3/1
f 15/1/1 13/1/1 12/1/1
f 16/1/1 13/1/1 15/1/1
f 19/2/1 18/2/1 17/2/1
f 20/2/1 18/2/1 19/2/1
f 21/3/2 22/3/2 25/3/2
f 25/3/2 22/3/2 26/3/2
f 23/3/2 24/3/2 27/3/2
f 27/3/2 24/3/2 28/3/2
f 29/2/2 30/2/2 32/2/2
f 32/2/2 30/2/2 33/2/2
f 31/3/2 32/3/2 35/3/2
f 32/2/2 33/2/2 35/2/2
f 33/3/2 34/3/2 36/3/2
f 35/2/2 33/2/2 36/2/2
f 31/3/2 35/3/2 37/3/2
f 37/3/2 35/3/2 38/3/2
f 36/3/2 34/3/2 39/3/2
f 39/3/2 34/3/2 40/3/2
f 38/4/2 39/4/2 41/4/2
f 41/4/2 39/4/2 42/4/2
f 43/2/2 44/2/2 45/2/2
f 45/2/2 44/2/2 46/2/2
f 47/2/2 48/2/2 49/2/2
f 49/2/2 48/2/2 50/2/2
f 53/3/3 52/3/3 51/3/3
f 54/3/3 52/3/3 53/3/3
f 55/3/3 52/3/3 54/3/3
f 56/3/3 52/3/3 55/3/3
f 60/3/3 58/3/3 57/3/3
f 61/3/3 58/3/3 60/3/3
f 63/2/3 60/2/3 59/2/3
f 65/1/3 62/1/3 61/1/3
f 66/1/3 62/1/3 65/1/3
f 67/2/3 64/2/3 63/2/3
f 67/2/3 63/2/3 59/2/3
f 68/2/3 64/2/3 67/2/3
f 70/4/3 66/4/3 65/4/3
f 71/4/3 66/4/3 70/4/3
f 73/2/3 70/2/3 69/2/3
f 74/2/3 70/2/3 73/2/3
f 75/2/3 73/2/3 72/2/3
f 76/2/3 73/2/3 75/2/3
f 77/3/4 78/3/4 80/3/4
f 80/3/4 78/3/4 81/3/4
f 79/2/4 80/2/4 83/2/4
f 81/1/4 82/1/4 85/1/4
f 85/1/4 82/1/4 86/1/4
f 83/2/4 84/2/4 87/2/4
f 79/2/4 83/2/4 87/2/4
f 87/2/4 84/2/4 88/2/4
f 85/4/4 86/4/4 90/4/4
f 90/4/4 86/4/4 91/4/4
f 89/2/4 90/2/4 93/2/4
f 93/2/4 90/2/4 94/2/4
f 92/2/4 93/2/4 95/2/4
f 95/2/4 93/2/4 96/2/4
f 97/3/4 98/3/4 99/3/4
f 99/3/4 98/3/4 100/3/4
f 100/3/4 98/3/4 101/3/4
f 101/3/4 98/3/4 102/3/4
f 105/2/5 104/2/5 103/2/5
f 106/2/5 104/2/5 105/2/5
f 110/3/5 108/3/5 107/3/5
f 111/3/5 108/3/5 110/3/5
f 114/3/5 110/3/5 109/3/5
f 115/3/5 110/3/5 114/3/5
f 117/2/5 113/2/5 112/2/5
f 118/2/5 113/2/5 117/2/5
f 119/3/5 116/3/5 115/3/5
f 120/3/5 116/3/5 119/3/5
f 123/3/5 122/3/5 121/3/5
f 124/3/5 122/3/5 123/3/5
f 127/3/5 126/3/5 125/3/5
f 128/3/5 126/3/5 127/3/5
f 131/2/5 130/2/5 129/2/5
f 132/2/5 130/2/5 131/2/5
f 133/2/6 134/2/6 135/2/6
f 135/2/6 134/2/6 136/2/6
f 137/3/6 138/3/6 140/3/6
f 140/3/6 138/3/6 141/3/6
f 141/3/6 138/3/6 142/3/6
f 139/3/6 140/3/6 144/3/6
f 144/3/6 140/3/6 145/3/6
f 142/2/6 143/2/6 147/2/6
f 147/2/6 143/2/6 148/2/6
f 145/3/6 146/3/6 149/3/6
f 146/3/6 147/3/6 149/3/6
f 149/3/6 147/3/6 150/3/6
f 151/1/6 152/1/6 154/1/6
f 152/4/6 153/4/6 155/4/6
f 154/1/6 152/1/6 155/1/6
f 155/4/6 153/4/6 156/4/6
