# MagicaVoxel @ Ephtracy

# group
g Battery

# material
mtllib Battery.mtl
usemtl palette

# normals
vn -1 0 0
vn 1 0 0
vn 0 0 1
vn 0 0 -1
vn 0 -1 0
vn 0 1 0

# texcoords
vt 0.123047 0.5
vt 0.138672 0.5
vt 0.158203 0.5
vt 0.162109 0.5
vt 0.166016 0.5

# verts
v -2 0 2
v -2 0 -2
v -2 1 -0
v -2 1 -1
v -2 3 1
v -2 3 -0
v -2 4 -0
v -2 4 -1
v -2 6 1
v -2 6 -0
v -2 7 2
v -2 7 -2
v -1 7 1
v -1 7 -1
v -1 8 1
v -1 8 -1
v 1 7 1
v 1 7 -1
v 1 8 1
v 1 8 -1
v 2 0 2
v 2 0 -2
v 2 1 1
v 2 1 -0
v 2 3 -0
v 2 3 -1
v 2 4 1
v 2 4 -0
v 2 6 -0
v 2 6 -1
v 2 7 2
v 2 7 -2
v -2 0 2
v -2 7 2
v -1 1 2
v -1 2 2
v -1 3 2
v -1 4 2
v -1 5 2
v -1 6 2
v 1 1 2
v 1 2 2
v 1 3 2
v 1 4 2
v 1 5 2
v 1 6 2
v 2 0 2
v 2 7 2
v -1 7 1
v -1 8 1
v 1 7 1
v 1 8 1
v -1 7 -1
v -1 8 -1
v 1 7 -1
v 1 8 -1
v -2 0 -2
v -2 7 -2
v -1 1 -2
v -1 2 -2
v -1 3 -2
v -1 4 -2
v -1 5 -2
v -1 6 -2
v 1 1 -2
v 1 2 -2
v 1 3 -2
v 1 4 -2
v 1 5 -2
v 1 6 -2
v 2 0 -2
v 2 7 -2
v -2 0 2
v 2 0 2
v -1 0 1
v 1 0 1
v -1 0 -1
v 1 0 -1
v -2 0 -2
v 2 0 -2
v -2 7 2
v 2 7 2
v -1 7 1
v 1 7 1
v -1 7 -1
v 1 7 -1
v -2 7 -2
v 2 7 -2
v -1 8 1
v 1 8 1
v -1 8 -1
v 1 8 -1

# faces
f 3/4/1 2/4/1 1/4/1
f 4/4/1 2/4/1 3/4/1
f 5/4/1 3/4/1 1/4/1
f 6/1/1 4/1/1 3/1/1
f 6/4/1 3/4/1 5/4/1
f 7/1/1 6/1/1 5/1/1
f 7/1/1 4/1/1 6/1/1
f 8/4/1 2/4/1 4/4/1
f 8/1/1 4/1/1 7/1/1
f 9/1/1 7/1/1 5/1/1
f 9/4/1 5/4/1 1/4/1
f 10/4/1 8/4/1 7/4/1
f 10/1/1 7/1/1 9/1/1
f 11/4/1 9/4/1 1/4/1
f 11/4/1 10/4/1 9/4/1
f 12/4/1 2/4/1 8/4/1
f 12/4/1 10/4/1 11/4/1
f 12/4/1 8/4/1 10/4/1
f 15/5/1 14/5/1 13/5/1
f 16/5/1 14/5/1 15/5/1
f 17/5/2 18/5/2 19/5/2
f 19/5/2 18/5/2 20/5/2
f 21/4/2 22/4/2 23/4/2
f 23/4/2 22/4/2 24/4/2
f 23/1/2 24/1/2 25/1/2
f 24/4/2 22/4/2 25/4/2
f 25/4/2 22/4/2 26/4/2
f 21/4/2 23/4/2 27/4/2
f 23/1/2 25/1/2 27/1/2
f 25/1/2 26/1/2 27/1/2
f 27/1/2 26/1/2 28/1/2
f 27/4/2 28/4/2 29/4/2
f 28/1/2 26/1/2 29/1/2
f 26/4/2 22/4/2 30/4/2
f 29/1/2 26/1/2 30/1/2
f 27/4/2 29/4/2 31/4/2
f 21/4/2 27/4/2 31/4/2
f 29/4/2 30/4/2 31/4/2
f 30/4/2 22/4/2 32/4/2
f 31/4/2 30/4/2 32/4/2
f 35/4/3 34/4/3 33/4/3
f 36/4/3 34/4/3 35/4/3
f 37/4/3 34/4/3 36/4/3
f 38/4/3 34/4/3 37/4/3
f 39/4/3 34/4/3 38/4/3
f 40/4/3 34/4/3 39/4/3
f 41/4/3 35/4/3 33/4/3
f 41/2/3 36/2/3 35/2/3
f 42/4/3 37/4/3 36/4/3
f 42/2/3 36/2/3 41/2/3
f 43/2/3 38/2/3 37/2/3
f 43/4/3 37/4/3 42/4/3
f 44/4/3 39/4/3 38/4/3
f 44/2/3 38/2/3 43/2/3
f 45/2/3 40/2/3 39/2/3
f 45/4/3 39/4/3 44/4/3
f 46/4/3 34/4/3 40/4/3
f 46/2/3 40/2/3 45/2/3
f 47/4/3 45/4/3 44/4/3
f 47/4/3 44/4/3 43/4/3
f 47/4/3 46/4/3 45/4/3
f 47/4/3 43/4/3 42/4/3
f 47/4/3 42/4/3 41/4/3
f 47/4/3 41/4/3 33/4/3
f 48/4/3 34/4/3 46/4/3
f 48/4/3 46/4/3 47/4/3
f 51/5/3 50/5/3 49/5/3
f 52/5/3 50/5/3 51/5/3
f 53/5/4 54/5/4 55/5/4
f 55/5/4 54/5/4 56/5/4
f 57/4/4 58/4/4 59/4/4
f 59/4/4 58/4/4 60/4/4
f 60/4/4 58/4/4 61/4/4
f 61/4/4 58/4/4 62/4/4
f 62/4/4 58/4/4 63/4/4
f 63/4/4 58/4/4 64/4/4
f 57/4/4 59/4/4 65/4/4
f 59/2/4 60/2/4 65/2/4
f 60/4/4 61/4/4 66/4/4
f 65/2/4 60/2/4 66/2/4
f 61/2/4 62/2/4 67/2/4
f 66/4/4 61/4/4 67/4/4
f 62/4/4 63/4/4 68/4/4
f 67/2/4 62/2/4 68/2/4
f 63/2/4 64/2/4 69/2/4
f 68/4/4 63/4/4 69/4/4
f 64/4/4 58/4/4 70/4/4
f 69/2/4 64/2/4 70/2/4
f 68/4/4 69/4/4 71/4/4
f 67/4/4 68/4/4 71/4/4
f 69/4/4 70/4/4 71/4/4
f 66/4/4 67/4/4 71/4/4
f 65/4/4 66/4/4 71/4/4
f 57/4/4 65/4/4 71/4/4
f 70/4/4 58/4/4 72/4/4
f 71/4/4 70/4/4 72/4/4
f 75/4/5 74/4/5 73/4/5
f 76/4/5 74/4/5 75/4/5
f 77/4/5 75/4/5 73/4/5
f 77/3/5 76/3/5 75/3/5
f 78/4/5 74/4/5 76/4/5
f 78/3/5 76/3/5 77/3/5
f 79/4/5 77/4/5 73/4/5
f 79/4/5 78/4/5 77/4/5
f 80/4/5 74/4/5 78/4/5
f 80/4/5 78/4/5 79/4/5
f 81/4/6 82/4/6 83/4/6
f 83/4/6 82/4/6 84/4/6
f 81/4/6 83/4/6 85/4/6
f 84/4/6 82/4/6 86/4/6
f 81/4/6 85/4/6 87/4/6
f 85/4/6 86/4/6 87/4/6
f 86/4/6 82/4/6 88/4/6
f 87/4/6 86/4/6 88/4/6
f 89/5/6 90/5/6 91/5/6
f 91/5/6 90/5/6 92/5/6
