# MagicaVoxel @ Ephtracy

# group
g AppleTree

# material
mtllib AppleTree.mtl
usemtl palette

# normals
vn -1 0 0
vn 1 0 0
vn 0 0 1
vn 0 0 -1
vn 0 -1 0
vn 0 1 0

# texcoords
vt 0.0761719 0.5
vt 0.142578 0.5
vt 0.236328 0.5

# verts
v -7 6 -1
v -7 6 -3
v -7 8 -1
v -7 8 -3
v -6 3 4
v -6 3 -4
v -6 4 5
v -6 4 4
v -6 4 -4
v -6 4 -5
v -6 6 -1
v -6 6 -3
v -6 8 -1
v -6 8 -3
v -6 11 5
v -6 11 4
v -6 11 -4
v -6 11 -5
v -6 12 4
v -6 12 -4
v -5 3 5
v -5 3 4
v -5 3 -4
v -5 3 -5
v -5 4 6
v -5 4 5
v -5 4 4
v -5 4 -4
v -5 4 -5
v -5 4 -6
v -5 11 6
v -5 11 5
v -5 11 4
v -5 11 -4
v -5 11 -5
v -5 11 -6
v -5 12 5
v -5 12 4
v -5 12 3
v -5 12 -3
v -5 12 -4
v -5 12 -5
v -5 13 3
v -5 13 -3
v -4 3 6
v -4 3 5
v -4 3 -5
v -4 3 -6
v -4 4 6
v -4 4 5
v -4 4 -5
v -4 4 -6
v -4 6 -6
v -4 6 -7
v -4 8 -6
v -4 8 -7
v -4 11 6
v -4 11 5
v -4 11 -5
v -4 11 -6
v -4 12 6
v -4 12 5
v -4 12 4
v -4 12 3
v -4 12 -3
v -4 12 -4
v -4 12 -5
v -4 12 -6
v -4 13 4
v -4 13 3
v -4 13 -3
v -4 13 -4
v -3 8 7
v -3 8 6
v -3 10 7
v -3 10 6
v -3 12 5
v -3 12 4
v -3 12 -4
v -3 12 -5
v -3 13 5
v -3 13 4
v -3 13 -4
v -3 13 -5
v -2 0 2
v -2 0 -2
v -2 3 2
v -2 3 -2
v 1 5 7
v 1 5 6
v 1 7 7
v 1 7 6
v 1 8 -6
v 1 8 -7
v 1 10 -6
v 1 10 -7
v -2 6 -6
v -2 6 -7
v -2 8 -6
v -2 8 -7
v -1 8 7
v -1 8 6
v -1 10 7
v -1 10 6
v 2 0 2
v 2 0 -2
v 2 3 2
v 2 3 -2
v 3 5 7
v 3 5 6
v 3 7 7
v 3 7 6
v 3 8 -6
v 3 8 -7
v 3 10 -6
v 3 10 -7
v 3 12 5
v 3 12 4
v 3 12 -4
v 3 12 -5
v 3 13 5
v 3 13 4
v 3 13 -4
v 3 13 -5
v 4 3 6
v 4 3 5
v 4 3 -5
v 4 3 -6
v 4 4 6
v 4 4 5
v 4 4 -5
v 4 4 -6
v 4 11 6
v 4 11 5
v 4 11 -5
v 4 11 -6
v 4 12 6
v 4 12 5
v 4 12 4
v 4 12 3
v 4 12 -3
v 4 12 -4
v 4 12 -5
v 4 12 -6
v 4 13 4
v 4 13 3
v 4 13 -3
v 4 13 -4
v 5 3 5
v 5 3 4
v 5 3 -4
v 5 3 -5
v 5 4 6
v 5 4 5
v 5 4 4
v 5 4 -4
v 5 4 -5
v 5 4 -6
v 5 11 6
v 5 11 5
v 5 11 4
v 5 11 -4
v 5 11 -5
v 5 11 -6
v 5 12 5
v 5 12 4
v 5 12 3
v 5 12 -3
v 5 12 -4
v 5 12 -5
v 5 13 3
v 5 13 -3
v 6 3 4
v 6 3 -4
v 6 4 5
v 6 4 4
v 6 4 1
v 6 4 -1
v 6 4 -4
v 6 4 -5
v 6 6 1
v 6 6 -1
v 6 8 4
v 6 8 2
v 6 9 -0
v 6 9 -2
v 6 10 4
v 6 10 2
v 6 11 5
v 6 11 4
v 6 11 -0
v 6 11 -2
v 6 11 -4
v 6 11 -5
v 6 12 4
v 6 12 -4
v 7 4 1
v 7 4 -1
v 7 6 1
v 7 6 -1
v 7 8 4
v 7 8 2
v 7 9 -0
v 7 9 -2
v 7 10 4
v 7 10 2
v 7 11 -0
v 7 11 -2
v -3 8 7
v -3 10 7
v -1 8 7
v -1 10 7
v 1 5 7
v 1 7 7
v 3 5 7
v 3 7 7
v -5 4 6
v -5 11 6
v -4 3 6
v -4 4 6
v -4 11 6
v -4 12 6
v -3 8 6
v -3 10 6
v -1 8 6
v -1 10 6
v 1 5 6
v 1 7 6
v 3 5 6
v 3 7 6
v 4 3 6
v 4 4 6
v 4 11 6
v 4 12 6
v 5 4 6
v 5 11 6
v -6 4 5
v -6 11 5
v -5 3 5
v -5 4 5
v -5 11 5
v -5 12 5
v -4 3 5
v -4 4 5
v -4 11 5
v -4 12 5
v -3 12 5
v -3 13 5
v 3 12 5
v 3 13 5
v 4 3 5
v 4 4 5
v 4 11 5
v 4 12 5
v 5 3 5
v 5 4 5
v 5 11 5
v 5 12 5
v 6 4 5
v 6 11 5
v -6 3 4
v -6 4 4
v -6 11 4
v -6 12 4
v -5 3 4
v -5 4 4
v -5 11 4
v -5 12 4
v -4 12 4
v -4 13 4
v -3 12 4
v -3 13 4
v 3 12 4
v 3 13 4
v 4 12 4
v 4 13 4
v 5 3 4
v 5 4 4
v 5 11 4
v 5 12 4
v 6 3 4
v 6 4 4
v 6 8 4
v 6 10 4
v 6 11 4
v 6 12 4
v 7 8 4
v 7 10 4
v -5 12 3
v -5 13 3
v -4 12 3
v -4 13 3
v 4 12 3
v 4 13 3
v 5 12 3
v 5 13 3
v -2 0 2
v -2 3 2
v 2 0 2
v 2 3 2
v 6 4 1
v 6 6 1
v 7 4 1
v 7 6 1
v 6 9 -0
v 6 11 -0
v 7 9 -0
v 7 11 -0
v -7 6 -1
v -7 8 -1
v -6 6 -1
v -6 8 -1
v 6 8 2
v 6 10 2
v 7 8 2
v 7 10 2
v 6 4 -1
v 6 6 -1
v 7 4 -1
v 7 6 -1
v -2 0 -2
v -2 3 -2
v 2 0 -2
v 2 3 -2
v 6 9 -2
v 6 11 -2
v 7 9 -2
v 7 11 -2
v -7 6 -3
v -7 8 -3
v -6 6 -3
v -6 8 -3
v -5 12 -3
v -5 13 -3
v -4 12 -3
v -4 13 -3
v 4 12 -3
v 4 13 -3
v 5 12 -3
v 5 13 -3
v -6 3 -4
v -6 4 -4
v -6 11 -4
v -6 12 -4
v -5 3 -4
v -5 4 -4
v -5 11 -4
v -5 12 -4
v -4 12 -4
v -4 13 -4
v -3 12 -4
v -3 13 -4
v 3 12 -4
v 3 13 -4
v 4 12 -4
v 4 13 -4
v 5 3 -4
v 5 4 -4
v 5 11 -4
v 5 12 -4
v 6 3 -4
v 6 4 -4
v 6 11 -4
v 6 12 -4
v -6 4 -5
v -6 11 -5
v -5 3 -5
v -5 4 -5
v -5 11 -5
v -5 12 -5
v -4 3 -5
v -4 4 -5
v -4 11 -5
v -4 12 -5
v -3 12 -5
v -3 13 -5
v 3 12 -5
v 3 13 -5
v 4 3 -5
v 4 4 -5
v 4 11 -5
v 4 12 -5
v 5 3 -5
v 5 4 -5
v 5 11 -5
v 5 12 -5
v 6 4 -5
v 6 11 -5
v -5 4 -6
v -5 11 -6
v -4 3 -6
v -4 4 -6
v -4 6 -6
v -4 8 -6
v -4 11 -6
v -4 12 -6
v -2 6 -6
v -2 8 -6
v 1 8 -6
v 1 10 -6
v 3 8 -6
v 3 10 -6
v 4 3 -6
v 4 4 -6
v 4 11 -6
v 4 12 -6
v 5 4 -6
v 5 11 -6
v -4 6 -7
v -4 8 -7
v -2 6 -7
v -2 8 -7
v 1 8 -7
v 1 10 -7
v 3 8 -7
v 3 10 -7
v -2 0 2
v 2 0 2
v -2 0 -2
v 2 0 -2
v -4 3 6
v 4 3 6
v -5 3 5
v -4 3 5
v 4 3 5
v 5 3 5
v -6 3 4
v -5 3 4
v 5 3 4
v 6 3 4
v -2 3 2
v 2 3 2
v -2 3 -2
v 2 3 -2
v -6 3 -4
v -5 3 -4
v 5 3 -4
v 6 3 -4
v -5 3 -5
v -4 3 -5
v 4 3 -5
v 5 3 -5
v -4 3 -6
v 4 3 -6
v -5 4 6
v -4 4 6
v 4 4 6
v 5 4 6
v -6 4 5
v -5 4 5
v -4 4 5
v 4 4 5
v 5 4 5
v 6 4 5
v -6 4 4
v -5 4 4
v 5 4 4
v 6 4 4
v 6 4 1
v 7 4 1
v 6 4 -1
v 7 4 -1
v -6 4 -4
v -5 4 -4
v 5 4 -4
v 6 4 -4
v -6 4 -5
v -5 4 -5
v -4 4 -5
v 4 4 -5
v 5 4 -5
v 6 4 -5
v -5 4 -6
v -4 4 -6
v 4 4 -6
v 5 4 -6
v 1 5 7
v 3 5 7
v 1 5 6
v 3 5 6
v -7 6 -1
v -6 6 -1
v -7 6 -3
v -6 6 -3
v -4 6 -6
v -2 6 -6
v -4 6 -7
v -2 6 -7
v -3 8 7
v -1 8 7
v -3 8 6
v -1 8 6
v 6 8 4
v 7 8 4
v 6 8 2
v 7 8 2
v 1 8 -6
v 3 8 -6
v 1 8 -7
v 3 8 -7
v 6 9 -0
v 7 9 -0
v 6 9 -2
v 7 9 -2
v 6 6 1
v 7 6 1
v 6 6 -1
v 7 6 -1
v 1 7 7
v 3 7 7
v 1 7 6
v 3 7 6
v -7 8 -1
v -6 8 -1
v -7 8 -3
v -6 8 -3
v -4 8 -6
v -2 8 -6
v -4 8 -7
v -2 8 -7
v -3 10 7
v -1 10 7
v -3 10 6
v -1 10 6
v 6 10 4
v 7 10 4
v 6 10 2
v 7 10 2
v 1 10 -6
v 3 10 -6
v 1 10 -7
v 3 10 -7
v -5 11 6
v -4 11 6
v 4 11 6
v 5 11 6
v -6 11 5
v -5 11 5
v -4 11 5
v 4 11 5
v 5 11 5
v 6 11 5
v -6 11 4
v -5 11 4
v 5 11 4
v 6 11 4
v 6 11 -0
v 7 11 -0
v 6 11 -2
v 7 11 -2
v -6 11 -4
v -5 11 -4
v 5 11 -4
v 6 11 -4
v -6 11 -5
v -5 11 -5
v -4 11 -5
v 4 11 -5
v 5 11 -5
v 6 11 -5
v -5 11 -6
v -4 11 -6
v 4 11 -6
v 5 11 -6
v -4 12 6
v 4 12 6
v -5 12 5
v -4 12 5
v -3 12 5
v 3 12 5
v 4 12 5
v 5 12 5
v -6 12 4
v -5 12 4
v -4 12 4
v -3 12 4
v 3 12 4
v 4 12 4
v 5 12 4
v 6 12 4
v -5 12 3
v -4 12 3
v 4 12 3
v 5 12 3
v -5 12 -3
v -4 12 -3
v 4 12 -3
v 5 12 -3
v -6 12 -4
v -5 12 -4
v -4 12 -4
v -3 12 -4
v 3 12 -4
v 4 12 -4
v 5 12 -4
v 6 12 -4
v -5 12 -5
v -4 12 -5
v -3 12 -5
v 3 12 -5
v 4 12 -5
v 5 12 -5
v -4 12 -6
v 4 12 -6
v -3 13 5
v 3 13 5
v -4 13 4
v -3 13 4
v 3 13 4
v 4 13 4
v -5 13 3
v -4 13 3
v 4 13 3
v 5 13 3
v -5 13 -3
v -4 13 -3
v 4 13 -3
v 5 13 -3
v -4 13 -4
v -3 13 -4
v 3 13 -4
v 4 13 -4
v -3 13 -5
v 3 13 -5

# faces
f 3/3/1 2/3/1 1/3/1
f 4/3/1 2/3/1 3/3/1
f 8/2/1 6/2/1 5/2/1
f 9/2/1 6/2/1 8/2/1
f 11/2/1 8/2/1 7/2/1
f 11/2/1 10/2/1 9/2/1
f 11/2/1 9/2/1 8/2/1
f 12/2/1 10/2/1 11/2/1
f 13/2/1 11/2/1 7/2/1
f 14/2/1 10/2/1 12/2/1
f 15/2/1 13/2/1 7/2/1
f 15/2/1 14/2/1 13/2/1
f 16/2/1 14/2/1 15/2/1
f 17/2/1 10/2/1 14/2/1
f 17/2/1 14/2/1 16/2/1
f 18/2/1 10/2/1 17/2/1
f 19/2/1 17/2/1 16/2/1
f 20/2/1 17/2/1 19/2/1
f 26/2/1 22/2/1 21/2/1
f 27/2/1 22/2/1 26/2/1
f 28/2/1 24/2/1 23/2/1
f 29/2/1 24/2/1 28/2/1
f 31/2/1 26/2/1 25/2/1
f 32/2/1 26/2/1 31/2/1
f 35/2/1 30/2/1 29/2/1
f 36/2/1 30/2/1 35/2/1
f 37/2/1 33/2/1 32/2/1
f 38/2/1 33/2/1 37/2/1
f 41/2/1 35/2/1 34/2/1
f 42/2/1 35/2/1 41/2/1
f 43/2/1 40/2/1 39/2/1
f 44/2/1 40/2/1 43/2/1
f 49/2/1 46/2/1 45/2/1
f 50/2/1 46/2/1 49/2/1
f 51/2/1 48/2/1 47/2/1
f 52/2/1 48/2/1 51/2/1
f 55/3/1 54/3/1 53/3/1
f 56/3/1 54/3/1 55/3/1
f 61/2/1 58/2/1 57/2/1
f 62/2/1 58/2/1 61/2/1
f 67/2/1 60/2/1 59/2/1
f 68/2/1 60/2/1 67/2/1
f 69/2/1 64/2/1 63/2/1
f 70/2/1 64/2/1 69/2/1
f 71/2/1 66/2/1 65/2/1
f 72/2/1 66/2/1 71/2/1
f 75/3/1 74/3/1 73/3/1
f 76/3/1 74/3/1 75/3/1
f 81/2/1 78/2/1 77/2/1
f 82/2/1 78/2/1 81/2/1
f 83/2/1 80/2/1 79/2/1
f 84/2/1 80/2/1 83/2/1
f 87/1/1 86/1/1 85/1/1
f 88/1/1 86/1/1 87/1/1
f 91/3/1 90/3/1 89/3/1
f 92/3/1 90/3/1 91/3/1
f 95/3/1 94/3/1 93/3/1
f 96/3/1 94/3/1 95/3/1
f 97/3/2 98/3/2 99/3/2
f 99/3/2 98/3/2 100/3/2
f 101/3/2 102/3/2 103/3/2
f 103/3/2 102/3/2 104/3/2
f 105/1/2 106/1/2 107/1/2
f 107/1/2 106/1/2 108/1/2
f 109/3/2 110/3/2 111/3/2
f 111/3/2 110/3/2 112/3/2
f 113/3/2 114/3/2 115/3/2
f 115/3/2 114/3/2 116/3/2
f 117/2/2 118/2/2 121/2/2
f 121/2/2 118/2/2 122/2/2
f 119/2/2 120/2/2 123/2/2
f 123/2/2 120/2/2 124/2/2
f 125/2/2 126/2/2 129/2/2
f 129/2/2 126/2/2 130/2/2
f 127/2/2 128/2/2 131/2/2
f 131/2/2 128/2/2 132/2/2
f 133/2/2 134/2/2 137/2/2
f 137/2/2 134/2/2 138/2/2
f 135/2/2 136/2/2 143/2/2
f 143/2/2 136/2/2 144/2/2
f 139/2/2 140/2/2 145/2/2
f 145/2/2 140/2/2 146/2/2
f 141/2/2 142/2/2 147/2/2
f 147/2/2 142/2/2 148/2/2
f 149/2/2 150/2/2 154/2/2
f 154/2/2 150/2/2 155/2/2
f 151/2/2 152/2/2 156/2/2
f 156/2/2 152/2/2 157/2/2
f 153/2/2 154/2/2 159/2/2
f 159/2/2 154/2/2 160/2/2
f 157/2/2 158/2/2 163/2/2
f 163/2/2 158/2/2 164/2/2
f 160/2/2 161/2/2 165/2/2
f 165/2/2 161/2/2 166/2/2
f 162/2/2 163/2/2 169/2/2
f 169/2/2 163/2/2 170/2/2
f 167/2/2 168/2/2 171/2/2
f 171/2/2 168/2/2 172/2/2
f 173/2/2 174/2/2 176/2/2
f 176/2/2 174/2/2 177/2/2
f 177/2/2 174/2/2 178/2/2
f 178/2/2 174/2/2 179/2/2
f 175/2/2 176/2/2 181/2/2
f 176/2/2 177/2/2 181/2/2
f 179/2/2 180/2/2 182/2/2
f 178/2/2 179/2/2 182/2/2
f 175/2/2 181/2/2 183/2/2
f 181/2/2 182/2/2 183/2/2
f 183/2/2 182/2/2 184/2/2
f 184/2/2 182/2/2 185/2/2
f 182/2/2 180/2/2 186/2/2
f 185/2/2 182/2/2 186/2/2
f 175/2/2 183/2/2 187/2/2
f 184/2/2 185/2/2 188/2/2
f 175/2/2 187/2/2 189/2/2
f 187/2/2 188/2/2 189/2/2
f 189/2/2 188/2/2 190/2/2
f 188/2/2 185/2/2 191/2/2
f 190/2/2 188/2/2 191/2/2
f 186/2/2 180/2/2 192/2/2
f 192/2/2 180/2/2 193/2/2
f 193/2/2 180/2/2 194/2/2
f 190/2/2 191/2/2 195/2/2
f 192/2/2 193/2/2 195/2/2
f 191/2/2 192/2/2 195/2/2
f 195/2/2 193/2/2 196/2/2
f 197/3/2 198/3/2 199/3/2
f 199/3/2 198/3/2 200/3/2
f 201/3/2 202/3/2 205/3/2
f 205/3/2 202/3/2 206/3/2
f 203/3/2 204/3/2 207/3/2
f 207/3/2 204/3/2 208/3/2
f 211/3/3 210/3/3 209/3/3
f 212/3/3 210/3/3 211/3/3
f 215/3/3 214/3/3 213/3/3
f 216/3/3 214/3/3 215/3/3
f 220/2/3 218/2/3 217/2/3
f 221/2/3 218/2/3 220/2/3
f 223/2/3 220/2/3 219/2/3
f 223/2/3 222/2/3 221/2/3
f 223/2/3 221/2/3 220/2/3
f 224/2/3 222/2/3 223/2/3
f 225/2/3 223/2/3 219/2/3
f 226/2/3 222/2/3 224/2/3
f 227/2/3 225/2/3 219/2/3
f 227/2/3 226/2/3 225/2/3
f 228/2/3 226/2/3 227/2/3
f 229/2/3 227/2/3 219/2/3
f 230/2/3 226/2/3 228/2/3
f 231/2/3 229/2/3 219/2/3
f 231/2/3 230/2/3 229/2/3
f 232/2/3 230/2/3 231/2/3
f 233/2/3 222/2/3 226/2/3
f 233/2/3 230/2/3 232/2/3
f 233/2/3 226/2/3 230/2/3
f 234/2/3 222/2/3 233/2/3
f 235/2/3 233/2/3 232/2/3
f 236/2/3 233/2/3 235/2/3
f 240/2/3 238/2/3 237/2/3
f 241/2/3 238/2/3 240/2/3
f 243/2/3 240/2/3 239/2/3
f 244/2/3 240/2/3 243/2/3
f 245/2/3 242/2/3 241/2/3
f 246/2/3 242/2/3 245/2/3
f 249/2/3 248/2/3 247/2/3
f 250/2/3 248/2/3 249/2/3
f 255/2/3 252/2/3 251/2/3
f 256/2/3 252/2/3 255/2/3
f 257/2/3 254/2/3 253/2/3
f 258/2/3 254/2/3 257/2/3
f 259/2/3 257/2/3 256/2/3
f 260/2/3 257/2/3 259/2/3
f 265/2/3 262/2/3 261/2/3
f 266/2/3 262/2/3 265/2/3
f 267/2/3 264/2/3 263/2/3
f 268/2/3 264/2/3 267/2/3
f 271/2/3 270/2/3 269/2/3
f 272/2/3 270/2/3 271/2/3
f 275/2/3 274/2/3 273/2/3
f 276/2/3 274/2/3 275/2/3
f 281/2/3 278/2/3 277/2/3
f 282/2/3 278/2/3 281/2/3
f 285/2/3 280/2/3 279/2/3
f 286/2/3 280/2/3 285/2/3
f 287/3/3 284/3/3 283/3/3
f 288/3/3 284/3/3 287/3/3
f 291/2/3 290/2/3 289/2/3
f 292/2/3 290/2/3 291/2/3
f 295/2/3 294/2/3 293/2/3
f 296/2/3 294/2/3 295/2/3
f 299/1/3 298/1/3 297/1/3
f 300/1/3 298/1/3 299/1/3
f 303/3/3 302/3/3 301/3/3
f 304/3/3 302/3/3 303/3/3
f 307/3/3 306/3/3 305/3/3
f 308/3/3 306/3/3 307/3/3
f 311/3/3 310/3/3 309/3/3
f 312/3/3 310/3/3 311/3/3
f 313/3/4 314/3/4 315/3/4
f 315/3/4 314/3/4 316/3/4
f 317/3/4 318/3/4 319/3/4
f 319/3/4 318/3/4 320/3/4
f 321/1/4 322/1/4 323/1/4
f 323/1/4 322/1/4 324/1/4
f 325/3/4 326/3/4 327/3/4
f 327/3/4 326/3/4 328/3/4
f 329/3/4 330/3/4 331/3/4
f 331/3/4 330/3/4 332/3/4
f 333/2/4 334/2/4 335/2/4
f 335/2/4 334/2/4 336/2/4
f 337/2/4 338/2/4 339/2/4
f 339/2/4 338/2/4 340/2/4
f 341/2/4 342/2/4 345/2/4
f 345/2/4 342/2/4 346/2/4
f 343/2/4 344/2/4 347/2/4
f 347/2/4 344/2/4 348/2/4
f 349/2/4 350/2/4 351/2/4
f 351/2/4 350/2/4 352/2/4
f 353/2/4 354/2/4 355/2/4
f 355/2/4 354/2/4 356/2/4
f 357/2/4 358/2/4 361/2/4
f 361/2/4 358/2/4 362/2/4
f 359/2/4 360/2/4 363/2/4
f 363/2/4 360/2/4 364/2/4
f 365/2/4 366/2/4 368/2/4
f 368/2/4 366/2/4 369/2/4
f 367/2/4 368/2/4 371/2/4
f 371/2/4 368/2/4 372/2/4
f 369/2/4 370/2/4 373/2/4
f 373/2/4 370/2/4 374/2/4
f 375/2/4 376/2/4 377/2/4
f 377/2/4 376/2/4 378/2/4
f 379/2/4 380/2/4 383/2/4
f 383/2/4 380/2/4 384/2/4
f 381/2/4 382/2/4 385/2/4
f 385/2/4 382/2/4 386/2/4
f 384/2/4 385/2/4 387/2/4
f 387/2/4 385/2/4 388/2/4
f 389/2/4 390/2/4 392/2/4
f 392/2/4 390/2/4 393/2/4
f 393/2/4 390/2/4 394/2/4
f 394/2/4 390/2/4 395/2/4
f 391/2/4 392/2/4 397/2/4
f 392/2/4 393/2/4 397/2/4
f 395/2/4 396/2/4 398/2/4
f 394/2/4 395/2/4 398/2/4
f 398/2/4 396/2/4 399/2/4
f 397/2/4 398/2/4 399/2/4
f 399/2/4 396/2/4 400/2/4
f 397/2/4 399/2/4 401/2/4
f 400/2/4 396/2/4 402/2/4
f 391/2/4 397/2/4 403/2/4
f 401/2/4 402/2/4 403/2/4
f 397/2/4 401/2/4 403/2/4
f 403/2/4 402/2/4 404/2/4
f 402/2/4 396/2/4 405/2/4
f 404/2/4 402/2/4 405/2/4
f 405/2/4 396/2/4 406/2/4
f 404/2/4 405/2/4 407/2/4
f 407/2/4 405/2/4 408/2/4
f 409/3/4 410/3/4 411/3/4
f 411/3/4 410/3/4 412/3/4
f 413/3/4 414/3/4 415/3/4
f 415/3/4 414/3/4 416/3/4
f 419/1/5 418/1/5 417/1/5
f 420/1/5 418/1/5 419/1/5
f 424/2/5 422/2/5 421/2/5
f 425/2/5 422/2/5 424/2/5
f 428/2/5 424/2/5 423/2/5
f 428/2/5 426/2/5 425/2/5
f 428/2/5 425/2/5 424/2/5
f 429/2/5 426/2/5 428/2/5
f 431/2/5 428/2/5 427/2/5
f 431/2/5 430/2/5 429/2/5
f 431/2/5 429/2/5 428/2/5
f 432/2/5 430/2/5 431/2/5
f 433/2/5 431/2/5 427/2/5
f 434/2/5 430/2/5 432/2/5
f 435/2/5 433/2/5 427/2/5
f 435/2/5 434/2/5 433/2/5
f 436/2/5 434/2/5 435/2/5
f 437/2/5 430/2/5 434/2/5
f 437/2/5 434/2/5 436/2/5
f 438/2/5 430/2/5 437/2/5
f 439/2/5 437/2/5 436/2/5
f 440/2/5 437/2/5 439/2/5
f 441/2/5 437/2/5 440/2/5
f 442/2/5 437/2/5 441/2/5
f 443/2/5 441/2/5 440/2/5
f 444/2/5 441/2/5 443/2/5
f 450/2/5 446/2/5 445/2/5
f 451/2/5 446/2/5 450/2/5
f 452/2/5 448/2/5 447/2/5
f 453/2/5 448/2/5 452/2/5
f 455/2/5 450/2/5 449/2/5
f 456/2/5 450/2/5 455/2/5
f 457/2/5 454/2/5 453/2/5
f 458/2/5 454/2/5 457/2/5
f 461/3/5 460/3/5 459/3/5
f 462/3/5 460/3/5 461/3/5
f 467/2/5 464/2/5 463/2/5
f 468/2/5 464/2/5 467/2/5
f 471/2/5 466/2/5 465/2/5
f 472/2/5 466/2/5 471/2/5
f 473/2/5 469/2/5 468/2/5
f 474/2/5 469/2/5 473/2/5
f 475/2/5 471/2/5 470/2/5
f 476/2/5 471/2/5 475/2/5
f 479/3/5 478/3/5 477/3/5
f 480/3/5 478/3/5 479/3/5
f 483/3/5 482/3/5 481/3/5
f 484/3/5 482/3/5 483/3/5
f 487/3/5 486/3/5 485/3/5
f 488/3/5 486/3/5 487/3/5
f 491/3/5 490/3/5 489/3/5
f 492/3/5 490/3/5 491/3/5
f 495/3/5 494/3/5 493/3/5
f 496/3/5 494/3/5 495/3/5
f 499/3/5 498/3/5 497/3/5
f 500/3/5 498/3/5 499/3/5
f 503/3/5 502/3/5 501/3/5
f 504/3/5 502/3/5 503/3/5
f 505/3/6 506/3/6 507/3/6
f 507/3/6 506/3/6 508/3/6
f 509/3/6 510/3/6 511/3/6
f 511/3/6 510/3/6 512/3/6
f 513/3/6 514/3/6 515/3/6
f 515/3/6 514/3/6 516/3/6
f 517/3/6 518/3/6 519/3/6
f 519/3/6 518/3/6 520/3/6
f 521/3/6 522/3/6 523/3/6
f 523/3/6 522/3/6 524/3/6
f 525/3/6 526/3/6 527/3/6
f 527/3/6 526/3/6 528/3/6
f 529/3/6 530/3/6 531/3/6
f 531/3/6 530/3/6 532/3/6
f 533/2/6 534/2/6 538/2/6
f 538/2/6 534/2/6 539/2/6
f 535/2/6 536/2/6 540/2/6
f 540/2/6 536/2/6 541/2/6
f 537/2/6 538/2/6 543/2/6
f 543/2/6 538/2/6 544/2/6
f 541/2/6 542/2/6 545/2/6
f 545/2/6 542/2/6 546/2/6
f 547/3/6 548/3/6 549/3/6
f 549/3/6 548/3/6 550/3/6
f 551/2/6 552/2/6 555/2/6
f 555/2/6 552/2/6 556/2/6
f 553/2/6 554/2/6 559/2/6
f 559/2/6 554/2/6 560/2/6
f 556/2/6 557/2/6 561/2/6
f 561/2/6 557/2/6 562/2/6
f 558/2/6 559/2/6 563/2/6
f 563/2/6 559/2/6 564/2/6
f 565/2/6 566/2/6 568/2/6
f 568/2/6 566/2/6 569/2/6
f 569/2/6 566/2/6 570/2/6
f 570/2/6 566/2/6 571/2/6
f 567/2/6 568/2/6 574/2/6
f 568/2/6 569/2/6 574/2/6
f 574/2/6 569/2/6 575/2/6
f 575/2/6 569/2/6 576/2/6
f 570/2/6 571/2/6 577/2/6
f 571/2/6 572/2/6 577/2/6
f 577/2/6 572/2/6 578/2/6
f 578/2/6 572/2/6 579/2/6
f 574/2/6 575/2/6 581/2/6
f 573/2/6 574/2/6 581/2/6
f 581/2/6 575/2/6 582/2/6
f 579/2/6 580/2/6 583/2/6
f 578/2/6 579/2/6 583/2/6
f 583/2/6 580/2/6 584/2/6
f 573/2/6 581/2/6 585/2/6
f 584/2/6 580/2/6 588/2/6
f 585/2/6 586/2/6 589/2/6
f 573/2/6 585/2/6 589/2/6
f 589/2/6 586/2/6 590/2/6
f 590/2/6 586/2/6 591/2/6
f 587/2/6 588/2/6 594/2/6
f 588/2/6 580/2/6 595/2/6
f 594/2/6 588/2/6 595/2/6
f 595/2/6 580/2/6 596/2/6
f 591/2/6 592/2/6 597/2/6
f 590/2/6 591/2/6 597/2/6
f 597/2/6 592/2/6 598/2/6
f 598/2/6 592/2/6 599/2/6
f 593/2/6 594/2/6 600/2/6
f 594/2/6 595/2/6 600/2/6
f 600/2/6 595/2/6 601/2/6
f 601/2/6 595/2/6 602/2/6
f 598/2/6 599/2/6 603/2/6
f 600/2/6 601/2/6 603/2/6
f 599/2/6 600/2/6 603/2/6
f 603/2/6 601/2/6 604/2/6
f 605/2/6 606/2/6 608/2/6
f 608/2/6 606/2/6 609/2/6
f 607/2/6 608/2/6 612/2/6
f 609/2/6 610/2/6 612/2/6
f 608/2/6 609/2/6 612/2/6
f 612/2/6 610/2/6 613/2/6
f 611/2/6 612/2/6 615/2/6
f 613/2/6 614/2/6 615/2/6
f 612/2/6 613/2/6 615/2/6
f 615/2/6 614/2/6 616/2/6
f 616/2/6 614/2/6 617/2/6
f 617/2/6 614/2/6 618/2/6
f 616/2/6 617/2/6 619/2/6
f 619/2/6 617/2/6 620/2/6
f 620/2/6 617/2/6 621/2/6
f 621/2/6 617/2/6 622/2/6
f 620/2/6 621/2/6 623/2/6
f 623/2/6 621/2/6 624/2/6
