# MagicaVoxel @ Ephtracy

# group
g BasicHouse

# material
mtllib BasicHouse.mtl
usemtl palette

# normals
vn -1 0 0
vn 1 0 0
vn 0 0 1
vn 0 0 -1
vn 0 -1 0
vn 0 1 0

# texcoords
vt 0.0214844 0.5
vt 0.0292969 0.5
vt 0.0488281 0.5
vt 0.0722656 0.5
vt 0.0761719 0.5
vt 0.0800781 0.5

# verts
v -24 24 16
v -24 24 15
v -24 24 -15
v -24 24 -16
v -24 25 16
v -24 25 15
v -24 25 14
v -24 25 -14
v -24 25 -15
v -24 25 -16
v -24 26 15
v -24 26 14
v -24 26 13
v -24 26 -13
v -24 26 -14
v -24 26 -15
v -24 27 14
v -24 27 13
v -24 27 12
v -24 27 -12
v -24 27 -13
v -24 27 -14
v -24 28 13
v -24 28 12
v -24 28 11
v -24 28 -11
v -24 28 -12
v -24 28 -13
v -24 29 12
v -24 29 11
v -24 29 10
v -24 29 -10
v -24 29 -11
v -24 29 -12
v -24 30 11
v -24 30 10
v -24 30 9
v -24 30 -9
v -24 30 -10
v -24 30 -11
v -24 31 10
v -24 31 9
v -24 31 -9
v -24 31 -10
v -24 32 9
v -24 32 -9
v -22 0 14
v -22 0 -14
v -22 25 14
v -22 25 -14
v -22 26 14
v -22 26 13
v -22 26 -13
v -22 26 -14
v -22 27 13
v -22 27 12
v -22 27 -12
v -22 27 -13
v -22 28 12
v -22 28 11
v -22 28 -11
v -22 28 -12
v -22 29 11
v -22 29 10
v -22 29 -10
v -22 29 -11
v -22 30 10
v -22 30 9
v -22 30 -9
v -22 30 -10
v -22 31 9
v -22 31 -9
v -18 6 15
v -18 6 14
v -18 15 15
v -18 15 14
v -13 7 15
v -13 7 14
v -13 10 15
v -13 10 14
v -13 11 15
v -13 11 14
v -13 14 15
v -13 14 14
v -8 7 15
v -8 7 14
v -8 10 15
v -8 10 14
v -8 11 15
v -8 11 14
v -8 14 15
v -8 14 14
v 7 0 16
v 7 0 14
v 7 1 16
v 7 1 15
v 7 2 15
v 7 2 14
v 15 2 14
v 15 2 13
v 15 14 14
v 15 14 13
v -17 7 15
v -17 7 14
v -17 10 15
v -17 10 14
v -17 11 15
v -17 11 14
v -17 14 15
v -17 14 14
v -12 7 15
v -12 7 14
v -12 10 15
v -12 10 14
v -12 11 15
v -12 11 14
v -12 14 15
v -12 14 14
v -7 6 15
v -7 6 14
v -7 15 15
v -7 15 14
v 7 2 14
v 7 2 13
v 7 14 14
v 7 14 13
v 15 0 16
v 15 0 14
v 15 1 16
v 15 1 15
v 15 2 15
v 15 2 14
v 22 0 14
v 22 0 -14
v 22 25 14
v 22 25 -14
v 22 26 14
v 22 26 13
v 22 26 -13
v 22 26 -14
v 22 27 13
v 22 27 12
v 22 27 -12
v 22 27 -13
v 22 28 12
v 22 28 11
v 22 28 -11
v 22 28 -12
v 22 29 11
v 22 29 10
v 22 29 -10
v 22 29 -11
v 22 30 10
v 22 30 9
v 22 30 -9
v 22 30 -10
v 22 31 9
v 22 31 -9
v 24 24 16
v 24 24 15
v 24 24 -15
v 24 24 -16
v 24 25 16
v 24 25 15
v 24 25 14
v 24 25 -14
v 24 25 -15
v 24 25 -16
v 24 26 15
v 24 26 14
v 24 26 13
v 24 26 -13
v 24 26 -14
v 24 26 -15
v 24 27 14
v 24 27 13
v 24 27 12
v 24 27 -12
v 24 27 -13
v 24 27 -14
v 24 28 13
v 24 28 12
v 24 28 11
v 24 28 -11
v 24 28 -12
v 24 28 -13
v 24 29 12
v 24 29 11
v 24 29 10
v 24 29 -10
v 24 29 -11
v 24 29 -12
v 24 30 11
v 24 30 10
v 24 30 9
v 24 30 -9
v 24 30 -10
v 24 30 -11
v 24 31 10
v 24 31 9
v 24 31 -9
v 24 31 -10
v 24 32 9
v 24 32 -9
v -24 24 16
v -24 25 16
v 7 0 16
v 7 1 16
v 15 0 16
v 15 1 16
v 24 24 16
v 24 25 16
v -24 25 15
v -24 26 15
v -18 6 15
v -18 15 15
v -17 7 15
v -17 10 15
v -17 11 15
v -17 14 15
v -13 7 15
v -13 10 15
v -13 11 15
v -13 14 15
v -12 7 15
v -12 10 15
v -12 11 15
v -12 14 15
v -8 7 15
v -8 10 15
v -8 11 15
v -8 14 15
v -7 6 15
v -7 15 15
v 7 1 15
v 7 2 15
v 15 1 15
v 15 2 15
v 24 25 15
v 24 26 15
v -24 26 14
v -24 27 14
v -22 0 14
v -22 25 14
v -18 6 14
v -18 15 14
v -17 7 14
v -17 10 14
v -17 11 14
v -17 14 14
v -13 7 14
v -13 10 14
v -13 11 14
v -13 14 14
v -12 7 14
v -12 10 14
v -12 11 14
v -12 14 14
v -8 7 14
v -8 10 14
v -8 11 14
v -8 14 14
v -7 6 14
v -7 15 14
v 7 0 14
v 7 2 14
v 7 14 14
v 15 0 14
v 15 2 14
v 15 14 14
v 22 0 14
v 22 25 14
v 24 26 14
v 24 27 14
v -24 27 13
v -24 28 13
v 7 2 13
v 7 14 13
v 13 7 13
v 13 8 13
v 14 7 13
v 14 8 13
v 15 2 13
v 15 14 13
v 24 27 13
v 24 28 13
v -24 28 12
v -24 29 12
v 24 28 12
v 24 29 12
v -24 29 11
v -24 30 11
v 24 29 11
v 24 30 11
v -24 30 10
v -24 31 10
v 24 30 10
v 24 31 10
v -24 31 9
v -24 32 9
v 24 31 9
v 24 32 9
v -24 30 -9
v -24 31 -9
v -22 30 -9
v -22 31 -9
v 22 30 -9
v 22 31 -9
v 24 30 -9
v 24 31 -9
v -24 29 -10
v -24 30 -10
v -22 29 -10
v -22 30 -10
v 22 29 -10
v 22 30 -10
v 24 29 -10
v 24 30 -10
v -24 28 -11
v -24 29 -11
v -22 28 -11
v -22 29 -11
v 22 28 -11
v 22 29 -11
v 24 28 -11
v 24 29 -11
v -24 27 -12
v -24 28 -12
v -22 27 -12
v -22 28 -12
v 22 27 -12
v 22 28 -12
v 24 27 -12
v 24 28 -12
v -24 26 -13
v -24 27 -13
v -22 26 -13
v -22 27 -13
v 22 26 -13
v 22 27 -13
v 24 26 -13
v 24 27 -13
v -24 25 -14
v -24 26 -14
v -22 25 -14
v -22 26 -14
v 22 25 -14
v 22 26 -14
v 24 25 -14
v 24 26 -14
v -24 24 -15
v -24 25 -15
v 24 24 -15
v 24 25 -15
v -24 24 15
v -24 25 15
v 24 24 15
v 24 25 15
v -24 25 14
v -24 26 14
v -22 25 14
v -22 26 14
v 22 25 14
v 22 26 14
v 24 25 14
v 24 26 14
v -24 26 13
v -24 27 13
v -22 26 13
v -22 27 13
v 22 26 13
v 22 27 13
v 24 26 13
v 24 27 13
v -24 27 12
v -24 28 12
v -22 27 12
v -22 28 12
v 22 27 12
v 22 28 12
v 24 27 12
v 24 28 12
v -24 28 11
v -24 29 11
v -22 28 11
v -22 29 11
v 22 28 11
v 22 29 11
v 24 28 11
v 24 29 11
v -24 29 10
v -24 30 10
v -22 29 10
v -22 30 10
v 22 29 10
v 22 30 10
v 24 29 10
v 24 30 10
v -24 30 9
v -24 31 9
v -22 30 9
v -22 31 9
v 22 30 9
v 22 31 9
v 24 30 9
v 24 31 9
v -24 31 -9
v -24 32 -9
v 24 31 -9
v 24 32 -9
v -24 30 -10
v -24 31 -10
v 24 30 -10
v 24 31 -10
v -24 29 -11
v -24 30 -11
v 24 29 -11
v 24 30 -11
v -24 28 -12
v -24 29 -12
v 24 28 -12
v 24 29 -12
v -24 27 -13
v -24 28 -13
v 24 27 -13
v 24 28 -13
v -24 26 -14
v -24 27 -14
v -22 0 -14
v -22 25 -14
v 22 0 -14
v 22 25 -14
v 24 26 -14
v 24 27 -14
v -24 25 -15
v -24 26 -15
v 24 25 -15
v 24 26 -15
v -24 24 -16
v -24 25 -16
v 24 24 -16
v 24 25 -16
v 7 0 16
v 15 0 16
v -22 0 14
v 7 0 14
v 15 0 14
v 22 0 14
v -22 0 -14
v 22 0 -14
v -18 6 15
v -7 6 15
v -18 6 14
v -7 6 14
v -17 10 15
v -13 10 15
v -12 10 15
v -8 10 15
v -17 10 14
v -13 10 14
v -12 10 14
v -8 10 14
v -17 14 15
v -13 14 15
v -12 14 15
v -8 14 15
v -17 14 14
v -13 14 14
v -12 14 14
v -8 14 14
v 7 14 14
v 15 14 14
v 7 14 13
v 15 14 13
v -24 24 16
v 24 24 16
v -24 24 15
v 24 24 15
v -24 24 -15
v 24 24 -15
v -24 24 -16
v 24 24 -16
v -24 25 15
v 24 25 15
v -24 25 14
v -22 25 14
v 22 25 14
v 24 25 14
v -24 25 -14
v -22 25 -14
v 22 25 -14
v 24 25 -14
v -24 25 -15
v 24 25 -15
v -24 26 14
v -22 26 14
v 22 26 14
v 24 26 14
v -24 26 13
v -22 26 13
v 22 26 13
v 24 26 13
v -24 26 -13
v -22 26 -13
v 22 26 -13
v 24 26 -13
v -24 26 -14
v -22 26 -14
v 22 26 -14
v 24 26 -14
v -24 27 13
v -22 27 13
v 22 27 13
v 24 27 13
v -24 27 12
v -22 27 12
v 22 27 12
v 24 27 12
v -24 27 -12
v -22 27 -12
v 22 27 -12
v 24 27 -12
v -24 27 -13
v -22 27 -13
v 22 27 -13
v 24 27 -13
v -24 28 12
v -22 28 12
v 22 28 12
v 24 28 12
v -24 28 11
v -22 28 11
v 22 28 11
v 24 28 11
v -24 28 -11
v -22 28 -11
v 22 28 -11
v 24 28 -11
v -24 28 -12
v -22 28 -12
v 22 28 -12
v 24 28 -12
v -24 29 11
v -22 29 11
v 22 29 11
v 24 29 11
v -24 29 10
v -22 29 10
v 22 29 10
v 24 29 10
v -24 29 -10
v -22 29 -10
v 22 29 -10
v 24 29 -10
v -24 29 -11
v -22 29 -11
v 22 29 -11
v 24 29 -11
v -24 30 10
v -22 30 10
v 22 30 10
v 24 30 10
v -24 30 9
v -22 30 9
v 22 30 9
v 24 30 9
v -24 30 -9
v -22 30 -9
v 22 30 -9
v 24 30 -9
v -24 30 -10
v -22 30 -10
v 22 30 -10
v 24 30 -10
v -24 31 9
v -22 31 9
v 22 31 9
v 24 31 9
v -24 31 -9
v -22 31 -9
v 22 31 -9
v 24 31 -9
v 7 1 16
v 15 1 16
v 7 1 15
v 15 1 15
v 7 2 15
v 15 2 15
v 7 2 14
v 15 2 14
v 7 2 13
v 15 2 13
v -17 7 15
v -13 7 15
v -12 7 15
v -8 7 15
v -17 7 14
v -13 7 14
v -12 7 14
v -8 7 14
v -17 11 15
v -13 11 15
v -12 11 15
v -8 11 15
v -17 11 14
v -13 11 14
v -12 11 14
v -8 11 14
v -18 15 15
v -7 15 15
v -18 15 14
v -7 15 14
v -24 25 16
v 24 25 16
v -24 25 15
v 24 25 15
v -24 25 -15
v 24 25 -15
v -24 25 -16
v 24 25 -16
v -24 26 15
v 24 26 15
v -24 26 14
v 24 26 14
v -24 26 -14
v 24 26 -14
v -24 26 -15
v 24 26 -15
v -24 27 14
v 24 27 14
v -24 27 13
v 24 27 13
v -24 27 -13
v 24 27 -13
v -24 27 -14
v 24 27 -14
v -24 28 13
v 24 28 13
v -24 28 12
v 24 28 12
v -24 28 -12
v 24 28 -12
v -24 28 -13
v 24 28 -13
v -24 29 12
v 24 29 12
v -24 29 11
v 24 29 11
v -24 29 -11
v 24 29 -11
v -24 29 -12
v 24 29 -12
v -24 30 11
v 24 30 11
v -24 30 10
v 24 30 10
v -24 30 -10
v 24 30 -10
v -24 30 -11
v 24 30 -11
v -24 31 10
v 24 31 10
v -24 31 9
v 24 31 9
v -24 31 -9
v 24 31 -9
v -24 31 -10
v 24 31 -10
v -24 32 9
v 24 32 9
v -24 32 -9
v 24 32 -9

# faces
f 5/1/1 2/1/1 1/1/1
f 6/1/1 2/1/1 5/1/1
f 9/1/1 4/1/1 3/1/1
f 10/1/1 4/1/1 9/1/1
f 11/1/1 7/1/1 6/1/1
f 12/1/1 7/1/1 11/1/1
f 15/1/1 9/1/1 8/1/1
f 16/1/1 9/1/1 15/1/1
f 17/1/1 13/1/1 12/1/1
f 18/1/1 13/1/1 17/1/1
f 21/1/1 15/1/1 14/1/1
f 22/1/1 15/1/1 21/1/1
f 23/1/1 19/1/1 18/1/1
f 24/1/1 19/1/1 23/1/1
f 27/1/1 21/1/1 20/1/1
f 28/1/1 21/1/1 27/1/1
f 29/1/1 25/1/1 24/1/1
f 30/1/1 25/1/1 29/1/1
f 33/1/1 27/1/1 26/1/1
f 34/1/1 27/1/1 33/1/1
f 35/1/1 31/1/1 30/1/1
f 36/1/1 31/1/1 35/1/1
f 39/1/1 33/1/1 32/1/1
f 40/1/1 33/1/1 39/1/1
f 41/1/1 37/1/1 36/1/1
f 42/1/1 37/1/1 41/1/1
f 43/1/1 39/1/1 38/1/1
f 44/1/1 39/1/1 43/1/1
f 45/1/1 43/1/1 42/1/1
f 46/1/1 43/1/1 45/1/1
f 49/6/1 48/6/1 47/6/1
f 50/6/1 48/6/1 49/6/1
f 51/6/1 50/6/1 49/6/1
f 52/6/1 50/6/1 51/6/1
f 53/6/1 50/6/1 52/6/1
f 54/6/1 50/6/1 53/6/1
f 55/6/1 53/6/1 52/6/1
f 56/6/1 53/6/1 55/6/1
f 57/6/1 53/6/1 56/6/1
f 58/6/1 53/6/1 57/6/1
f 59/6/1 57/6/1 56/6/1
f 60/6/1 57/6/1 59/6/1
f 61/6/1 57/6/1 60/6/1
f 62/6/1 57/6/1 61/6/1
f 63/6/1 61/6/1 60/6/1
f 64/6/1 61/6/1 63/6/1
f 65/6/1 61/6/1 64/6/1
f 66/6/1 61/6/1 65/6/1
f 67/6/1 65/6/1 64/6/1
f 68/6/1 65/6/1 67/6/1
f 69/6/1 65/6/1 68/6/1
f 70/6/1 65/6/1 69/6/1
f 71/6/1 69/6/1 68/6/1
f 72/6/1 69/6/1 71/6/1
f 75/5/1 74/5/1 73/5/1
f 76/5/1 74/5/1 75/5/1
f 79/5/1 78/5/1 77/5/1
f 80/5/1 78/5/1 79/5/1
f 83/5/1 82/5/1 81/5/1
f 84/5/1 82/5/1 83/5/1
f 87/5/1 86/5/1 85/5/1
f 88/5/1 86/5/1 87/5/1
f 91/5/1 90/5/1 89/5/1
f 92/5/1 90/5/1 91/5/1
f 95/6/1 94/6/1 93/6/1
f 96/6/1 94/6/1 95/6/1
f 97/6/1 94/6/1 96/6/1
f 98/6/1 94/6/1 97/6/1
f 101/6/1 100/6/1 99/6/1
f 102/6/1 100/6/1 101/6/1
f 103/5/2 104/5/2 105/5/2
f 105/5/2 104/5/2 106/5/2
f 107/5/2 108/5/2 109/5/2
f 109/5/2 108/5/2 110/5/2
f 111/5/2 112/5/2 113/5/2
f 113/5/2 112/5/2 114/5/2
f 115/5/2 116/5/2 117/5/2
f 117/5/2 116/5/2 118/5/2
f 119/5/2 120/5/2 121/5/2
f 121/5/2 120/5/2 122/5/2
f 123/6/2 124/6/2 125/6/2
f 125/6/2 124/6/2 126/6/2
f 127/6/2 128/6/2 129/6/2
f 129/6/2 128/6/2 130/6/2
f 130/6/2 128/6/2 131/6/2
f 131/6/2 128/6/2 132/6/2
f 133/6/2 134/6/2 135/6/2
f 135/6/2 134/6/2 136/6/2
f 135/6/2 136/6/2 137/6/2
f 137/6/2 136/6/2 138/6/2
f 138/6/2 136/6/2 139/6/2
f 139/6/2 136/6/2 140/6/2
f 138/6/2 139/6/2 141/6/2
f 141/6/2 139/6/2 142/6/2
f 142/6/2 139/6/2 143/6/2
f 143/6/2 139/6/2 144/6/2
f 142/6/2 143/6/2 145/6/2
f 145/6/2 143/6/2 146/6/2
f 146/6/2 143/6/2 147/6/2
f 147/6/2 143/6/2 148/6/2
f 146/6/2 147/6/2 149/6/2
f 149/6/2 147/6/2 150/6/2
f 150/6/2 147/6/2 151/6/2
f 151/6/2 147/6/2 152/6/2
f 150/6/2 151/6/2 153/6/2
f 153/6/2 151/6/2 154/6/2
f 154/6/2 151/6/2 155/6/2
f 155/6/2 151/6/2 156/6/2
f 154/6/2 155/6/2 157/6/2
f 157/6/2 155/6/2 158/6/2
f 159/1/2 160/1/2 163/1/2
f 163/1/2 160/1/2 164/1/2
f 161/1/2 162/1/2 167/1/2
f 167/1/2 162/1/2 168/1/2
f 164/1/2 165/1/2 169/1/2
f 169/1/2 165/1/2 170/1/2
f 166/1/2 167/1/2 173/1/2
f 173/1/2 167/1/2 174/1/2
f 170/1/2 171/1/2 175/1/2
f 175/1/2 171/1/2 176/1/2
f 172/1/2 173/1/2 179/1/2
f 179/1/2 173/1/2 180/1/2
f 176/1/2 177/1/2 181/1/2
f 181/1/2 177/1/2 182/1/2
f 178/1/2 179/1/2 185/1/2
f 185/1/2 179/1/2 186/1/2
f 182/1/2 183/1/2 187/1/2
f 187/1/2 183/1/2 188/1/2
f 184/1/2 185/1/2 191/1/2
f 191/1/2 185/1/2 192/1/2
f 188/1/2 189/1/2 193/1/2
f 193/1/2 189/1/2 194/1/2
f 190/1/2 191/1/2 197/1/2
f 197/1/2 191/1/2 198/1/2
f 194/1/2 195/1/2 199/1/2
f 199/1/2 195/1/2 200/1/2
f 196/1/2 197/1/2 201/1/2
f 201/1/2 197/1/2 202/1/2
f 200/1/2 201/1/2 203/1/2
f 203/1/2 201/1/2 204/1/2
f 209/6/3 208/6/3 207/6/3
f 210/6/3 208/6/3 209/6/3
f 211/1/3 206/1/3 205/1/3
f 212/1/3 206/1/3 211/1/3
f 217/5/3 216/5/3 215/5/3
f 218/5/3 216/5/3 217/5/3
f 219/5/3 216/5/3 218/5/3
f 220/5/3 216/5/3 219/5/3
f 221/5/3 217/5/3 215/5/3
f 222/5/3 219/5/3 218/5/3
f 223/5/3 219/5/3 222/5/3
f 224/5/3 216/5/3 220/5/3
f 225/5/3 223/5/3 222/5/3
f 225/5/3 224/5/3 223/5/3
f 225/5/3 221/5/3 215/5/3
f 225/5/3 222/5/3 221/5/3
f 226/5/3 224/5/3 225/5/3
f 227/5/3 224/5/3 226/5/3
f 228/5/3 216/5/3 224/5/3
f 228/5/3 224/5/3 227/5/3
f 229/5/3 225/5/3 215/5/3
f 230/5/3 227/5/3 226/5/3
f 231/5/3 227/5/3 230/5/3
f 232/5/3 216/5/3 228/5/3
f 233/5/3 229/5/3 215/5/3
f 233/5/3 232/5/3 231/5/3
f 233/5/3 231/5/3 230/5/3
f 233/5/3 230/5/3 229/5/3
f 234/5/3 216/5/3 232/5/3
f 234/5/3 232/5/3 233/5/3
f 237/6/3 236/6/3 235/6/3
f 238/6/3 236/6/3 237/6/3
f 239/1/3 214/1/3 213/1/3
f 240/1/3 214/1/3 239/1/3
f 245/6/3 244/6/3 243/6/3
f 246/6/3 244/6/3 245/6/3
f 251/3/3 248/3/3 247/3/3
f 252/3/3 248/3/3 251/3/3
f 253/3/3 250/3/3 249/3/3
f 254/3/3 250/3/3 253/3/3
f 259/3/3 256/3/3 255/3/3
f 260/3/3 256/3/3 259/3/3
f 261/3/3 258/3/3 257/3/3
f 262/3/3 258/3/3 261/3/3
f 263/6/3 245/6/3 243/6/3
f 264/6/3 244/6/3 246/6/3
f 265/6/3 263/6/3 243/6/3
f 265/6/3 264/6/3 263/6/3
f 266/6/3 264/6/3 265/6/3
f 267/6/3 264/6/3 266/6/3
f 270/6/3 264/6/3 267/6/3
f 271/6/3 269/6/3 268/6/3
f 271/6/3 270/6/3 269/6/3
f 272/6/3 244/6/3 264/6/3
f 272/6/3 270/6/3 271/6/3
f 272/6/3 264/6/3 270/6/3
f 273/1/3 242/1/3 241/1/3
f 274/1/3 242/1/3 273/1/3
f 279/4/3 278/4/3 277/4/3
f 280/4/3 278/4/3 279/4/3
f 281/4/3 279/4/3 277/4/3
f 281/2/3 280/2/3 279/2/3
f 282/4/3 278/4/3 280/4/3
f 282/2/3 280/2/3 281/2/3
f 283/4/3 281/4/3 277/4/3
f 283/4/3 282/4/3 281/4/3
f 284/4/3 278/4/3 282/4/3
f 284/4/3 282/4/3 283/4/3
f 285/1/3 276/1/3 275/1/3
f 286/1/3 276/1/3 285/1/3
f 289/1/3 288/1/3 287/1/3
f 290/1/3 288/1/3 289/1/3
f 293/1/3 292/1/3 291/1/3
f 294/1/3 292/1/3 293/1/3
f 297/1/3 296/1/3 295/1/3
f 298/1/3 296/1/3 297/1/3
f 301/1/3 300/1/3 299/1/3
f 302/1/3 300/1/3 301/1/3
f 305/1/3 304/1/3 303/1/3
f 306/1/3 304/1/3 305/1/3
f 309/1/3 308/1/3 307/1/3
f 310/1/3 308/1/3 309/1/3
f 313/1/3 312/1/3 311/1/3
f 314/1/3 312/1/3 313/1/3
f 317/1/3 316/1/3 315/1/3
f 318/1/3 316/1/3 317/1/3
f 321/1/3 320/1/3 319/1/3
f 322/1/3 320/1/3 321/1/3
f 325/1/3 324/1/3 323/1/3
f 326/1/3 324/1/3 325/1/3
f 329/1/3 328/1/3 327/1/3
f 330/1/3 328/1/3 329/1/3
f 333/1/3 332/1/3 331/1/3
f 334/1/3 332/1/3 333/1/3
f 337/1/3 336/1/3 335/1/3
f 338/1/3 336/1/3 337/1/3
f 341/1/3 340/1/3 339/1/3
f 342/1/3 340/1/3 341/1/3
f 345/1/3 344/1/3 343/1/3
f 346/1/3 344/1/3 345/1/3
f 349/1/3 348/1/3 347/1/3
f 350/1/3 348/1/3 349/1/3
f 353/1/3 352/1/3 351/1/3
f 354/1/3 352/1/3 353/1/3
f 355/1/4 356/1/4 357/1/4
f 357/1/4 356/1/4 358/1/4
f 359/1/4 360/1/4 361/1/4
f 361/1/4 360/1/4 362/1/4
f 363/1/4 364/1/4 365/1/4
f 365/1/4 364/1/4 366/1/4
f 367/1/4 368/1/4 369/1/4
f 369/1/4 368/1/4 370/1/4
f 371/1/4 372/1/4 373/1/4
f 373/1/4 372/1/4 374/1/4
f 375/1/4 376/1/4 377/1/4
f 377/1/4 376/1/4 378/1/4
f 379/1/4 380/1/4 381/1/4
f 381/1/4 380/1/4 382/1/4
f 383/1/4 384/1/4 385/1/4
f 385/1/4 384/1/4 386/1/4
f 387/1/4 388/1/4 389/1/4
f 389/1/4 388/1/4 390/1/4
f 391/1/4 392/1/4 393/1/4
f 393/1/4 392/1/4 394/1/4
f 395/1/4 396/1/4 397/1/4
f 397/1/4 396/1/4 398/1/4
f 399/1/4 400/1/4 401/1/4
f 401/1/4 400/1/4 402/1/4
f 403/1/4 404/1/4 405/1/4
f 405/1/4 404/1/4 406/1/4
f 407/1/4 408/1/4 409/1/4
f 409/1/4 408/1/4 410/1/4
f 411/1/4 412/1/4 413/1/4
f 413/1/4 412/1/4 414/1/4
f 415/1/4 416/1/4 417/1/4
f 417/1/4 416/1/4 418/1/4
f 419/1/4 420/1/4 421/1/4
f 421/1/4 420/1/4 422/1/4
f 423/1/4 424/1/4 425/1/4
f 425/1/4 424/1/4 426/1/4
f 429/6/4 430/6/4 431/6/4
f 431/6/4 430/6/4 432/6/4
f 427/1/4 428/1/4 433/1/4
f 433/1/4 428/1/4 434/1/4
f 435/1/4 436/1/4 437/1/4
f 437/1/4 436/1/4 438/1/4
f 439/1/4 440/1/4 441/1/4
f 441/1/4 440/1/4 442/1/4
f 446/6/5 444/6/5 443/6/5
f 447/6/5 444/6/5 446/6/5
f 449/6/5 446/6/5 445/6/5
f 449/6/5 448/6/5 447/6/5
f 449/6/5 447/6/5 446/6/5
f 450/6/5 448/6/5 449/6/5
f 453/5/5 452/5/5 451/5/5
f 454/5/5 452/5/5 453/5/5
f 459/5/5 456/5/5 455/5/5
f 460/5/5 456/5/5 459/5/5
f 461/5/5 458/5/5 457/5/5
f 462/5/5 458/5/5 461/5/5
f 467/5/5 464/5/5 463/5/5
f 468/5/5 464/5/5 467/5/5
f 469/5/5 466/5/5 465/5/5
f 470/5/5 466/5/5 469/5/5
f 473/6/5 472/6/5 471/6/5
f 474/6/5 472/6/5 473/6/5
f 477/1/5 476/1/5 475/1/5
f 478/1/5 476/1/5 477/1/5
f 481/1/5 480/1/5 479/1/5
f 482/1/5 480/1/5 481/1/5
f 485/1/5 484/1/5 483/1/5
f 486/1/5 484/1/5 485/1/5
f 487/1/5 484/1/5 486/1/5
f 488/1/5 484/1/5 487/1/5
f 493/1/5 490/1/5 489/1/5
f 493/1/5 492/1/5 491/1/5
f 493/1/5 491/1/5 490/1/5
f 494/1/5 492/1/5 493/1/5
f 499/1/5 496/1/5 495/1/5
f 500/1/5 496/1/5 499/1/5
f 501/1/5 498/1/5 497/1/5
f 502/1/5 498/1/5 501/1/5
f 507/1/5 504/1/5 503/1/5
f 508/1/5 504/1/5 507/1/5
f 509/1/5 506/1/5 505/1/5
f 510/1/5 506/1/5 509/1/5
f 515/1/5 512/1/5 511/1/5
f 516/1/5 512/1/5 515/1/5
f 517/1/5 514/1/5 513/1/5
f 518/1/5 514/1/5 517/1/5
f 523/1/5 520/1/5 519/1/5
f 524/1/5 520/1/5 523/1/5
f 525/1/5 522/1/5 521/1/5
f 526/1/5 522/1/5 525/1/5
f 531/1/5 528/1/5 527/1/5
f 532/1/5 528/1/5 531/1/5
f 533/1/5 530/1/5 529/1/5
f 534/1/5 530/1/5 533/1/5
f 539/1/5 536/1/5 535/1/5
f 540/1/5 536/1/5 539/1/5
f 541/1/5 538/1/5 537/1/5
f 542/1/5 538/1/5 541/1/5
f 547/1/5 544/1/5 543/1/5
f 548/1/5 544/1/5 547/1/5
f 549/1/5 546/1/5 545/1/5
f 550/1/5 546/1/5 549/1/5
f 555/1/5 552/1/5 551/1/5
f 556/1/5 552/1/5 555/1/5
f 557/1/5 554/1/5 553/1/5
f 558/1/5 554/1/5 557/1/5
f 563/1/5 560/1/5 559/1/5
f 564/1/5 560/1/5 563/1/5
f 565/1/5 562/1/5 561/1/5
f 566/1/5 562/1/5 565/1/5
f 571/1/5 568/1/5 567/1/5
f 572/1/5 568/1/5 571/1/5
f 573/1/5 570/1/5 569/1/5
f 574/1/5 570/1/5 573/1/5
f 579/1/5 576/1/5 575/1/5
f 580/1/5 576/1/5 579/1/5
f 581/1/5 578/1/5 577/1/5
f 582/1/5 578/1/5 581/1/5
f 583/6/6 584/6/6 585/6/6
f 585/6/6 584/6/6 586/6/6
f 587/6/6 588/6/6 589/6/6
f 589/6/6 588/6/6 590/6/6
f 589/6/6 590/6/6 591/6/6
f 591/6/6 590/6/6 592/6/6
f 593/5/6 594/5/6 597/5/6
f 597/5/6 594/5/6 598/5/6
f 595/5/6 596/5/6 599/5/6
f 599/5/6 596/5/6 600/5/6
f 601/5/6 602/5/6 605/5/6
f 605/5/6 602/5/6 606/5/6
f 603/5/6 604/5/6 607/5/6
f 607/5/6 604/5/6 608/5/6
f 609/5/6 610/5/6 611/5/6
f 611/5/6 610/5/6 612/5/6
f 613/1/6 614/1/6 615/1/6
f 615/1/6 614/1/6 616/1/6
f 617/1/6 618/1/6 619/1/6
f 619/1/6 618/1/6 620/1/6
f 621/1/6 622/1/6 623/1/6
f 623/1/6 622/1/6 624/1/6
f 625/1/6 626/1/6 627/1/6
f 627/1/6 626/1/6 628/1/6
f 629/1/6 630/1/6 631/1/6
f 631/1/6 630/1/6 632/1/6
f 633/1/6 634/1/6 635/1/6
f 635/1/6 634/1/6 636/1/6
f 637/1/6 638/1/6 639/1/6
f 639/1/6 638/1/6 640/1/6
f 641/1/6 642/1/6 643/1/6
f 643/1/6 642/1/6 644/1/6
f 645/1/6 646/1/6 647/1/6
f 647/1/6 646/1/6 648/1/6
f 649/1/6 650/1/6 651/1/6
f 651/1/6 650/1/6 652/1/6
f 653/1/6 654/1/6 655/1/6
f 655/1/6 654/1/6 656/1/6
f 657/1/6 658/1/6 659/1/6
f 659/1/6 658/1/6 660/1/6
f 661/1/6 662/1/6 663/1/6
f 663/1/6 662/1/6 664/1/6
f 665/1/6 666/1/6 667/1/6
f 667/1/6 666/1/6 668/1/6
f 669/1/6 670/1/6 671/1/6
f 671/1/6 670/1/6 672/1/6
