# MagicaVoxel @ Ephtracy

# group
g BlueberryTree

# material
mtllib BlueberryTree.mtl
usemtl palette

# normals
vn -1 0 0
vn 1 0 0
vn 0 0 1
vn 0 0 -1
vn 0 -1 0
vn 0 1 0

# texcoords
vt 0.0761719 0.5
vt 0.142578 0.5
vt 0.162109 0.5

# verts
v -7 10 3
v -7 10 1
v -7 12 3
v -7 12 1
v -7 16 -2
v -7 16 -4
v -7 18 -2
v -7 18 -4
v -6 3 4
v -6 3 -4
v -6 4 5
v -6 4 4
v -6 4 -4
v -6 4 -5
v -6 6 -1
v -6 6 -3
v -6 8 -1
v -6 8 -3
v -6 10 3
v -6 10 1
v -6 12 3
v -6 12 1
v -6 16 -2
v -6 16 -4
v -6 18 -2
v -6 18 -4
v -6 19 5
v -6 19 4
v -6 19 -4
v -6 19 -5
v -6 20 4
v -6 20 2
v -6 20 -2
v -6 20 -4
v -6 21 2
v -6 21 -2
v -5 3 5
v -5 3 4
v -5 3 -4
v -5 3 -5
v -5 4 6
v -5 4 5
v -5 4 4
v -5 4 -4
v -5 4 -5
v -5 4 -6
v -5 19 6
v -5 19 5
v -5 19 4
v -5 19 -4
v -5 19 -5
v -5 19 -6
v -5 20 5
v -5 20 4
v -5 20 2
v -5 20 -2
v -5 20 -4
v -5 20 -5
v -5 21 4
v -5 21 2
v -5 21 -2
v -5 21 -4
v -5 22 2
v -5 22 -2
v -4 3 6
v -4 3 5
v -4 3 -5
v -4 3 -6
v -4 4 6
v -4 4 5
v -4 4 -5
v -4 4 -6
v -4 19 6
v -4 19 5
v -4 19 -5
v -4 19 -6
v -4 20 6
v -4 20 5
v -4 20 4
v -4 20 -4
v -4 20 -5
v -4 20 -6
v -4 21 5
v -4 21 4
v -4 21 3
v -4 21 2
v -4 21 -2
v -4 21 -3
v -4 21 -4
v -4 21 -5
v -4 22 3
v -4 22 2
v -4 22 -2
v -4 22 -3
v -3 16 7
v -3 16 6
v -3 18 7
v -3 18 6
v -3 21 4
v -3 21 3
v -3 21 -3
v -3 21 -4
v -3 22 4
v -3 22 3
v -3 22 2
v -3 22 -2
v -3 22 -3
v -3 22 -4
v -3 23 2
v -3 23 -2
v -2 0 2
v -2 0 -2
v -2 3 2
v -2 3 -2
v -2 20 6
v -2 20 5
v -2 20 -5
v -2 20 -6
v -2 21 6
v -2 21 5
v -2 21 4
v -2 21 -4
v -2 21 -5
v -2 21 -6
v -2 22 5
v -2 22 4
v -2 22 3
v -2 22 2
v -2 22 -2
v -2 22 -3
v -2 22 -4
v -2 22 -5
v -2 23 3
v -2 23 2
v -2 23 -2
v -2 23 -3
v -1 6 7
v -1 6 6
v -1 8 7
v -1 8 6
v 1 8 -6
v 1 8 -7
v 1 10 -6
v 1 10 -7
v -1 16 7
v -1 16 6
v -1 18 7
v -1 18 6
v 1 6 7
v 1 6 6
v 1 8 7
v 1 8 6
v 2 0 2
v 2 0 -2
v 2 3 2
v 2 3 -2
v 2 20 6
v 2 20 5
v 2 20 -5
v 2 20 -6
v 2 21 6
v 2 21 5
v 2 21 4
v 2 21 -4
v 2 21 -5
v 2 21 -6
v 2 22 5
v 2 22 4
v 2 22 3
v 2 22 2
v 2 22 -2
v 2 22 -3
v 2 22 -4
v 2 22 -5
v 2 23 3
v 2 23 2
v 2 23 -2
v 2 23 -3
v 3 8 -6
v 3 8 -7
v 3 10 -6
v 3 10 -7
v 3 21 4
v 3 21 3
v 3 21 -3
v 3 21 -4
v 3 22 4
v 3 22 3
v 3 22 2
v 3 22 -2
v 3 22 -3
v 3 22 -4
v 3 23 2
v 3 23 -2
v 4 3 6
v 4 3 5
v 4 3 -5
v 4 3 -6
v 4 4 6
v 4 4 5
v 4 4 -5
v 4 4 -6
v 4 19 6
v 4 19 5
v 4 19 -5
v 4 19 -6
v 4 20 6
v 4 20 5
v 4 20 4
v 4 20 -4
v 4 20 -5
v 4 20 -6
v 4 21 5
v 4 21 4
v 4 21 3
v 4 21 2
v 4 21 -2
v 4 21 -3
v 4 21 -4
v 4 21 -5
v 4 22 3
v 4 22 2
v 4 22 -2
v 4 22 -3
v 5 3 5
v 5 3 4
v 5 3 -4
v 5 3 -5
v 5 4 6
v 5 4 5
v 5 4 4
v 5 4 -4
v 5 4 -5
v 5 4 -6
v 5 19 6
v 5 19 5
v 5 19 4
v 5 19 -4
v 5 19 -5
v 5 19 -6
v 5 20 5
v 5 20 4
v 5 20 2
v 5 20 -2
v 5 20 -4
v 5 20 -5
v 5 21 4
v 5 21 2
v 5 21 -2
v 5 21 -4
v 5 22 2
v 5 22 -2
v 6 3 4
v 6 3 -4
v 6 4 5
v 6 4 4
v 6 4 -4
v 6 4 -5
v 6 6 3
v 6 6 1
v 6 8 3
v 6 8 1
v 6 14 -1
v 6 14 -3
v 6 15 3
v 6 15 1
v 6 16 -1
v 6 16 -3
v 6 17 3
v 6 17 1
v 6 19 5
v 6 19 4
v 6 19 -4
v 6 19 -5
v 6 20 4
v 6 20 2
v 6 20 -2
v 6 20 -4
v 6 21 2
v 6 21 -2
v 7 14 -1
v 7 14 -3
v 7 16 -1
v 7 16 -3
v -3 16 7
v -3 18 7
v -1 6 7
v -1 8 7
v -1 16 7
v -1 18 7
v 1 6 7
v 1 8 7
v -5 4 6
v -5 19 6
v -4 3 6
v -4 4 6
v -4 19 6
v -4 20 6
v -3 16 6
v -3 18 6
v -2 20 6
v -2 21 6
v -1 6 6
v -1 8 6
v -1 16 6
v -1 18 6
v 1 6 6
v 1 8 6
v 1 13 6
v 1 15 6
v 2 20 6
v 2 21 6
v 3 13 6
v 3 15 6
v 4 3 6
v 4 4 6
v 4 19 6
v 4 20 6
v 5 4 6
v 5 19 6
v -6 4 5
v -6 19 5
v -5 3 5
v -5 4 5
v -5 19 5
v -5 20 5
v -4 3 5
v -4 4 5
v -4 19 5
v -4 20 5
v -4 21 5
v -2 20 5
v -2 21 5
v -2 22 5
v 2 20 5
v 2 21 5
v 2 22 5
v 4 3 5
v 4 4 5
v 4 19 5
v 4 20 5
v 4 21 5
v 5 3 5
v 5 4 5
v 5 19 5
v 5 20 5
v 6 4 5
v 6 19 5
v -6 3 4
v -6 4 4
v -6 19 4
v -6 20 4
v -5 3 4
v -5 4 4
v -5 19 4
v -5 20 4
v -5 21 4
v -4 20 4
v -4 21 4
v -3 21 4
v -3 22 4
v -2 21 4
v -2 22 4
v 2 21 4
v 2 22 4
v 3 21 4
v 3 22 4
v 4 20 4
v 4 21 4
v 5 3 4
v 5 4 4
v 5 19 4
v 5 20 4
v 5 21 4
v 6 3 4
v 6 4 4
v 6 19 4
v 6 20 4
v -7 10 3
v -7 12 3
v -6 10 3
v -6 12 3
v -4 21 3
v -4 22 3
v -3 21 3
v -3 22 3
v -2 22 3
v -2 23 3
v 2 22 3
v 2 23 3
v 3 21 3
v 3 22 3
v 4 21 3
v 4 22 3
v -6 20 2
v -6 21 2
v -5 20 2
v -5 21 2
v -5 22 2
v -4 21 2
v -4 22 2
v -3 22 2
v -3 23 2
v -2 0 2
v -2 3 2
v -2 22 2
v -2 23 2
v 2 0 2
v 2 3 2
v 2 22 2
v 2 23 2
v 3 22 2
v 3 23 2
v 4 21 2
v 4 22 2
v 5 20 2
v 5 21 2
v 5 22 2
v 6 20 2
v 6 21 2
v 6 14 -1
v 6 16 -1
v 7 14 -1
v 7 16 -1
v -7 16 -2
v -7 18 -2
v -6 16 -2
v -6 18 -2
v -7 10 1
v -7 12 1
v -6 10 1
v -6 12 1
v -6 20 -2
v -6 21 -2
v -5 20 -2
v -5 21 -2
v -5 22 -2
v -4 21 -2
v -4 22 -2
v -3 22 -2
v -3 23 -2
v -2 0 -2
v -2 3 -2
v -2 22 -2
v -2 23 -2
v 2 0 -2
v 2 3 -2
v 2 22 -2
v 2 23 -2
v 3 22 -2
v 3 23 -2
v 4 21 -2
v 4 22 -2
v 5 20 -2
v 5 21 -2
v 5 22 -2
v 6 20 -2
v 6 21 -2
v -4 21 -3
v -4 22 -3
v -3 21 -3
v -3 22 -3
v -2 22 -3
v -2 23 -3
v 2 22 -3
v 2 23 -3
v 3 21 -3
v 3 22 -3
v 4 21 -3
v 4 22 -3
v 6 14 -3
v 6 16 -3
v 7 14 -3
v 7 16 -3
v -7 16 -4
v -7 18 -4
v -6 3 -4
v -6 4 -4
v -6 16 -4
v -6 18 -4
v -6 19 -4
v -6 20 -4
v -5 3 -4
v -5 4 -4
v -5 19 -4
v -5 20 -4
v -5 21 -4
v -4 20 -4
v -4 21 -4
v -3 21 -4
v -3 22 -4
v -2 21 -4
v -2 22 -4
v 2 21 -4
v 2 22 -4
v 3 21 -4
v 3 22 -4
v 4 20 -4
v 4 21 -4
v 5 3 -4
v 5 4 -4
v 5 19 -4
v 5 20 -4
v 5 21 -4
v 6 3 -4
v 6 4 -4
v 6 19 -4
v 6 20 -4
v -6 4 -5
v -6 19 -5
v -5 3 -5
v -5 4 -5
v -5 19 -5
v -5 20 -5
v -4 3 -5
v -4 4 -5
v -4 19 -5
v -4 20 -5
v -4 21 -5
v -2 20 -5
v -2 21 -5
v -2 22 -5
v 2 20 -5
v 2 21 -5
v 2 22 -5
v 4 3 -5
v 4 4 -5
v 4 19 -5
v 4 20 -5
v 4 21 -5
v 5 3 -5
v 5 4 -5
v 5 19 -5
v 5 20 -5
v 6 4 -5
v 6 19 -5
v -5 4 -6
v -5 19 -6
v -4 3 -6
v -4 4 -6
v -4 19 -6
v -4 20 -6
v -2 20 -6
v -2 21 -6
v -1 16 -6
v -1 18 -6
v 1 8 -6
v 1 10 -6
v 1 16 -6
v 1 18 -6
v 2 20 -6
v 2 21 -6
v 3 8 -6
v 3 10 -6
v 4 3 -6
v 4 4 -6
v 4 19 -6
v 4 20 -6
v 5 4 -6
v 5 19 -6
v 1 8 -7
v 1 10 -7
v 3 8 -7
v 3 10 -7
v -2 0 2
v 2 0 2
v -2 0 -2
v 2 0 -2
v -4 3 6
v 4 3 6
v -5 3 5
v -4 3 5
v 4 3 5
v 5 3 5
v -6 3 4
v -5 3 4
v 5 3 4
v 6 3 4
v -2 3 2
v 2 3 2
v -2 3 -2
v 2 3 -2
v -6 3 -4
v -5 3 -4
v 5 3 -4
v 6 3 -4
v -5 3 -5
v -4 3 -5
v 4 3 -5
v 5 3 -5
v -4 3 -6
v 4 3 -6
v -5 4 6
v -4 4 6
v 4 4 6
v 5 4 6
v -6 4 5
v -5 4 5
v -4 4 5
v 4 4 5
v 5 4 5
v 6 4 5
v -6 4 4
v -5 4 4
v 5 4 4
v 6 4 4
v -6 4 -4
v -5 4 -4
v 5 4 -4
v 6 4 -4
v -6 4 -5
v -5 4 -5
v -4 4 -5
v 4 4 -5
v 5 4 -5
v 6 4 -5
v -5 4 -6
v -4 4 -6
v 4 4 -6
v 5 4 -6
v -1 6 7
v 1 6 7
v -1 6 6
v 1 6 6
v 1 8 -6
v 3 8 -6
v 1 8 -7
v 3 8 -7
v -7 10 3
v -6 10 3
v -7 10 1
v -6 10 1
v 6 14 -1
v 7 14 -1
v 6 14 -3
v 7 14 -3
v -3 16 7
v -1 16 7
v -3 16 6
v -1 16 6
v -7 16 -2
v -6 16 -2
v -7 16 -4
v -6 16 -4
v -1 8 7
v 1 8 7
v -1 8 6
v 1 8 6
v 1 10 -6
v 3 10 -6
v 1 10 -7
v 3 10 -7
v -7 12 3
v -6 12 3
v -7 12 1
v -6 12 1
v 6 16 -1
v 7 16 -1
v 6 16 -3
v 7 16 -3
v -3 18 7
v -1 18 7
v -3 18 6
v -1 18 6
v -7 18 -2
v -6 18 -2
v -7 18 -4
v -6 18 -4
v -5 19 6
v -4 19 6
v 4 19 6
v 5 19 6
v -6 19 5
v -5 19 5
v -4 19 5
v 4 19 5
v 5 19 5
v 6 19 5
v -6 19 4
v -5 19 4
v 5 19 4
v 6 19 4
v -6 19 -4
v -5 19 -4
v 5 19 -4
v 6 19 -4
v -6 19 -5
v -5 19 -5
v -4 19 -5
v 4 19 -5
v 5 19 -5
v 6 19 -5
v -5 19 -6
v -4 19 -6
v 4 19 -6
v 5 19 -6
v -4 20 6
v -2 20 6
v 2 20 6
v 4 20 6
v -5 20 5
v -4 20 5
v -2 20 5
v 2 20 5
v 4 20 5
v 5 20 5
v -6 20 4
v -5 20 4
v -4 20 4
v 4 20 4
v 5 20 4
v 6 20 4
v -6 20 2
v -5 20 2
v 5 20 2
v 6 20 2
v -6 20 -2
v -5 20 -2
v 5 20 -2
v 6 20 -2
v -6 20 -4
v -5 20 -4
v -4 20 -4
v 4 20 -4
v 5 20 -4
v 6 20 -4
v -5 20 -5
v -4 20 -5
v -2 20 -5
v 2 20 -5
v 4 20 -5
v 5 20 -5
v -4 20 -6
v -2 20 -6
v 2 20 -6
v 4 20 -6
v -2 21 6
v 2 21 6
v -4 21 5
v -2 21 5
v 2 21 5
v 4 21 5
v -5 21 4
v -4 21 4
v -3 21 4
v -2 21 4
v 2 21 4
v 3 21 4
v 4 21 4
v 5 21 4
v -4 21 3
v -3 21 3
v 3 21 3
v 4 21 3
v -6 21 2
v -5 21 2
v -4 21 2
v 4 21 2
v 5 21 2
v 6 21 2
v -6 21 -2
v -5 21 -2
v -4 21 -2
v 4 21 -2
v 5 21 -2
v 6 21 -2
v -4 21 -3
v -3 21 -3
v 3 21 -3
v 4 21 -3
v -5 21 -4
v -4 21 -4
v -3 21 -4
v -2 21 -4
v 2 21 -4
v 3 21 -4
v 4 21 -4
v 5 21 -4
v -4 21 -5
v -2 21 -5
v 2 21 -5
v 4 21 -5
v -2 21 -6
v 2 21 -6
v -2 22 5
v 2 22 5
v -3 22 4
v -2 22 4
v 2 22 4
v 3 22 4
v -4 22 3
v -3 22 3
v -2 22 3
v 2 22 3
v 3 22 3
v 4 22 3
v -5 22 2
v -4 22 2
v -3 22 2
v -2 22 2
v 2 22 2
v 3 22 2
v 4 22 2
v 5 22 2
v -5 22 -2
v -4 22 -2
v -3 22 -2
v -2 22 -2
v 2 22 -2
v 3 22 -2
v 4 22 -2
v 5 22 -2
v -4 22 -3
v -3 22 -3
v -2 22 -3
v 2 22 -3
v 3 22 -3
v 4 22 -3
v -3 22 -4
v -2 22 -4
v 2 22 -4
v 3 22 -4
v -2 22 -5
v 2 22 -5
v -2 23 3
v 2 23 3
v -3 23 2
v -2 23 2
v 2 23 2
v 3 23 2
v -3 23 -2
v -2 23 -2
v 2 23 -2
v 3 23 -2
v -2 23 -3
v 2 23 -3

# faces
f 3/3/1 2/3/1 1/3/1
f 4/3/1 2/3/1 3/3/1
f 7/3/1 6/3/1 5/3/1
f 8/3/1 6/3/1 7/3/1
f 12/2/1 10/2/1 9/2/1
f 13/2/1 10/2/1 12/2/1
f 15/2/1 12/2/1 11/2/1
f 15/2/1 14/2/1 13/2/1
f 15/2/1 13/2/1 12/2/1
f 16/2/1 14/2/1 15/2/1
f 17/2/1 15/2/1 11/2/1
f 17/3/1 16/3/1 15/3/1
f 18/2/1 14/2/1 16/2/1
f 18/3/1 16/3/1 17/3/1
f 19/2/1 17/2/1 11/2/1
f 19/2/1 18/2/1 17/2/1
f 20/2/1 18/2/1 19/2/1
f 21/2/1 19/2/1 11/2/1
f 22/2/1 18/2/1 20/2/1
f 23/2/1 18/2/1 22/2/1
f 23/2/1 22/2/1 21/2/1
f 24/2/1 14/2/1 18/2/1
f 24/2/1 18/2/1 23/2/1
f 25/2/1 23/2/1 21/2/1
f 26/2/1 14/2/1 24/2/1
f 27/2/1 25/2/1 21/2/1
f 27/2/1 26/2/1 25/2/1
f 27/2/1 21/2/1 11/2/1
f 28/2/1 26/2/1 27/2/1
f 29/2/1 14/2/1 26/2/1
f 29/2/1 26/2/1 28/2/1
f 30/2/1 14/2/1 29/2/1
f 31/2/1 29/2/1 28/2/1
f 32/2/1 29/2/1 31/2/1
f 33/2/1 29/2/1 32/2/1
f 34/2/1 29/2/1 33/2/1
f 35/2/1 33/2/1 32/2/1
f 36/2/1 33/2/1 35/2/1
f 42/2/1 38/2/1 37/2/1
f 43/2/1 38/2/1 42/2/1
f 44/2/1 40/2/1 39/2/1
f 45/2/1 40/2/1 44/2/1
f 47/2/1 42/2/1 41/2/1
f 48/2/1 42/2/1 47/2/1
f 51/2/1 46/2/1 45/2/1
f 52/2/1 46/2/1 51/2/1
f 53/2/1 49/2/1 48/2/1
f 54/2/1 49/2/1 53/2/1
f 57/2/1 51/2/1 50/2/1
f 58/2/1 51/2/1 57/2/1
f 59/2/1 55/2/1 54/2/1
f 60/2/1 55/2/1 59/2/1
f 61/2/1 57/2/1 56/2/1
f 62/2/1 57/2/1 61/2/1
f 63/2/1 61/2/1 60/2/1
f 64/2/1 61/2/1 63/2/1
f 69/2/1 66/2/1 65/2/1
f 70/2/1 66/2/1 69/2/1
f 71/2/1 68/2/1 67/2/1
f 72/2/1 68/2/1 71/2/1
f 77/2/1 74/2/1 73/2/1
f 78/2/1 74/2/1 77/2/1
f 81/2/1 76/2/1 75/2/1
f 82/2/1 76/2/1 81/2/1
f 83/2/1 79/2/1 78/2/1
f 84/2/1 79/2/1 83/2/1
f 89/2/1 81/2/1 80/2/1
f 90/2/1 81/2/1 89/2/1
f 91/2/1 86/2/1 85/2/1
f 92/2/1 86/2/1 91/2/1
f 93/2/1 88/2/1 87/2/1
f 94/2/1 88/2/1 93/2/1
f 97/3/1 96/3/1 95/3/1
f 98/3/1 96/3/1 97/3/1
f 103/2/1 100/2/1 99/2/1
f 104/2/1 100/2/1 103/2/1
f 107/2/1 102/2/1 101/2/1
f 108/2/1 102/2/1 107/2/1
f 109/2/1 106/2/1 105/2/1
f 110/2/1 106/2/1 109/2/1
f 113/1/1 112/1/1 111/1/1
f 114/1/1 112/1/1 113/1/1
f 119/2/1 116/2/1 115/2/1
f 120/2/1 116/2/1 119/2/1
f 123/2/1 118/2/1 117/2/1
f 124/2/1 118/2/1 123/2/1
f 125/2/1 121/2/1 120/2/1
f 126/2/1 121/2/1 125/2/1
f 131/2/1 123/2/1 122/2/1
f 132/2/1 123/2/1 131/2/1
f 133/2/1 128/2/1 127/2/1
f 134/2/1 128/2/1 133/2/1
f 135/2/1 130/2/1 129/2/1
f 136/2/1 130/2/1 135/2/1
f 139/3/1 138/3/1 137/3/1
f 140/3/1 138/3/1 139/3/1
f 143/3/1 142/3/1 141/3/1
f 144/3/1 142/3/1 143/3/1
f 145/3/2 146/3/2 147/3/2
f 147/3/2 146/3/2 148/3/2
f 149/3/2 150/3/2 151/3/2
f 151/3/2 150/3/2 152/3/2
f 153/1/2 154/1/2 155/1/2
f 155/1/2 154/1/2 156/1/2
f 157/2/2 158/2/2 161/2/2
f 161/2/2 158/2/2 162/2/2
f 159/2/2 160/2/2 165/2/2
f 165/2/2 160/2/2 166/2/2
f 162/2/2 163/2/2 167/2/2
f 167/2/2 163/2/2 168/2/2
f 164/2/2 165/2/2 173/2/2
f 173/2/2 165/2/2 174/2/2
f 169/2/2 170/2/2 175/2/2
f 175/2/2 170/2/2 176/2/2
f 171/2/2 172/2/2 177/2/2
f 177/2/2 172/2/2 178/2/2
f 179/3/2 180/3/2 181/3/2
f 181/3/2 180/3/2 182/3/2
f 183/2/2 184/2/2 187/2/2
f 187/2/2 184/2/2 188/2/2
f 185/2/2 186/2/2 191/2/2
f 191/2/2 186/2/2 192/2/2
f 189/2/2 190/2/2 193/2/2
f 193/2/2 190/2/2 194/2/2
f 195/2/2 196/2/2 199/2/2
f 199/2/2 196/2/2 200/2/2
f 197/2/2 198/2/2 201/2/2
f 201/2/2 198/2/2 202/2/2
f 203/2/2 204/2/2 207/2/2
f 207/2/2 204/2/2 208/2/2
f 205/2/2 206/2/2 211/2/2
f 211/2/2 206/2/2 212/2/2
f 208/2/2 209/2/2 213/2/2
f 213/2/2 209/2/2 214/2/2
f 210/2/2 211/2/2 219/2/2
f 219/2/2 211/2/2 220/2/2
f 215/2/2 216/2/2 221/2/2
f 221/2/2 216/2/2 222/2/2
f 217/2/2 218/2/2 223/2/2
f 223/2/2 218/2/2 224/2/2
f 225/2/2 226/2/2 230/2/2
f 230/2/2 226/2/2 231/2/2
f 227/2/2 228/2/2 232/2/2
f 232/2/2 228/2/2 233/2/2
f 229/2/2 230/2/2 235/2/2
f 235/2/2 230/2/2 236/2/2
f 233/2/2 234/2/2 239/2/2
f 239/2/2 234/2/2 240/2/2
f 236/2/2 237/2/2 241/2/2
f 241/2/2 237/2/2 242/2/2
f 238/2/2 239/2/2 245/2/2
f 245/2/2 239/2/2 246/2/2
f 242/2/2 243/2/2 247/2/2
f 247/2/2 243/2/2 248/2/2
f 244/2/2 245/2/2 249/2/2
f 249/2/2 245/2/2 250/2/2
f 248/2/2 249/2/2 251/2/2
f 251/2/2 249/2/2 252/2/2
f 253/2/2 254/2/2 256/2/2
f 256/2/2 254/2/2 257/2/2
f 255/2/2 256/2/2 259/2/2
f 257/2/2 258/2/2 259/2/2
f 256/2/2 257/2/2 259/2/2
f 259/2/2 258/2/2 260/2/2
f 255/2/2 259/2/2 261/2/2
f 259/3/2 260/3/2 261/3/2
f 260/2/2 258/2/2 262/2/2
f 261/3/2 260/3/2 262/3/2
f 261/2/2 262/2/2 263/2/2
f 262/2/2 258/2/2 263/2/2
f 263/2/2 258/2/2 264/2/2
f 255/2/2 261/2/2 265/2/2
f 261/2/2 263/2/2 265/2/2
f 265/2/2 263/2/2 266/2/2
f 266/2/2 263/2/2 267/2/2
f 264/2/2 258/2/2 268/2/2
f 255/2/2 265/2/2 269/2/2
f 265/3/2 266/3/2 269/3/2
f 266/2/2 267/2/2 270/2/2
f 269/3/2 266/3/2 270/3/2
f 267/2/2 268/2/2 270/2/2
f 255/2/2 269/2/2 271/2/2
f 269/2/2 270/2/2 271/2/2
f 271/2/2 270/2/2 272/2/2
f 270/2/2 268/2/2 273/2/2
f 272/2/2 270/2/2 273/2/2
f 268/2/2 258/2/2 273/2/2
f 273/2/2 258/2/2 274/2/2
f 272/2/2 273/2/2 275/2/2
f 275/2/2 273/2/2 276/2/2
f 276/2/2 273/2/2 277/2/2
f 277/2/2 273/2/2 278/2/2
f 276/2/2 277/2/2 279/2/2
f 279/2/2 277/2/2 280/2/2
f 281/3/2 282/3/2 283/3/2
f 283/3/2 282/3/2 284/3/2
f 289/3/3 286/3/3 285/3/3
f 290/3/3 286/3/3 289/3/3
f 291/3/3 288/3/3 287/3/3
f 292/3/3 288/3/3 291/3/3
f 296/2/3 294/2/3 293/2/3
f 297/2/3 294/2/3 296/2/3
f 299/2/3 296/2/3 295/2/3
f 299/2/3 298/2/3 297/2/3
f 299/2/3 297/2/3 296/2/3
f 300/2/3 298/2/3 299/2/3
f 301/2/3 298/2/3 300/2/3
f 303/2/3 299/2/3 295/2/3
f 304/2/3 299/2/3 303/2/3
f 305/2/3 299/2/3 304/2/3
f 306/2/3 302/2/3 301/2/3
f 306/2/3 301/2/3 300/2/3
f 307/2/3 303/2/3 295/2/3
f 308/2/3 305/2/3 304/2/3
f 308/2/3 306/2/3 305/2/3
f 309/2/3 306/2/3 308/2/3
f 310/2/3 306/2/3 309/2/3
f 311/2/3 302/2/3 306/2/3
f 311/2/3 306/2/3 310/2/3
f 312/2/3 302/2/3 311/2/3
f 313/3/3 310/3/3 309/3/3
f 313/2/3 308/2/3 307/2/3
f 313/2/3 309/2/3 308/2/3
f 314/2/3 311/2/3 310/2/3
f 314/3/3 310/3/3 313/3/3
f 315/2/3 307/2/3 295/2/3
f 315/2/3 313/2/3 307/2/3
f 315/2/3 314/2/3 313/2/3
f 316/2/3 314/2/3 315/2/3
f 317/2/3 311/2/3 314/2/3
f 317/2/3 314/2/3 316/2/3
f 318/2/3 311/2/3 317/2/3
f 319/2/3 317/2/3 316/2/3
f 320/2/3 317/2/3 319/2/3
f 324/2/3 322/2/3 321/2/3
f 325/2/3 322/2/3 324/2/3
f 327/2/3 324/2/3 323/2/3
f 328/2/3 324/2/3 327/2/3
f 329/2/3 326/2/3 325/2/3
f 330/2/3 326/2/3 329/2/3
f 332/2/3 331/2/3 330/2/3
f 333/2/3 331/2/3 332/2/3
f 336/2/3 334/2/3 333/2/3
f 337/2/3 334/2/3 336/2/3
f 341/2/3 336/2/3 335/2/3
f 342/2/3 336/2/3 341/2/3
f 343/2/3 339/2/3 338/2/3
f 344/2/3 339/2/3 343/2/3
f 345/2/3 341/2/3 340/2/3
f 346/2/3 341/2/3 345/2/3
f 347/2/3 345/2/3 344/2/3
f 348/2/3 345/2/3 347/2/3
f 353/2/3 350/2/3 349/2/3
f 354/2/3 350/2/3 353/2/3
f 355/2/3 352/2/3 351/2/3
f 356/2/3 352/2/3 355/2/3
f 358/2/3 357/2/3 356/2/3
f 359/2/3 357/2/3 358/2/3
f 362/2/3 361/2/3 360/2/3
f 363/2/3 361/2/3 362/2/3
f 366/2/3 365/2/3 364/2/3
f 367/2/3 365/2/3 366/2/3
f 373/2/3 369/2/3 368/2/3
f 374/2/3 369/2/3 373/2/3
f 375/2/3 371/2/3 370/2/3
f 376/2/3 371/2/3 375/2/3
f 377/2/3 373/2/3 372/2/3
f 378/2/3 373/2/3 377/2/3
f 381/3/3 380/3/3 379/3/3
f 382/3/3 380/3/3 381/3/3
f 385/2/3 384/2/3 383/2/3
f 386/2/3 384/2/3 385/2/3
f 389/2/3 388/2/3 387/2/3
f 390/2/3 388/2/3 389/2/3
f 393/2/3 392/2/3 391/2/3
f 394/2/3 392/2/3 393/2/3
f 397/2/3 396/2/3 395/2/3
f 398/2/3 396/2/3 397/2/3
f 400/2/3 399/2/3 398/2/3
f 401/2/3 399/2/3 400/2/3
f 406/2/3 403/2/3 402/2/3
f 407/2/3 403/2/3 406/2/3
f 408/1/3 405/1/3 404/1/3
f 409/1/3 405/1/3 408/1/3
f 412/2/3 411/2/3 410/2/3
f 413/2/3 411/2/3 412/2/3
f 417/2/3 415/2/3 414/2/3
f 418/2/3 415/2/3 417/2/3
f 419/2/3 417/2/3 416/2/3
f 420/2/3 417/2/3 419/2/3
f 423/3/3 422/3/3 421/3/3
f 424/3/3 422/3/3 423/3/3
f 427/3/3 426/3/3 425/3/3
f 428/3/3 426/3/3 427/3/3
f 429/3/4 430/3/4 431/3/4
f 431/3/4 430/3/4 432/3/4
f 433/2/4 434/2/4 435/2/4
f 435/2/4 434/2/4 436/2/4
f 436/2/4 437/2/4 438/2/4
f 438/2/4 437/2/4 439/2/4
f 440/2/4 441/2/4 444/2/4
f 444/2/4 441/2/4 445/2/4
f 442/1/4 443/1/4 446/1/4
f 446/1/4 443/1/4 447/1/4
f 448/2/4 449/2/4 450/2/4
f 450/2/4 449/2/4 451/2/4
f 452/2/4 453/2/4 455/2/4
f 455/2/4 453/2/4 456/2/4
f 454/2/4 455/2/4 457/2/4
f 457/2/4 455/2/4 458/2/4
f 459/2/4 460/2/4 461/2/4
f 461/2/4 460/2/4 462/2/4
f 463/2/4 464/2/4 465/2/4
f 465/2/4 464/2/4 466/2/4
f 467/2/4 468/2/4 469/2/4
f 469/2/4 468/2/4 470/2/4
f 471/3/4 472/3/4 473/3/4
f 473/3/4 472/3/4 474/3/4
f 475/3/4 476/3/4 479/3/4
f 479/3/4 476/3/4 480/3/4
f 477/2/4 478/2/4 483/2/4
f 483/2/4 478/2/4 484/2/4
f 481/2/4 482/2/4 485/2/4
f 485/2/4 482/2/4 486/2/4
f 486/2/4 487/2/4 488/2/4
f 488/2/4 487/2/4 489/2/4
f 490/2/4 491/2/4 492/2/4
f 492/2/4 491/2/4 493/2/4
f 494/2/4 495/2/4 496/2/4
f 496/2/4 495/2/4 497/2/4
f 498/2/4 499/2/4 503/2/4
f 503/2/4 499/2/4 504/2/4
f 500/2/4 501/2/4 505/2/4
f 505/2/4 501/2/4 506/2/4
f 502/2/4 503/2/4 507/2/4
f 507/2/4 503/2/4 508/2/4
f 509/2/4 510/2/4 512/2/4
f 512/2/4 510/2/4 513/2/4
f 511/2/4 512/2/4 515/2/4
f 515/2/4 512/2/4 516/2/4
f 513/2/4 514/2/4 517/2/4
f 517/2/4 514/2/4 518/2/4
f 518/2/4 519/2/4 520/2/4
f 520/2/4 519/2/4 521/2/4
f 521/2/4 522/2/4 524/2/4
f 524/2/4 522/2/4 525/2/4
f 523/2/4 524/2/4 529/2/4
f 529/2/4 524/2/4 530/2/4
f 526/2/4 527/2/4 531/2/4
f 531/2/4 527/2/4 532/2/4
f 528/2/4 529/2/4 533/2/4
f 533/2/4 529/2/4 534/2/4
f 532/2/4 533/2/4 535/2/4
f 535/2/4 533/2/4 536/2/4
f 537/2/4 538/2/4 540/2/4
f 540/2/4 538/2/4 541/2/4
f 539/2/4 540/2/4 543/2/4
f 541/2/4 542/2/4 543/2/4
f 540/2/4 541/2/4 543/2/4
f 539/2/4 543/2/4 545/2/4
f 543/2/4 544/2/4 545/2/4
f 545/2/4 544/2/4 546/2/4
f 539/2/4 545/2/4 547/2/4
f 547/2/4 545/2/4 548/2/4
f 545/3/4 546/3/4 549/3/4
f 548/2/4 545/2/4 549/2/4
f 546/2/4 544/2/4 550/2/4
f 549/3/4 546/3/4 550/3/4
f 548/2/4 549/2/4 551/2/4
f 550/2/4 544/2/4 551/2/4
f 549/2/4 550/2/4 551/2/4
f 551/2/4 544/2/4 552/2/4
f 539/2/4 547/2/4 553/2/4
f 548/2/4 551/2/4 554/2/4
f 539/2/4 553/2/4 555/2/4
f 553/2/4 554/2/4 555/2/4
f 555/2/4 554/2/4 556/2/4
f 554/2/4 551/2/4 557/2/4
f 556/2/4 554/2/4 557/2/4
f 557/2/4 551/2/4 558/2/4
f 556/2/4 557/2/4 559/2/4
f 559/2/4 557/2/4 560/2/4
f 561/3/4 562/3/4 563/3/4
f 563/3/4 562/3/4 564/3/4
f 567/1/5 566/1/5 565/1/5
f 568/1/5 566/1/5 567/1/5
f 572/2/5 570/2/5 569/2/5
f 573/2/5 570/2/5 572/2/5
f 576/2/5 572/2/5 571/2/5
f 576/2/5 574/2/5 573/2/5
f 576/2/5 573/2/5 572/2/5
f 577/2/5 574/2/5 576/2/5
f 579/2/5 576/2/5 575/2/5
f 579/2/5 578/2/5 577/2/5
f 579/2/5 577/2/5 576/2/5
f 580/2/5 578/2/5 579/2/5
f 581/2/5 579/2/5 575/2/5
f 582/2/5 578/2/5 580/2/5
f 583/2/5 581/2/5 575/2/5
f 583/2/5 582/2/5 581/2/5
f 584/2/5 582/2/5 583/2/5
f 585/2/5 578/2/5 582/2/5
f 585/2/5 582/2/5 584/2/5
f 586/2/5 578/2/5 585/2/5
f 587/2/5 585/2/5 584/2/5
f 588/2/5 585/2/5 587/2/5
f 589/2/5 585/2/5 588/2/5
f 590/2/5 585/2/5 589/2/5
f 591/2/5 589/2/5 588/2/5
f 592/2/5 589/2/5 591/2/5
f 598/2/5 594/2/5 593/2/5
f 599/2/5 594/2/5 598/2/5
f 600/2/5 596/2/5 595/2/5
f 601/2/5 596/2/5 600/2/5
f 603/2/5 598/2/5 597/2/5
f 604/2/5 598/2/5 603/2/5
f 605/2/5 602/2/5 601/2/5
f 606/2/5 602/2/5 605/2/5
f 611/2/5 608/2/5 607/2/5
f 612/2/5 608/2/5 611/2/5
f 615/2/5 610/2/5 609/2/5
f 616/2/5 610/2/5 615/2/5
f 617/2/5 613/2/5 612/2/5
f 618/2/5 613/2/5 617/2/5
f 619/2/5 615/2/5 614/2/5
f 620/2/5 615/2/5 619/2/5
f 623/3/5 622/3/5 621/3/5
f 624/3/5 622/3/5 623/3/5
f 627/3/5 626/3/5 625/3/5
f 628/3/5 626/3/5 627/3/5
f 631/3/5 630/3/5 629/3/5
f 632/3/5 630/3/5 631/3/5
f 635/3/5 634/3/5 633/3/5
f 636/3/5 634/3/5 635/3/5
f 639/3/5 638/3/5 637/3/5
f 640/3/5 638/3/5 639/3/5
f 643/3/5 642/3/5 641/3/5
f 644/3/5 642/3/5 643/3/5
f 645/3/6 646/3/6 647/3/6
f 647/3/6 646/3/6 648/3/6
f 649/3/6 650/3/6 651/3/6
f 651/3/6 650/3/6 652/3/6
f 653/3/6 654/3/6 655/3/6
f 655/3/6 654/3/6 656/3/6
f 657/3/6 658/3/6 659/3/6
f 659/3/6 658/3/6 660/3/6
f 661/3/6 662/3/6 663/3/6
f 663/3/6 662/3/6 664/3/6
f 665/3/6 666/3/6 667/3/6
f 667/3/6 666/3/6 668/3/6
f 669/2/6 670/2/6 674/2/6
f 674/2/6 670/2/6 675/2/6
f 671/2/6 672/2/6 676/2/6
f 676/2/6 672/2/6 677/2/6
f 673/2/6 674/2/6 679/2/6
f 679/2/6 674/2/6 680/2/6
f 677/2/6 678/2/6 681/2/6
f 681/2/6 678/2/6 682/2/6
f 683/2/6 684/2/6 687/2/6
f 687/2/6 684/2/6 688/2/6
f 685/2/6 686/2/6 691/2/6
f 691/2/6 686/2/6 692/2/6
f 688/2/6 689/2/6 693/2/6
f 693/2/6 689/2/6 694/2/6
f 690/2/6 691/2/6 695/2/6
f 695/2/6 691/2/6 696/2/6
f 697/2/6 698/2/6 702/2/6
f 702/2/6 698/2/6 703/2/6
f 699/2/6 700/2/6 704/2/6
f 704/2/6 700/2/6 705/2/6
f 701/2/6 702/2/6 708/2/6
f 708/2/6 702/2/6 709/2/6
f 705/2/6 706/2/6 710/2/6
f 710/2/6 706/2/6 711/2/6
f 707/2/6 708/2/6 713/2/6
f 713/2/6 708/2/6 714/2/6
f 711/2/6 712/2/6 715/2/6
f 715/2/6 712/2/6 716/2/6
f 717/2/6 718/2/6 721/2/6
f 721/2/6 718/2/6 722/2/6
f 719/2/6 720/2/6 725/2/6
f 725/2/6 720/2/6 726/2/6
f 722/2/6 723/2/6 727/2/6
f 727/2/6 723/2/6 728/2/6
f 724/2/6 725/2/6 731/2/6
f 731/2/6 725/2/6 732/2/6
f 728/2/6 729/2/6 733/2/6
f 733/2/6 729/2/6 734/2/6
f 730/2/6 731/2/6 735/2/6
f 735/2/6 731/2/6 736/2/6
f 737/2/6 738/2/6 740/2/6
f 740/2/6 738/2/6 741/2/6
f 739/2/6 740/2/6 744/2/6
f 744/2/6 740/2/6 745/2/6
f 745/2/6 740/2/6 746/2/6
f 741/2/6 742/2/6 747/2/6
f 747/2/6 742/2/6 748/2/6
f 748/2/6 742/2/6 749/2/6
f 743/2/6 744/2/6 751/2/6
f 744/2/6 745/2/6 751/2/6
f 751/2/6 745/2/6 752/2/6
f 749/2/6 750/2/6 753/2/6
f 748/2/6 749/2/6 753/2/6
f 753/2/6 750/2/6 754/2/6
f 743/2/6 751/2/6 756/2/6
f 756/2/6 751/2/6 757/2/6
f 754/2/6 750/2/6 758/2/6
f 758/2/6 750/2/6 759/2/6
f 755/2/6 756/2/6 761/2/6
f 761/2/6 756/2/6 762/2/6
f 759/2/6 760/2/6 765/2/6
f 765/2/6 760/2/6 766/2/6
f 762/2/6 763/2/6 767/2/6
f 764/2/6 765/2/6 770/2/6
f 767/2/6 768/2/6 771/2/6
f 762/2/6 767/2/6 771/2/6
f 771/2/6 768/2/6 772/2/6
f 772/2/6 768/2/6 773/2/6
f 769/2/6 770/2/6 776/2/6
f 770/2/6 765/2/6 777/2/6
f 776/2/6 770/2/6 777/2/6
f 777/2/6 765/2/6 778/2/6
f 773/2/6 774/2/6 779/2/6
f 772/2/6 773/2/6 779/2/6
f 779/2/6 774/2/6 780/2/6
f 775/2/6 776/2/6 781/2/6
f 776/2/6 777/2/6 781/2/6
f 781/2/6 777/2/6 782/2/6
f 780/2/6 781/2/6 783/2/6
f 783/2/6 781/2/6 784/2/6
f 785/2/6 786/2/6 788/2/6
f 788/2/6 786/2/6 789/2/6
f 787/2/6 788/2/6 792/2/6
f 789/2/6 790/2/6 792/2/6
f 788/2/6 789/2/6 792/2/6
f 792/2/6 790/2/6 793/2/6
f 793/2/6 790/2/6 794/2/6
f 794/2/6 790/2/6 795/2/6
f 791/2/6 792/2/6 798/2/6
f 792/2/6 793/2/6 798/2/6
f 798/2/6 793/2/6 799/2/6
f 799/2/6 793/2/6 800/2/6
f 794/2/6 795/2/6 801/2/6
f 795/2/6 796/2/6 801/2/6
f 801/2/6 796/2/6 802/2/6
f 802/2/6 796/2/6 803/2/6
f 798/2/6 799/2/6 805/2/6
f 797/2/6 798/2/6 805/2/6
f 805/2/6 799/2/6 806/2/6
f 806/2/6 799/2/6 807/2/6
f 803/2/6 804/2/6 810/2/6
f 802/2/6 803/2/6 810/2/6
f 810/2/6 804/2/6 811/2/6
f 811/2/6 804/2/6 812/2/6
f 807/2/6 808/2/6 813/2/6
f 806/2/6 807/2/6 813/2/6
f 813/2/6 808/2/6 814/2/6
f 814/2/6 808/2/6 815/2/6
f 810/2/6 811/2/6 816/2/6
f 809/2/6 810/2/6 816/2/6
f 816/2/6 811/2/6 817/2/6
f 817/2/6 811/2/6 818/2/6
f 814/2/6 815/2/6 819/2/6
f 816/2/6 817/2/6 819/2/6
f 815/2/6 816/2/6 819/2/6
f 819/2/6 817/2/6 820/2/6
f 820/2/6 817/2/6 821/2/6
f 821/2/6 817/2/6 822/2/6
f 820/2/6 821/2/6 823/2/6
f 823/2/6 821/2/6 824/2/6
f 825/2/6 826/2/6 828/2/6
f 828/2/6 826/2/6 829/2/6
f 827/2/6 828/2/6 831/2/6
f 829/2/6 830/2/6 831/2/6
f 828/2/6 829/2/6 831/2/6
f 831/2/6 830/2/6 832/2/6
f 832/2/6 830/2/6 833/2/6
f 833/2/6 830/2/6 834/2/6
f 832/2/6 833/2/6 835/2/6
f 835/2/6 833/2/6 836/2/6
