# MagicaVoxel @ Ephtracy

# group
g CoalOre

# material
mtllib CoalOre.mtl
usemtl palette

# normals
vn -1 0 0
vn 1 0 0
vn 0 0 1
vn 0 0 -1
vn 0 -1 0
vn 0 1 0

# texcoords
vt 0.0175781 0.5
vt 0.0253906 0.5

# verts
v -4 0 2
v -4 0 -2
v -4 2 2
v -4 2 1
v -4 2 -1
v -4 2 -2
v -4 3 -0
v -4 3 -1
v -4 3 -2
v -4 4 1
v -4 4 -0
v -4 4 -2
v -3 0 3
v -3 0 2
v -3 0 -2
v -3 0 -3
v -3 2 2
v -3 2 1
v -3 2 -1
v -3 2 -2
v -3 3 3
v -3 3 2
v -3 3 -1
v -3 3 -2
v -3 3 -3
v -3 4 3
v -3 4 2
v -3 4 1
v -3 4 -0
v -3 4 -1
v -3 4 -2
v -3 5 3
v -3 5 2
v -3 5 -0
v -3 5 -1
v -3 5 -2
v -3 6 2
v -3 6 1
v -3 6 -0
v -2 0 4
v -2 0 3
v -2 0 -3
v -2 0 -4
v -2 1 4
v -2 1 3
v -2 2 4
v -2 2 3
v -2 2 -3
v -2 2 -4
v -2 3 3
v -2 3 2
v -2 3 -2
v -2 3 -3
v -2 4 3
v -2 4 2
v -2 5 3
v -2 5 2
v -2 5 -0
v -2 5 -1
v -2 5 -2
v -2 5 -3
v -2 6 3
v -2 6 2
v -2 6 1
v -2 6 -0
v -2 6 -1
v -2 6 -2
v -2 7 1
v -2 7 -1
v -1 2 4
v -1 2 3
v -1 2 -3
v -1 2 -4
v -1 3 3
v -1 4 4
v -1 4 3
v -1 4 -3
v -1 4 -4
v -1 5 -2
v -1 5 -3
v -1 6 2
v -1 6 1
v -1 6 -2
v -1 6 -3
v -1 7 2
v -1 7 1
v 0 2 4
v 0 2 3
v 0 3 -3
v 0 3 -4
v 0 4 4
v 0 4 3
v 0 4 -3
v 0 4 -4
v 0 5 3
v 0 5 2
v 0 5 -1
v 0 5 -2
v 0 6 3
v 0 6 2
v 0 6 1
v 0 6 -1
v 0 6 -2
v 0 7 2
v 0 7 1
v 1 1 4
v 1 1 3
v 1 2 4
v 1 2 3
v 1 2 -3
v 1 2 -4
v 1 3 -3
v 1 3 -4
v 1 4 -2
v 1 4 -3
v 1 5 2
v 1 5 1
v 1 5 -2
v 1 5 -3
v 1 6 2
v 1 6 1
v 1 6 -1
v 1 6 -2
v 1 6 -3
v 1 7 1
v 1 7 -1
v 2 0 4
v 2 0 3
v 2 0 -3
v 2 0 -4
v 2 1 4
v 2 1 3
v 2 1 -3
v 2 1 -4
v 2 2 3
v 2 2 2
v 2 2 -3
v 2 2 -4
v 2 3 3
v 2 3 2
v 2 4 3
v 2 4 2
v 2 5 3
v 2 5 2
v 2 5 1
v 2 5 -0
v 2 6 1
v 2 6 -0
v 3 0 3
v 3 0 1
v 3 0 -2
v 3 0 -3
v 3 2 3
v 3 2 2
v 3 2 -1
v 3 2 -2
v 3 2 -3
v 3 3 3
v 3 3 2
v 3 3 1
v 3 3 -0
v 3 3 -2
v 3 3 -3
v 3 4 3
v 3 4 2
v 3 4 -0
v 3 4 -1
v 3 4 -2
v 3 4 -3
v 3 5 2
v 3 5 1
v 3 5 -0
v 3 5 -1
v 3 5 -2
v 3 6 -0
v 3 6 -1
v 4 0 1
v 4 0 -2
v 4 2 -1
v 4 2 -2
v 4 3 1
v 4 3 -0
v 4 4 -0
v 4 4 -1
v -2 0 4
v -2 1 4
v -2 2 4
v -1 1 4
v -1 2 4
v -1 4 4
v 0 2 4
v 0 4 4
v 1 1 4
v 1 2 4
v 2 0 4
v 2 1 4
v -3 0 3
v -3 3 3
v -3 4 3
v -3 5 3
v -2 0 3
v -2 1 3
v -2 2 3
v -2 3 3
v -2 4 3
v -2 5 3
v -2 6 3
v -1 2 3
v -1 3 3
v -1 4 3
v -1 5 3
v -1 6 3
v 0 2 3
v 0 4 3
v 0 5 3
v 0 6 3
v 1 1 3
v 1 2 3
v 1 3 3
v 1 5 3
v 2 0 3
v 2 1 3
v 2 2 3
v 2 3 3
v 2 4 3
v 2 5 3
v 3 0 3
v 3 2 3
v 3 3 3
v 3 4 3
v -4 0 2
v -4 2 2
v -3 0 2
v -3 2 2
v -3 3 2
v -3 4 2
v -3 5 2
v -3 6 2
v -2 3 2
v -2 4 2
v -2 5 2
v -2 6 2
v -1 6 2
v -1 7 2
v 0 5 2
v 0 6 2
v 0 7 2
v 1 5 2
v 1 6 2
v 2 2 2
v 2 3 2
v 2 4 2
v 2 5 2
v 3 2 2
v 3 3 2
v 3 4 2
v 3 5 2
v -4 2 1
v -4 4 1
v -3 2 1
v -3 4 1
v -2 6 1
v -2 7 1
v -1 6 1
v -1 7 1
v 0 6 1
v 0 7 1
v 1 5 1
v 1 6 1
v 1 7 1
v 2 5 1
v 2 6 1
v 3 0 1
v 3 3 1
v 4 0 1
v 4 3 1
v 2 5 -0
v 2 6 -0
v 3 3 -0
v 3 4 -0
v 3 5 -0
v 3 6 -0
v 4 3 -0
v 4 4 -0
v 0 5 -2
v 0 6 -2
v 1 5 -2
v 1 6 -2
v -3 5 -0
v -3 6 -0
v -2 5 -0
v -2 6 -0
v -4 2 -1
v -4 3 -1
v -3 2 -1
v -3 3 -1
v -2 6 -1
v -2 7 -1
v -1 6 -1
v 0 5 -1
v 0 6 -1
v 1 6 -1
v 1 7 -1
v 2 5 -1
v 3 2 -1
v 3 4 -1
v 3 5 -1
v 3 6 -1
v 4 2 -1
v 4 4 -1
v -4 0 -2
v -4 2 -2
v -4 3 -2
v -4 4 -2
v -3 0 -2
v -3 2 -2
v -3 3 -2
v -3 4 -2
v -3 5 -2
v -2 3 -2
v -2 5 -2
v -2 6 -2
v -1 5 -2
v -1 6 -2
v 1 4 -2
v 1 5 -2
v 2 4 -2
v 2 5 -2
v 3 0 -2
v 3 2 -2
v 3 4 -2
v 3 5 -2
v 4 0 -2
v 4 2 -2
v -3 0 -3
v -3 3 -3
v -2 0 -3
v -2 2 -3
v -2 3 -3
v -2 5 -3
v -1 2 -3
v -1 4 -3
v -1 5 -3
v -1 6 -3
v 0 3 -3
v 0 4 -3
v 1 2 -3
v 1 3 -3
v 1 4 -3
v 1 5 -3
v 1 6 -3
v 2 0 -3
v 2 1 -3
v 2 2 -3
v 3 0 -3
v 3 2 -3
v 3 3 -3
v 3 4 -3
v -2 0 -4
v -2 2 -4
v -1 2 -4
v -1 4 -4
v 0 3 -4
v 0 4 -4
v 1 1 -4
v 1 2 -4
v 1 3 -4
v 2 0 -4
v 2 1 -4
v 2 2 -4
v -2 0 4
v 2 0 4
v -3 0 3
v -2 0 3
v 2 0 3
v 3 0 3
v -4 0 2
v -3 0 2
v 3 0 1
v 4 0 1
v -4 0 -2
v -3 0 -2
v 3 0 -2
v 4 0 -2
v -3 0 -3
v -2 0 -3
v 2 0 -3
v 3 0 -3
v -2 0 -4
v 2 0 -4
v 2 3 3
v 3 3 3
v 2 3 2
v 3 3 2
v -4 3 -1
v -3 3 -1
v -4 3 -2
v -3 3 -2
v -3 4 3
v -2 4 3
v -3 4 2
v -2 4 2
v 1 1 4
v 2 1 4
v 1 1 3
v 2 1 3
v -2 2 4
v -1 2 4
v 0 2 4
v 1 2 4
v -2 2 3
v -1 2 3
v 0 2 3
v 1 2 3
v 2 2 3
v 3 2 3
v -4 2 2
v -3 2 2
v 2 2 2
v 3 2 2
v -4 2 1
v -3 2 1
v -4 2 -1
v -3 2 -1
v 3 2 -1
v 4 2 -1
v -4 2 -2
v -3 2 -2
v 3 2 -2
v 4 2 -2
v -2 2 -3
v -1 2 -3
v 1 2 -3
v 2 2 -3
v -2 2 -4
v -1 2 -4
v 1 2 -4
v 2 2 -4
v -3 3 3
v -2 3 3
v -3 3 2
v -2 3 2
v 3 3 1
v 4 3 1
v 3 3 -0
v 4 3 -0
v -3 3 -2
v -2 3 -2
v -3 3 -3
v -2 3 -3
v 0 3 -3
v 1 3 -3
v 0 3 -4
v 1 3 -4
v -1 4 4
v 0 4 4
v -1 4 3
v 0 4 3
v 2 4 3
v 3 4 3
v 2 4 2
v 3 4 2
v -4 4 1
v -3 4 1
v -4 4 -0
v -3 4 -0
v 3 4 -0
v 4 4 -0
v -3 4 -1
v 3 4 -1
v 4 4 -1
v -4 4 -2
v -3 4 -2
v 1 4 -2
v 2 4 -2
v 3 4 -2
v -1 4 -3
v 0 4 -3
v 1 4 -3
v 3 4 -3
v -1 4 -4
v 0 4 -4
v -3 5 3
v -2 5 3
v 0 5 3
v 1 5 3
v 2 5 3
v -3 5 2
v -2 5 2
v 0 5 2
v 1 5 2
v 2 5 2
v 3 5 2
v 1 5 1
v 2 5 1
v 3 5 1
v -3 5 -0
v -2 5 -0
v 2 5 -0
v 3 5 -0
v -3 5 -1
v -2 5 -1
v 0 5 -1
v 2 5 -1
v 3 5 -1
v -3 5 -2
v -2 5 -2
v -1 5 -2
v 0 5 -2
v 1 5 -2
v 2 5 -2
v 3 5 -2
v -2 5 -3
v -1 5 -3
v -2 6 3
v -1 6 3
v 0 6 3
v -3 6 2
v -2 6 2
v -1 6 2
v 0 6 2
v 1 6 2
v -3 6 1
v -2 6 1
v -1 6 1
v 0 6 1
v 1 6 1
v 2 6 1
v -3 6 -0
v -2 6 -0
v 2 6 -0
v 3 6 -0
v -2 6 -1
v -1 6 -1
v 0 6 -1
v 1 6 -1
v 3 6 -1
v -2 6 -2
v -1 6 -2
v 0 6 -2
v 1 6 -2
v -1 6 -3
v 1 6 -3
v -1 7 2
v 0 7 2
v -2 7 1
v -1 7 1
v 0 7 1
v 1 7 1
v -2 7 -1
v 1 7 -1

# faces
f 3/2/1 2/2/1 1/2/1
f 4/2/1 2/2/1 3/2/1
f 5/2/1 2/2/1 4/2/1
f 6/2/1 2/2/1 5/2/1
f 7/2/1 5/2/1 4/2/1
f 8/2/1 5/2/1 7/2/1
f 10/2/1 7/2/1 4/2/1
f 11/1/1 9/1/1 8/1/1
f 11/2/1 7/2/1 10/2/1
f 11/1/1 8/1/1 7/1/1
f 12/1/1 9/1/1 11/1/1
f 17/2/1 14/2/1 13/2/1
f 20/2/1 16/2/1 15/2/1
f 21/2/1 18/2/1 17/2/1
f 21/2/1 17/2/1 13/2/1
f 22/2/1 18/2/1 21/2/1
f 23/2/1 20/2/1 19/2/1
f 24/2/1 16/2/1 20/2/1
f 24/2/1 20/2/1 23/2/1
f 25/2/1 16/2/1 24/2/1
f 27/2/1 18/2/1 22/2/1
f 28/2/1 18/2/1 27/2/1
f 32/1/1 27/1/1 26/1/1
f 32/1/1 28/1/1 27/1/1
f 33/1/1 28/1/1 32/1/1
f 34/2/1 30/2/1 29/2/1
f 34/2/1 29/2/1 28/2/1
f 35/1/1 31/1/1 30/1/1
f 35/2/1 30/2/1 34/2/1
f 36/1/1 31/1/1 35/1/1
f 37/1/1 28/1/1 33/1/1
f 38/2/1 34/2/1 28/2/1
f 38/1/1 28/1/1 37/1/1
f 39/2/1 34/2/1 38/2/1
f 44/2/1 41/2/1 40/2/1
f 45/2/1 41/2/1 44/2/1
f 46/1/1 45/1/1 44/1/1
f 47/1/1 45/1/1 46/1/1
f 48/2/1 43/2/1 42/2/1
f 49/2/1 43/2/1 48/2/1
f 54/1/1 51/1/1 50/1/1
f 55/1/1 51/1/1 54/1/1
f 60/2/1 53/2/1 52/2/1
f 61/2/1 53/2/1 60/2/1
f 62/1/1 57/1/1 56/1/1
f 63/1/1 57/1/1 62/1/1
f 65/2/1 59/2/1 58/2/1
f 65/2/1 60/2/1 59/2/1
f 66/2/1 60/2/1 65/2/1
f 67/2/1 60/2/1 66/2/1
f 68/2/1 65/2/1 64/2/1
f 68/2/1 66/2/1 65/2/1
f 69/2/1 66/2/1 68/2/1
f 74/1/1 71/1/1 70/1/1
f 75/1/1 74/1/1 70/1/1
f 76/1/1 74/1/1 75/1/1
f 77/2/1 73/2/1 72/2/1
f 78/2/1 73/2/1 77/2/1
f 83/1/1 80/1/1 79/1/1
f 84/1/1 80/1/1 83/1/1
f 85/2/1 82/2/1 81/2/1
f 86/2/1 82/2/1 85/2/1
f 87/1/2 88/1/2 91/1/2
f 91/1/2 88/1/2 92/1/2
f 89/2/2 90/2/2 93/2/2
f 93/2/2 90/2/2 94/2/2
f 95/2/2 96/2/2 99/2/2
f 99/2/2 96/2/2 100/2/2
f 97/1/2 98/1/2 102/1/2
f 102/1/2 98/1/2 103/1/2
f 100/2/2 101/2/2 104/2/2
f 104/2/2 101/2/2 105/2/2
f 106/2/2 107/2/2 108/2/2
f 108/2/2 107/2/2 109/2/2
f 110/2/2 111/2/2 112/2/2
f 112/2/2 111/2/2 113/2/2
f 114/2/2 115/2/2 118/2/2
f 118/2/2 115/2/2 119/2/2
f 116/2/2 117/2/2 120/2/2
f 120/2/2 117/2/2 121/2/2
f 118/1/2 119/1/2 123/1/2
f 123/1/2 119/1/2 124/1/2
f 121/2/2 122/2/2 125/2/2
f 125/2/2 122/2/2 126/2/2
f 127/2/2 128/2/2 131/2/2
f 131/2/2 128/2/2 132/2/2
f 129/2/2 130/2/2 133/2/2
f 133/2/2 130/2/2 134/2/2
f 133/1/2 134/1/2 137/1/2
f 137/1/2 134/1/2 138/1/2
f 135/2/2 136/2/2 139/2/2
f 139/2/2 136/2/2 140/2/2
f 141/1/2 142/1/2 143/1/2
f 143/1/2 142/1/2 144/1/2
f 145/2/2 146/2/2 147/2/2
f 147/2/2 146/2/2 148/2/2
f 149/2/2 150/2/2 153/2/2
f 153/2/2 150/2/2 154/2/2
f 151/2/2 152/2/2 156/2/2
f 156/2/2 152/2/2 157/2/2
f 154/2/2 150/2/2 159/2/2
f 159/2/2 150/2/2 160/2/2
f 156/1/2 157/1/2 162/1/2
f 155/2/2 156/2/2 162/2/2
f 162/1/2 157/1/2 163/1/2
f 159/1/2 160/1/2 164/1/2
f 158/1/2 159/1/2 164/1/2
f 164/1/2 160/1/2 165/1/2
f 160/2/2 161/2/2 166/2/2
f 162/2/2 163/2/2 167/2/2
f 155/2/2 162/2/2 167/2/2
f 167/2/2 163/2/2 168/2/2
f 168/2/2 163/2/2 169/2/2
f 165/1/2 160/1/2 170/1/2
f 160/2/2 166/2/2 171/2/2
f 170/1/2 160/1/2 171/1/2
f 167/2/2 168/2/2 171/2/2
f 166/2/2 167/2/2 171/2/2
f 171/2/2 168/2/2 172/2/2
f 172/2/2 168/2/2 173/2/2
f 173/2/2 168/2/2 174/2/2
f 172/2/2 173/2/2 175/2/2
f 175/2/2 173/2/2 176/2/2
f 177/2/2 178/2/2 179/2/2
f 179/2/2 178/2/2 180/2/2
f 177/2/2 179/2/2 181/2/2
f 181/2/2 179/2/2 182/2/2
f 182/2/2 179/2/2 183/2/2
f 183/2/2 179/2/2 184/2/2
f 188/2/3 186/2/3 185/2/3
f 188/1/3 187/1/3 186/1/3
f 189/1/3 187/1/3 188/1/3
f 191/2/3 189/2/3 188/2/3
f 191/1/3 190/1/3 189/1/3
f 192/1/3 190/1/3 191/1/3
f 193/2/3 188/2/3 185/2/3
f 193/2/3 191/2/3 188/2/3
f 194/2/3 191/2/3 193/2/3
f 195/2/3 193/2/3 185/2/3
f 196/2/3 193/2/3 195/2/3
f 201/2/3 198/2/3 197/2/3
f 202/2/3 198/2/3 201/2/3
f 203/2/3 198/2/3 202/2/3
f 204/2/3 198/2/3 203/2/3
f 205/1/3 200/1/3 199/1/3
f 206/1/3 200/1/3 205/1/3
f 208/2/3 204/2/3 203/2/3
f 209/1/3 205/1/3 204/1/3
f 209/2/3 204/2/3 208/2/3
f 210/2/3 206/2/3 205/2/3
f 210/1/3 205/1/3 209/1/3
f 211/1/3 207/1/3 206/1/3
f 211/2/3 206/2/3 210/2/3
f 212/1/3 207/1/3 211/1/3
f 214/2/3 212/2/3 211/2/3
f 214/2/3 211/2/3 210/2/3
f 215/2/3 212/2/3 214/2/3
f 216/2/3 212/2/3 215/2/3
f 218/2/3 214/2/3 213/2/3
f 218/2/3 215/2/3 214/2/3
f 219/2/3 215/2/3 218/2/3
f 220/2/3 215/2/3 219/2/3
f 222/2/3 218/2/3 217/2/3
f 222/2/3 219/2/3 218/2/3
f 223/2/3 219/2/3 222/2/3
f 224/1/3 220/1/3 219/1/3
f 224/2/3 219/2/3 223/2/3
f 225/1/3 220/1/3 224/1/3
f 226/1/3 220/1/3 225/1/3
f 227/2/3 223/2/3 222/2/3
f 227/2/3 222/2/3 221/2/3
f 228/2/3 223/2/3 227/2/3
f 229/1/3 225/1/3 224/1/3
f 230/1/3 225/1/3 229/1/3
f 233/2/3 232/2/3 231/2/3
f 234/2/3 232/2/3 233/2/3
f 239/2/3 236/2/3 235/2/3
f 240/2/3 236/2/3 239/2/3
f 241/1/3 238/1/3 237/1/3
f 242/1/3 238/1/3 241/1/3
f 246/2/3 244/2/3 243/2/3
f 247/2/3 244/2/3 246/2/3
f 248/2/3 246/2/3 245/2/3
f 249/2/3 246/2/3 248/2/3
f 254/2/3 251/2/3 250/2/3
f 255/2/3 251/2/3 254/2/3
f 256/1/3 253/1/3 252/1/3
f 257/1/3 253/1/3 256/1/3
f 260/2/3 259/2/3 258/2/3
f 261/2/3 259/2/3 260/2/3
f 264/2/3 263/2/3 262/2/3
f 265/2/3 263/2/3 264/2/3
f 269/2/3 267/2/3 266/2/3
f 270/2/3 267/2/3 269/2/3
f 271/2/3 269/2/3 268/2/3
f 272/2/3 269/2/3 271/2/3
f 275/2/3 274/2/3 273/2/3
f 276/2/3 274/2/3 275/2/3
f 281/2/3 278/2/3 277/2/3
f 282/2/3 278/2/3 281/2/3
f 283/2/3 280/2/3 279/2/3
f 284/2/3 280/2/3 283/2/3
f 287/1/3 286/1/3 285/1/3
f 288/1/3 286/1/3 287/1/3
f 289/2/4 290/2/4 291/2/4
f 291/2/4 290/2/4 292/2/4
f 293/2/4 294/2/4 295/2/4
f 295/2/4 294/2/4 296/2/4
f 297/2/4 298/2/4 299/2/4
f 299/2/4 298/2/4 301/2/4
f 301/2/4 298/2/4 302/2/4
f 300/2/4 301/2/4 302/2/4
f 302/2/4 298/2/4 303/2/4
f 300/2/4 302/2/4 304/2/4
f 304/2/4 302/2/4 307/2/4
f 307/2/4 302/2/4 308/2/4
f 305/2/4 306/2/4 309/2/4
f 309/2/4 306/2/4 310/2/4
f 311/2/4 312/2/4 315/2/4
f 315/2/4 312/2/4 316/2/4
f 313/1/4 314/1/4 317/1/4
f 317/1/4 314/1/4 318/1/4
f 318/1/4 319/1/4 320/1/4
f 317/1/4 318/1/4 320/1/4
f 320/1/4 319/1/4 321/1/4
f 321/2/4 322/2/4 323/2/4
f 323/2/4 322/2/4 324/2/4
f 325/1/4 326/1/4 327/1/4
f 327/1/4 326/1/4 328/1/4
f 327/2/4 328/2/4 331/2/4
f 331/2/4 328/2/4 332/2/4
f 329/2/4 330/2/4 333/2/4
f 333/2/4 330/2/4 334/2/4
f 335/2/4 336/2/4 337/2/4
f 337/2/4 336/2/4 338/2/4
f 338/2/4 336/2/4 339/2/4
f 339/2/4 340/2/4 341/2/4
f 338/2/4 339/2/4 341/2/4
f 341/2/4 340/2/4 342/2/4
f 342/2/4 340/2/4 343/2/4
f 342/2/4 343/2/4 346/2/4
f 345/2/4 346/2/4 348/2/4
f 346/2/4 343/2/4 349/2/4
f 348/2/4 346/2/4 349/2/4
f 343/1/4 344/1/4 350/1/4
f 349/2/4 343/2/4 350/2/4
f 350/1/4 344/1/4 351/1/4
f 347/1/4 348/1/4 354/1/4
f 352/2/4 353/2/4 355/2/4
f 353/2/4 354/2/4 355/2/4
f 354/1/4 348/1/4 356/1/4
f 355/2/4 354/2/4 356/2/4
f 348/2/4 349/2/4 357/2/4
f 356/1/4 348/1/4 357/1/4
f 357/2/4 349/2/4 358/2/4
f 359/2/4 360/2/4 361/2/4
f 361/2/4 362/2/4 363/2/4
f 363/2/4 362/2/4 364/2/4
f 359/2/4 361/2/4 365/2/4
f 361/2/4 363/2/4 365/2/4
f 365/2/4 363/2/4 366/2/4
f 366/2/4 363/2/4 367/2/4
f 359/2/4 365/2/4 368/2/4
f 365/1/4 366/1/4 369/1/4
f 368/2/4 365/2/4 369/2/4
f 369/1/4 366/1/4 370/1/4
f 374/2/5 372/2/5 371/2/5
f 375/2/5 372/2/5 374/2/5
f 378/2/5 374/2/5 373/2/5
f 378/2/5 376/2/5 375/2/5
f 378/2/5 375/2/5 374/2/5
f 379/2/5 376/2/5 378/2/5
f 379/2/5 378/2/5 377/2/5
f 381/2/5 379/2/5 377/2/5
f 381/2/5 380/2/5 379/2/5
f 382/2/5 380/2/5 381/2/5
f 383/2/5 380/2/5 382/2/5
f 384/2/5 380/2/5 383/2/5
f 385/2/5 383/2/5 382/2/5
f 386/2/5 383/2/5 385/2/5
f 387/2/5 383/2/5 386/2/5
f 388/2/5 383/2/5 387/2/5
f 389/2/5 387/2/5 386/2/5
f 390/2/5 387/2/5 389/2/5
f 393/1/5 392/1/5 391/1/5
f 394/1/5 392/1/5 393/1/5
f 397/1/5 396/1/5 395/1/5
f 398/1/5 396/1/5 397/1/5
f 401/1/5 400/1/5 399/1/5
f 402/1/5 400/1/5 401/1/5
f 403/2/6 404/2/6 405/2/6
f 405/2/6 404/2/6 406/2/6
f 407/1/6 408/1/6 411/1/6
f 411/1/6 408/1/6 412/1/6
f 409/2/6 410/2/6 413/2/6
f 413/2/6 410/2/6 414/2/6
f 415/2/6 416/2/6 419/2/6
f 419/2/6 416/2/6 420/2/6
f 417/2/6 418/2/6 421/2/6
f 421/2/6 418/2/6 422/2/6
f 423/2/6 424/2/6 427/2/6
f 427/2/6 424/2/6 428/2/6
f 425/2/6 426/2/6 429/2/6
f 429/2/6 426/2/6 430/2/6
f 431/2/6 432/2/6 435/2/6
f 435/2/6 432/2/6 436/2/6
f 433/1/6 434/1/6 437/1/6
f 437/1/6 434/1/6 438/1/6
f 439/2/6 440/2/6 441/2/6
f 441/2/6 440/2/6 442/2/6
f 443/2/6 444/2/6 445/2/6
f 445/2/6 444/2/6 446/2/6
f 447/2/6 448/2/6 449/2/6
f 449/2/6 448/2/6 450/2/6
f 451/2/6 452/2/6 453/2/6
f 453/2/6 452/2/6 454/2/6
f 455/1/6 456/1/6 457/1/6
f 457/1/6 456/1/6 458/1/6
f 459/1/6 460/1/6 461/1/6
f 461/1/6 460/1/6 462/1/6
f 463/2/6 464/2/6 465/2/6
f 465/2/6 464/2/6 466/2/6
f 465/1/6 466/1/6 469/1/6
f 467/2/6 468/2/6 470/2/6
f 470/2/6 468/2/6 471/2/6
f 465/1/6 469/1/6 472/1/6
f 472/1/6 469/1/6 473/1/6
f 475/2/6 476/2/6 479/2/6
f 474/2/6 475/2/6 479/2/6
f 479/2/6 476/2/6 480/2/6
f 477/2/6 478/2/6 481/2/6
f 481/2/6 478/2/6 482/2/6
f 483/1/6 484/1/6 488/1/6
f 488/1/6 484/1/6 489/1/6
f 485/2/6 486/2/6 490/2/6
f 486/1/6 487/1/6 491/1/6
f 490/2/6 486/2/6 491/2/6
f 491/1/6 487/1/6 492/1/6
f 492/1/6 493/1/6 494/1/6
f 491/1/6 492/1/6 494/1/6
f 494/1/6 493/1/6 495/1/6
f 495/1/6 493/1/6 496/1/6
f 495/2/6 496/2/6 499/2/6
f 499/2/6 496/2/6 500/2/6
f 497/2/6 498/2/6 501/2/6
f 501/2/6 498/2/6 502/2/6
f 501/1/6 502/1/6 506/1/6
f 506/1/6 502/1/6 507/1/6
f 503/1/6 504/1/6 509/1/6
f 509/1/6 504/1/6 510/1/6
f 504/2/6 505/2/6 511/2/6
f 510/1/6 504/1/6 511/1/6
f 511/2/6 505/2/6 512/2/6
f 507/2/6 508/2/6 513/2/6
f 513/2/6 508/2/6 514/2/6
f 515/1/6 516/1/6 519/1/6
f 516/2/6 517/2/6 520/2/6
f 519/1/6 516/1/6 520/1/6
f 520/2/6 517/2/6 521/2/6
f 518/1/6 519/1/6 523/1/6
f 519/2/6 520/2/6 524/2/6
f 523/1/6 519/1/6 524/1/6
f 524/2/6 520/2/6 525/2/6
f 521/2/6 522/2/6 526/2/6
f 526/2/6 522/2/6 527/2/6
f 523/2/6 524/2/6 529/2/6
f 529/2/6 524/2/6 530/2/6
f 527/2/6 528/2/6 531/2/6
f 531/2/6 532/2/6 536/2/6
f 527/2/6 531/2/6 536/2/6
f 536/2/6 532/2/6 537/2/6
f 533/2/6 534/2/6 538/2/6
f 534/1/6 535/1/6 539/1/6
f 538/2/6 534/2/6 539/2/6
f 539/1/6 535/1/6 540/1/6
f 540/1/6 541/1/6 542/1/6
f 539/1/6 540/1/6 542/1/6
f 542/1/6 541/1/6 543/1/6
f 544/2/6 545/2/6 547/2/6
f 547/2/6 545/2/6 548/2/6
f 546/2/6 547/2/6 550/2/6
f 548/2/6 549/2/6 550/2/6
f 547/2/6 548/2/6 550/2/6
f 550/2/6 549/2/6 551/2/6
