# MagicaVoxel @ Ephtracy

# group
g TallTree

# material
mtllib TallTree.mtl
usemtl palette

# normals
vn -1 0 0
vn 1 0 0
vn 0 0 1
vn 0 0 -1
vn 0 -1 0
vn 0 1 0

# texcoords
vt 0.0722656 0.5
vt 0.142578 0.5
vt 0.146484 0.5
vt 0.150391 0.5

# verts
v -6 6 6
v -6 6 -6
v -6 12 6
v -6 12 -6
v -6 18 6
v -6 18 -6
v -6 24 6
v -6 24 -6
v -2 0 1
v -2 0 -1
v -2 6 1
v -2 6 -1
v -1 0 2
v -1 0 1
v -1 0 -1
v -1 0 -2
v -1 6 2
v -1 6 1
v -1 6 -1
v -1 6 -2
v 1 0 2
v 1 0 1
v 1 0 -1
v 1 0 -2
v 1 6 2
v 1 6 1
v 1 6 -1
v 1 6 -2
v 2 0 1
v 2 0 -1
v 2 6 1
v 2 6 -1
v 6 6 6
v 6 6 -6
v 6 12 6
v 6 12 -6
v 6 18 6
v 6 18 -6
v 6 24 6
v 6 24 -6
v -6 6 6
v -6 12 6
v -6 18 6
v -6 24 6
v 6 6 6
v 6 12 6
v 6 18 6
v 6 24 6
v -1 0 2
v -1 6 2
v 1 0 2
v 1 6 2
v -2 0 1
v -2 6 1
v -1 0 1
v -1 6 1
v 1 0 1
v 1 6 1
v 2 0 1
v 2 6 1
v -2 0 -1
v -2 6 -1
v -1 0 -1
v -1 6 -1
v 1 0 -1
v 1 6 -1
v 2 0 -1
v 2 6 -1
v -1 0 -2
v -1 6 -2
v 1 0 -2
v 1 6 -2
v -6 6 -6
v -6 12 -6
v -6 18 -6
v -6 24 -6
v 6 6 -6
v 6 12 -6
v 6 18 -6
v 6 24 -6
v -1 0 2
v 1 0 2
v -2 0 1
v -1 0 1
v 1 0 1
v 2 0 1
v -2 0 -1
v -1 0 -1
v 1 0 -1
v 2 0 -1
v -1 0 -2
v 1 0 -2
v -6 6 6
v 6 6 6
v -1 6 2
v 1 6 2
v -2 6 1
v -1 6 1
v 1 6 1
v 2 6 1
v -2 6 -1
v -1 6 -1
v 1 6 -1
v 2 6 -1
v -1 6 -2
v 1 6 -2
v -6 6 -6
v 6 6 -6
v -6 24 6
v 6 24 6
v -6 24 -6
v 6 24 -6

# faces
f 3/4/1 2/4/1 1/4/1
f 4/4/1 2/4/1 3/4/1
f 5/3/1 4/3/1 3/3/1
f 6/3/1 4/3/1 5/3/1
f 7/2/1 6/2/1 5/2/1
f 8/2/1 6/2/1 7/2/1
f 11/1/1 10/1/1 9/1/1
f 12/1/1 10/1/1 11/1/1
f 17/1/1 14/1/1 13/1/1
f 18/1/1 14/1/1 17/1/1
f 19/1/1 16/1/1 15/1/1
f 20/1/1 16/1/1 19/1/1
f 21/1/2 22/1/2 25/1/2
f 25/1/2 22/1/2 26/1/2
f 23/1/2 24/1/2 27/1/2
f 27/1/2 24/1/2 28/1/2
f 29/1/2 30/1/2 31/1/2
f 31/1/2 30/1/2 32/1/2
f 33/4/2 34/4/2 35/4/2
f 35/4/2 34/4/2 36/4/2
f 35/3/2 36/3/2 37/3/2
f 37/3/2 36/3/2 38/3/2
f 37/2/2 38/2/2 39/2/2
f 39/2/2 38/2/2 40/2/2
f 45/4/3 42/4/3 41/4/3
f 46/3/3 43/3/3 42/3/3
f 46/4/3 42/4/3 45/4/3
f 47/2/3 44/2/3 43/2/3
f 47/3/3 43/3/3 46/3/3
f 48/2/3 44/2/3 47/2/3
f 51/1/3 50/1/3 49/1/3
f 52/1/3 50/1/3 51/1/3
f 55/1/3 54/1/3 53/1/3
f 56/1/3 54/1/3 55/1/3
f 59/1/3 58/1/3 57/1/3
f 60/1/3 58/1/3 59/1/3
f 61/1/4 62/1/4 63/1/4
f 63/1/4 62/1/4 64/1/4
f 65/1/4 66/1/4 67/1/4
f 67/1/4 66/1/4 68/1/4
f 69/1/4 70/1/4 71/1/4
f 71/1/4 70/1/4 72/1/4
f 73/4/4 74/4/4 77/4/4
f 74/3/4 75/3/4 78/3/4
f 77/4/4 74/4/4 78/4/4
f 75/2/4 76/2/4 79/2/4
f 78/3/4 75/3/4 79/3/4
f 79/2/4 76/2/4 80/2/4
f 84/1/5 82/1/5 81/1/5
f 85/1/5 82/1/5 84/1/5
f 87/1/5 84/1/5 83/1/5
f 87/1/5 86/1/5 85/1/5
f 87/1/5 85/1/5 84/1/5
f 88/1/5 86/1/5 87/1/5
f 89/1/5 86/1/5 88/1/5
f 90/1/5 86/1/5 89/1/5
f 91/1/5 89/1/5 88/1/5
f 92/1/5 89/1/5 91/1/5
f 95/4/5 94/4/5 93/4/5
f 96/4/5 94/4/5 95/4/5
f 97/4/5 95/4/5 93/4/5
f 98/4/5 95/4/5 97/4/5
f 99/4/5 94/4/5 96/4/5
f 100/4/5 94/4/5 99/4/5
f 101/4/5 97/4/5 93/4/5
f 104/4/5 94/4/5 100/4/5
f 105/4/5 102/4/5 101/4/5
f 106/4/5 104/4/5 103/4/5
f 107/4/5 105/4/5 101/4/5
f 107/4/5 106/4/5 105/4/5
f 107/4/5 101/4/5 93/4/5
f 108/4/5 104/4/5 106/4/5
f 108/4/5 106/4/5 107/4/5
f 108/4/5 94/4/5 104/4/5
f 109/2/6 110/2/6 111/2/6
f 111/2/6 110/2/6 112/2/6
