# MagicaVoxel @ Ephtracy

# group
g DwarfHead

# material
mtllib DwarfHead.mtl
usemtl palette

# normals
vn -1 0 0
vn 1 0 0
vn 0 0 1
vn 0 0 -1
vn 0 -1 0
vn 0 1 0

# texcoords
vt 0.0214844 0.5
vt 0.0253906 0.5
vt 0.0722656 0.5
vt 0.0839844 0.5
vt 0.103516 0.5
vt 0.111328 0.5
vt 0.158203 0.5

# verts
v -5 10 -0
v -5 10 -1
v -5 11 1
v -5 11 -0
v -5 13 -0
v -5 13 -1
v -5 14 1
v -5 14 -0
v -4 8 3
v -4 8 -3
v -4 9 3
v -4 9 2
v -4 9 -2
v -4 9 -3
v -4 10 2
v -4 10 1
v -4 10 -0
v -4 10 -1
v -4 10 -2
v -4 11 1
v -4 11 -0
v -3 2 4
v -3 2 3
v -3 4 4
v -3 4 3
v -3 4 -3
v -3 5 4
v -3 5 3
v -3 8 4
v -3 8 3
v -3 8 -3
v -3 8 -4
v -3 9 4
v -3 9 3
v -3 9 2
v -3 9 -2
v -3 9 -3
v -3 9 -4
v -3 10 3
v -3 10 2
v -3 10 1
v -3 10 -1
v -3 10 -2
v -3 10 -3
v -3 11 2
v -3 11 1
v -3 11 -1
v -3 11 -2
v -2 1 4
v -2 1 3
v -2 2 4
v -2 2 3
v -2 5 4
v -2 5 3
v -2 6 4
v -2 6 3
v -2 9 4
v -2 9 3
v -2 9 -3
v -2 9 -4
v -2 10 4
v -2 10 3
v -2 10 2
v -2 10 -2
v -2 10 -3
v -2 10 -4
v -2 11 3
v -2 11 2
v -2 11 -2
v -2 11 -3
v -2 12 2
v -2 12 -2
v -1 0 4
v -1 0 3
v -1 1 4
v -1 1 3
v 3 11 1
v 3 11 -1
v 3 12 1
v 3 12 -1
v 4 12 1
v 4 12 -1
v 4 13 -0
v 4 13 -1
v 4 14 1
v 4 14 -0
v -4 12 1
v -4 12 -1
v -4 13 -0
v -4 13 -1
v -4 14 1
v -4 14 -0
v -3 11 1
v -3 11 -1
v -3 12 1
v -3 12 -1
v 1 0 4
v 1 0 3
v 1 1 4
v 1 1 3
v 2 1 4
v 2 1 3
v 2 2 4
v 2 2 3
v 2 5 4
v 2 5 3
v 2 6 4
v 2 6 3
v 2 9 4
v 2 9 3
v 2 9 -3
v 2 9 -4
v 2 10 4
v 2 10 3
v 2 10 2
v 2 10 -2
v 2 10 -3
v 2 10 -4
v 2 11 3
v 2 11 2
v 2 11 -2
v 2 11 -3
v 2 12 2
v 2 12 -2
v 3 2 4
v 3 2 3
v 3 4 4
v 3 4 3
v 3 4 -3
v 3 5 4
v 3 5 3
v 3 8 4
v 3 8 3
v 3 8 -3
v 3 8 -4
v 3 9 4
v 3 9 3
v 3 9 2
v 3 9 -2
v 3 9 -3
v 3 9 -4
v 3 10 3
v 3 10 2
v 3 10 1
v 3 10 -1
v 3 10 -2
v 3 10 -3
v 3 11 2
v 3 11 1
v 3 11 -1
v 3 11 -2
v 4 8 3
v 4 8 -3
v 4 9 3
v 4 9 2
v 4 9 -2
v 4 9 -3
v 4 10 2
v 4 10 1
v 4 10 -0
v 4 10 -1
v 4 10 -2
v 4 11 1
v 4 11 -0
v 5 10 -0
v 5 10 -1
v 5 11 1
v 5 11 -0
v 5 13 -0
v 5 13 -1
v 5 14 1
v 5 14 -0
v -3 2 4
v -3 4 4
v -3 5 4
v -3 8 4
v -3 9 4
v -2 1 4
v -2 2 4
v -2 4 4
v -2 5 4
v -2 6 4
v -2 9 4
v -2 10 4
v -1 0 4
v -1 1 4
v -1 3 4
v -1 5 4
v -1 6 4
v 0 0 4
v 0 3 4
v 0 5 4
v 1 0 4
v 1 1 4
v 1 3 4
v 1 5 4
v 2 1 4
v 2 2 4
v 2 3 4
v 2 4 4
v 2 5 4
v 2 6 4
v 2 9 4
v 2 10 4
v 3 2 4
v 3 4 4
v 3 5 4
v 3 8 4
v 3 9 4
v -4 8 3
v -4 9 3
v -3 5 3
v -3 8 3
v -3 9 3
v -3 10 3
v -2 5 3
v -2 6 3
v -2 7 3
v -2 9 3
v -2 10 3
v -2 11 3
v -1 6 3
v -1 7 3
v 1 6 3
v 1 7 3
v 2 5 3
v 2 6 3
v 2 7 3
v 2 9 3
v 2 10 3
v 2 11 3
v 3 5 3
v 3 8 3
v 3 9 3
v 3 10 3
v 4 8 3
v 4 9 3
v -4 9 2
v -4 10 2
v -3 9 2
v -3 10 2
v -3 11 2
v -2 10 2
v -2 11 2
v -2 12 2
v 2 10 2
v 2 11 2
v 2 12 2
v 3 9 2
v 3 10 2
v 3 11 2
v 4 9 2
v 4 10 2
v -5 11 1
v -5 14 1
v -4 10 1
v -4 11 1
v -4 12 1
v -4 14 1
v -3 10 1
v -3 11 1
v -3 12 1
v 3 10 1
v 3 11 1
v 3 12 1
v 4 10 1
v 4 11 1
v 4 12 1
v 4 14 1
v 5 11 1
v 5 14 1
v -5 10 -0
v -5 11 -0
v -4 10 -0
v -4 11 -0
v 4 10 -0
v 4 11 -0
v 5 10 -0
v 5 11 -0
v -3 2 3
v -3 4 3
v -2 1 3
v -2 2 3
v -2 4 3
v -1 0 3
v -1 1 3
v -1 3 3
v 0 0 3
v 0 3 3
v 0 4 3
v 1 0 3
v 1 1 3
v 1 3 3
v 1 4 3
v 2 1 3
v 2 2 3
v 2 3 3
v 2 4 3
v 3 2 3
v 3 4 3
v -5 13 -0
v -5 14 -0
v -4 13 -0
v -4 14 -0
v 4 13 -0
v 4 14 -0
v 5 13 -0
v 5 14 -0
v -5 10 -1
v -5 13 -1
v -4 10 -1
v -4 12 -1
v -4 13 -1
v -3 10 -1
v -3 11 -1
v -3 12 -1
v 3 10 -1
v 3 11 -1
v 3 12 -1
v 4 10 -1
v 4 12 -1
v 4 13 -1
v 5 10 -1
v 5 13 -1
v -4 9 -2
v -4 10 -2
v -3 9 -2
v -3 10 -2
v -3 11 -2
v -2 10 -2
v -2 11 -2
v -2 12 -2
v 2 10 -2
v 2 11 -2
v 2 12 -2
v 3 9 -2
v 3 10 -2
v 3 11 -2
v 4 9 -2
v 4 10 -2
v -4 8 -3
v -4 9 -3
v -3 4 -3
v -3 8 -3
v -3 9 -3
v -3 10 -3
v -2 9 -3
v -2 10 -3
v -2 11 -3
v 2 9 -3
v 2 10 -3
v 2 11 -3
v 3 4 -3
v 3 8 -3
v 3 9 -3
v 3 10 -3
v 4 8 -3
v 4 9 -3
v -3 8 -4
v -3 9 -4
v -2 9 -4
v -2 10 -4
v 2 9 -4
v 2 10 -4
v 3 8 -4
v 3 9 -4
v -1 0 4
v 0 0 4
v 1 0 4
v -1 0 3
v 0 0 3
v 1 0 3
v -2 1 4
v -1 1 4
v 1 1 4
v 2 1 4
v -2 1 3
v -1 1 3
v 1 1 3
v 2 1 3
v -3 2 4
v -2 2 4
v 2 2 4
v 3 2 4
v -3 2 3
v -2 2 3
v 2 2 3
v 3 2 3
v -3 4 3
v -2 4 3
v 0 4 3
v 1 4 3
v 2 4 3
v 3 4 3
v -3 4 -3
v 3 4 -3
v -3 8 4
v 3 8 4
v -4 8 3
v -3 8 3
v 3 8 3
v 4 8 3
v -4 8 -3
v -3 8 -3
v 3 8 -3
v 4 8 -3
v -3 8 -4
v 3 8 -4
v -5 10 -0
v -4 10 -0
v 4 10 -0
v 5 10 -0
v -5 10 -1
v -4 10 -1
v 4 10 -1
v 5 10 -1
v -5 11 1
v -4 11 1
v 4 11 1
v 5 11 1
v -5 11 -0
v -4 11 -0
v 4 11 -0
v 5 11 -0
v -3 5 4
v -2 5 4
v 2 5 4
v 3 5 4
v -3 5 3
v -2 5 3
v 2 5 3
v 3 5 3
v -2 6 4
v -1 6 4
v 2 6 4
v -2 6 3
v -1 6 3
v 1 6 3
v 2 6 3
v -3 9 4
v -2 9 4
v 2 9 4
v 3 9 4
v -4 9 3
v -3 9 3
v -2 9 3
v 2 9 3
v 3 9 3
v 4 9 3
v -4 9 2
v -3 9 2
v 3 9 2
v 4 9 2
v -4 9 -2
v -3 9 -2
v 3 9 -2
v 4 9 -2
v -4 9 -3
v -3 9 -3
v -2 9 -3
v 2 9 -3
v 3 9 -3
v 4 9 -3
v -3 9 -4
v -2 9 -4
v 2 9 -4
v 3 9 -4
v -2 10 4
v 2 10 4
v -3 10 3
v -2 10 3
v 2 10 3
v 3 10 3
v -4 10 2
v -3 10 2
v -2 10 2
v 2 10 2
v 3 10 2
v 4 10 2
v -4 10 1
v -3 10 1
v 3 10 1
v 4 10 1
v -4 10 -1
v -3 10 -1
v 3 10 -1
v 4 10 -1
v -4 10 -2
v -3 10 -2
v -2 10 -2
v 2 10 -2
v 3 10 -2
v 4 10 -2
v -3 10 -3
v -2 10 -3
v 2 10 -3
v 3 10 -3
v -2 10 -4
v 2 10 -4
v -2 11 3
v 2 11 3
v -3 11 2
v -2 11 2
v 2 11 2
v 3 11 2
v -3 11 1
v 3 11 1
v -3 11 -1
v 3 11 -1
v -3 11 -2
v -2 11 -2
v 2 11 -2
v 3 11 -2
v -2 11 -3
v 2 11 -3
v -2 12 2
v 2 12 2
v -4 12 1
v -3 12 1
v 3 12 1
v 4 12 1
v -4 12 -1
v -3 12 -1
v 3 12 -1
v 4 12 -1
v -2 12 -2
v 2 12 -2
v -5 13 -0
v -4 13 -0
v 4 13 -0
v 5 13 -0
v -5 13 -1
v -4 13 -1
v 4 13 -1
v 5 13 -1
v -5 14 1
v -4 14 1
v 4 14 1
v 5 14 1
v -5 14 -0
v -4 14 -0
v 4 14 -0
v 5 14 -0

# faces
f 4/2/1 2/2/1 1/2/1
f 5/2/1 2/2/1 4/2/1
f 5/2/1 4/2/1 3/2/1
f 6/2/1 2/2/1 5/2/1
f 7/2/1 5/2/1 3/2/1
f 8/2/1 5/2/1 7/2/1
f 11/3/1 10/3/1 9/3/1
f 12/3/1 10/3/1 11/3/1
f 13/3/1 10/3/1 12/3/1
f 14/3/1 10/3/1 13/3/1
f 15/1/1 13/1/1 12/1/1
f 16/1/1 13/1/1 15/1/1
f 17/1/1 13/1/1 16/1/1
f 18/1/1 13/1/1 17/1/1
f 19/1/1 13/1/1 18/1/1
f 20/2/1 17/2/1 16/2/1
f 21/2/1 17/2/1 20/2/1
f 24/5/1 23/5/1 22/5/1
f 25/5/1 23/5/1 24/5/1
f 27/6/1 25/6/1 24/6/1
f 28/4/1 26/4/1 25/4/1
f 28/6/1 25/6/1 27/6/1
f 30/4/1 26/4/1 28/4/1
f 31/4/1 26/4/1 30/4/1
f 33/3/1 30/3/1 29/3/1
f 34/3/1 30/3/1 33/3/1
f 37/3/1 32/3/1 31/3/1
f 38/3/1 32/3/1 37/3/1
f 39/1/1 35/1/1 34/1/1
f 40/1/1 35/1/1 39/1/1
f 43/1/1 37/1/1 36/1/1
f 44/1/1 37/1/1 43/1/1
f 45/1/1 41/1/1 40/1/1
f 46/1/1 41/1/1 45/1/1
f 47/1/1 43/1/1 42/1/1
f 48/1/1 43/1/1 47/1/1
f 51/6/1 50/6/1 49/6/1
f 52/6/1 50/6/1 51/6/1
f 55/5/1 54/5/1 53/5/1
f 56/5/1 54/5/1 55/5/1
f 61/1/1 58/1/1 57/1/1
f 62/1/1 58/1/1 61/1/1
f 65/1/1 60/1/1 59/1/1
f 66/1/1 60/1/1 65/1/1
f 67/1/1 63/1/1 62/1/1
f 68/1/1 63/1/1 67/1/1
f 69/1/1 65/1/1 64/1/1
f 70/1/1 65/1/1 69/1/1
f 71/1/1 69/1/1 68/1/1
f 72/1/1 69/1/1 71/1/1
f 75/5/1 74/5/1 73/5/1
f 76/5/1 74/5/1 75/5/1
f 79/2/1 78/2/1 77/2/1
f 80/2/1 78/2/1 79/2/1
f 83/2/1 82/2/1 81/2/1
f 84/2/1 82/2/1 83/2/1
f 85/2/1 83/2/1 81/2/1
f 86/2/1 83/2/1 85/2/1
f 87/2/2 88/2/2 89/2/2
f 89/2/2 88/2/2 90/2/2
f 87/2/2 89/2/2 91/2/2
f 91/2/2 89/2/2 92/2/2
f 93/2/2 94/2/2 95/2/2
f 95/2/2 94/2/2 96/2/2
f 97/6/2 98/6/2 99/6/2
f 99/6/2 98/6/2 100/6/2
f 101/5/2 102/5/2 103/5/2
f 103/5/2 102/5/2 104/5/2
f 105/6/2 106/6/2 107/6/2
f 107/6/2 106/6/2 108/6/2
f 109/1/2 110/1/2 113/1/2
f 113/1/2 110/1/2 114/1/2
f 111/1/2 112/1/2 117/1/2
f 117/1/2 112/1/2 118/1/2
f 114/1/2 115/1/2 119/1/2
f 119/1/2 115/1/2 120/1/2
f 116/1/2 117/1/2 121/1/2
f 121/1/2 117/1/2 122/1/2
f 120/1/2 121/1/2 123/1/2
f 123/1/2 121/1/2 124/1/2
f 125/5/2 126/5/2 127/5/2
f 127/5/2 126/5/2 128/5/2
f 127/6/2 128/6/2 130/6/2
f 128/4/2 129/4/2 131/4/2
f 130/6/2 128/6/2 131/6/2
f 131/4/2 129/4/2 133/4/2
f 133/4/2 129/4/2 134/4/2
f 132/3/2 133/3/2 136/3/2
f 136/3/2 133/3/2 137/3/2
f 134/3/2 135/3/2 140/3/2
f 140/3/2 135/3/2 141/3/2
f 137/1/2 138/1/2 142/1/2
f 142/1/2 138/1/2 143/1/2
f 139/1/2 140/1/2 146/1/2
f 146/1/2 140/1/2 147/1/2
f 143/1/2 144/1/2 148/1/2
f 148/1/2 144/1/2 149/1/2
f 145/1/2 146/1/2 150/1/2
f 150/1/2 146/1/2 151/1/2
f 152/3/2 153/3/2 154/3/2
f 154/3/2 153/3/2 155/3/2
f 155/3/2 153/3/2 156/3/2
f 156/3/2 153/3/2 157/3/2
f 155/1/2 156/1/2 158/1/2
f 158/1/2 156/1/2 159/1/2
f 159/1/2 156/1/2 160/1/2
f 160/1/2 156/1/2 161/1/2
f 161/1/2 156/1/2 162/1/2
f 159/2/2 160/2/2 163/2/2
f 163/2/2 160/2/2 164/2/2
f 165/2/2 166/2/2 168/2/2
f 168/2/2 166/2/2 169/2/2
f 167/2/2 168/2/2 169/2/2
f 169/2/2 166/2/2 170/2/2
f 167/2/2 169/2/2 171/2/2
f 171/2/2 169/2/2 172/2/2
f 179/5/3 174/5/3 173/5/3
f 180/6/3 175/6/3 174/6/3
f 180/5/3 174/5/3 179/5/3
f 181/6/3 175/6/3 180/6/3
f 183/3/3 177/3/3 176/3/3
f 186/6/3 179/6/3 178/6/3
f 186/6/3 180/6/3 179/6/3
f 186/6/3 181/6/3 180/6/3
f 187/6/3 181/6/3 186/6/3
f 188/5/3 182/5/3 181/5/3
f 188/6/3 181/6/3 187/6/3
f 189/5/3 182/5/3 188/5/3
f 190/5/3 187/5/3 186/5/3
f 190/5/3 186/5/3 185/5/3
f 191/6/3 189/6/3 188/6/3
f 191/5/3 187/5/3 190/5/3
f 191/6/3 188/6/3 187/6/3
f 192/6/3 189/6/3 191/6/3
f 193/6/3 191/6/3 190/6/3
f 194/6/3 191/6/3 193/6/3
f 195/5/3 192/5/3 191/5/3
f 195/6/3 191/6/3 194/6/3
f 196/6/3 189/6/3 192/6/3
f 196/5/3 192/5/3 195/5/3
f 197/5/3 195/5/3 194/5/3
f 198/5/3 195/5/3 197/5/3
f 199/6/3 196/6/3 195/6/3
f 199/5/3 195/5/3 198/5/3
f 200/6/3 196/6/3 199/6/3
f 201/6/3 189/6/3 196/6/3
f 201/6/3 196/6/3 200/6/3
f 202/6/3 189/6/3 201/6/3
f 203/1/3 184/1/3 183/1/3
f 203/3/3 183/3/3 176/3/3
f 204/1/3 184/1/3 203/1/3
f 205/5/3 199/5/3 198/5/3
f 205/5/3 200/5/3 199/5/3
f 206/6/3 201/6/3 200/6/3
f 206/5/3 200/5/3 205/5/3
f 207/6/3 201/6/3 206/6/3
f 208/3/3 203/3/3 176/3/3
f 209/3/3 203/3/3 208/3/3
f 213/3/3 211/3/3 210/3/3
f 214/3/3 211/3/3 213/3/3
f 216/4/3 213/4/3 212/4/3
f 217/4/3 213/4/3 216/4/3
f 218/4/3 213/4/3 217/4/3
f 219/1/3 215/1/3 214/1/3
f 220/1/3 215/1/3 219/1/3
f 222/7/3 218/7/3 217/7/3
f 223/4/3 213/4/3 218/4/3
f 223/7/3 218/7/3 222/7/3
f 224/4/3 223/4/3 222/4/3
f 225/4/3 213/4/3 223/4/3
f 225/4/3 223/4/3 224/4/3
f 227/7/3 225/7/3 224/7/3
f 228/4/3 213/4/3 225/4/3
f 228/7/3 225/7/3 227/7/3
f 230/1/3 221/1/3 220/1/3
f 231/1/3 221/1/3 230/1/3
f 232/4/3 227/4/3 226/4/3
f 232/4/3 228/4/3 227/4/3
f 233/4/3 213/4/3 228/4/3
f 233/4/3 228/4/3 232/4/3
f 234/1/3 230/1/3 229/1/3
f 235/1/3 230/1/3 234/1/3
f 236/3/3 234/3/3 233/3/3
f 237/3/3 234/3/3 236/3/3
f 240/1/3 239/1/3 238/1/3
f 241/1/3 239/1/3 240/1/3
f 243/1/3 242/1/3 241/1/3
f 244/1/3 242/1/3 243/1/3
f 247/1/3 245/1/3 244/1/3
f 248/1/3 245/1/3 247/1/3
f 250/1/3 247/1/3 246/1/3
f 251/1/3 247/1/3 250/1/3
f 252/1/3 250/1/3 249/1/3
f 253/1/3 250/1/3 252/1/3
f 257/2/3 255/2/3 254/2/3
f 258/2/3 255/2/3 257/2/3
f 259/2/3 255/2/3 258/2/3
f 260/2/3 257/2/3 256/2/3
f 260/2/3 258/2/3 257/2/3
f 261/2/3 258/2/3 260/2/3
f 262/2/3 258/2/3 261/2/3
f 266/2/3 264/2/3 263/2/3
f 266/2/3 265/2/3 264/2/3
f 267/2/3 265/2/3 266/2/3
f 268/2/3 265/2/3 267/2/3
f 270/2/3 268/2/3 267/2/3
f 270/2/3 269/2/3 268/2/3
f 271/2/3 269/2/3 270/2/3
f 274/2/3 273/2/3 272/2/3
f 275/2/3 273/2/3 274/2/3
f 278/2/3 277/2/3 276/2/3
f 279/2/3 277/2/3 278/2/3
f 280/5/4 281/5/4 283/5/4
f 283/5/4 281/5/4 284/5/4
f 282/6/4 283/6/4 286/6/4
f 283/6/4 284/6/4 286/6/4
f 286/6/4 284/6/4 287/6/4
f 285/5/4 286/5/4 288/5/4
f 286/5/4 287/5/4 288/5/4
f 287/6/4 284/6/4 289/6/4
f 288/5/4 287/5/4 289/5/4
f 289/6/4 284/6/4 290/6/4
f 288/6/4 289/6/4 291/6/4
f 291/6/4 289/6/4 292/6/4
f 289/5/4 290/5/4 293/5/4
f 292/6/4 289/6/4 293/6/4
f 293/5/4 290/5/4 294/5/4
f 292/5/4 293/5/4 295/5/4
f 295/5/4 293/5/4 296/5/4
f 293/6/4 294/6/4 297/6/4
f 296/5/4 293/5/4 297/5/4
f 297/6/4 294/6/4 298/6/4
f 296/5/4 297/5/4 299/5/4
f 297/5/4 298/5/4 299/5/4
f 299/5/4 298/5/4 300/5/4
f 301/2/4 302/2/4 303/2/4
f 303/2/4 302/2/4 304/2/4
f 305/2/4 306/2/4 307/2/4
f 307/2/4 306/2/4 308/2/4
f 309/2/4 310/2/4 311/2/4
f 311/2/4 310/2/4 312/2/4
f 312/2/4 310/2/4 313/2/4
f 311/2/4 312/2/4 314/2/4
f 314/2/4 312/2/4 315/2/4
f 315/2/4 312/2/4 316/2/4
f 317/2/4 318/2/4 320/2/4
f 318/2/4 319/2/4 320/2/4
f 320/2/4 319/2/4 321/2/4
f 320/2/4 321/2/4 323/2/4
f 321/2/4 322/2/4 323/2/4
f 323/2/4 322/2/4 324/2/4
f 325/1/4 326/1/4 327/1/4
f 327/1/4 326/1/4 328/1/4
f 328/1/4 329/1/4 330/1/4
f 330/1/4 329/1/4 331/1/4
f 331/1/4 332/1/4 334/1/4
f 334/1/4 332/1/4 335/1/4
f 333/1/4 334/1/4 337/1/4
f 337/1/4 334/1/4 338/1/4
f 336/1/4 337/1/4 339/1/4
f 339/1/4 337/1/4 340/1/4
f 341/3/4 342/3/4 344/3/4
f 344/3/4 342/3/4 345/3/4
f 345/1/4 346/1/4 347/1/4
f 347/1/4 346/1/4 348/1/4
f 348/1/4 349/1/4 351/1/4
f 351/1/4 349/1/4 352/1/4
f 343/4/4 344/4/4 353/4/4
f 353/4/4 344/4/4 354/4/4
f 350/1/4 351/1/4 355/1/4
f 355/1/4 351/1/4 356/1/4
f 354/3/4 355/3/4 357/3/4
f 357/3/4 355/3/4 358/3/4
f 359/3/4 360/3/4 361/3/4
f 359/3/4 361/3/4 363/3/4
f 361/1/4 362/1/4 363/1/4
f 363/1/4 362/1/4 364/1/4
f 359/3/4 363/3/4 365/3/4
f 365/3/4 363/3/4 366/3/4
f 370/5/5 368/5/5 367/5/5
f 371/6/5 369/6/5 368/6/5
f 371/5/5 368/5/5 370/5/5
f 372/6/5 369/6/5 371/6/5
f 377/6/5 374/6/5 373/6/5
f 378/6/5 374/6/5 377/6/5
f 379/5/5 376/5/5 375/5/5
f 380/5/5 376/5/5 379/5/5
f 385/5/5 382/5/5 381/5/5
f 386/5/5 382/5/5 385/5/5
f 387/5/5 384/5/5 383/5/5
f 388/5/5 384/5/5 387/5/5
f 395/4/5 390/4/5 389/4/5
f 395/4/5 394/4/5 393/4/5
f 395/4/5 393/4/5 392/4/5
f 395/4/5 392/4/5 391/4/5
f 395/4/5 391/4/5 390/4/5
f 396/4/5 394/4/5 395/4/5
f 400/3/5 398/3/5 397/3/5
f 401/3/5 398/3/5 400/3/5
f 403/3/5 400/3/5 399/3/5
f 404/3/5 400/3/5 403/3/5
f 405/3/5 402/3/5 401/3/5
f 406/3/5 402/3/5 405/3/5
f 407/3/5 405/3/5 404/3/5
f 408/3/5 405/3/5 407/3/5
f 413/2/5 410/2/5 409/2/5
f 414/2/5 410/2/5 413/2/5
f 415/2/5 412/2/5 411/2/5
f 416/2/5 412/2/5 415/2/5
f 421/2/5 418/2/5 417/2/5
f 422/2/5 418/2/5 421/2/5
f 423/2/5 420/2/5 419/2/5
f 424/2/5 420/2/5 423/2/5
f 425/6/6 426/6/6 429/6/6
f 429/6/6 426/6/6 430/6/6
f 427/6/6 428/6/6 431/6/6
f 431/6/6 428/6/6 432/6/6
f 433/5/6 434/5/6 436/5/6
f 434/6/6 435/6/6 437/6/6
f 436/5/6 434/5/6 437/5/6
f 437/6/6 435/6/6 438/6/6
f 438/6/6 435/6/6 439/6/6
f 440/3/6 441/3/6 445/3/6
f 445/3/6 441/3/6 446/3/6
f 442/3/6 443/3/6 447/3/6
f 447/3/6 443/3/6 448/3/6
f 444/3/6 445/3/6 450/3/6
f 450/3/6 445/3/6 451/3/6
f 448/3/6 449/3/6 452/3/6
f 452/3/6 449/3/6 453/3/6
f 454/3/6 455/3/6 458/3/6
f 458/3/6 455/3/6 459/3/6
f 456/3/6 457/3/6 462/3/6
f 462/3/6 457/3/6 463/3/6
f 459/3/6 460/3/6 464/3/6
f 464/3/6 460/3/6 465/3/6
f 461/3/6 462/3/6 466/3/6
f 466/3/6 462/3/6 467/3/6
f 468/1/6 469/1/6 471/1/6
f 471/1/6 469/1/6 472/1/6
f 470/1/6 471/1/6 475/1/6
f 475/1/6 471/1/6 476/1/6
f 472/1/6 473/1/6 477/1/6
f 477/1/6 473/1/6 478/1/6
f 474/1/6 475/1/6 480/1/6
f 480/1/6 475/1/6 481/1/6
f 478/1/6 479/1/6 482/1/6
f 482/1/6 479/1/6 483/1/6
f 484/1/6 485/1/6 488/1/6
f 488/1/6 485/1/6 489/1/6
f 486/1/6 487/1/6 492/1/6
f 492/1/6 487/1/6 493/1/6
f 489/1/6 490/1/6 494/1/6
f 494/1/6 490/1/6 495/1/6
f 491/1/6 492/1/6 496/1/6
f 496/1/6 492/1/6 497/1/6
f 495/1/6 496/1/6 498/1/6
f 498/1/6 496/1/6 499/1/6
f 500/1/6 501/1/6 503/1/6
f 503/1/6 501/1/6 504/1/6
f 502/1/6 503/1/6 506/1/6
f 504/1/6 505/1/6 507/1/6
f 506/1/6 503/1/6 508/1/6
f 504/1/6 507/1/6 509/1/6
f 508/1/6 503/1/6 510/1/6
f 510/1/6 503/1/6 511/1/6
f 504/1/6 509/1/6 512/1/6
f 512/1/6 509/1/6 513/1/6
f 511/1/6 512/1/6 514/1/6
f 514/1/6 512/1/6 515/1/6
f 518/2/6 519/2/6 522/2/6
f 522/2/6 519/2/6 523/2/6
f 520/2/6 521/2/6 524/2/6
f 524/2/6 521/2/6 525/2/6
f 516/1/6 517/1/6 526/1/6
f 526/1/6 517/1/6 527/1/6
f 528/2/6 529/2/6 532/2/6
f 532/2/6 529/2/6 533/2/6
f 530/2/6 531/2/6 534/2/6
f 534/2/6 531/2/6 535/2/6
f 536/2/6 537/2/6 540/2/6
f 540/2/6 537/2/6 541/2/6
f 538/2/6 539/2/6 542/2/6
f 542/2/6 539/2/6 543/2/6
