# MagicaVoxel @ Ephtracy

# group
g DwarfBody

# material
mtllib DwarfBody.mtl
usemtl palette

# normals
vn -1 0 0
vn 1 0 0
vn 0 0 1
vn 0 0 -1
vn 0 -1 0
vn 0 1 0

# texcoords
vt 0.0253906 0.5
vt 0.0722656 0.5
vt 0.0761719 0.5

# verts
v -3 0 1
v -3 0 -0
v -3 1 2
v -3 1 1
v -3 1 -0
v -3 1 -1
v -3 2 3
v -3 2 2
v -3 2 -1
v -3 2 -2
v -3 6 3
v -3 6 2
v -3 6 -1
v -3 6 -2
v -3 7 2
v -3 7 -1
v -2 0 2
v -2 0 1
v -2 0 -0
v -2 0 -1
v -2 1 3
v -2 1 2
v -2 1 1
v -2 1 -0
v -2 1 -1
v -2 1 -2
v -2 2 3
v -2 2 2
v -2 2 -1
v -2 2 -2
v -2 6 3
v -2 6 2
v -2 6 -1
v -2 6 -2
v -2 7 3
v -2 7 2
v -2 7 -1
v -2 7 -2
v -1 0 3
v -1 0 2
v -1 0 -1
v -1 0 -2
v -1 1 3
v -1 1 2
v -1 1 -1
v -1 1 -2
v 2 0 3
v 2 0 2
v 2 0 -1
v 2 0 -2
v 2 1 3
v 2 1 2
v 2 1 -1
v 2 1 -2
v 3 0 2
v 3 0 1
v 3 0 -0
v 3 0 -1
v 3 1 3
v 3 1 2
v 3 1 1
v 3 1 -0
v 3 1 -1
v 3 1 -2
v 3 2 3
v 3 2 2
v 3 2 -1
v 3 2 -2
v 3 6 3
v 3 6 2
v 3 6 -1
v 3 6 -2
v 3 7 3
v 3 7 2
v 3 7 -1
v 3 7 -2
v 4 0 1
v 4 0 -0
v 4 1 2
v 4 1 1
v 4 1 -0
v 4 1 -1
v 4 2 3
v 4 2 2
v 4 2 -1
v 4 2 -2
v 4 5 3
v 4 5 2
v 4 5 -1
v 4 5 -2
v 4 6 3
v 4 6 2
v 4 6 -1
v 4 6 -2
v 4 7 2
v 4 7 -1
v -3 2 3
v -3 6 3
v -2 1 3
v -2 2 3
v -2 4 3
v -2 6 3
v -2 7 3
v -1 0 3
v -1 1 3
v -1 2 3
v -1 3 3
v -1 4 3
v -1 5 3
v -1 7 3
v 0 1 3
v 0 2 3
v 0 4 3
v 0 5 3
v 1 2 3
v 1 3 3
v 1 4 3
v 1 5 3
v 2 0 3
v 2 1 3
v 2 3 3
v 2 4 3
v 2 5 3
v 2 7 3
v 3 1 3
v 3 2 3
v 3 4 3
v 3 5 3
v 3 6 3
v 3 7 3
v 4 2 3
v 4 5 3
v 4 6 3
v -3 1 2
v -3 2 2
v -3 6 2
v -3 7 2
v -2 0 2
v -2 1 2
v -2 2 2
v -2 6 2
v -2 7 2
v -1 0 2
v -1 1 2
v 2 0 2
v 2 1 2
v 3 0 2
v 3 1 2
v 3 2 2
v 3 6 2
v 3 7 2
v 4 1 2
v 4 2 2
v 4 6 2
v 4 7 2
v -3 0 1
v -3 1 1
v -2 0 1
v -2 1 1
v 3 0 1
v 3 1 1
v 4 0 1
v 4 1 1
v -3 0 -0
v -3 1 -0
v -2 0 -0
v -2 1 -0
v 3 0 -0
v 3 1 -0
v 4 0 -0
v 4 1 -0
v -3 1 -1
v -3 2 -1
v -3 6 -1
v -3 7 -1
v -2 0 -1
v -2 1 -1
v -2 2 -1
v -2 6 -1
v -2 7 -1
v -1 0 -1
v -1 1 -1
v 2 0 -1
v 2 1 -1
v 3 0 -1
v 3 1 -1
v 3 2 -1
v 3 6 -1
v 3 7 -1
v 4 1 -1
v 4 2 -1
v 4 6 -1
v 4 7 -1
v -3 2 -2
v -3 6 -2
v -2 1 -2
v -2 2 -2
v -2 6 -2
v -2 7 -2
v -1 0 -2
v -1 1 -2
v -1 2 -2
v -1 3 -2
v 0 2 -2
v 0 3 -2
v 0 4 -2
v 2 0 -2
v 2 1 -2
v 2 3 -2
v 2 4 -2
v 2 5 -2
v 3 1 -2
v 3 2 -2
v 3 4 -2
v 3 5 -2
v 3 6 -2
v 3 7 -2
v 4 2 -2
v 4 5 -2
v 4 6 -2
v -1 0 3
v 2 0 3
v -2 0 2
v -1 0 2
v 2 0 2
v 3 0 2
v -3 0 1
v -2 0 1
v -1 0 1
v 3 0 1
v 4 0 1
v -3 0 -0
v -2 0 -0
v 3 0 -0
v 4 0 -0
v -2 0 -1
v -1 0 -1
v 2 0 -1
v 3 0 -1
v -1 0 -2
v 2 0 -2
v -2 1 3
v -1 1 3
v 2 1 3
v 3 1 3
v -3 1 2
v -2 1 2
v -1 1 2
v 2 1 2
v 3 1 2
v 4 1 2
v -3 1 1
v -2 1 1
v 3 1 1
v 4 1 1
v -3 1 -0
v -2 1 -0
v 3 1 -0
v 4 1 -0
v -3 1 -1
v -2 1 -1
v -1 1 -1
v 2 1 -1
v 3 1 -1
v 4 1 -1
v -2 1 -2
v -1 1 -2
v 2 1 -2
v 3 1 -2
v -3 2 3
v -2 2 3
v 3 2 3
v 4 2 3
v -3 2 2
v -2 2 2
v 3 2 2
v 4 2 2
v -3 2 -1
v -2 2 -1
v 3 2 -1
v 4 2 -1
v -3 2 -2
v -2 2 -2
v 3 2 -2
v 4 2 -2
v -3 6 3
v -2 6 3
v 3 6 3
v 4 6 3
v -3 6 2
v -2 6 2
v 3 6 2
v 4 6 2
v -3 6 -1
v -2 6 -1
v 3 6 -1
v 4 6 -1
v -3 6 -2
v -2 6 -2
v 3 6 -2
v 4 6 -2
v -2 7 3
v -1 7 3
v 2 7 3
v 3 7 3
v -3 7 2
v -2 7 2
v -1 7 2
v 2 7 2
v 3 7 2
v 4 7 2
v -3 7 -1
v -2 7 -1
v 3 7 -1
v 4 7 -1
v -2 7 -2
v 3 7 -2

# faces
f 4/2/1 2/2/1 1/2/1
f 5/2/1 2/2/1 4/2/1
f 8/1/1 4/1/1 3/1/1
f 8/1/1 6/1/1 5/1/1
f 8/1/1 5/1/1 4/1/1
f 9/1/1 6/1/1 8/1/1
f 11/2/1 8/2/1 7/2/1
f 11/2/1 10/2/1 9/2/1
f 11/2/1 9/2/1 8/2/1
f 12/2/1 10/2/1 11/2/1
f 13/2/1 10/2/1 12/2/1
f 14/2/1 10/2/1 13/2/1
f 15/2/1 13/2/1 12/2/1
f 16/2/1 13/2/1 15/2/1
f 22/3/1 18/3/1 17/3/1
f 23/3/1 18/3/1 22/3/1
f 24/2/1 20/2/1 19/2/1
f 25/2/1 20/2/1 24/2/1
f 27/1/1 22/1/1 21/1/1
f 28/1/1 22/1/1 27/1/1
f 29/1/1 26/1/1 25/1/1
f 30/1/1 26/1/1 29/1/1
f 35/2/1 32/2/1 31/2/1
f 36/2/1 32/2/1 35/2/1
f 37/2/1 34/2/1 33/2/1
f 38/2/1 34/2/1 37/2/1
f 43/3/1 40/3/1 39/3/1
f 44/3/1 40/3/1 43/3/1
f 45/2/1 42/2/1 41/2/1
f 46/2/1 42/2/1 45/2/1
f 47/3/2 48/3/2 51/3/2
f 51/3/2 48/3/2 52/3/2
f 49/2/2 50/2/2 53/2/2
f 53/2/2 50/2/2 54/2/2
f 55/2/2 56/2/2 60/2/2
f 60/2/2 56/2/2 61/2/2
f 57/2/2 58/2/2 62/2/2
f 62/2/2 58/2/2 63/2/2
f 59/2/2 60/2/2 65/2/2
f 65/2/2 60/2/2 66/2/2
f 63/2/2 64/2/2 67/2/2
f 67/2/2 64/2/2 68/2/2
f 69/2/2 70/2/2 73/2/2
f 73/2/2 70/2/2 74/2/2
f 71/2/2 72/2/2 75/2/2
f 75/2/2 72/2/2 76/2/2
f 77/2/2 78/2/2 80/2/2
f 80/2/2 78/2/2 81/2/2
f 79/2/2 80/2/2 84/2/2
f 81/2/2 82/2/2 84/2/2
f 80/2/2 81/2/2 84/2/2
f 84/2/2 82/2/2 85/2/2
f 83/2/2 84/2/2 87/2/2
f 85/2/2 86/2/2 87/2/2
f 84/2/2 85/2/2 87/2/2
f 87/2/2 86/2/2 88/2/2
f 88/2/2 86/2/2 89/2/2
f 89/2/2 86/2/2 90/2/2
f 87/1/2 88/1/2 91/1/2
f 88/2/2 89/2/2 92/2/2
f 91/1/2 88/1/2 92/1/2
f 89/1/2 90/1/2 93/1/2
f 92/2/2 89/2/2 93/2/2
f 93/1/2 90/1/2 94/1/2
f 92/1/2 93/1/2 95/1/2
f 95/1/2 93/1/2 96/1/2
f 100/2/3 98/2/3 97/2/3
f 101/2/3 98/2/3 100/2/3
f 102/2/3 98/2/3 101/2/3
f 105/1/3 100/1/3 99/1/3
f 106/3/3 101/3/3 100/3/3
f 106/1/3 100/1/3 105/1/3
f 107/3/3 101/3/3 106/3/3
f 108/2/3 103/2/3 102/2/3
f 108/3/3 101/3/3 107/3/3
f 108/2/3 102/2/3 101/2/3
f 109/2/3 103/2/3 108/2/3
f 110/2/3 103/2/3 109/2/3
f 111/3/3 105/3/3 104/3/3
f 111/3/3 106/3/3 105/3/3
f 112/1/3 107/1/3 106/1/3
f 112/3/3 106/3/3 111/3/3
f 113/2/3 108/2/3 107/2/3
f 113/2/3 109/2/3 108/2/3
f 114/3/3 110/3/3 109/3/3
f 114/2/3 109/2/3 113/2/3
f 115/1/3 107/1/3 112/1/3
f 115/2/3 112/2/3 111/2/3
f 116/2/3 113/2/3 107/2/3
f 116/1/3 107/1/3 115/1/3
f 117/3/3 114/3/3 113/3/3
f 117/2/3 113/2/3 116/2/3
f 118/3/3 110/3/3 114/3/3
f 118/3/3 114/3/3 117/3/3
f 119/3/3 111/3/3 104/3/3
f 120/2/3 115/2/3 111/2/3
f 120/3/3 111/3/3 119/3/3
f 120/2/3 116/2/3 115/2/3
f 121/1/3 117/1/3 116/1/3
f 121/2/3 116/2/3 120/2/3
f 122/2/3 118/2/3 117/2/3
f 122/1/3 117/1/3 121/1/3
f 123/3/3 110/3/3 118/3/3
f 123/2/3 118/2/3 122/2/3
f 124/3/3 110/3/3 123/3/3
f 125/2/3 122/2/3 121/2/3
f 125/2/3 121/2/3 120/2/3
f 126/2/3 122/2/3 125/2/3
f 127/1/3 123/1/3 122/1/3
f 127/2/3 122/2/3 126/2/3
f 128/2/3 124/2/3 123/2/3
f 128/1/3 123/1/3 127/1/3
f 129/2/3 124/2/3 128/2/3
f 130/2/3 124/2/3 129/2/3
f 131/2/3 127/2/3 126/2/3
f 131/2/3 128/2/3 127/2/3
f 132/1/3 129/1/3 128/1/3
f 132/2/3 128/2/3 131/2/3
f 133/1/3 129/1/3 132/1/3
f 139/1/3 135/1/3 134/1/3
f 140/1/3 135/1/3 139/1/3
f 141/2/3 137/2/3 136/2/3
f 142/2/3 137/2/3 141/2/3
f 143/3/3 139/3/3 138/3/3
f 144/3/3 139/3/3 143/3/3
f 147/2/3 146/2/3 145/2/3
f 148/2/3 146/2/3 147/2/3
f 152/2/3 149/2/3 148/2/3
f 153/2/3 149/2/3 152/2/3
f 154/1/3 151/1/3 150/1/3
f 155/1/3 151/1/3 154/1/3
f 158/2/3 157/2/3 156/2/3
f 159/2/3 157/2/3 158/2/3
f 162/2/3 161/2/3 160/2/3
f 163/2/3 161/2/3 162/2/3
f 164/2/4 165/2/4 166/2/4
f 166/2/4 165/2/4 167/2/4
f 168/2/4 169/2/4 170/2/4
f 170/2/4 169/2/4 171/2/4
f 172/1/4 173/1/4 177/1/4
f 177/1/4 173/1/4 178/1/4
f 174/2/4 175/2/4 179/2/4
f 179/2/4 175/2/4 180/2/4
f 176/2/4 177/2/4 181/2/4
f 181/2/4 177/2/4 182/2/4
f 183/2/4 184/2/4 185/2/4
f 185/2/4 184/2/4 186/2/4
f 186/2/4 187/2/4 190/2/4
f 190/2/4 187/2/4 191/2/4
f 188/1/4 189/1/4 192/1/4
f 192/1/4 189/1/4 193/1/4
f 194/2/4 195/2/4 197/2/4
f 197/2/4 195/2/4 198/2/4
f 196/1/4 197/1/4 201/1/4
f 198/2/4 199/2/4 202/2/4
f 197/2/4 198/2/4 202/2/4
f 201/1/4 197/1/4 202/1/4
f 202/2/4 199/2/4 203/2/4
f 200/2/4 201/2/4 204/2/4
f 201/2/4 202/2/4 204/2/4
f 202/1/4 203/1/4 204/1/4
f 203/2/4 199/2/4 205/2/4
f 204/1/4 203/1/4 205/1/4
f 205/2/4 199/2/4 206/2/4
f 200/2/4 204/2/4 207/2/4
f 204/2/4 205/2/4 207/2/4
f 207/2/4 205/2/4 208/2/4
f 205/1/4 206/1/4 209/1/4
f 208/2/4 205/2/4 209/2/4
f 206/2/4 199/2/4 210/2/4
f 209/1/4 206/1/4 210/1/4
f 210/2/4 199/2/4 211/2/4
f 208/2/4 209/2/4 212/2/4
f 209/2/4 210/2/4 212/2/4
f 212/2/4 210/2/4 213/2/4
f 210/1/4 211/1/4 214/1/4
f 213/2/4 210/2/4 214/2/4
f 211/2/4 199/2/4 215/2/4
f 214/1/4 211/1/4 215/1/4
f 215/2/4 199/2/4 216/2/4
f 216/2/4 199/2/4 217/2/4
f 213/2/4 214/2/4 218/2/4
f 214/2/4 215/2/4 218/2/4
f 215/1/4 216/1/4 219/1/4
f 218/2/4 215/2/4 219/2/4
f 219/1/4 216/1/4 220/1/4
f 224/3/5 222/3/5 221/3/5
f 225/3/5 222/3/5 224/3/5
f 228/3/5 224/3/5 223/3/5
f 229/2/5 226/2/5 225/2/5
f 229/2/5 225/2/5 224/2/5
f 229/3/5 224/3/5 228/3/5
f 230/2/5 226/2/5 229/2/5
f 232/2/5 228/2/5 227/2/5
f 232/2/5 231/2/5 230/2/5
f 232/2/5 230/2/5 229/2/5
f 232/2/5 229/2/5 228/2/5
f 233/2/5 231/2/5 232/2/5
f 234/2/5 231/2/5 233/2/5
f 235/2/5 231/2/5 234/2/5
f 236/2/5 234/2/5 233/2/5
f 237/2/5 234/2/5 236/2/5
f 238/2/5 234/2/5 237/2/5
f 239/2/5 234/2/5 238/2/5
f 240/2/5 238/2/5 237/2/5
f 241/2/5 238/2/5 240/2/5
f 247/1/5 243/1/5 242/1/5
f 248/1/5 243/1/5 247/1/5
f 249/2/5 245/2/5 244/2/5
f 250/2/5 245/2/5 249/2/5
f 252/1/5 247/1/5 246/1/5
f 253/1/5 247/1/5 252/1/5
f 254/2/5 251/2/5 250/2/5
f 255/2/5 251/2/5 254/2/5
f 260/1/5 257/1/5 256/1/5
f 261/1/5 257/1/5 260/1/5
f 264/2/5 259/2/5 258/2/5
f 265/2/5 259/2/5 264/2/5
f 266/1/5 262/1/5 261/1/5
f 267/1/5 262/1/5 266/1/5
f 268/2/5 264/2/5 263/2/5
f 269/2/5 264/2/5 268/2/5
f 274/2/5 271/2/5 270/2/5
f 275/2/5 271/2/5 274/2/5
f 276/2/5 273/2/5 272/2/5
f 277/2/5 273/2/5 276/2/5
f 282/2/5 279/2/5 278/2/5
f 283/2/5 279/2/5 282/2/5
f 284/2/5 281/2/5 280/2/5
f 285/2/5 281/2/5 284/2/5
f 286/2/6 287/2/6 290/2/6
f 290/2/6 287/2/6 291/2/6
f 288/1/6 289/1/6 292/1/6
f 292/1/6 289/1/6 293/1/6
f 294/2/6 295/2/6 298/2/6
f 298/2/6 295/2/6 299/2/6
f 296/1/6 297/1/6 300/1/6
f 300/1/6 297/1/6 301/1/6
f 302/2/6 303/2/6 307/2/6
f 303/3/6 304/3/6 308/3/6
f 307/2/6 303/2/6 308/2/6
f 304/2/6 305/2/6 309/2/6
f 308/3/6 304/3/6 309/3/6
f 309/2/6 305/2/6 310/2/6
f 307/2/6 308/2/6 312/2/6
f 306/2/6 307/2/6 312/2/6
f 309/2/6 310/2/6 312/2/6
f 308/2/6 309/2/6 312/2/6
f 312/2/6 310/2/6 313/2/6
f 310/1/6 311/1/6 314/1/6
f 313/2/6 310/2/6 314/2/6
f 314/1/6 311/1/6 315/1/6
f 313/2/6 314/2/6 316/2/6
f 316/2/6 314/2/6 317/2/6
