# MagicaVoxel @ Ephtracy

# group
g KumoHead

# material
mtllib KumoHead.mtl
usemtl palette

# normals
vn -1 0 0
vn 1 0 0
vn 0 0 1
vn 0 0 -1
vn 0 -1 0
vn 0 1 0

# texcoords
vt 0.0253906 0.5
vt 0.0722656 0.5
vt 0.0761719 0.5
vt 0.0878906 0.5

# verts
v -4 2 -1
v -4 2 -3
v -4 3 -0
v -4 3 -1
v -4 4 1
v -4 4 -0
v -4 5 3
v -4 5 1
v -4 6 -2
v -4 6 -3
v -4 7 3
v -4 7 1
v -4 7 -1
v -4 7 -2
v -4 8 -0
v -4 8 -1
v -4 9 1
v -4 9 -0
v -3 1 -3
v -3 1 -4
v -3 2 3
v -3 2 -1
v -3 2 -3
v -3 3 -0
v -3 3 -1
v -3 4 1
v -3 4 -0
v -3 5 3
v -3 5 1
v -3 6 4
v -3 6 3
v -3 6 -2
v -3 6 -3
v -3 6 -4
v -3 7 4
v -3 7 3
v -3 7 1
v -3 7 -1
v -3 7 -2
v -3 7 -3
v -3 8 3
v -3 8 1
v -3 8 -0
v -3 8 -1
v -3 8 -2
v -3 9 1
v -3 9 -0
v -3 9 -1
v -3 10 1
v -3 10 -0
v -2 0 -3
v -2 0 -4
v -2 1 -3
v -2 1 -4
v -2 6 -3
v -2 6 -4
v -2 7 -2
v -2 7 -3
v -2 7 -4
v -2 8 -2
v -2 8 -3
v 1 8 1
v 1 8 -1
v 1 9 -0
v 1 9 -1
v 1 10 1
v 1 10 -0
v -1 8 1
v -1 8 -1
v -1 9 -0
v -1 9 -1
v -1 10 1
v -1 10 -0
v 2 0 -3
v 2 0 -4
v 2 1 -3
v 2 1 -4
v 2 6 -3
v 2 6 -4
v 2 7 -2
v 2 7 -3
v 2 7 -4
v 2 8 -2
v 2 8 -3
v 3 1 -3
v 3 1 -4
v 3 2 3
v 3 2 -1
v 3 2 -3
v 3 3 -0
v 3 3 -1
v 3 4 1
v 3 4 -0
v 3 5 3
v 3 5 1
v 3 6 4
v 3 6 3
v 3 6 -2
v 3 6 -3
v 3 6 -4
v 3 7 4
v 3 7 3
v 3 7 1
v 3 7 -1
v 3 7 -2
v 3 7 -3
v 3 8 3
v 3 8 1
v 3 8 -0
v 3 8 -1
v 3 8 -2
v 3 9 1
v 3 9 -0
v 3 9 -1
v 3 10 1
v 3 10 -0
v 4 2 -1
v 4 2 -3
v 4 3 -0
v 4 3 -1
v 4 4 1
v 4 4 -0
v 4 5 3
v 4 5 1
v 4 6 -2
v 4 6 -3
v 4 7 3
v 4 7 1
v 4 7 -1
v 4 7 -2
v 4 8 -0
v 4 8 -1
v 4 9 1
v 4 9 -0
v -3 6 4
v -3 7 4
v 3 6 4
v 3 7 4
v -4 5 3
v -4 7 3
v -3 2 3
v -3 5 3
v -3 6 3
v -3 7 3
v -3 8 3
v -2 4 3
v -2 6 3
v -1 4 3
v -1 6 3
v 1 4 3
v 1 6 3
v 2 4 3
v 2 6 3
v 3 2 3
v 3 5 3
v 3 6 3
v 3 7 3
v 3 8 3
v 4 5 3
v 4 7 3
v -4 4 1
v -4 5 1
v -4 7 1
v -4 9 1
v -3 4 1
v -3 5 1
v -3 7 1
v -3 8 1
v -3 9 1
v -3 10 1
v -2 8 1
v -2 9 1
v -1 8 1
v -1 10 1
v 1 8 1
v 1 10 1
v 2 8 1
v 2 9 1
v 3 4 1
v 3 5 1
v 3 7 1
v 3 8 1
v 3 9 1
v 3 10 1
v 4 4 1
v 4 5 1
v 4 7 1
v 4 9 1
v -4 3 -0
v -4 4 -0
v -3 3 -0
v -3 4 -0
v 3 3 -0
v 3 4 -0
v 4 3 -0
v 4 4 -0
v -4 2 -1
v -4 3 -1
v -3 2 -1
v -3 3 -1
v 3 2 -1
v 3 3 -1
v 4 2 -1
v 4 3 -1
v -3 1 -3
v -3 2 -3
v -2 0 -3
v -2 1 -3
v 2 0 -3
v 2 1 -3
v 3 1 -3
v 3 2 -3
v -4 8 -0
v -4 9 -0
v -3 8 -0
v -3 9 -0
v -3 10 -0
v -1 9 -0
v -1 10 -0
v 1 9 -0
v 1 10 -0
v 3 8 -0
v 3 9 -0
v 3 10 -0
v 4 8 -0
v 4 9 -0
v -4 7 -1
v -4 8 -1
v -3 7 -1
v -3 8 -1
v -3 9 -1
v -1 8 -1
v -1 9 -1
v 1 8 -1
v 1 9 -1
v 3 7 -1
v 3 8 -1
v 3 9 -1
v 4 7 -1
v 4 8 -1
v -4 6 -2
v -4 7 -2
v -3 6 -2
v -3 7 -2
v -3 8 -2
v -2 7 -2
v -2 8 -2
v 2 7 -2
v 2 8 -2
v 3 6 -2
v 3 7 -2
v 3 8 -2
v 4 6 -2
v 4 7 -2
v -4 2 -3
v -4 6 -3
v -3 2 -3
v -3 6 -3
v -3 7 -3
v -2 6 -3
v -2 7 -3
v -2 8 -3
v 2 6 -3
v 2 7 -3
v 2 8 -3
v 3 2 -3
v 3 6 -3
v 3 7 -3
v 4 2 -3
v 4 6 -3
v -3 1 -4
v -3 6 -4
v -2 0 -4
v -2 1 -4
v -2 6 -4
v -2 7 -4
v 2 0 -4
v 2 1 -4
v 2 6 -4
v 2 7 -4
v 3 1 -4
v 3 6 -4
v -2 0 -3
v 2 0 -3
v -2 0 -4
v 2 0 -4
v -3 1 -3
v -2 1 -3
v 2 1 -3
v 3 1 -3
v -3 1 -4
v -2 1 -4
v 2 1 -4
v 3 1 -4
v -3 2 3
v 3 2 3
v -4 2 -1
v -3 2 -1
v 3 2 -1
v 4 2 -1
v -4 2 -3
v -3 2 -3
v 3 2 -3
v 4 2 -3
v -4 3 -0
v -3 3 -0
v 3 3 -0
v 4 3 -0
v -4 3 -1
v -3 3 -1
v 3 3 -1
v 4 3 -1
v -4 4 1
v -3 4 1
v 3 4 1
v 4 4 1
v -4 4 -0
v -3 4 -0
v 3 4 -0
v 4 4 -0
v -4 5 3
v -3 5 3
v 3 5 3
v 4 5 3
v -4 5 1
v -3 5 1
v 3 5 1
v 4 5 1
v -3 6 4
v 3 6 4
v -3 6 3
v -2 6 3
v -1 6 3
v 1 6 3
v 2 6 3
v 3 6 3
v -4 6 -2
v -3 6 -2
v 3 6 -2
v 4 6 -2
v -4 6 -3
v -3 6 -3
v -2 6 -3
v 2 6 -3
v 3 6 -3
v 4 6 -3
v -3 6 -4
v -2 6 -4
v 2 6 -4
v 3 6 -4
v -3 7 4
v 3 7 4
v -4 7 3
v -3 7 3
v 3 7 3
v 4 7 3
v -4 7 1
v -3 7 1
v 3 7 1
v 4 7 1
v -4 7 -1
v -3 7 -1
v 3 7 -1
v 4 7 -1
v -4 7 -2
v -3 7 -2
v -2 7 -2
v 2 7 -2
v 3 7 -2
v 4 7 -2
v -3 7 -3
v -2 7 -3
v 2 7 -3
v 3 7 -3
v -2 7 -4
v 2 7 -4
v -3 8 3
v 3 8 3
v -3 8 1
v -2 8 1
v -1 8 1
v 1 8 1
v 2 8 1
v 3 8 1
v -4 8 -0
v -3 8 -0
v 3 8 -0
v 4 8 -0
v -4 8 -1
v -3 8 -1
v -1 8 -1
v 1 8 -1
v 3 8 -1
v 4 8 -1
v -3 8 -2
v -2 8 -2
v 2 8 -2
v 3 8 -2
v -2 8 -3
v 2 8 -3
v -4 9 1
v -3 9 1
v 3 9 1
v 4 9 1
v -4 9 -0
v -3 9 -0
v -1 9 -0
v 1 9 -0
v 3 9 -0
v 4 9 -0
v -3 9 -1
v -1 9 -1
v 1 9 -1
v 3 9 -1
v -3 10 1
v -1 10 1
v 1 10 1
v 3 10 1
v -3 10 -0
v -1 10 -0
v 1 10 -0
v 3 10 -0

# faces
f 4/3/1 2/3/1 1/3/1
f 6/3/1 4/3/1 3/3/1
f 8/3/1 6/3/1 5/3/1
f 9/3/1 2/3/1 4/3/1
f 9/3/1 8/3/1 7/3/1
f 9/3/1 6/3/1 8/3/1
f 9/3/1 4/3/1 6/3/1
f 10/3/1 2/3/1 9/3/1
f 11/3/1 9/3/1 7/3/1
f 12/3/1 9/3/1 11/3/1
f 13/3/1 9/3/1 12/3/1
f 14/3/1 9/3/1 13/3/1
f 15/3/1 13/3/1 12/3/1
f 16/3/1 13/3/1 15/3/1
f 17/3/1 15/3/1 12/3/1
f 18/3/1 15/3/1 17/3/1
f 23/3/1 20/3/1 19/3/1
f 24/4/1 22/4/1 21/4/1
f 25/4/1 22/4/1 24/4/1
f 26/4/1 24/4/1 21/4/1
f 27/4/1 24/4/1 26/4/1
f 28/4/1 26/4/1 21/4/1
f 29/4/1 26/4/1 28/4/1
f 33/3/1 20/3/1 23/3/1
f 34/3/1 20/3/1 33/3/1
f 35/3/1 31/3/1 30/3/1
f 36/3/1 31/3/1 35/3/1
f 39/3/1 33/3/1 32/3/1
f 40/3/1 33/3/1 39/3/1
f 41/3/1 37/3/1 36/3/1
f 42/3/1 37/3/1 41/3/1
f 44/3/1 39/3/1 38/3/1
f 45/3/1 39/3/1 44/3/1
f 47/3/1 44/3/1 43/3/1
f 48/3/1 44/3/1 47/3/1
f 49/3/1 47/3/1 46/3/1
f 50/3/1 47/3/1 49/3/1
f 53/3/1 52/3/1 51/3/1
f 54/3/1 52/3/1 53/3/1
f 58/3/1 56/3/1 55/3/1
f 59/3/1 56/3/1 58/3/1
f 60/3/1 58/3/1 57/3/1
f 61/3/1 58/3/1 60/3/1
f 64/3/1 63/3/1 62/3/1
f 65/3/1 63/3/1 64/3/1
f 66/3/1 64/3/1 62/3/1
f 67/3/1 64/3/1 66/3/1
f 68/3/2 69/3/2 70/3/2
f 70/3/2 69/3/2 71/3/2
f 68/3/2 70/3/2 72/3/2
f 72/3/2 70/3/2 73/3/2
f 74/3/2 75/3/2 76/3/2
f 76/3/2 75/3/2 77/3/2
f 78/3/2 79/3/2 81/3/2
f 81/3/2 79/3/2 82/3/2
f 80/3/2 81/3/2 83/3/2
f 83/3/2 81/3/2 84/3/2
f 85/3/2 86/3/2 89/3/2
f 87/4/2 88/4/2 90/4/2
f 90/4/2 88/4/2 91/4/2
f 87/4/2 90/4/2 92/4/2
f 92/4/2 90/4/2 93/4/2
f 87/4/2 92/4/2 94/4/2
f 94/4/2 92/4/2 95/4/2
f 89/3/2 86/3/2 99/3/2
f 99/3/2 86/3/2 100/3/2
f 96/3/2 97/3/2 101/3/2
f 101/3/2 97/3/2 102/3/2
f 98/3/2 99/3/2 105/3/2
f 105/3/2 99/3/2 106/3/2
f 102/3/2 103/3/2 107/3/2
f 107/3/2 103/3/2 108/3/2
f 104/3/2 105/3/2 110/3/2
f 110/3/2 105/3/2 111/3/2
f 109/3/2 110/3/2 113/3/2
f 113/3/2 110/3/2 114/3/2
f 112/3/2 113/3/2 115/3/2
f 115/3/2 113/3/2 116/3/2
f 117/3/2 118/3/2 120/3/2
f 119/3/2 120/3/2 122/3/2
f 121/3/2 122/3/2 124/3/2
f 120/3/2 118/3/2 125/3/2
f 123/3/2 124/3/2 125/3/2
f 124/3/2 122/3/2 125/3/2
f 122/3/2 120/3/2 125/3/2
f 125/3/2 118/3/2 126/3/2
f 123/3/2 125/3/2 127/3/2
f 127/3/2 125/3/2 128/3/2
f 128/3/2 125/3/2 129/3/2
f 129/3/2 125/3/2 130/3/2
f 128/3/2 129/3/2 131/3/2
f 131/3/2 129/3/2 132/3/2
f 128/3/2 131/3/2 133/3/2
f 133/3/2 131/3/2 134/3/2
f 137/3/3 136/3/3 135/3/3
f 138/3/3 136/3/3 137/3/3
f 142/3/3 140/3/3 139/3/3
f 143/3/3 140/3/3 142/3/3
f 144/3/3 140/3/3 143/3/3
f 146/4/3 142/4/3 141/4/3
f 146/4/3 143/4/3 142/4/3
f 147/4/3 143/4/3 146/4/3
f 148/4/3 146/4/3 141/4/3
f 148/1/3 147/1/3 146/1/3
f 149/1/3 147/1/3 148/1/3
f 150/4/3 148/4/3 141/4/3
f 150/4/3 149/4/3 148/4/3
f 151/4/3 149/4/3 150/4/3
f 152/4/3 150/4/3 141/4/3
f 152/1/3 151/1/3 150/1/3
f 153/1/3 151/1/3 152/1/3
f 154/4/3 152/4/3 141/4/3
f 154/4/3 153/4/3 152/4/3
f 155/4/3 153/4/3 154/4/3
f 156/4/3 153/4/3 155/4/3
f 157/3/3 145/3/3 144/3/3
f 158/3/3 145/3/3 157/3/3
f 159/3/3 156/3/3 155/3/3
f 159/3/3 157/3/3 156/3/3
f 160/3/3 157/3/3 159/3/3
f 165/3/3 162/3/3 161/3/3
f 166/3/3 162/3/3 165/3/3
f 167/3/3 164/3/3 163/3/3
f 168/3/3 164/3/3 167/3/3
f 169/3/3 164/3/3 168/3/3
f 171/2/3 169/2/3 168/2/3
f 172/3/3 170/3/3 169/3/3
f 172/2/3 169/2/3 171/2/3
f 173/3/3 172/3/3 171/3/3
f 174/3/3 170/3/3 172/3/3
f 174/3/3 172/3/3 173/3/3
f 177/3/3 176/3/3 175/3/3
f 178/3/3 176/3/3 177/3/3
f 182/2/3 178/2/3 177/2/3
f 183/3/3 176/3/3 178/3/3
f 183/2/3 178/2/3 182/2/3
f 184/3/3 176/3/3 183/3/3
f 185/3/3 180/3/3 179/3/3
f 186/3/3 180/3/3 185/3/3
f 187/3/3 182/3/3 181/3/3
f 187/3/3 183/3/3 182/3/3
f 188/3/3 183/3/3 187/3/3
f 191/3/3 190/3/3 189/3/3
f 192/3/3 190/3/3 191/3/3
f 195/3/3 194/3/3 193/3/3
f 196/3/3 194/3/3 195/3/3
f 199/3/3 198/3/3 197/3/3
f 200/3/3 198/3/3 199/3/3
f 203/3/3 202/3/3 201/3/3
f 204/3/3 202/3/3 203/3/3
f 208/3/3 206/3/3 205/3/3
f 209/3/3 208/3/3 207/3/3
f 210/3/3 206/3/3 208/3/3
f 210/3/3 208/3/3 209/3/3
f 211/3/3 206/3/3 210/3/3
f 212/3/3 206/3/3 211/3/3
f 213/3/4 214/3/4 215/3/4
f 215/3/4 214/3/4 216/3/4
f 216/3/4 217/3/4 218/3/4
f 218/3/4 217/3/4 219/3/4
f 220/3/4 221/3/4 223/3/4
f 223/3/4 221/3/4 224/3/4
f 222/3/4 223/3/4 225/3/4
f 225/3/4 223/3/4 226/3/4
f 227/3/4 228/3/4 229/3/4
f 229/3/4 228/3/4 230/3/4
f 230/3/4 231/3/4 232/3/4
f 232/3/4 231/3/4 233/3/4
f 234/3/4 235/3/4 237/3/4
f 237/3/4 235/3/4 238/3/4
f 236/3/4 237/3/4 239/3/4
f 239/3/4 237/3/4 240/3/4
f 241/3/4 242/3/4 243/3/4
f 243/3/4 242/3/4 244/3/4
f 244/3/4 245/3/4 246/3/4
f 246/3/4 245/3/4 247/3/4
f 248/3/4 249/3/4 251/3/4
f 251/3/4 249/3/4 252/3/4
f 250/3/4 251/3/4 253/3/4
f 253/3/4 251/3/4 254/3/4
f 255/3/4 256/3/4 257/3/4
f 257/3/4 256/3/4 258/3/4
f 258/3/4 259/3/4 260/3/4
f 260/3/4 259/3/4 261/3/4
f 261/3/4 262/3/4 264/3/4
f 264/3/4 262/3/4 265/3/4
f 263/3/4 264/3/4 267/3/4
f 267/3/4 264/3/4 268/3/4
f 266/3/4 267/3/4 269/3/4
f 269/3/4 267/3/4 270/3/4
f 271/3/4 272/3/4 274/3/4
f 274/3/4 272/3/4 275/3/4
f 273/3/4 274/3/4 277/3/4
f 275/3/4 276/3/4 277/3/4
f 274/3/4 275/3/4 277/3/4
f 277/3/4 276/3/4 278/3/4
f 278/3/4 276/3/4 279/3/4
f 279/3/4 276/3/4 280/3/4
f 278/3/4 279/3/4 281/3/4
f 281/3/4 279/3/4 282/3/4
f 285/3/5 284/3/5 283/3/5
f 286/3/5 284/3/5 285/3/5
f 291/3/5 288/3/5 287/3/5
f 292/3/5 288/3/5 291/3/5
f 293/3/5 290/3/5 289/3/5
f 294/3/5 290/3/5 293/3/5
f 298/4/5 296/4/5 295/4/5
f 299/4/5 296/4/5 298/4/5
f 301/3/5 298/3/5 297/3/5
f 302/4/5 299/4/5 298/4/5
f 302/3/5 298/3/5 301/3/5
f 303/3/5 300/3/5 299/3/5
f 303/4/5 299/4/5 302/4/5
f 304/3/5 300/3/5 303/3/5
f 309/3/5 306/3/5 305/3/5
f 310/3/5 306/3/5 309/3/5
f 311/3/5 308/3/5 307/3/5
f 312/3/5 308/3/5 311/3/5
f 317/3/5 314/3/5 313/3/5
f 318/3/5 314/3/5 317/3/5
f 319/3/5 316/3/5 315/3/5
f 320/3/5 316/3/5 319/3/5
f 325/3/5 322/3/5 321/3/5
f 326/3/5 322/3/5 325/3/5
f 327/3/5 324/3/5 323/3/5
f 328/3/5 324/3/5 327/3/5
f 331/3/5 330/3/5 329/3/5
f 332/3/5 330/3/5 331/3/5
f 333/3/5 330/3/5 332/3/5
f 334/3/5 330/3/5 333/3/5
f 335/3/5 330/3/5 334/3/5
f 336/3/5 330/3/5 335/3/5
f 337/3/6 338/3/6 341/3/6
f 341/3/6 338/3/6 342/3/6
f 339/3/6 340/3/6 345/3/6
f 345/3/6 340/3/6 346/3/6
f 342/3/6 343/3/6 347/3/6
f 347/3/6 343/3/6 348/3/6
f 344/3/6 345/3/6 349/3/6
f 349/3/6 345/3/6 350/3/6
f 351/3/6 352/3/6 354/3/6
f 354/3/6 352/3/6 355/3/6
f 353/3/6 354/3/6 357/3/6
f 357/3/6 354/3/6 358/3/6
f 355/3/6 356/3/6 359/3/6
f 359/3/6 356/3/6 360/3/6
f 361/3/6 362/3/6 365/3/6
f 365/3/6 362/3/6 366/3/6
f 363/3/6 364/3/6 369/3/6
f 369/3/6 364/3/6 370/3/6
f 366/3/6 367/3/6 371/3/6
f 371/3/6 367/3/6 372/3/6
f 368/3/6 369/3/6 373/3/6
f 373/3/6 369/3/6 374/3/6
f 372/3/6 373/3/6 375/3/6
f 375/3/6 373/3/6 376/3/6
f 377/3/6 378/3/6 379/3/6
f 379/3/6 378/3/6 380/3/6
f 380/3/6 378/3/6 381/3/6
f 381/3/6 378/3/6 382/3/6
f 382/3/6 378/3/6 383/3/6
f 383/3/6 378/3/6 384/3/6
f 385/3/6 386/3/6 389/3/6
f 389/3/6 386/3/6 390/3/6
f 381/3/6 382/3/6 391/3/6
f 391/3/6 382/3/6 392/3/6
f 387/3/6 388/3/6 393/3/6
f 393/3/6 388/3/6 394/3/6
f 391/3/6 392/3/6 395/3/6
f 392/3/6 393/3/6 395/3/6
f 390/3/6 391/3/6 395/3/6
f 395/3/6 393/3/6 396/3/6
f 396/3/6 393/3/6 397/3/6
f 397/3/6 393/3/6 398/3/6
f 396/3/6 397/3/6 399/3/6
f 399/3/6 397/3/6 400/3/6
f 401/3/6 402/3/6 405/3/6
f 405/3/6 402/3/6 406/3/6
f 403/3/6 404/3/6 409/3/6
f 409/3/6 404/3/6 410/3/6
f 406/3/6 407/3/6 411/3/6
f 411/3/6 407/3/6 412/3/6
f 408/3/6 409/3/6 413/3/6
f 413/3/6 409/3/6 414/3/6
f 415/3/6 416/3/6 419/3/6
f 419/3/6 416/3/6 420/3/6
f 417/3/6 418/3/6 421/3/6
f 421/3/6 418/3/6 422/3/6
