# MagicaVoxel @ Ephtracy

# group
g Table

# material
mtllib Table.mtl
usemtl palette

# normals
vn -1 0 0
vn 1 0 0
vn 0 0 1
vn 0 0 -1
vn 0 -1 0
vn 0 1 0

# texcoords
vt 0.0761719 0.5
vt 0.0800781 0.5

# verts
v -4 0 8
v -4 0 7
v -4 0 -7
v -4 0 -8
v -4 3 8
v -4 3 7
v -4 6 7
v -4 6 5
v -4 6 -4
v -4 6 -5
v -4 6 -7
v -4 7 8
v -4 7 5
v -4 7 -4
v -4 7 -5
v -4 7 -8
v 3 0 8
v 3 0 7
v 3 0 -7
v 3 0 -8
v 3 2 -7
v 3 2 -8
v 3 3 -7
v 3 3 -8
v 3 6 8
v 3 6 7
v 3 6 -7
v 3 6 -8
v -3 0 8
v -3 0 7
v -3 0 -7
v -3 0 -8
v -3 3 8
v -3 3 7
v -3 6 8
v -3 6 7
v -3 6 -7
v -3 6 -8
v 4 0 8
v 4 0 7
v 4 0 -7
v 4 0 -8
v 4 2 -7
v 4 2 -8
v 4 3 -7
v 4 3 -8
v 4 6 7
v 4 6 -2
v 4 6 -4
v 4 6 -7
v 4 7 8
v 4 7 -2
v 4 7 -4
v 4 7 -8
v -4 0 8
v -4 3 8
v -4 7 8
v -3 0 8
v -3 3 8
v -3 6 8
v -3 7 8
v 2 6 8
v 2 7 8
v 3 0 8
v 3 6 8
v 3 7 8
v 4 0 8
v 4 7 8
v -4 0 -7
v -4 6 -7
v -3 0 -7
v -3 6 -7
v 3 0 -7
v 3 2 -7
v 3 3 -7
v 3 6 -7
v 4 0 -7
v 4 2 -7
v 4 3 -7
v 4 6 -7
v -4 0 7
v -4 3 7
v -4 6 7
v -3 0 7
v -3 3 7
v -3 6 7
v 3 0 7
v 3 6 7
v 4 0 7
v 4 6 7
v -4 0 -8
v -4 7 -8
v -3 0 -8
v -3 6 -8
v 1 6 -8
v 1 7 -8
v 2 6 -8
v 2 7 -8
v 3 0 -8
v 3 2 -8
v 3 3 -8
v 3 6 -8
v 4 0 -8
v 4 2 -8
v 4 3 -8
v 4 7 -8
v -4 0 8
v -3 0 8
v 3 0 8
v 4 0 8
v -4 0 7
v -3 0 7
v 3 0 7
v 4 0 7
v -4 0 -7
v -3 0 -7
v 3 0 -7
v 4 0 -7
v -4 0 -8
v -3 0 -8
v 3 0 -8
v 4 0 -8
v -3 6 8
v 2 6 8
v 3 6 8
v -4 6 7
v -3 6 7
v 3 6 7
v 4 6 7
v -3 6 6
v -2 6 6
v 1 6 6
v 2 6 6
v 3 6 6
v -4 6 5
v -2 6 5
v -2 6 4
v -1 6 4
v 1 6 3
v 2 6 3
v -3 6 1
v -2 6 1
v 1 6 1
v 2 6 1
v -3 6 -0
v -2 6 -0
v 3 6 -2
v 4 6 -2
v 2 6 -3
v 3 6 -3
v -4 6 -4
v -3 6 -4
v -2 6 -4
v -1 6 -4
v 2 6 -4
v 4 6 -4
v -4 6 -5
v -3 6 -5
v -2 6 -5
v -4 6 -7
v -3 6 -7
v -2 6 -7
v 3 6 -7
v 4 6 -7
v -3 6 -8
v 1 6 -8
v 2 6 -8
v 3 6 -8
v -4 7 8
v -3 7 8
v 2 7 8
v 3 7 8
v 4 7 8
v -3 7 6
v -2 7 6
v 1 7 6
v 2 7 6
v 3 7 6
v -4 7 5
v -2 7 5
v -2 7 4
v -1 7 4
v 1 7 3
v 2 7 3
v -3 7 1
v -2 7 1
v 1 7 1
v 2 7 1
v -3 7 -0
v -2 7 -0
v 3 7 -2
v 4 7 -2
v 2 7 -3
v 3 7 -3
v -4 7 -4
v -3 7 -4
v -2 7 -4
v -1 7 -4
v 2 7 -4
v 4 7 -4
v -4 7 -5
v -3 7 -5
v -2 7 -5
v -3 7 -7
v -2 7 -7
v -4 7 -8
v 1 7 -8
v 2 7 -8
v 4 7 -8

# faces
f 5/2/1 2/2/1 1/2/1
f 6/2/1 2/2/1 5/2/1
f 7/1/1 6/1/1 5/1/1
f 11/2/1 4/2/1 3/2/1
f 12/1/1 7/1/1 5/1/1
f 12/1/1 8/1/1 7/1/1
f 13/2/1 9/2/1 8/2/1
f 13/1/1 8/1/1 12/1/1
f 14/1/1 10/1/1 9/1/1
f 14/2/1 9/2/1 13/2/1
f 15/2/1 11/2/1 10/2/1
f 15/1/1 10/1/1 14/1/1
f 16/2/1 4/2/1 11/2/1
f 16/2/1 11/2/1 15/2/1
f 21/2/1 20/2/1 19/2/1
f 22/2/1 20/2/1 21/2/1
f 23/1/1 22/1/1 21/1/1
f 24/1/1 22/1/1 23/1/1
f 25/2/1 18/2/1 17/2/1
f 26/2/1 18/2/1 25/2/1
f 27/2/1 24/2/1 23/2/1
f 28/2/1 24/2/1 27/2/1
f 29/2/2 30/2/2 33/2/2
f 33/2/2 30/2/2 34/2/2
f 33/1/2 34/1/2 35/1/2
f 35/1/2 34/1/2 36/1/2
f 31/2/2 32/2/2 37/2/2
f 37/2/2 32/2/2 38/2/2
f 41/2/2 42/2/2 43/2/2
f 43/2/2 42/2/2 44/2/2
f 43/1/2 44/1/2 45/1/2
f 45/1/2 44/1/2 46/1/2
f 39/2/2 40/2/2 47/2/2
f 45/2/2 46/2/2 50/2/2
f 39/2/2 47/2/2 51/2/2
f 47/2/2 48/2/2 51/2/2
f 48/1/2 49/1/2 52/1/2
f 51/2/2 48/2/2 52/2/2
f 49/2/2 50/2/2 53/2/2
f 52/1/2 49/1/2 53/1/2
f 50/2/2 46/2/2 54/2/2
f 53/2/2 50/2/2 54/2/2
f 58/2/3 56/2/3 55/2/3
f 59/1/3 57/1/3 56/1/3
f 59/2/3 56/2/3 58/2/3
f 60/1/3 57/1/3 59/1/3
f 61/1/3 57/1/3 60/1/3
f 62/2/3 61/2/3 60/2/3
f 63/2/3 61/2/3 62/2/3
f 65/1/3 63/1/3 62/1/3
f 66/1/3 63/1/3 65/1/3
f 67/2/3 65/2/3 64/2/3
f 67/2/3 66/2/3 65/2/3
f 68/2/3 66/2/3 67/2/3
f 71/2/3 70/2/3 69/2/3
f 72/2/3 70/2/3 71/2/3
f 77/2/3 74/2/3 73/2/3
f 78/1/3 75/1/3 74/1/3
f 78/2/3 74/2/3 77/2/3
f 79/2/3 76/2/3 75/2/3
f 79/1/3 75/1/3 78/1/3
f 80/2/3 76/2/3 79/2/3
f 81/2/4 82/2/4 84/2/4
f 82/1/4 83/1/4 85/1/4
f 84/2/4 82/2/4 85/2/4
f 85/1/4 83/1/4 86/1/4
f 87/2/4 88/2/4 89/2/4
f 89/2/4 88/2/4 90/2/4
f 91/2/4 92/2/4 93/2/4
f 93/2/4 92/2/4 94/2/4
f 94/2/4 92/2/4 95/2/4
f 95/2/4 92/2/4 96/2/4
f 95/1/4 96/1/4 97/1/4
f 97/1/4 96/1/4 98/1/4
f 97/2/4 98/2/4 102/2/4
f 99/2/4 100/2/4 103/2/4
f 100/1/4 101/1/4 104/1/4
f 103/2/4 100/2/4 104/2/4
f 101/2/4 102/2/4 105/2/4
f 104/1/4 101/1/4 105/1/4
f 102/2/4 98/2/4 106/2/4
f 105/2/4 102/2/4 106/2/4
f 111/2/5 108/2/5 107/2/5
f 112/2/5 108/2/5 111/2/5
f 113/2/5 110/2/5 109/2/5
f 114/2/5 110/2/5 113/2/5
f 119/2/5 116/2/5 115/2/5
f 120/2/5 116/2/5 119/2/5
f 121/2/5 118/2/5 117/2/5
f 122/2/5 118/2/5 121/2/5
f 127/2/5 124/2/5 123/2/5
f 128/1/5 125/1/5 124/1/5
f 130/1/5 127/1/5 126/1/5
f 130/2/5 124/2/5 127/2/5
f 131/2/5 124/2/5 130/2/5
f 132/2/5 124/2/5 131/2/5
f 133/1/5 128/1/5 124/1/5
f 133/2/5 124/2/5 132/2/5
f 134/2/5 129/2/5 128/2/5
f 134/1/5 128/1/5 133/1/5
f 135/1/5 130/1/5 126/1/5
f 135/1/5 131/1/5 130/1/5
f 136/2/5 132/2/5 131/2/5
f 136/1/5 131/1/5 135/1/5
f 137/2/5 136/2/5 135/2/5
f 137/2/5 132/2/5 136/2/5
f 138/2/5 132/2/5 137/2/5
f 139/1/5 133/1/5 132/1/5
f 139/2/5 132/2/5 138/2/5
f 140/2/5 134/2/5 133/2/5
f 140/1/5 133/1/5 139/1/5
f 141/2/5 137/2/5 135/2/5
f 142/1/5 138/1/5 137/1/5
f 142/2/5 137/2/5 141/2/5
f 143/2/5 139/2/5 138/2/5
f 143/2/5 140/2/5 139/2/5
f 144/2/5 134/2/5 140/2/5
f 144/2/5 140/2/5 143/2/5
f 145/2/5 141/2/5 135/2/5
f 145/1/5 142/1/5 141/1/5
f 146/1/5 138/1/5 142/1/5
f 146/1/5 142/1/5 145/1/5
f 147/2/5 134/2/5 144/2/5
f 147/2/5 129/2/5 134/2/5
f 148/2/5 129/2/5 147/2/5
f 149/1/5 144/1/5 143/1/5
f 149/2/5 147/2/5 144/2/5
f 150/1/5 148/1/5 147/1/5
f 150/2/5 147/2/5 149/2/5
f 151/2/5 146/2/5 145/2/5
f 151/2/5 145/2/5 135/2/5
f 152/2/5 146/2/5 151/2/5
f 153/1/5 138/1/5 146/1/5
f 153/2/5 146/2/5 152/2/5
f 154/2/5 143/2/5 138/2/5
f 154/1/5 138/1/5 153/1/5
f 155/1/5 150/1/5 149/1/5
f 155/1/5 149/1/5 143/1/5
f 156/1/5 148/1/5 150/1/5
f 156/1/5 150/1/5 155/1/5
f 157/1/5 152/1/5 151/1/5
f 158/2/5 153/2/5 152/2/5
f 158/1/5 152/1/5 157/1/5
f 158/2/5 154/2/5 153/2/5
f 159/2/5 154/2/5 158/2/5
f 160/2/5 158/2/5 157/2/5
f 161/1/5 159/1/5 158/1/5
f 161/2/5 158/2/5 160/2/5
f 162/2/5 154/2/5 159/2/5
f 162/1/5 159/1/5 161/1/5
f 163/2/5 156/2/5 155/2/5
f 164/2/5 156/2/5 163/2/5
f 165/2/5 162/2/5 161/2/5
f 166/1/5 155/1/5 143/1/5
f 166/2/5 162/2/5 165/2/5
f 166/2/5 143/2/5 154/2/5
f 166/2/5 154/2/5 162/2/5
f 167/2/5 163/2/5 155/2/5
f 167/1/5 155/1/5 166/1/5
f 168/2/5 163/2/5 167/2/5
f 169/1/6 170/1/6 174/1/6
f 170/2/6 171/2/6 174/2/6
f 174/2/6 171/2/6 175/2/6
f 175/2/6 171/2/6 176/2/6
f 171/1/6 172/1/6 177/1/6
f 176/2/6 171/2/6 177/2/6
f 172/2/6 173/2/6 178/2/6
f 177/1/6 172/1/6 178/1/6
f 169/1/6 174/1/6 179/1/6
f 174/1/6 175/1/6 179/1/6
f 175/2/6 176/2/6 180/2/6
f 179/1/6 175/1/6 180/1/6
f 179/2/6 180/2/6 181/2/6
f 180/2/6 176/2/6 181/2/6
f 181/2/6 176/2/6 182/2/6
f 176/1/6 177/1/6 183/1/6
f 182/2/6 176/2/6 183/2/6
f 177/2/6 178/2/6 184/2/6
f 183/1/6 177/1/6 184/1/6
f 179/2/6 181/2/6 185/2/6
f 181/1/6 182/1/6 186/1/6
f 185/2/6 181/2/6 186/2/6
f 182/2/6 183/2/6 187/2/6
f 183/2/6 184/2/6 187/2/6
f 184/2/6 178/2/6 188/2/6
f 187/2/6 184/2/6 188/2/6
f 179/2/6 185/2/6 189/2/6
f 185/1/6 186/1/6 189/1/6
f 186/1/6 182/1/6 190/1/6
f 189/1/6 186/1/6 190/1/6
f 188/2/6 178/2/6 191/2/6
f 178/2/6 173/2/6 191/2/6
f 191/2/6 173/2/6 192/2/6
f 187/1/6 188/1/6 193/1/6
f 188/2/6 191/2/6 193/2/6
f 191/1/6 192/1/6 194/1/6
f 193/2/6 191/2/6 194/2/6
f 189/2/6 190/2/6 195/2/6
f 179/2/6 189/2/6 195/2/6
f 195/2/6 190/2/6 196/2/6
f 190/1/6 182/1/6 197/1/6
f 196/2/6 190/2/6 197/2/6
f 182/2/6 187/2/6 198/2/6
f 197/1/6 182/1/6 198/1/6
f 193/1/6 194/1/6 199/1/6
f 187/1/6 193/1/6 199/1/6
f 194/1/6 192/1/6 200/1/6
f 199/1/6 194/1/6 200/1/6
f 195/1/6 196/1/6 201/1/6
f 196/2/6 197/2/6 202/2/6
f 201/1/6 196/1/6 202/1/6
f 197/2/6 198/2/6 202/2/6
f 202/2/6 198/2/6 203/2/6
f 201/2/6 202/2/6 204/2/6
f 202/1/6 203/1/6 204/1/6
f 203/2/6 198/2/6 205/2/6
f 204/1/6 203/1/6 205/1/6
f 201/2/6 204/2/6 206/2/6
f 204/2/6 205/2/6 206/2/6
f 187/1/6 199/1/6 207/1/6
f 206/2/6 205/2/6 207/2/6
f 198/2/6 187/2/6 207/2/6
f 205/2/6 198/2/6 207/2/6
f 199/2/6 200/2/6 208/2/6
f 207/1/6 199/1/6 208/1/6
f 208/2/6 200/2/6 209/2/6
