# MagicaVoxel @ Ephtracy

# group
g TreasureChest

# material
mtllib TreasureChest.mtl
usemtl palette

# normals
vn -1 0 0
vn 1 0 0
vn 0 0 1
vn 0 0 -1
vn 0 -1 0
vn 0 1 0

# texcoords
vt 0.0253906 0.5
vt 0.107422 0.5
vt 0.123047 0.5

# verts
v -4 0 4
v -4 0 -4
v -4 1 3
v -4 1 -3
v -4 4 3
v -4 4 -3
v -4 5 4
v -4 5 3
v -4 5 2
v -4 5 -2
v -4 5 -3
v -4 5 -4
v -4 6 3
v -4 6 2
v -4 6 -2
v -4 6 -3
v -4 7 2
v -4 7 -2
v 4 0 4
v 4 0 -4
v 4 1 3
v 4 1 -3
v 4 4 3
v 4 4 -3
v 4 5 4
v 4 5 3
v 4 5 2
v 4 5 -2
v 4 5 -3
v 4 5 -4
v 4 6 3
v 4 6 2
v 4 6 -2
v 4 6 -3
v 4 7 2
v 4 7 -2
v -4 0 4
v -4 5 4
v -3 1 4
v -3 4 4
v -1 2 4
v -1 4 4
v 0 3 4
v 0 4 4
v 1 2 4
v 1 3 4
v 3 1 4
v 3 4 4
v 4 0 4
v 4 5 4
v -4 5 3
v -4 6 3
v -3 5 3
v -3 6 3
v 3 5 3
v 3 6 3
v 4 5 3
v 4 6 3
v -4 6 2
v -4 7 2
v -3 6 2
v 3 6 2
v 4 6 2
v 4 7 2
v -4 6 -2
v -4 7 -2
v -3 6 -2
v 3 6 -2
v 4 6 -2
v 4 7 -2
v -4 5 -3
v -4 6 -3
v -3 5 -3
v -3 6 -3
v 3 5 -3
v 3 6 -3
v 4 5 -3
v 4 6 -3
v -4 0 -4
v -4 5 -4
v -3 1 -4
v -3 4 -4
v 3 1 -4
v 3 4 -4
v 4 0 -4
v 4 5 -4
v -4 0 4
v 4 0 4
v -3 0 3
v 3 0 3
v -3 0 -3
v 3 0 -3
v -4 0 -4
v 4 0 -4
v -4 5 4
v 4 5 4
v -4 5 3
v -3 5 3
v 3 5 3
v 4 5 3
v -4 5 -3
v -3 5 -3
v 3 5 -3
v 4 5 -3
v -4 5 -4
v 4 5 -4
v -4 6 3
v -3 6 3
v 3 6 3
v 4 6 3
v -4 6 2
v -3 6 2
v 3 6 2
v 4 6 2
v -4 6 -2
v -3 6 -2
v 3 6 -2
v 4 6 -2
v -4 6 -3
v -3 6 -3
v 3 6 -3
v 4 6 -3
v -4 7 2
v 4 7 2
v -3 7 1
v 3 7 1
v -3 7 -1
v 3 7 -1
v -4 7 -2
v 4 7 -2

# faces
f 3/1/1 2/1/1 1/1/1
f 4/1/1 2/1/1 3/1/1
f 5/1/1 3/1/1 1/1/1
f 5/2/1 4/2/1 3/2/1
f 6/1/1 2/1/1 4/1/1
f 6/2/1 4/2/1 5/2/1
f 7/1/1 5/1/1 1/1/1
f 7/1/1 6/1/1 5/1/1
f 8/1/1 6/1/1 7/1/1
f 9/1/1 6/1/1 8/1/1
f 10/1/1 6/1/1 9/1/1
f 11/1/1 2/1/1 6/1/1
f 11/1/1 6/1/1 10/1/1
f 12/1/1 2/1/1 11/1/1
f 13/1/1 9/1/1 8/1/1
f 14/2/1 10/2/1 9/2/1
f 14/1/1 9/1/1 13/1/1
f 15/1/1 11/1/1 10/1/1
f 15/2/1 10/2/1 14/2/1
f 16/1/1 11/1/1 15/1/1
f 17/1/1 15/1/1 14/1/1
f 18/1/1 15/1/1 17/1/1
f 19/1/2 20/1/2 21/1/2
f 21/1/2 20/1/2 22/1/2
f 19/1/2 21/1/2 23/1/2
f 21/2/2 22/2/2 23/2/2
f 22/1/2 20/1/2 24/1/2
f 23/2/2 22/2/2 24/2/2
f 19/1/2 23/1/2 25/1/2
f 23/1/2 24/1/2 25/1/2
f 25/1/2 24/1/2 26/1/2
f 26/1/2 24/1/2 27/1/2
f 27/1/2 24/1/2 28/1/2
f 24/1/2 20/1/2 29/1/2
f 28/1/2 24/1/2 29/1/2
f 29/1/2 20/1/2 30/1/2
f 26/1/2 27/1/2 31/1/2
f 27/2/2 28/2/2 32/2/2
f 31/1/2 27/1/2 32/1/2
f 28/1/2 29/1/2 33/1/2
f 32/2/2 28/2/2 33/2/2
f 33/1/2 29/1/2 34/1/2
f 32/1/2 33/1/2 35/1/2
f 35/1/2 33/1/2 36/1/2
f 39/1/3 38/1/3 37/1/3
f 40/1/3 38/1/3 39/1/3
f 41/2/3 40/2/3 39/2/3
f 42/1/3 38/1/3 40/1/3
f 42/2/3 40/2/3 41/2/3
f 43/3/3 42/3/3 41/3/3
f 44/1/3 38/1/3 42/1/3
f 44/3/3 42/3/3 43/3/3
f 45/2/3 41/2/3 39/2/3
f 45/3/3 43/3/3 41/3/3
f 46/2/3 44/2/3 43/2/3
f 46/3/3 43/3/3 45/3/3
f 47/1/3 39/1/3 37/1/3
f 47/2/3 45/2/3 39/2/3
f 47/2/3 46/2/3 45/2/3
f 48/2/3 44/2/3 46/2/3
f 48/2/3 46/2/3 47/2/3
f 48/1/3 38/1/3 44/1/3
f 49/1/3 47/1/3 37/1/3
f 49/1/3 48/1/3 47/1/3
f 50/1/3 38/1/3 48/1/3
f 50/1/3 48/1/3 49/1/3
f 53/1/3 52/1/3 51/1/3
f 54/1/3 52/1/3 53/1/3
f 55/2/3 54/2/3 53/2/3
f 56/2/3 54/2/3 55/2/3
f 57/1/3 56/1/3 55/1/3
f 58/1/3 56/1/3 57/1/3
f 61/1/3 60/1/3 59/1/3
f 62/1/3 60/1/3 61/1/3
f 63/1/3 60/1/3 62/1/3
f 64/1/3 60/1/3 63/1/3
f 65/1/4 66/1/4 67/1/4
f 67/1/4 66/1/4 68/1/4
f 68/1/4 66/1/4 69/1/4
f 69/1/4 66/1/4 70/1/4
f 71/1/4 72/1/4 73/1/4
f 73/1/4 72/1/4 74/1/4
f 73/2/4 74/2/4 75/2/4
f 75/2/4 74/2/4 76/2/4
f 75/1/4 76/1/4 77/1/4
f 77/1/4 76/1/4 78/1/4
f 79/1/4 80/1/4 81/1/4
f 81/1/4 80/1/4 82/1/4
f 79/1/4 81/1/4 83/1/4
f 81/2/4 82/2/4 83/2/4
f 82/1/4 80/1/4 84/1/4
f 83/2/4 82/2/4 84/2/4
f 79/1/4 83/1/4 85/1/4
f 83/1/4 84/1/4 85/1/4
f 84/1/4 80/1/4 86/1/4
f 85/1/4 84/1/4 86/1/4
f 89/1/5 88/1/5 87/1/5
f 90/1/5 88/1/5 89/1/5
f 91/1/5 89/1/5 87/1/5
f 91/2/5 90/2/5 89/2/5
f 92/1/5 88/1/5 90/1/5
f 92/2/5 90/2/5 91/2/5
f 93/1/5 91/1/5 87/1/5
f 93/1/5 92/1/5 91/1/5
f 94/1/5 88/1/5 92/1/5
f 94/1/5 92/1/5 93/1/5
f 95/1/6 96/1/6 97/1/6
f 97/1/6 96/1/6 98/1/6
f 98/1/6 96/1/6 99/1/6
f 99/1/6 96/1/6 100/1/6
f 101/1/6 102/1/6 105/1/6
f 103/1/6 104/1/6 105/1/6
f 102/1/6 103/1/6 105/1/6
f 105/1/6 104/1/6 106/1/6
f 107/1/6 108/1/6 111/1/6
f 108/2/6 109/2/6 112/2/6
f 111/1/6 108/1/6 112/1/6
f 109/1/6 110/1/6 113/1/6
f 112/2/6 109/2/6 113/2/6
f 113/1/6 110/1/6 114/1/6
f 115/1/6 116/1/6 119/1/6
f 116/2/6 117/2/6 120/2/6
f 119/1/6 116/1/6 120/1/6
f 117/1/6 118/1/6 121/1/6
f 120/2/6 117/2/6 121/2/6
f 121/1/6 118/1/6 122/1/6
f 123/1/6 124/1/6 125/1/6
f 125/1/6 124/1/6 126/1/6
f 123/1/6 125/1/6 127/1/6
f 125/2/6 126/2/6 127/2/6
f 126/1/6 124/1/6 128/1/6
f 127/2/6 126/2/6 128/2/6
f 123/1/6 127/1/6 129/1/6
f 127/1/6 128/1/6 129/1/6
f 128/1/6 124/1/6 130/1/6
f 129/1/6 128/1/6 130/1/6
