# MagicaVoxel @ Ephtracy

# group
g Boss1Leg

# material
mtllib Boss1Leg.mtl
usemtl palette

# normals
vn -1 0 0
vn 1 0 0
vn 0 0 1
vn 0 0 -1
vn 0 -1 0
vn 0 1 0

# texcoords
vt 0.0722656 0.5
vt 0.0761719 0.5

# verts
v -3 0 2
v -3 0 1
v -3 0 -1
v -3 0 -2
v -3 1 2
v -3 1 1
v -3 1 -1
v -3 1 -2
v -2 0 3
v -2 0 2
v -2 1 3
v -2 1 2
v -2 1 1
v -2 1 -1
v -2 1 -2
v -2 5 1
v -2 5 -2
v 1 0 3
v 1 0 2
v 1 1 3
v 1 1 2
v 1 1 1
v 1 1 -1
v 1 1 -2
v 1 5 1
v 1 5 -2
v 2 0 2
v 2 0 -1
v 2 0 -2
v 2 1 2
v 2 1 -1
v 2 1 -2
v -2 0 3
v -2 1 3
v -1 0 3
v -1 1 3
v 1 0 3
v 1 1 3
v -3 0 2
v -3 1 2
v -2 0 2
v -2 1 2
v 1 0 2
v 1 1 2
v 2 0 2
v 2 1 2
v -2 1 1
v -2 5 1
v 0 1 1
v 1 1 1
v 1 5 1
v -3 0 -2
v -3 1 -2
v -2 1 -2
v -2 5 -2
v 1 1 -2
v 1 5 -2
v 2 0 -2
v 2 1 -2
v -2 0 3
v -1 0 3
v 1 0 3
v -3 0 2
v -2 0 2
v -1 0 2
v 0 0 2
v 1 0 2
v 2 0 2
v -3 0 1
v -2 0 1
v 0 0 1
v -3 0 -1
v -2 0 -1
v 1 0 -1
v 2 0 -1
v -3 0 -2
v 2 0 -2
v -2 1 3
v -1 1 3
v 1 1 3
v -3 1 2
v -2 1 2
v -1 1 2
v 0 1 2
v 1 1 2
v 2 1 2
v -3 1 1
v -2 1 1
v 0 1 1
v 1 1 1
v -3 1 -1
v -2 1 -1
v 1 1 -1
v 2 1 -1
v -3 1 -2
v -2 1 -2
v 1 1 -2
v 2 1 -2
v -2 5 1
v 1 5 1
v -2 5 -2
v 1 5 -2

# faces
f 5/2/1 2/2/1 1/2/1
f 6/1/1 3/1/1 2/1/1
f 6/2/1 2/2/1 5/2/1
f 7/2/1 4/2/1 3/2/1
f 7/1/1 3/1/1 6/1/1
f 8/2/1 4/2/1 7/2/1
f 11/2/1 10/2/1 9/2/1
f 12/2/1 10/2/1 11/2/1
f 16/2/1 15/2/1 14/2/1
f 16/2/1 14/2/1 13/2/1
f 17/2/1 15/2/1 16/2/1
f 18/1/2 19/1/2 20/1/2
f 20/1/2 19/1/2 21/1/2
f 23/2/2 24/2/2 25/2/2
f 22/2/2 23/2/2 25/2/2
f 25/2/2 24/2/2 26/2/2
f 27/1/2 28/1/2 30/1/2
f 28/2/2 29/2/2 31/2/2
f 30/1/2 28/1/2 31/1/2
f 31/2/2 29/2/2 32/2/2
f 35/2/3 34/2/3 33/2/3
f 36/2/3 34/2/3 35/2/3
f 37/1/3 36/1/3 35/1/3
f 38/1/3 36/1/3 37/1/3
f 41/2/3 40/2/3 39/2/3
f 42/2/3 40/2/3 41/2/3
f 45/1/3 44/1/3 43/1/3
f 46/1/3 44/1/3 45/1/3
f 49/2/3 48/2/3 47/2/3
f 50/2/3 48/2/3 49/2/3
f 51/2/3 48/2/3 50/2/3
f 52/2/4 53/2/4 54/2/4
f 52/2/4 54/2/4 56/2/4
f 54/2/4 55/2/4 56/2/4
f 56/2/4 55/2/4 57/2/4
f 52/2/4 56/2/4 58/2/4
f 58/2/4 56/2/4 59/2/4
f 64/2/5 61/2/5 60/2/5
f 65/1/5 62/1/5 61/1/5
f 65/2/5 61/2/5 64/2/5
f 66/1/5 62/1/5 65/1/5
f 67/1/5 62/1/5 66/1/5
f 69/2/5 64/2/5 63/2/5
f 70/1/5 65/1/5 64/1/5
f 70/2/5 64/2/5 69/2/5
f 70/1/5 66/1/5 65/1/5
f 71/2/5 67/2/5 66/2/5
f 71/1/5 66/1/5 70/1/5
f 72/1/5 70/1/5 69/1/5
f 73/2/5 71/2/5 70/2/5
f 73/1/5 70/1/5 72/1/5
f 74/1/5 68/1/5 67/1/5
f 74/2/5 71/2/5 73/2/5
f 74/2/5 67/2/5 71/2/5
f 75/1/5 68/1/5 74/1/5
f 76/2/5 73/2/5 72/2/5
f 76/2/5 74/2/5 73/2/5
f 76/2/5 75/2/5 74/2/5
f 77/2/5 75/2/5 76/2/5
f 78/2/6 79/2/6 82/2/6
f 79/1/6 80/1/6 83/1/6
f 82/2/6 79/2/6 83/2/6
f 83/1/6 80/1/6 84/1/6
f 84/1/6 80/1/6 85/1/6
f 81/2/6 82/2/6 87/2/6
f 82/1/6 83/1/6 88/1/6
f 87/2/6 82/2/6 88/2/6
f 83/1/6 84/1/6 88/1/6
f 84/2/6 85/2/6 89/2/6
f 88/1/6 84/1/6 89/1/6
f 85/1/6 86/1/6 90/1/6
f 89/2/6 85/2/6 90/2/6
f 87/1/6 88/1/6 91/1/6
f 91/1/6 88/1/6 92/1/6
f 90/1/6 86/1/6 93/1/6
f 93/1/6 86/1/6 94/1/6
f 91/2/6 92/2/6 95/2/6
f 95/2/6 92/2/6 96/2/6
f 93/2/6 94/2/6 97/2/6
f 97/2/6 94/2/6 98/2/6
f 99/2/6 100/2/6 101/2/6
f 101/2/6 100/2/6 102/2/6
