# MagicaVoxel @ Ephtracy

# group
g MonsterShardSmall

# material
mtllib MonsterShardSmall.mtl
usemtl palette

# normals
vn -1 0 0
vn 1 0 0
vn 0 0 1
vn 0 0 -1
vn 0 -1 0
vn 0 1 0

# texcoords
vt 0.162109 0.5
vt 0.189453 0.5
vt 0.216797 0.5

# verts
v -1 0 -0
v -1 0 -1
v -1 1 1
v -1 1 -0
v -1 2 1
v -1 2 -0
v -1 2 -1
v -1 3 1
v -1 3 -0
v -1 3 -1
v 0 3 1
v 0 3 -0
v 0 4 1
v 0 4 -0
v 0 0 -0
v 0 0 -1
v 0 1 -0
v 0 1 -1
v 1 1 1
v 1 1 -0
v 1 1 -1
v 1 2 1
v 1 2 -0
v 1 2 -1
v 1 3 -0
v 1 3 -1
v 1 4 1
v 1 4 -0
v -1 1 1
v -1 2 1
v -1 3 1
v 0 1 1
v 0 2 1
v 0 3 1
v 0 4 1
v 1 1 1
v 1 2 1
v 1 4 1
v -1 0 -0
v -1 1 -0
v 0 0 -0
v 0 1 -0
v 0 3 -0
v 0 4 -0
v 1 3 -0
v 1 4 -0
v -1 0 -1
v -1 2 -1
v -1 3 -1
v 0 0 -1
v 0 1 -1
v 0 2 -1
v 0 3 -1
v 1 1 -1
v 1 2 -1
v 1 3 -1
v -1 0 -0
v 0 0 -0
v -1 0 -1
v 0 0 -1
v -1 1 1
v 0 1 1
v 1 1 1
v -1 1 -0
v 0 1 -0
v 1 1 -0
v 0 1 -1
v 1 1 -1
v -1 3 1
v 0 3 1
v -1 3 -0
v 0 3 -0
v 1 3 -0
v -1 3 -1
v 0 3 -1
v 1 3 -1
v 0 4 1
v 1 4 1
v 0 4 -0
v 1 4 -0

# faces
f 4/3/1 2/3/1 1/3/1
f 5/3/1 4/3/1 3/3/1
f 6/3/1 2/3/1 4/3/1
f 6/3/1 4/3/1 5/3/1
f 7/3/1 2/3/1 6/3/1
f 8/2/1 6/2/1 5/2/1
f 9/1/1 7/1/1 6/1/1
f 9/2/1 6/2/1 8/2/1
f 10/1/1 7/1/1 9/1/1
f 13/3/1 12/3/1 11/3/1
f 14/3/1 12/3/1 13/3/1
f 15/3/2 16/3/2 17/3/2
f 17/3/2 16/3/2 18/3/2
f 19/1/2 20/1/2 22/1/2
f 20/2/2 21/2/2 23/2/2
f 22/1/2 20/1/2 23/1/2
f 23/2/2 21/2/2 24/2/2
f 22/3/2 23/3/2 25/3/2
f 23/3/2 24/3/2 25/3/2
f 25/3/2 24/3/2 26/3/2
f 22/3/2 25/3/2 27/3/2
f 27/3/2 25/3/2 28/3/2
f 32/3/3 30/3/3 29/3/3
f 33/2/3 31/2/3 30/2/3
f 33/3/3 30/3/3 32/3/3
f 34/2/3 31/2/3 33/2/3
f 36/1/3 33/1/3 32/1/3
f 37/3/3 35/3/3 34/3/3
f 37/1/3 33/1/3 36/1/3
f 37/3/3 34/3/3 33/3/3
f 38/3/3 35/3/3 37/3/3
f 41/3/3 40/3/3 39/3/3
f 42/3/3 40/3/3 41/3/3
f 43/3/4 44/3/4 45/3/4
f 45/3/4 44/3/4 46/3/4
f 47/3/4 48/3/4 50/3/4
f 50/3/4 48/3/4 51/3/4
f 48/1/4 49/1/4 52/1/4
f 51/3/4 48/3/4 52/3/4
f 52/1/4 49/1/4 53/1/4
f 51/2/4 52/2/4 54/2/4
f 52/3/4 53/3/4 55/3/4
f 54/2/4 52/2/4 55/2/4
f 55/3/4 53/3/4 56/3/4
f 59/3/5 58/3/5 57/3/5
f 60/3/5 58/3/5 59/3/5
f 64/3/5 62/3/5 61/3/5
f 65/1/5 63/1/5 62/1/5
f 65/3/5 62/3/5 64/3/5
f 66/1/5 63/1/5 65/1/5
f 67/2/5 66/2/5 65/2/5
f 68/2/5 66/2/5 67/2/5
f 69/2/6 70/2/6 71/2/6
f 71/2/6 70/2/6 72/2/6
f 71/1/6 72/1/6 74/1/6
f 72/3/6 73/3/6 75/3/6
f 74/1/6 72/1/6 75/1/6
f 75/3/6 73/3/6 76/3/6
f 77/3/6 78/3/6 79/3/6
f 79/3/6 78/3/6 80/3/6
