# MagicaVoxel @ Ephtracy

# group
g Skull

# material
mtllib Skull.mtl
usemtl palette

# normals
vn -1 0 0
vn 1 0 0
vn 0 0 1
vn 0 0 -1
vn 0 -1 0
vn 0 1 0

# texcoords
vt 0.0136719 0.5
vt 0.0253906 0.5

# verts
v -6 4 4
v -6 4 -4
v -6 5 -2
v -6 5 -3
v -6 5 -4
v -6 5 -5
v -6 6 5
v -6 6 4
v -6 6 3
v -6 6 2
v -6 6 -3
v -6 6 -4
v -6 7 2
v -6 7 1
v -6 7 -2
v -6 7 -3
v -6 8 3
v -6 8 2
v -6 8 1
v -6 8 -0
v -6 8 -2
v -6 8 -3
v -6 8 -4
v -6 9 2
v -6 9 -0
v -6 9 -2
v -6 9 -3
v -6 11 5
v -6 11 4
v -6 11 -0
v -6 11 -2
v -6 11 -4
v -6 11 -5
v -6 12 4
v -6 12 -0
v -6 12 -2
v -6 12 -4
v -5 4 5
v -5 4 4
v -5 4 -4
v -5 4 -5
v -5 5 -4
v -5 5 -5
v -5 6 5
v -5 6 4
v -5 6 -5
v -5 6 -6
v -5 10 -5
v -5 10 -6
v -5 11 5
v -5 11 4
v -5 11 -4
v -5 11 -5
v -5 12 5
v -5 12 4
v -5 12 3
v -5 12 1
v -5 12 -0
v -5 12 -1
v -5 12 -2
v -5 12 -3
v -5 12 -4
v -5 12 -5
v -5 13 3
v -5 13 1
v -5 13 -1
v -5 13 -3
v -4 0 5
v -4 0 3
v -4 0 -1
v -4 1 5
v -4 1 3
v -4 1 2
v -4 1 -1
v -4 1 -2
v -4 2 2
v -4 2 1
v -4 3 3
v -4 3 1
v -4 4 5
v -4 4 -2
v -4 5 -5
v -4 5 -6
v -4 6 -5
v -4 6 -6
v -4 10 -5
v -4 10 -6
v -4 11 -5
v -4 11 -6
v -4 12 4
v -4 12 3
v -4 12 -3
v -4 12 -4
v -4 13 4
v -4 13 3
v -4 13 -3
v -4 13 -4
v -3 0 -1
v -3 0 -2
v -3 1 -1
v -3 1 -2
v -3 3 -2
v -3 3 -3
v -3 4 -2
v -3 4 -3
v -1 6 5
v -1 6 4
v -1 10 5
v -1 10 4
v 4 6 5
v 4 6 4
v 4 10 5
v 4 10 4
v -4 6 5
v -4 6 4
v -4 10 5
v -4 10 4
v 1 6 5
v 1 6 4
v 1 8 5
v 1 8 4
v 2 8 5
v 2 8 4
v 2 9 5
v 2 9 4
v 3 0 -1
v 3 0 -2
v 3 1 -1
v 3 1 -2
v 3 3 -2
v 3 3 -3
v 3 4 -2
v 3 4 -3
v 3 9 5
v 3 9 4
v 3 10 5
v 3 10 4
v 4 0 5
v 4 0 -1
v 4 1 4
v 4 1 2
v 4 1 -1
v 4 1 -2
v 4 2 4
v 4 2 3
v 4 2 2
v 4 2 1
v 4 3 3
v 4 3 1
v 4 4 5
v 4 4 -2
v 4 5 -5
v 4 5 -6
v 4 6 -5
v 4 6 -6
v 4 10 -5
v 4 10 -6
v 4 11 -5
v 4 11 -6
v 4 12 4
v 4 12 3
v 4 12 -3
v 4 12 -4
v 4 13 4
v 4 13 3
v 4 13 -3
v 4 13 -4
v 5 4 5
v 5 4 4
v 5 4 -4
v 5 4 -5
v 5 5 -4
v 5 5 -5
v 5 6 5
v 5 6 4
v 5 6 -5
v 5 6 -6
v 5 10 -5
v 5 10 -6
v 5 11 5
v 5 11 4
v 5 11 -4
v 5 11 -5
v 5 12 5
v 5 12 4
v 5 12 3
v 5 12 -3
v 5 12 -4
v 5 12 -5
v 5 13 3
v 5 13 -3
v 6 4 4
v 6 4 1
v 6 4 -0
v 6 4 -4
v 6 5 2
v 6 5 1
v 6 5 -4
v 6 5 -5
v 6 6 5
v 6 6 4
v 6 6 3
v 6 6 2
v 6 6 1
v 6 6 -0
v 6 7 2
v 6 7 1
v 6 8 2
v 6 8 -0
v 6 10 3
v 6 10 2
v 6 11 5
v 6 11 4
v 6 11 2
v 6 11 -0
v 6 11 -4
v 6 11 -5
v 6 12 4
v 6 12 -4
v -6 6 5
v -6 11 5
v -5 4 5
v -5 6 5
v -5 11 5
v -5 12 5
v -4 0 5
v -4 1 5
v -4 4 5
v -4 6 5
v -4 10 5
v -3 0 5
v -3 1 5
v -3 2 5
v -3 3 5
v -2 1 5
v -2 2 5
v -2 3 5
v -2 4 5
v -1 1 5
v -1 2 5
v -1 3 5
v -1 4 5
v -1 6 5
v -1 10 5
v -1 11 5
v -1 12 5
v 1 1 5
v 1 2 5
v 1 3 5
v 1 4 5
v 1 6 5
v 1 8 5
v 1 11 5
v 1 12 5
v 2 1 5
v 2 2 5
v 2 3 5
v 2 4 5
v 2 8 5
v 2 9 5
v 3 2 5
v 3 3 5
v 3 9 5
v 3 10 5
v 4 0 5
v 4 4 5
v 4 6 5
v 4 10 5
v 5 4 5
v 5 6 5
v 5 11 5
v 5 12 5
v 6 6 5
v 6 11 5
v -6 4 4
v -6 6 4
v -6 11 4
v -6 12 4
v -5 4 4
v -5 6 4
v -5 11 4
v -5 12 4
v -4 6 4
v -4 10 4
v -4 12 4
v -4 13 4
v -1 6 4
v -1 10 4
v -1 12 4
v 0 12 4
v 0 13 4
v 1 6 4
v 1 8 4
v 1 12 4
v 2 8 4
v 2 9 4
v 2 12 4
v 2 13 4
v 3 9 4
v 3 10 4
v 4 6 4
v 4 10 4
v 4 12 4
v 4 13 4
v 5 4 4
v 5 6 4
v 5 11 4
v 5 12 4
v 6 4 4
v 6 6 4
v 6 11 4
v 6 12 4
v -5 12 3
v -5 13 3
v -4 12 3
v -4 13 3
v 4 12 3
v 4 13 3
v 5 12 3
v 5 13 3
v -4 0 -1
v -4 1 -1
v -3 0 -1
v -3 1 -1
v 3 0 -1
v 3 1 -1
v 4 0 -1
v 4 1 -1
v -4 1 -2
v -4 4 -2
v -3 0 -2
v -3 1 -2
v -3 3 -2
v -3 4 -2
v -2 1 -2
v -2 2 -2
v -2 3 -2
v -1 2 -2
v -1 3 -2
v 3 0 -2
v 3 1 -2
v 3 3 -2
v 3 4 -2
v 4 1 -2
v 4 4 -2
v -5 12 -3
v -5 13 -3
v -4 12 -3
v -4 13 -3
v -3 3 -3
v -3 4 -3
v -2 3 -3
v -2 4 -3
v -1 3 -3
v -1 4 -3
v 3 3 -3
v 3 4 -3
v 4 12 -3
v 4 13 -3
v 5 12 -3
v 5 13 -3
v -6 4 -4
v -6 5 -4
v -6 11 -4
v -6 12 -4
v -5 4 -4
v -5 5 -4
v -5 11 -4
v -5 12 -4
v -4 12 -4
v -4 13 -4
v 2 12 -4
v 2 13 -4
v 4 12 -4
v 4 13 -4
v 5 4 -4
v 5 5 -4
v 5 11 -4
v 5 12 -4
v 6 4 -4
v 6 5 -4
v 6 11 -4
v 6 12 -4
v -6 5 -5
v -6 11 -5
v -5 4 -5
v -5 5 -5
v -5 6 -5
v -5 10 -5
v -5 11 -5
v -5 12 -5
v -4 5 -5
v -4 6 -5
v -4 10 -5
v -4 11 -5
v 1 11 -5
v 3 11 -5
v 4 5 -5
v 4 6 -5
v 4 10 -5
v 4 11 -5
v 4 12 -5
v 5 4 -5
v 5 5 -5
v 5 6 -5
v 5 10 -5
v 5 11 -5
v 5 12 -5
v 6 5 -5
v 6 11 -5
v -5 6 -6
v -5 10 -6
v -4 5 -6
v -4 6 -6
v -4 10 -6
v -4 11 -6
v -2 6 -6
v -2 7 -6
v -1 6 -6
v -1 7 -6
v -1 9 -6
v 0 7 -6
v 0 8 -6
v 1 8 -6
v 1 9 -6
v 1 10 -6
v 1 11 -6
v 2 9 -6
v 2 10 -6
v 3 9 -6
v 3 11 -6
v 4 5 -6
v 4 6 -6
v 4 10 -6
v 4 11 -6
v 5 6 -6
v 5 10 -6
v -4 0 5
v -3 0 5
v 4 0 5
v -4 0 3
v -3 0 3
v -4 0 -1
v -3 0 -1
v 3 0 -1
v 4 0 -1
v -3 0 -2
v 3 0 -2
v -4 1 -1
v -3 1 -1
v 3 1 -1
v 4 1 -1
v -4 1 -2
v -3 1 -2
v 3 1 -2
v 4 1 -2
v -3 3 -2
v -2 3 -2
v -1 3 -2
v 3 3 -2
v -3 3 -3
v -2 3 -3
v -1 3 -3
v 3 3 -3
v -5 4 5
v -4 4 5
v 4 4 5
v 5 4 5
v -6 4 4
v -5 4 4
v 5 4 4
v 6 4 4
v 5 4 1
v 6 4 1
v 5 4 -0
v 6 4 -0
v -4 4 -2
v -3 4 -2
v 3 4 -2
v 4 4 -2
v -3 4 -3
v -2 4 -3
v -1 4 -3
v 3 4 -3
v -6 4 -4
v -5 4 -4
v 5 4 -4
v 6 4 -4
v -5 4 -5
v 5 4 -5
v -6 5 -4
v -5 5 -4
v 5 5 -4
v 6 5 -4
v -6 5 -5
v -5 5 -5
v -4 5 -5
v 4 5 -5
v 5 5 -5
v 6 5 -5
v -4 5 -6
v 4 5 -6
v -6 6 5
v -5 6 5
v 5 6 5
v 6 6 5
v -6 6 4
v -5 6 4
v 5 6 4
v 6 6 4
v -5 6 -5
v -4 6 -5
v 4 6 -5
v 5 6 -5
v -5 6 -6
v -4 6 -6
v 4 6 -6
v 5 6 -6
v 1 8 5
v 2 8 5
v 1 8 4
v 2 8 4
v 2 9 5
v 3 9 5
v 2 9 4
v 3 9 4
v -4 10 5
v -1 10 5
v 3 10 5
v 4 10 5
v -4 10 4
v -1 10 4
v 3 10 4
v 4 10 4
v -4 6 5
v -1 6 5
v 1 6 5
v 4 6 5
v -4 6 4
v -1 6 4
v 1 6 4
v 4 6 4
v -5 10 -5
v -4 10 -5
v 4 10 -5
v 5 10 -5
v -5 10 -6
v -4 10 -6
v 4 10 -6
v 5 10 -6
v -6 11 5
v -5 11 5
v 5 11 5
v 6 11 5
v -6 11 4
v -5 11 4
v 5 11 4
v 6 11 4
v -6 11 -4
v -5 11 -4
v 5 11 -4
v 6 11 -4
v -6 11 -5
v -5 11 -5
v -4 11 -5
v 1 11 -5
v 3 11 -5
v 4 11 -5
v 5 11 -5
v 6 11 -5
v -4 11 -6
v 1 11 -6
v 3 11 -6
v 4 11 -6
v -5 12 5
v -1 12 5
v 1 12 5
v 5 12 5
v -6 12 4
v -5 12 4
v -4 12 4
v -1 12 4
v 0 12 4
v 1 12 4
v 2 12 4
v 4 12 4
v 5 12 4
v 6 12 4
v -5 12 3
v -4 12 3
v 4 12 3
v 5 12 3
v -5 12 1
v -6 12 -0
v -5 12 -0
v -5 12 -1
v -6 12 -2
v -5 12 -2
v -5 12 -3
v -4 12 -3
v 4 12 -3
v 5 12 -3
v -6 12 -4
v -5 12 -4
v -4 12 -4
v 2 12 -4
v 4 12 -4
v 5 12 -4
v 6 12 -4
v -5 12 -5
v 4 12 -5
v 5 12 -5
v -4 13 4
v 0 13 4
v 2 13 4
v 4 13 4
v -5 13 3
v -4 13 3
v 2 13 3
v 3 13 3
v 4 13 3
v 5 13 3
v 0 13 2
v 3 13 2
v -5 13 1
v -4 13 1
v -5 13 -1
v -4 13 -1
v -5 13 -3
v -4 13 -3
v 2 13 -3
v 4 13 -3
v 5 13 -3
v -4 13 -4
v 2 13 -4
v 4 13 -4

# faces
f 3/2/1 2/2/1 1/2/1
f 4/2/1 2/2/1 3/2/1
f 5/2/1 2/2/1 4/2/1
f 8/2/1 3/2/1 1/2/1
f 9/2/1 3/2/1 8/2/1
f 10/2/1 3/2/1 9/2/1
f 11/2/1 6/2/1 5/2/1
f 11/1/1 4/1/1 3/1/1
f 11/2/1 5/2/1 4/2/1
f 12/2/1 6/2/1 11/2/1
f 13/2/1 3/2/1 10/2/1
f 13/1/1 10/1/1 9/1/1
f 14/2/1 3/2/1 13/2/1
f 15/1/1 12/1/1 11/1/1
f 15/2/1 3/2/1 14/2/1
f 15/1/1 11/1/1 3/1/1
f 16/1/1 12/1/1 15/1/1
f 17/1/1 14/1/1 13/1/1
f 17/2/1 9/2/1 8/2/1
f 17/2/1 8/2/1 7/2/1
f 17/1/1 13/1/1 9/1/1
f 18/1/1 14/1/1 17/1/1
f 19/2/1 16/2/1 15/2/1
f 19/1/1 14/1/1 18/1/1
f 19/2/1 15/2/1 14/2/1
f 20/2/1 16/2/1 19/2/1
f 21/2/1 16/2/1 20/2/1
f 22/1/1 12/1/1 16/1/1
f 22/2/1 16/2/1 21/2/1
f 23/2/1 6/2/1 12/2/1
f 23/1/1 12/1/1 22/1/1
f 24/2/1 18/2/1 17/2/1
f 24/1/1 19/1/1 18/1/1
f 24/1/1 20/1/1 19/1/1
f 25/2/1 21/2/1 20/2/1
f 25/1/1 20/1/1 24/1/1
f 26/1/1 22/1/1 21/1/1
f 26/2/1 21/2/1 25/2/1
f 27/2/1 23/2/1 22/2/1
f 27/1/1 22/1/1 26/1/1
f 28/2/1 25/2/1 24/2/1
f 28/2/1 24/2/1 17/2/1
f 28/2/1 27/2/1 26/2/1
f 28/2/1 26/2/1 25/2/1
f 28/2/1 17/2/1 7/2/1
f 29/2/1 27/2/1 28/2/1
f 30/2/1 27/2/1 29/2/1
f 31/2/1 27/2/1 30/2/1
f 32/2/1 23/2/1 27/2/1
f 32/2/1 27/2/1 31/2/1
f 32/2/1 6/2/1 23/2/1
f 33/2/1 6/2/1 32/2/1
f 34/2/1 30/2/1 29/2/1
f 35/1/1 31/1/1 30/1/1
f 35/2/1 30/2/1 34/2/1
f 36/2/1 32/2/1 31/2/1
f 36/1/1 31/1/1 35/1/1
f 37/2/1 32/2/1 36/2/1
f 42/2/1 41/2/1 40/2/1
f 43/2/1 41/2/1 42/2/1
f 44/2/1 39/2/1 38/2/1
f 45/2/1 39/2/1 44/2/1
f 48/2/1 47/2/1 46/2/1
f 49/2/1 47/2/1 48/2/1
f 54/2/1 51/2/1 50/2/1
f 55/2/1 51/2/1 54/2/1
f 62/2/1 53/2/1 52/2/1
f 63/2/1 53/2/1 62/2/1
f 64/2/1 57/2/1 56/2/1
f 65/1/1 58/1/1 57/1/1
f 65/2/1 57/2/1 64/2/1
f 65/1/1 59/1/1 58/1/1
f 66/2/1 61/2/1 60/2/1
f 66/1/1 59/1/1 65/1/1
f 66/2/1 60/2/1 59/2/1
f 67/2/1 61/2/1 66/2/1
f 71/1/1 69/1/1 68/1/1
f 72/2/1 70/2/1 69/2/1
f 72/1/1 69/1/1 71/1/1
f 73/2/1 70/2/1 72/2/1
f 74/2/1 70/2/1 73/2/1
f 76/1/1 73/1/1 72/1/1
f 76/2/1 75/2/1 74/2/1
f 76/2/1 74/2/1 73/2/1
f 77/2/1 75/2/1 76/2/1
f 78/2/1 72/2/1 71/2/1
f 78/1/1 76/1/1 72/1/1
f 78/1/1 77/1/1 76/1/1
f 79/2/1 75/2/1 77/2/1
f 79/1/1 77/1/1 78/1/1
f 80/2/1 78/2/1 71/2/1
f 80/2/1 79/2/1 78/2/1
f 81/2/1 75/2/1 79/2/1
f 81/2/1 79/2/1 80/2/1
f 84/2/1 83/2/1 82/2/1
f 85/2/1 83/2/1 84/2/1
f 88/2/1 87/2/1 86/2/1
f 89/2/1 87/2/1 88/2/1
f 94/2/1 91/2/1 90/2/1
f 95/2/1 91/2/1 94/2/1
f 96/2/1 93/2/1 92/2/1
f 97/2/1 93/2/1 96/2/1
f 100/2/1 99/2/1 98/2/1
f 101/2/1 99/2/1 100/2/1
f 104/2/1 103/2/1 102/2/1
f 105/2/1 103/2/1 104/2/1
f 108/2/1 107/2/1 106/2/1
f 109/2/1 107/2/1 108/2/1
f 112/2/1 111/2/1 110/2/1
f 113/2/1 111/2/1 112/2/1
f 114/2/2 115/2/2 116/2/2
f 116/2/2 115/2/2 117/2/2
f 118/2/2 119/2/2 120/2/2
f 120/2/2 119/2/2 121/2/2
f 122/2/2 123/2/2 124/2/2
f 124/2/2 123/2/2 125/2/2
f 126/2/2 127/2/2 128/2/2
f 128/2/2 127/2/2 129/2/2
f 130/2/2 131/2/2 132/2/2
f 132/2/2 131/2/2 133/2/2
f 134/2/2 135/2/2 136/2/2
f 136/2/2 135/2/2 137/2/2
f 138/2/2 139/2/2 140/2/2
f 140/2/2 139/2/2 141/2/2
f 141/2/2 139/2/2 142/2/2
f 138/2/2 140/2/2 144/2/2
f 140/1/2 141/1/2 144/1/2
f 144/1/2 141/1/2 145/1/2
f 142/2/2 143/2/2 146/2/2
f 145/1/2 141/1/2 146/1/2
f 141/2/2 142/2/2 146/2/2
f 146/2/2 143/2/2 147/2/2
f 144/2/2 145/2/2 148/2/2
f 145/1/2 146/1/2 148/1/2
f 146/1/2 147/1/2 148/1/2
f 147/2/2 143/2/2 149/2/2
f 148/1/2 147/1/2 149/1/2
f 144/2/2 148/2/2 150/2/2
f 138/2/2 144/2/2 150/2/2
f 148/2/2 149/2/2 150/2/2
f 149/2/2 143/2/2 151/2/2
f 150/2/2 149/2/2 151/2/2
f 152/2/2 153/2/2 154/2/2
f 154/2/2 153/2/2 155/2/2
f 156/2/2 157/2/2 158/2/2
f 158/2/2 157/2/2 159/2/2
f 160/2/2 161/2/2 164/2/2
f 164/2/2 161/2/2 165/2/2
f 162/1/2 163/1/2 166/1/2
f 166/1/2 163/1/2 167/1/2
f 170/2/2 171/2/2 172/2/2
f 172/2/2 171/2/2 173/2/2
f 168/2/2 169/2/2 174/2/2
f 174/2/2 169/2/2 175/2/2
f 176/2/2 177/2/2 178/2/2
f 178/2/2 177/2/2 179/2/2
f 180/2/2 181/2/2 184/2/2
f 184/2/2 181/2/2 185/2/2
f 182/1/2 183/1/2 188/1/2
f 188/1/2 183/1/2 189/1/2
f 186/2/2 187/2/2 190/2/2
f 190/2/2 187/2/2 191/2/2
f 192/2/2 193/2/2 196/2/2
f 193/1/2 194/1/2 197/1/2
f 196/2/2 193/2/2 197/2/2
f 194/2/2 195/2/2 198/2/2
f 192/2/2 196/2/2 201/2/2
f 201/2/2 196/2/2 202/2/2
f 196/1/2 197/1/2 203/1/2
f 202/2/2 196/2/2 203/2/2
f 197/1/2 194/1/2 204/1/2
f 203/1/2 197/1/2 204/1/2
f 198/2/2 199/2/2 205/2/2
f 204/1/2 194/1/2 205/1/2
f 194/2/2 198/2/2 205/2/2
f 202/1/2 203/1/2 206/1/2
f 203/1/2 204/1/2 206/1/2
f 204/2/2 205/2/2 207/2/2
f 206/1/2 204/1/2 207/1/2
f 202/1/2 206/1/2 208/1/2
f 206/2/2 207/2/2 208/2/2
f 205/2/2 199/2/2 209/2/2
f 208/2/2 207/2/2 209/2/2
f 207/2/2 205/2/2 209/2/2
f 202/1/2 208/1/2 210/1/2
f 201/2/2 202/2/2 210/2/2
f 208/1/2 209/1/2 210/1/2
f 200/2/2 201/2/2 210/2/2
f 210/1/2 209/1/2 211/1/2
f 200/2/2 210/2/2 212/2/2
f 210/2/2 211/2/2 212/2/2
f 212/2/2 211/2/2 213/2/2
f 211/1/2 209/1/2 214/1/2
f 213/2/2 211/2/2 214/2/2
f 209/2/2 199/2/2 215/2/2
f 214/1/2 209/1/2 215/1/2
f 215/2/2 199/2/2 216/2/2
f 216/2/2 199/2/2 217/2/2
f 213/2/2 214/2/2 218/2/2
f 215/2/2 216/2/2 218/2/2
f 214/2/2 215/2/2 218/2/2
f 218/2/2 216/2/2 219/2/2
f 223/2/3 221/2/3 220/2/3
f 224/2/3 221/2/3 223/2/3
f 228/2/3 223/2/3 222/2/3
f 228/2/3 224/2/3 223/2/3
f 228/2/3 225/2/3 224/2/3
f 229/2/3 225/2/3 228/2/3
f 230/2/3 225/2/3 229/2/3
f 231/1/3 227/1/3 226/1/3
f 232/2/3 228/2/3 227/2/3
f 232/1/3 227/1/3 231/1/3
f 232/2/3 229/2/3 228/2/3
f 233/2/3 229/2/3 232/2/3
f 234/2/3 229/2/3 233/2/3
f 235/2/3 232/2/3 231/2/3
f 235/2/3 233/2/3 232/2/3
f 236/1/3 234/1/3 233/1/3
f 236/2/3 233/2/3 235/2/3
f 237/2/3 229/2/3 234/2/3
f 237/1/3 234/1/3 236/1/3
f 238/2/3 229/2/3 237/2/3
f 239/1/3 236/1/3 235/1/3
f 239/2/3 235/2/3 231/2/3
f 239/1/3 238/1/3 237/1/3
f 239/1/3 237/1/3 236/1/3
f 240/1/3 238/1/3 239/1/3
f 241/1/3 238/1/3 240/1/3
f 242/2/3 229/2/3 238/2/3
f 242/1/3 238/1/3 241/1/3
f 243/2/3 229/2/3 242/2/3
f 244/2/3 225/2/3 230/2/3
f 245/2/3 225/2/3 244/2/3
f 246/2/3 225/2/3 245/2/3
f 247/2/3 239/2/3 231/2/3
f 247/2/3 240/2/3 239/2/3
f 248/1/3 241/1/3 240/1/3
f 248/2/3 240/2/3 247/2/3
f 249/2/3 243/2/3 242/2/3
f 249/1/3 241/1/3 248/1/3
f 249/2/3 242/2/3 241/2/3
f 249/2/3 245/2/3 244/2/3
f 249/2/3 244/2/3 243/2/3
f 250/2/3 245/2/3 249/2/3
f 251/2/3 245/2/3 250/2/3
f 252/2/3 245/2/3 251/2/3
f 253/1/3 246/1/3 245/1/3
f 253/2/3 245/2/3 252/2/3
f 254/1/3 246/1/3 253/1/3
f 255/1/3 248/1/3 247/1/3
f 255/2/3 247/2/3 231/2/3
f 255/1/3 249/1/3 248/1/3
f 255/1/3 250/1/3 249/1/3
f 256/1/3 250/1/3 255/1/3
f 257/1/3 250/1/3 256/1/3
f 258/2/3 251/2/3 250/2/3
f 258/1/3 250/1/3 257/1/3
f 259/2/3 254/2/3 253/2/3
f 259/2/3 253/2/3 252/2/3
f 260/2/3 254/2/3 259/2/3
f 261/1/3 257/1/3 256/1/3
f 261/2/3 256/2/3 255/2/3
f 262/2/3 258/2/3 257/2/3
f 262/1/3 257/1/3 261/1/3
f 263/2/3 254/2/3 260/2/3
f 264/2/3 254/2/3 263/2/3
f 265/2/3 261/2/3 255/2/3
f 265/2/3 255/2/3 231/2/3
f 265/2/3 262/2/3 261/2/3
f 266/2/3 251/2/3 258/2/3
f 266/2/3 262/2/3 265/2/3
f 266/2/3 258/2/3 262/2/3
f 267/2/3 251/2/3 266/2/3
f 268/2/3 254/2/3 264/2/3
f 269/2/3 267/2/3 266/2/3
f 269/2/3 268/2/3 267/2/3
f 270/2/3 268/2/3 269/2/3
f 271/2/3 254/2/3 268/2/3
f 271/2/3 268/2/3 270/2/3
f 272/2/3 254/2/3 271/2/3
f 273/2/3 271/2/3 270/2/3
f 274/2/3 271/2/3 273/2/3
f 279/2/3 276/2/3 275/2/3
f 280/2/3 276/2/3 279/2/3
f 281/2/3 278/2/3 277/2/3
f 282/2/3 278/2/3 281/2/3
f 287/1/3 284/1/3 283/1/3
f 288/1/3 284/1/3 287/1/3
f 289/2/3 286/2/3 285/2/3
f 290/2/3 286/2/3 289/2/3
f 291/2/3 286/2/3 290/2/3
f 294/1/3 291/1/3 290/1/3
f 295/1/3 293/1/3 292/1/3
f 297/1/3 291/1/3 294/1/3
f 298/1/3 291/1/3 297/1/3
f 299/1/3 296/1/3 295/1/3
f 301/1/3 295/1/3 292/1/3
f 301/1/3 300/1/3 299/1/3
f 301/1/3 299/1/3 295/1/3
f 302/1/3 300/1/3 301/1/3
f 303/2/3 298/2/3 297/2/3
f 304/2/3 298/2/3 303/2/3
f 309/2/3 306/2/3 305/2/3
f 310/2/3 306/2/3 309/2/3
f 311/2/3 308/2/3 307/2/3
f 312/2/3 308/2/3 311/2/3
f 315/2/3 314/2/3 313/2/3
f 316/2/3 314/2/3 315/2/3
f 319/2/3 318/2/3 317/2/3
f 320/2/3 318/2/3 319/2/3
f 321/2/4 322/2/4 323/2/4
f 323/2/4 322/2/4 324/2/4
f 325/2/4 326/2/4 327/2/4
f 327/2/4 326/2/4 328/2/4
f 329/2/4 330/2/4 332/2/4
f 332/2/4 330/2/4 333/2/4
f 333/2/4 330/2/4 334/2/4
f 331/2/4 332/2/4 335/2/4
f 332/1/4 333/1/4 335/1/4
f 335/1/4 333/1/4 336/1/4
f 336/1/4 333/1/4 337/1/4
f 335/2/4 336/2/4 338/2/4
f 336/1/4 337/1/4 338/1/4
f 338/1/4 337/1/4 339/1/4
f 331/2/4 335/2/4 340/2/4
f 335/2/4 338/2/4 340/2/4
f 338/2/4 339/2/4 340/2/4
f 340/2/4 339/2/4 341/2/4
f 341/2/4 339/2/4 342/2/4
f 341/2/4 342/2/4 344/2/4
f 342/2/4 343/2/4 344/2/4
f 344/2/4 343/2/4 345/2/4
f 346/2/4 347/2/4 348/2/4
f 348/2/4 347/2/4 349/2/4
f 350/2/4 351/2/4 352/2/4
f 352/2/4 351/2/4 353/2/4
f 352/1/4 353/1/4 354/1/4
f 354/1/4 353/1/4 355/1/4
f 354/2/4 355/2/4 356/2/4
f 356/2/4 355/2/4 357/2/4
f 358/2/4 359/2/4 360/2/4
f 360/2/4 359/2/4 361/2/4
f 362/2/4 363/2/4 366/2/4
f 366/2/4 363/2/4 367/2/4
f 364/2/4 365/2/4 368/2/4
f 368/2/4 365/2/4 369/2/4
f 370/2/4 371/2/4 372/2/4
f 372/2/4 371/2/4 373/2/4
f 372/1/4 373/1/4 374/1/4
f 374/1/4 373/1/4 375/1/4
f 376/2/4 377/2/4 380/2/4
f 380/2/4 377/2/4 381/2/4
f 378/2/4 379/2/4 382/2/4
f 382/2/4 379/2/4 383/2/4
f 384/2/4 385/2/4 387/2/4
f 387/2/4 385/2/4 388/2/4
f 388/2/4 385/2/4 389/2/4
f 389/2/4 385/2/4 390/2/4
f 386/2/4 387/2/4 392/2/4
f 387/2/4 388/2/4 392/2/4
f 392/2/4 388/2/4 393/2/4
f 390/2/4 391/2/4 394/2/4
f 389/2/4 390/2/4 394/2/4
f 394/2/4 391/2/4 395/2/4
f 395/2/4 391/2/4 396/2/4
f 396/2/4 391/2/4 397/2/4
f 386/2/4 392/2/4 398/2/4
f 397/2/4 391/2/4 401/2/4
f 401/2/4 391/2/4 402/2/4
f 398/2/4 399/2/4 403/2/4
f 386/2/4 398/2/4 403/2/4
f 403/2/4 399/2/4 404/2/4
f 404/2/4 399/2/4 405/2/4
f 400/2/4 401/2/4 406/2/4
f 401/1/4 402/1/4 407/1/4
f 406/2/4 401/2/4 407/2/4
f 407/1/4 402/1/4 408/1/4
f 405/2/4 406/2/4 409/2/4
f 404/2/4 405/2/4 409/2/4
f 406/2/4 407/2/4 409/2/4
f 409/2/4 407/2/4 410/2/4
f 411/2/4 412/2/4 414/2/4
f 414/2/4 412/2/4 415/2/4
f 413/2/4 414/2/4 417/2/4
f 415/2/4 416/2/4 417/2/4
f 414/2/4 415/2/4 417/2/4
f 417/2/4 416/2/4 418/2/4
f 413/2/4 417/2/4 419/2/4
f 417/1/4 418/1/4 419/1/4
f 418/2/4 416/2/4 420/2/4
f 419/1/4 418/1/4 420/1/4
f 420/2/4 416/2/4 421/2/4
f 419/2/4 420/2/4 422/2/4
f 420/1/4 421/1/4 422/1/4
f 422/1/4 421/1/4 423/1/4
f 422/2/4 423/2/4 424/2/4
f 423/1/4 421/1/4 424/1/4
f 421/2/4 416/2/4 425/2/4
f 424/1/4 421/1/4 425/1/4
f 425/2/4 416/2/4 426/2/4
f 426/2/4 416/2/4 427/2/4
f 424/2/4 425/2/4 428/2/4
f 425/2/4 426/2/4 428/2/4
f 426/1/4 427/1/4 429/1/4
f 428/2/4 426/2/4 429/2/4
f 424/2/4 428/2/4 430/2/4
f 428/1/4 429/1/4 430/1/4
f 429/1/4 427/1/4 431/1/4
f 430/1/4 429/1/4 431/1/4
f 413/2/4 419/2/4 432/2/4
f 422/2/4 424/2/4 432/2/4
f 430/2/4 431/2/4 432/2/4
f 424/2/4 430/2/4 432/2/4
f 419/2/4 422/2/4 432/2/4
f 432/2/4 431/2/4 433/2/4
f 433/2/4 431/2/4 434/2/4
f 434/2/4 431/2/4 435/2/4
f 433/2/4 434/2/4 436/2/4
f 436/2/4 434/2/4 437/2/4
f 441/1/5 439/1/5 438/1/5
f 442/2/5 440/2/5 439/2/5
f 442/1/5 439/1/5 441/1/5
f 443/2/5 442/2/5 441/2/5
f 444/2/5 440/2/5 442/2/5
f 444/2/5 442/2/5 443/2/5
f 445/2/5 440/2/5 444/2/5
f 446/2/5 440/2/5 445/2/5
f 447/2/5 445/2/5 444/2/5
f 448/2/5 445/2/5 447/2/5
f 453/2/5 450/2/5 449/2/5
f 454/2/5 450/2/5 453/2/5
f 455/2/5 452/2/5 451/2/5
f 456/2/5 452/2/5 455/2/5
f 461/2/5 458/2/5 457/2/5
f 462/1/5 459/1/5 458/1/5
f 462/2/5 458/2/5 461/2/5
f 463/2/5 460/2/5 459/2/5
f 463/1/5 459/1/5 462/1/5
f 464/2/5 460/2/5 463/2/5
f 470/2/5 466/2/5 465/2/5
f 471/2/5 468/2/5 467/2/5
f 473/2/5 471/2/5 467/2/5
f 473/2/5 472/2/5 471/2/5
f 474/2/5 472/2/5 473/2/5
f 475/2/5 473/2/5 467/2/5
f 475/1/5 474/1/5 473/1/5
f 476/1/5 474/1/5 475/1/5
f 477/2/5 470/2/5 469/2/5
f 477/2/5 466/2/5 470/2/5
f 480/2/5 476/2/5 475/2/5
f 480/2/5 475/2/5 467/2/5
f 481/2/5 478/2/5 477/2/5
f 484/2/5 480/2/5 479/2/5
f 485/2/5 483/2/5 482/2/5
f 485/2/5 484/2/5 483/2/5
f 485/2/5 477/2/5 469/2/5
f 485/2/5 481/2/5 477/2/5
f 485/2/5 482/2/5 481/2/5
f 486/2/5 484/2/5 485/2/5
f 487/2/5 480/2/5 484/2/5
f 487/2/5 484/2/5 486/2/5
f 487/2/5 476/2/5 480/2/5
f 488/2/5 476/2/5 487/2/5
f 489/2/5 487/2/5 486/2/5
f 490/2/5 487/2/5 489/2/5
f 495/2/5 492/2/5 491/2/5
f 496/2/5 492/2/5 495/2/5
f 499/2/5 494/2/5 493/2/5
f 500/2/5 494/2/5 499/2/5
f 501/2/5 498/2/5 497/2/5
f 502/2/5 498/2/5 501/2/5
f 507/2/5 504/2/5 503/2/5
f 508/2/5 504/2/5 507/2/5
f 509/2/5 506/2/5 505/2/5
f 510/2/5 506/2/5 509/2/5
f 515/2/5 512/2/5 511/2/5
f 516/2/5 512/2/5 515/2/5
f 517/2/5 514/2/5 513/2/5
f 518/2/5 514/2/5 517/2/5
f 521/2/5 520/2/5 519/2/5
f 522/2/5 520/2/5 521/2/5
f 525/2/5 524/2/5 523/2/5
f 526/2/5 524/2/5 525/2/5
f 531/2/5 528/2/5 527/2/5
f 532/2/5 528/2/5 531/2/5
f 533/2/5 530/2/5 529/2/5
f 534/2/5 530/2/5 533/2/5
f 535/2/6 536/2/6 539/2/6
f 539/2/6 536/2/6 540/2/6
f 537/2/6 538/2/6 541/2/6
f 541/2/6 538/2/6 542/2/6
f 543/2/6 544/2/6 547/2/6
f 547/2/6 544/2/6 548/2/6
f 545/2/6 546/2/6 549/2/6
f 549/2/6 546/2/6 550/2/6
f 551/2/6 552/2/6 555/2/6
f 555/2/6 552/2/6 556/2/6
f 553/2/6 554/2/6 557/2/6
f 557/2/6 554/2/6 558/2/6
f 559/2/6 560/2/6 563/2/6
f 563/2/6 560/2/6 564/2/6
f 561/2/6 562/2/6 569/2/6
f 569/2/6 562/2/6 570/2/6
f 565/2/6 566/2/6 571/2/6
f 566/1/6 567/1/6 572/1/6
f 571/2/6 566/2/6 572/2/6
f 567/2/6 568/2/6 573/2/6
f 572/1/6 567/1/6 573/1/6
f 573/2/6 568/2/6 574/2/6
f 575/2/6 576/2/6 580/2/6
f 580/2/6 576/2/6 581/2/6
f 576/1/6 577/1/6 582/1/6
f 581/2/6 576/2/6 582/2/6
f 582/1/6 577/1/6 583/1/6
f 577/2/6 578/2/6 584/2/6
f 583/1/6 577/1/6 584/1/6
f 584/2/6 578/2/6 585/2/6
f 585/2/6 578/2/6 586/2/6
f 586/2/6 578/2/6 587/2/6
f 580/2/6 581/2/6 589/2/6
f 579/2/6 580/2/6 589/2/6
f 589/2/6 581/2/6 590/2/6
f 587/2/6 588/2/6 591/2/6
f 586/2/6 587/2/6 591/2/6
f 591/2/6 588/2/6 592/2/6
f 579/2/6 589/2/6 593/2/6
f 579/2/6 593/2/6 594/2/6
f 594/2/6 593/2/6 595/2/6
f 594/1/6 595/1/6 596/1/6
f 594/1/6 596/1/6 597/1/6
f 597/1/6 596/1/6 598/1/6
f 597/2/6 598/2/6 599/2/6
f 592/2/6 588/2/6 602/2/6
f 599/2/6 600/2/6 603/2/6
f 597/2/6 599/2/6 603/2/6
f 603/2/6 600/2/6 604/2/6
f 604/2/6 600/2/6 605/2/6
f 601/2/6 602/2/6 607/2/6
f 602/2/6 588/2/6 608/2/6
f 607/2/6 602/2/6 608/2/6
f 608/2/6 588/2/6 609/2/6
f 605/2/6 606/2/6 610/2/6
f 606/2/6 607/2/6 610/2/6
f 604/2/6 605/2/6 610/2/6
f 607/1/6 608/1/6 611/1/6
f 610/2/6 607/2/6 611/2/6
f 611/1/6 608/1/6 612/1/6
f 613/2/6 614/2/6 618/2/6
f 615/2/6 616/2/6 619/2/6
f 614/1/6 615/1/6 619/1/6
f 619/2/6 616/2/6 620/2/6
f 620/2/6 616/2/6 621/2/6
f 617/2/6 618/2/6 623/2/6
f 618/2/6 614/2/6 623/2/6
f 614/1/6 619/1/6 623/1/6
f 619/1/6 620/1/6 623/1/6
f 621/2/6 622/2/6 624/2/6
f 623/1/6 620/1/6 624/1/6
f 620/2/6 621/2/6 624/2/6
f 617/2/6 623/2/6 625/2/6
f 623/2/6 624/2/6 625/2/6
f 625/2/6 624/2/6 626/2/6
f 625/1/6 626/1/6 627/1/6
f 626/2/6 624/2/6 628/2/6
f 627/1/6 626/1/6 628/1/6
f 627/2/6 628/2/6 629/2/6
f 628/2/6 624/2/6 630/2/6
f 629/2/6 628/2/6 630/2/6
f 630/2/6 624/2/6 631/2/6
f 624/2/6 622/2/6 632/2/6
f 631/2/6 624/2/6 632/2/6
f 632/2/6 622/2/6 633/2/6
f 630/2/6 631/2/6 634/2/6
f 631/1/6 632/1/6 635/1/6
f 634/2/6 631/2/6 635/2/6
f 635/1/6 632/1/6 636/1/6
