# MagicaVoxel @ Ephtracy

# group
g BarrelGreen

# material
mtllib BarrelGreen.mtl
usemtl palette

# normals
vn -1 0 0
vn 1 0 0
vn 0 0 1
vn 0 0 -1
vn 0 -1 0
vn 0 1 0

# texcoords
vt 0.0175781 0.5
vt 0.0214844 0.5
vt 0.0253906 0.5
vt 0.142578 0.5
vt 0.146484 0.5

# verts
v -7.5 0 2.5
v -7.5 0 -2.5
v -7.5 3 2.5
v -7.5 3 -2.5
v -7.5 4 2.5
v -7.5 4 -2.5
v -7.5 9 2.5
v -7.5 9 -2.5
v -7.5 10 2.5
v -7.5 10 -2.5
v -7.5 13 2.5
v -7.5 13 -2.5
v -6.5 0 4.5
v -6.5 0 2.5
v -6.5 0 -2.5
v -6.5 0 -4.5
v -6.5 3 4.5
v -6.5 3 2.5
v -6.5 3 -2.5
v -6.5 3 -4.5
v -6.5 4 4.5
v -6.5 4 2.5
v -6.5 4 -2.5
v -6.5 4 -4.5
v -6.5 9 4.5
v -6.5 9 2.5
v -6.5 9 -2.5
v -6.5 9 -4.5
v -6.5 10 4.5
v -6.5 10 2.5
v -6.5 10 -2.5
v -6.5 10 -4.5
v -6.5 13 4.5
v -6.5 13 2.5
v -6.5 13 -2.5
v -6.5 13 -4.5
v -5.5 0 5.5
v -5.5 0 4.5
v -5.5 0 -4.5
v -5.5 0 -5.5
v -5.5 3 5.5
v -5.5 3 4.5
v -5.5 3 -4.5
v -5.5 3 -5.5
v -5.5 4 5.5
v -5.5 4 4.5
v -5.5 4 -4.5
v -5.5 4 -5.5
v -5.5 9 5.5
v -5.5 9 4.5
v -5.5 9 -4.5
v -5.5 9 -5.5
v -5.5 10 5.5
v -5.5 10 4.5
v -5.5 10 -4.5
v -5.5 10 -5.5
v -5.5 13 5.5
v -5.5 13 4.5
v -5.5 13 -4.5
v -5.5 13 -5.5
v -4.5 0 6.5
v -4.5 0 5.5
v -4.5 0 -5.5
v -4.5 0 -6.5
v -4.5 3 6.5
v -4.5 3 5.5
v -4.5 3 -5.5
v -4.5 3 -6.5
v -4.5 4 6.5
v -4.5 4 5.5
v -4.5 4 -5.5
v -4.5 4 -6.5
v -4.5 9 6.5
v -4.5 9 5.5
v -4.5 9 -5.5
v -4.5 9 -6.5
v -4.5 10 6.5
v -4.5 10 5.5
v -4.5 10 -5.5
v -4.5 10 -6.5
v -4.5 13 6.5
v -4.5 13 5.5
v -4.5 13 -5.5
v -4.5 13 -6.5
v -2.5 0 7.5
v -2.5 0 6.5
v -2.5 0 -6.5
v -2.5 0 -7.5
v -2.5 3 7.5
v -2.5 3 6.5
v -2.5 3 -6.5
v -2.5 3 -7.5
v -2.5 4 7.5
v -2.5 4 6.5
v -2.5 4 -6.5
v -2.5 4 -7.5
v -2.5 9 7.5
v -2.5 9 6.5
v -2.5 9 -6.5
v -2.5 9 -7.5
v -2.5 10 7.5
v -2.5 10 6.5
v -2.5 10 -6.5
v -2.5 10 -7.5
v -2.5 13 7.5
v -2.5 13 6.5
v -2.5 13 4.5
v -2.5 13 2.5
v -2.5 13 -6.5
v -2.5 13 -7.5
v -2.5 14 4.5
v -2.5 14 2.5
v 0.5 13 4.5
v 0.5 13 2.5
v 0.5 14 4.5
v 0.5 14 2.5
v 2.5 0 7.5
v 2.5 0 6.5
v 2.5 0 -6.5
v 2.5 0 -7.5
v 2.5 3 7.5
v 2.5 3 6.5
v 2.5 3 -6.5
v 2.5 3 -7.5
v 2.5 4 7.5
v 2.5 4 6.5
v 2.5 4 -6.5
v 2.5 4 -7.5
v 2.5 9 7.5
v 2.5 9 6.5
v 2.5 9 -6.5
v 2.5 9 -7.5
v 2.5 10 7.5
v 2.5 10 6.5
v 2.5 10 -6.5
v 2.5 10 -7.5
v 2.5 13 7.5
v 2.5 13 6.5
v 2.5 13 -6.5
v 2.5 13 -7.5
v 4.5 0 6.5
v 4.5 0 5.5
v 4.5 0 -5.5
v 4.5 0 -6.5
v 4.5 3 6.5
v 4.5 3 5.5
v 4.5 3 -5.5
v 4.5 3 -6.5
v 4.5 4 6.5
v 4.5 4 5.5
v 4.5 4 -5.5
v 4.5 4 -6.5
v 4.5 9 6.5
v 4.5 9 5.5
v 4.5 9 -5.5
v 4.5 9 -6.5
v 4.5 10 6.5
v 4.5 10 5.5
v 4.5 10 -5.5
v 4.5 10 -6.5
v 4.5 13 6.5
v 4.5 13 5.5
v 4.5 13 -5.5
v 4.5 13 -6.5
v 5.5 0 5.5
v 5.5 0 4.5
v 5.5 0 -4.5
v 5.5 0 -5.5
v 5.5 3 5.5
v 5.5 3 4.5
v 5.5 3 -4.5
v 5.5 3 -5.5
v 5.5 4 5.5
v 5.5 4 4.5
v 5.5 4 -4.5
v 5.5 4 -5.5
v 5.5 9 5.5
v 5.5 9 4.5
v 5.5 9 -4.5
v 5.5 9 -5.5
v 5.5 10 5.5
v 5.5 10 4.5
v 5.5 10 -4.5
v 5.5 10 -5.5
v 5.5 13 5.5
v 5.5 13 4.5
v 5.5 13 -4.5
v 5.5 13 -5.5
v 6.5 0 4.5
v 6.5 0 2.5
v 6.5 0 -2.5
v 6.5 0 -4.5
v 6.5 3 4.5
v 6.5 3 2.5
v 6.5 3 -2.5
v 6.5 3 -4.5
v 6.5 4 4.5
v 6.5 4 2.5
v 6.5 4 -2.5
v 6.5 4 -4.5
v 6.5 9 4.5
v 6.5 9 2.5
v 6.5 9 -2.5
v 6.5 9 -4.5
v 6.5 10 4.5
v 6.5 10 2.5
v 6.5 10 -2.5
v 6.5 10 -4.5
v 6.5 13 4.5
v 6.5 13 2.5
v 6.5 13 -2.5
v 6.5 13 -4.5
v 7.5 0 2.5
v 7.5 0 -2.5
v 7.5 3 2.5
v 7.5 3 -2.5
v 7.5 4 2.5
v 7.5 4 -2.5
v 7.5 9 2.5
v 7.5 9 -2.5
v 7.5 10 2.5
v 7.5 10 -2.5
v 7.5 13 2.5
v 7.5 13 -2.5
v -2.5 0 7.5
v -2.5 3 7.5
v -2.5 4 7.5
v -2.5 9 7.5
v -2.5 10 7.5
v -2.5 13 7.5
v 2.5 0 7.5
v 2.5 3 7.5
v 2.5 4 7.5
v 2.5 9 7.5
v 2.5 10 7.5
v 2.5 13 7.5
v -4.5 0 6.5
v -4.5 3 6.5
v -4.5 4 6.5
v -4.5 9 6.5
v -4.5 10 6.5
v -4.5 13 6.5
v -2.5 0 6.5
v -2.5 3 6.5
v -2.5 4 6.5
v -2.5 9 6.5
v -2.5 10 6.5
v -2.5 13 6.5
v 2.5 0 6.5
v 2.5 3 6.5
v 2.5 4 6.5
v 2.5 9 6.5
v 2.5 10 6.5
v 2.5 13 6.5
v 4.5 0 6.5
v 4.5 3 6.5
v 4.5 4 6.5
v 4.5 9 6.5
v 4.5 10 6.5
v 4.5 13 6.5
v -5.5 0 5.5
v -5.5 3 5.5
v -5.5 4 5.5
v -5.5 9 5.5
v -5.5 10 5.5
v -5.5 13 5.5
v -4.5 0 5.5
v -4.5 3 5.5
v -4.5 4 5.5
v -4.5 9 5.5
v -4.5 10 5.5
v -4.5 13 5.5
v 4.5 0 5.5
v 4.5 3 5.5
v 4.5 4 5.5
v 4.5 9 5.5
v 4.5 10 5.5
v 4.5 13 5.5
v 5.5 0 5.5
v 5.5 3 5.5
v 5.5 4 5.5
v 5.5 9 5.5
v 5.5 10 5.5
v 5.5 13 5.5
v -6.5 0 4.5
v -6.5 3 4.5
v -6.5 4 4.5
v -6.5 9 4.5
v -6.5 10 4.5
v -6.5 13 4.5
v -5.5 0 4.5
v -5.5 3 4.5
v -5.5 4 4.5
v -5.5 9 4.5
v -5.5 10 4.5
v -5.5 13 4.5
v -2.5 13 4.5
v -2.5 14 4.5
v 0.5 13 4.5
v 0.5 14 4.5
v 5.5 0 4.5
v 5.5 3 4.5
v 5.5 4 4.5
v 5.5 9 4.5
v 5.5 10 4.5
v 5.5 13 4.5
v 6.5 0 4.5
v 6.5 3 4.5
v 6.5 4 4.5
v 6.5 9 4.5
v 6.5 10 4.5
v 6.5 13 4.5
v -7.5 0 2.5
v -7.5 3 2.5
v -7.5 4 2.5
v -7.5 9 2.5
v -7.5 10 2.5
v -7.5 13 2.5
v -6.5 0 2.5
v -6.5 3 2.5
v -6.5 4 2.5
v -6.5 9 2.5
v -6.5 10 2.5
v -6.5 13 2.5
v 6.5 0 2.5
v 6.5 3 2.5
v 6.5 4 2.5
v 6.5 9 2.5
v 6.5 10 2.5
v 6.5 13 2.5
v 7.5 0 2.5
v 7.5 3 2.5
v 7.5 4 2.5
v 7.5 9 2.5
v 7.5 10 2.5
v 7.5 13 2.5
v -2.5 13 2.5
v -2.5 14 2.5
v 0.5 13 2.5
v 0.5 14 2.5
v -7.5 0 -2.5
v -7.5 3 -2.5
v -7.5 4 -2.5
v -7.5 9 -2.5
v -7.5 10 -2.5
v -7.5 13 -2.5
v -6.5 0 -2.5
v -6.5 3 -2.5
v -6.5 4 -2.5
v -6.5 9 -2.5
v -6.5 10 -2.5
v -6.5 13 -2.5
v 6.5 0 -2.5
v 6.5 3 -2.5
v 6.5 4 -2.5
v 6.5 9 -2.5
v 6.5 10 -2.5
v 6.5 13 -2.5
v 7.5 0 -2.5
v 7.5 3 -2.5
v 7.5 4 -2.5
v 7.5 9 -2.5
v 7.5 10 -2.5
v 7.5 13 -2.5
v -6.5 0 -4.5
v -6.5 3 -4.5
v -6.5 4 -4.5
v -6.5 9 -4.5
v -6.5 10 -4.5
v -6.5 13 -4.5
v -5.5 0 -4.5
v -5.5 3 -4.5
v -5.5 4 -4.5
v -5.5 9 -4.5
v -5.5 10 -4.5
v -5.5 13 -4.5
v 5.5 0 -4.5
v 5.5 3 -4.5
v 5.5 4 -4.5
v 5.5 9 -4.5
v 5.5 10 -4.5
v 5.5 13 -4.5
v 6.5 0 -4.5
v 6.5 3 -4.5
v 6.5 4 -4.5
v 6.5 9 -4.5
v 6.5 10 -4.5
v 6.5 13 -4.5
v -5.5 0 -5.5
v -5.5 3 -5.5
v -5.5 4 -5.5
v -5.5 9 -5.5
v -5.5 10 -5.5
v -5.5 13 -5.5
v -4.5 0 -5.5
v -4.5 3 -5.5
v -4.5 4 -5.5
v -4.5 9 -5.5
v -4.5 10 -5.5
v -4.5 13 -5.5
v 4.5 0 -5.5
v 4.5 3 -5.5
v 4.5 4 -5.5
v 4.5 9 -5.5
v 4.5 10 -5.5
v 4.5 13 -5.5
v 5.5 0 -5.5
v 5.5 3 -5.5
v 5.5 4 -5.5
v 5.5 9 -5.5
v 5.5 10 -5.5
v 5.5 13 -5.5
v -4.5 0 -6.5
v -4.5 3 -6.5
v -4.5 4 -6.5
v -4.5 9 -6.5
v -4.5 10 -6.5
v -4.5 13 -6.5
v -2.5 0 -6.5
v -2.5 3 -6.5
v -2.5 4 -6.5
v -2.5 9 -6.5
v -2.5 10 -6.5
v -2.5 13 -6.5
v 2.5 0 -6.5
v 2.5 3 -6.5
v 2.5 4 -6.5
v 2.5 9 -6.5
v 2.5 10 -6.5
v 2.5 13 -6.5
v 4.5 0 -6.5
v 4.5 3 -6.5
v 4.5 4 -6.5
v 4.5 9 -6.5
v 4.5 10 -6.5
v 4.5 13 -6.5
v -2.5 0 -7.5
v -2.5 3 -7.5
v -2.5 4 -7.5
v -2.5 9 -7.5
v -2.5 10 -7.5
v -2.5 13 -7.5
v 2.5 0 -7.5
v 2.5 3 -7.5
v 2.5 4 -7.5
v 2.5 9 -7.5
v 2.5 10 -7.5
v 2.5 13 -7.5
v -2.5 0 7.5
v 2.5 0 7.5
v -4.5 0 6.5
v -2.5 0 6.5
v 2.5 0 6.5
v 4.5 0 6.5
v -5.5 0 5.5
v -4.5 0 5.5
v -2.5 0 5.5
v 2.5 0 5.5
v 4.5 0 5.5
v 5.5 0 5.5
v -6.5 0 4.5
v -5.5 0 4.5
v -4.5 0 4.5
v 4.5 0 4.5
v 5.5 0 4.5
v 6.5 0 4.5
v -7.5 0 2.5
v -6.5 0 2.5
v -5.5 0 2.5
v 5.5 0 2.5
v 6.5 0 2.5
v 7.5 0 2.5
v -7.5 0 -2.5
v -6.5 0 -2.5
v -5.5 0 -2.5
v 5.5 0 -2.5
v 6.5 0 -2.5
v 7.5 0 -2.5
v -6.5 0 -4.5
v -5.5 0 -4.5
v -4.5 0 -4.5
v 4.5 0 -4.5
v 5.5 0 -4.5
v 6.5 0 -4.5
v -5.5 0 -5.5
v -4.5 0 -5.5
v -2.5 0 -5.5
v 2.5 0 -5.5
v 4.5 0 -5.5
v 5.5 0 -5.5
v -4.5 0 -6.5
v -2.5 0 -6.5
v 2.5 0 -6.5
v 4.5 0 -6.5
v -2.5 0 -7.5
v 2.5 0 -7.5
v -2.5 13 7.5
v 2.5 13 7.5
v -4.5 13 6.5
v -2.5 13 6.5
v 2.5 13 6.5
v 4.5 13 6.5
v -5.5 13 5.5
v -4.5 13 5.5
v -2.5 13 5.5
v 2.5 13 5.5
v 4.5 13 5.5
v 5.5 13 5.5
v -6.5 13 4.5
v -5.5 13 4.5
v -4.5 13 4.5
v -2.5 13 4.5
v 0.5 13 4.5
v 4.5 13 4.5
v 5.5 13 4.5
v 6.5 13 4.5
v -7.5 13 2.5
v -6.5 13 2.5
v -5.5 13 2.5
v -2.5 13 2.5
v 0.5 13 2.5
v 5.5 13 2.5
v 6.5 13 2.5
v 7.5 13 2.5
v 3.5 13 1.5
v 4.5 13 1.5
v 3.5 13 0.5
v 4.5 13 0.5
v 3.5 13 -0.5
v 4.5 13 -0.5
v -3.5 13 -1.5
v -2.5 13 -1.5
v -1.5 13 -1.5
v -7.5 13 -2.5
v -6.5 13 -2.5
v -5.5 13 -2.5
v -3.5 13 -2.5
v -2.5 13 -2.5
v 5.5 13 -2.5
v 6.5 13 -2.5
v 7.5 13 -2.5
v -3.5 13 -3.5
v -1.5 13 -3.5
v -6.5 13 -4.5
v -5.5 13 -4.5
v -4.5 13 -4.5
v 4.5 13 -4.5
v 5.5 13 -4.5
v 6.5 13 -4.5
v -5.5 13 -5.5
v -4.5 13 -5.5
v -2.5 13 -5.5
v 2.5 13 -5.5
v 4.5 13 -5.5
v 5.5 13 -5.5
v -4.5 13 -6.5
v -2.5 13 -6.5
v 2.5 13 -6.5
v 4.5 13 -6.5
v -2.5 13 -7.5
v 2.5 13 -7.5
v -2.5 14 4.5
v 0.5 14 4.5
v -2.5 14 2.5
v 0.5 14 2.5

# faces
f 3/5/1 2/5/1 1/5/1
f 4/5/1 2/5/1 3/5/1
f 5/4/1 4/4/1 3/4/1
f 6/4/1 4/4/1 5/4/1
f 7/5/1 6/5/1 5/5/1
f 8/5/1 6/5/1 7/5/1
f 9/4/1 8/4/1 7/4/1
f 10/4/1 8/4/1 9/4/1
f 11/5/1 10/5/1 9/5/1
f 12/5/1 10/5/1 11/5/1
f 17/5/1 14/5/1 13/5/1
f 18/5/1 14/5/1 17/5/1
f 19/5/1 16/5/1 15/5/1
f 20/5/1 16/5/1 19/5/1
f 21/4/1 18/4/1 17/4/1
f 22/4/1 18/4/1 21/4/1
f 23/4/1 20/4/1 19/4/1
f 24/4/1 20/4/1 23/4/1
f 25/5/1 22/5/1 21/5/1
f 26/5/1 22/5/1 25/5/1
f 27/5/1 24/5/1 23/5/1
f 28/5/1 24/5/1 27/5/1
f 29/4/1 26/4/1 25/4/1
f 30/4/1 26/4/1 29/4/1
f 31/4/1 28/4/1 27/4/1
f 32/4/1 28/4/1 31/4/1
f 33/5/1 30/5/1 29/5/1
f 34/5/1 30/5/1 33/5/1
f 35/5/1 32/5/1 31/5/1
f 36/5/1 32/5/1 35/5/1
f 41/5/1 38/5/1 37/5/1
f 42/5/1 38/5/1 41/5/1
f 43/5/1 40/5/1 39/5/1
f 44/5/1 40/5/1 43/5/1
f 45/4/1 42/4/1 41/4/1
f 46/4/1 42/4/1 45/4/1
f 47/4/1 44/4/1 43/4/1
f 48/4/1 44/4/1 47/4/1
f 49/5/1 46/5/1 45/5/1
f 50/5/1 46/5/1 49/5/1
f 51/5/1 48/5/1 47/5/1
f 52/5/1 48/5/1 51/5/1
f 53/4/1 50/4/1 49/4/1
f 54/4/1 50/4/1 53/4/1
f 55/4/1 52/4/1 51/4/1
f 56/4/1 52/4/1 55/4/1
f 57/5/1 54/5/1 53/5/1
f 58/5/1 54/5/1 57/5/1
f 59/5/1 56/5/1 55/5/1
f 60/5/1 56/5/1 59/5/1
f 65/5/1 62/5/1 61/5/1
f 66/5/1 62/5/1 65/5/1
f 67/5/1 64/5/1 63/5/1
f 68/5/1 64/5/1 67/5/1
f 69/4/1 66/4/1 65/4/1
f 70/4/1 66/4/1 69/4/1
f 71/4/1 68/4/1 67/4/1
f 72/4/1 68/4/1 71/4/1
f 73/5/1 70/5/1 69/5/1
f 74/5/1 70/5/1 73/5/1
f 75/5/1 72/5/1 71/5/1
f 76/5/1 72/5/1 75/5/1
f 77/4/1 74/4/1 73/4/1
f 78/4/1 74/4/1 77/4/1
f 79/4/1 76/4/1 75/4/1
f 80/4/1 76/4/1 79/4/1
f 81/5/1 78/5/1 77/5/1
f 82/5/1 78/5/1 81/5/1
f 83/5/1 80/5/1 79/5/1
f 84/5/1 80/5/1 83/5/1
f 89/5/1 86/5/1 85/5/1
f 90/5/1 86/5/1 89/5/1
f 91/5/1 88/5/1 87/5/1
f 92/5/1 88/5/1 91/5/1
f 93/4/1 90/4/1 89/4/1
f 94/4/1 90/4/1 93/4/1
f 95/4/1 92/4/1 91/4/1
f 96/4/1 92/4/1 95/4/1
f 97/5/1 94/5/1 93/5/1
f 98/5/1 94/5/1 97/5/1
f 99/5/1 96/5/1 95/5/1
f 100/5/1 96/5/1 99/5/1
f 101/4/1 98/4/1 97/4/1
f 102/4/1 98/4/1 101/4/1
f 103/4/1 100/4/1 99/4/1
f 104/4/1 100/4/1 103/4/1
f 105/5/1 102/5/1 101/5/1
f 106/5/1 102/5/1 105/5/1
f 109/5/1 104/5/1 103/5/1
f 110/5/1 104/5/1 109/5/1
f 111/1/1 108/1/1 107/1/1
f 112/1/1 108/1/1 111/1/1
f 113/1/2 114/1/2 115/1/2
f 115/1/2 114/1/2 116/1/2
f 117/5/2 118/5/2 121/5/2
f 121/5/2 118/5/2 122/5/2
f 119/5/2 120/5/2 123/5/2
f 123/5/2 120/5/2 124/5/2
f 121/4/2 122/4/2 125/4/2
f 125/4/2 122/4/2 126/4/2
f 123/4/2 124/4/2 127/4/2
f 127/4/2 124/4/2 128/4/2
f 125/5/2 126/5/2 129/5/2
f 129/5/2 126/5/2 130/5/2
f 127/5/2 128/5/2 131/5/2
f 131/5/2 128/5/2 132/5/2
f 129/4/2 130/4/2 133/4/2
f 133/4/2 130/4/2 134/4/2
f 131/4/2 132/4/2 135/4/2
f 135/4/2 132/4/2 136/4/2
f 133/5/2 134/5/2 137/5/2
f 137/5/2 134/5/2 138/5/2
f 135/5/2 136/5/2 139/5/2
f 139/5/2 136/5/2 140/5/2
f 141/5/2 142/5/2 145/5/2
f 145/5/2 142/5/2 146/5/2
f 143/5/2 144/5/2 147/5/2
f 147/5/2 144/5/2 148/5/2
f 145/4/2 146/4/2 149/4/2
f 149/4/2 146/4/2 150/4/2
f 147/4/2 148/4/2 151/4/2
f 151/4/2 148/4/2 152/4/2
f 149/5/2 150/5/2 153/5/2
f 153/5/2 150/5/2 154/5/2
f 151/5/2 152/5/2 155/5/2
f 155/5/2 152/5/2 156/5/2
f 153/4/2 154/4/2 157/4/2
f 157/4/2 154/4/2 158/4/2
f 155/4/2 156/4/2 159/4/2
f 159/4/2 156/4/2 160/4/2
f 157/5/2 158/5/2 161/5/2
f 161/5/2 158/5/2 162/5/2
f 159/5/2 160/5/2 163/5/2
f 163/5/2 160/5/2 164/5/2
f 165/5/2 166/5/2 169/5/2
f 169/5/2 166/5/2 170/5/2
f 167/5/2 168/5/2 171/5/2
f 171/5/2 168/5/2 172/5/2
f 169/4/2 170/4/2 173/4/2
f 173/4/2 170/4/2 174/4/2
f 171/4/2 172/4/2 175/4/2
f 175/4/2 172/4/2 176/4/2
f 173/5/2 174/5/2 177/5/2
f 177/5/2 174/5/2 178/5/2
f 175/5/2 176/5/2 179/5/2
f 179/5/2 176/5/2 180/5/2
f 177/4/2 178/4/2 181/4/2
f 181/4/2 178/4/2 182/4/2
f 179/4/2 180/4/2 183/4/2
f 183/4/2 180/4/2 184/4/2
f 181/5/2 182/5/2 185/5/2
f 185/5/2 182/5/2 186/5/2
f 183/5/2 184/5/2 187/5/2
f 187/5/2 184/5/2 188/5/2
f 189/5/2 190/5/2 193/5/2
f 193/5/2 190/5/2 194/5/2
f 191/5/2 192/5/2 195/5/2
f 195/5/2 192/5/2 196/5/2
f 193/4/2 194/4/2 197/4/2
f 197/4/2 194/4/2 198/4/2
f 195/4/2 196/4/2 199/4/2
f 199/4/2 196/4/2 200/4/2
f 197/5/2 198/5/2 201/5/2
f 201/5/2 198/5/2 202/5/2
f 199/5/2 200/5/2 203/5/2
f 203/5/2 200/5/2 204/5/2
f 201/4/2 202/4/2 205/4/2
f 205/4/2 202/4/2 206/4/2
f 203/4/2 204/4/2 207/4/2
f 207/4/2 204/4/2 208/4/2
f 205/5/2 206/5/2 209/5/2
f 209/5/2 206/5/2 210/5/2
f 207/5/2 208/5/2 211/5/2
f 211/5/2 208/5/2 212/5/2
f 213/5/2 214/5/2 215/5/2
f 215/5/2 214/5/2 216/5/2
f 215/4/2 216/4/2 217/4/2
f 217/4/2 216/4/2 218/4/2
f 217/5/2 218/5/2 219/5/2
f 219/5/2 218/5/2 220/5/2
f 219/4/2 220/4/2 221/4/2
f 221/4/2 220/4/2 222/4/2
f 221/5/2 222/5/2 223/5/2
f 223/5/2 222/5/2 224/5/2
f 231/5/3 226/5/3 225/5/3
f 232/4/3 227/4/3 226/4/3
f 232/5/3 226/5/3 231/5/3
f 233/5/3 228/5/3 227/5/3
f 233/4/3 227/4/3 232/4/3
f 234/4/3 229/4/3 228/4/3
f 234/5/3 228/5/3 233/5/3
f 235/5/3 230/5/3 229/5/3
f 235/4/3 229/4/3 234/4/3
f 236/5/3 230/5/3 235/5/3
f 243/5/3 238/5/3 237/5/3
f 244/4/3 239/4/3 238/4/3
f 244/5/3 238/5/3 243/5/3
f 245/5/3 240/5/3 239/5/3
f 245/4/3 239/4/3 244/4/3
f 246/4/3 241/4/3 240/4/3
f 246/5/3 240/5/3 245/5/3
f 247/5/3 242/5/3 241/5/3
f 247/4/3 241/4/3 246/4/3
f 248/5/3 242/5/3 247/5/3
f 255/5/3 250/5/3 249/5/3
f 256/4/3 251/4/3 250/4/3
f 256/5/3 250/5/3 255/5/3
f 257/5/3 252/5/3 251/5/3
f 257/4/3 251/4/3 256/4/3
f 258/4/3 253/4/3 252/4/3
f 258/5/3 252/5/3 257/5/3
f 259/5/3 254/5/3 253/5/3
f 259/4/3 253/4/3 258/4/3
f 260/5/3 254/5/3 259/5/3
f 267/5/3 262/5/3 261/5/3
f 268/4/3 263/4/3 262/4/3
f 268/5/3 262/5/3 267/5/3
f 269/5/3 264/5/3 263/5/3
f 269/4/3 263/4/3 268/4/3
f 270/4/3 265/4/3 264/4/3
f 270/5/3 264/5/3 269/5/3
f 271/5/3 266/5/3 265/5/3
f 271/4/3 265/4/3 270/4/3
f 272/5/3 266/5/3 271/5/3
f 279/5/3 274/5/3 273/5/3
f 280/4/3 275/4/3 274/4/3
f 280/5/3 274/5/3 279/5/3
f 281/5/3 276/5/3 275/5/3
f 281/4/3 275/4/3 280/4/3
f 282/4/3 277/4/3 276/4/3
f 282/5/3 276/5/3 281/5/3
f 283/5/3 278/5/3 277/5/3
f 283/4/3 277/4/3 282/4/3
f 284/5/3 278/5/3 283/5/3
f 291/5/3 286/5/3 285/5/3
f 292/4/3 287/4/3 286/4/3
f 292/5/3 286/5/3 291/5/3
f 293/5/3 288/5/3 287/5/3
f 293/4/3 287/4/3 292/4/3
f 294/4/3 289/4/3 288/4/3
f 294/5/3 288/5/3 293/5/3
f 295/5/3 290/5/3 289/5/3
f 295/4/3 289/4/3 294/4/3
f 296/5/3 290/5/3 295/5/3
f 299/1/3 298/1/3 297/1/3
f 300/1/3 298/1/3 299/1/3
f 307/5/3 302/5/3 301/5/3
f 308/4/3 303/4/3 302/4/3
f 308/5/3 302/5/3 307/5/3
f 309/5/3 304/5/3 303/5/3
f 309/4/3 303/4/3 308/4/3
f 310/4/3 305/4/3 304/4/3
f 310/5/3 304/5/3 309/5/3
f 311/5/3 306/5/3 305/5/3
f 311/4/3 305/4/3 310/4/3
f 312/5/3 306/5/3 311/5/3
f 319/5/3 314/5/3 313/5/3
f 320/4/3 315/4/3 314/4/3
f 320/5/3 314/5/3 319/5/3
f 321/5/3 316/5/3 315/5/3
f 321/4/3 315/4/3 320/4/3
f 322/4/3 317/4/3 316/4/3
f 322/5/3 316/5/3 321/5/3
f 323/5/3 318/5/3 317/5/3
f 323/4/3 317/4/3 322/4/3
f 324/5/3 318/5/3 323/5/3
f 331/5/3 326/5/3 325/5/3
f 332/4/3 327/4/3 326/4/3
f 332/5/3 326/5/3 331/5/3
f 333/5/3 328/5/3 327/5/3
f 333/4/3 327/4/3 332/4/3
f 334/4/3 329/4/3 328/4/3
f 334/5/3 328/5/3 333/5/3
f 335/5/3 330/5/3 329/5/3
f 335/4/3 329/4/3 334/4/3
f 336/5/3 330/5/3 335/5/3
f 337/1/4 338/1/4 339/1/4
f 339/1/4 338/1/4 340/1/4
f 341/5/4 342/5/4 347/5/4
f 342/4/4 343/4/4 348/4/4
f 347/5/4 342/5/4 348/5/4
f 343/5/4 344/5/4 349/5/4
f 348/4/4 343/4/4 349/4/4
f 344/4/4 345/4/4 350/4/4
f 349/5/4 344/5/4 350/5/4
f 345/5/4 346/5/4 351/5/4
f 350/4/4 345/4/4 351/4/4
f 351/5/4 346/5/4 352/5/4
f 353/5/4 354/5/4 359/5/4
f 354/4/4 355/4/4 360/4/4
f 359/5/4 354/5/4 360/5/4
f 355/5/4 356/5/4 361/5/4
f 360/4/4 355/4/4 361/4/4
f 356/4/4 357/4/4 362/4/4
f 361/5/4 356/5/4 362/5/4
f 357/5/4 358/5/4 363/5/4
f 362/4/4 357/4/4 363/4/4
f 363/5/4 358/5/4 364/5/4
f 365/5/4 366/5/4 371/5/4
f 366/4/4 367/4/4 372/4/4
f 371/5/4 366/5/4 372/5/4
f 367/5/4 368/5/4 373/5/4
f 372/4/4 367/4/4 373/4/4
f 368/4/4 369/4/4 374/4/4
f 373/5/4 368/5/4 374/5/4
f 369/5/4 370/5/4 375/5/4
f 374/4/4 369/4/4 375/4/4
f 375/5/4 370/5/4 376/5/4
f 377/5/4 378/5/4 383/5/4
f 378/4/4 379/4/4 384/4/4
f 383/5/4 378/5/4 384/5/4
f 379/5/4 380/5/4 385/5/4
f 384/4/4 379/4/4 385/4/4
f 380/4/4 381/4/4 386/4/4
f 385/5/4 380/5/4 386/5/4
f 381/5/4 382/5/4 387/5/4
f 386/4/4 381/4/4 387/4/4
f 387/5/4 382/5/4 388/5/4
f 389/5/4 390/5/4 395/5/4
f 390/4/4 391/4/4 396/4/4
f 395/5/4 390/5/4 396/5/4
f 391/5/4 392/5/4 397/5/4
f 396/4/4 391/4/4 397/4/4
f 392/4/4 393/4/4 398/4/4
f 397/5/4 392/5/4 398/5/4
f 393/5/4 394/5/4 399/5/4
f 398/4/4 393/4/4 399/4/4
f 399/5/4 394/5/4 400/5/4
f 401/5/4 402/5/4 407/5/4
f 402/4/4 403/4/4 408/4/4
f 407/5/4 402/5/4 408/5/4
f 403/5/4 404/5/4 409/5/4
f 408/4/4 403/4/4 409/4/4
f 404/4/4 405/4/4 410/4/4
f 409/5/4 404/5/4 410/5/4
f 405/5/4 406/5/4 411/5/4
f 410/4/4 405/4/4 411/4/4
f 411/5/4 406/5/4 412/5/4
f 413/5/4 414/5/4 419/5/4
f 414/4/4 415/4/4 420/4/4
f 419/5/4 414/5/4 420/5/4
f 415/5/4 416/5/4 421/5/4
f 420/4/4 415/4/4 421/4/4
f 416/4/4 417/4/4 422/4/4
f 421/5/4 416/5/4 422/5/4
f 417/5/4 418/5/4 423/5/4
f 422/4/4 417/4/4 423/4/4
f 423/5/4 418/5/4 424/5/4
f 425/5/4 426/5/4 431/5/4
f 426/4/4 427/4/4 432/4/4
f 431/5/4 426/5/4 432/5/4
f 427/5/4 428/5/4 433/5/4
f 432/4/4 427/4/4 433/4/4
f 428/4/4 429/4/4 434/4/4
f 433/5/4 428/5/4 434/5/4
f 429/5/4 430/5/4 435/5/4
f 434/4/4 429/4/4 435/4/4
f 435/5/4 430/5/4 436/5/4
f 437/5/4 438/5/4 443/5/4
f 438/4/4 439/4/4 444/4/4
f 443/5/4 438/5/4 444/5/4
f 439/5/4 440/5/4 445/5/4
f 444/4/4 439/4/4 445/4/4
f 440/4/4 441/4/4 446/4/4
f 445/5/4 440/5/4 446/5/4
f 441/5/4 442/5/4 447/5/4
f 446/4/4 441/4/4 447/4/4
f 447/5/4 442/5/4 448/5/4
f 452/5/5 450/5/5 449/5/5
f 453/5/5 450/5/5 452/5/5
f 456/5/5 452/5/5 451/5/5
f 457/2/5 453/2/5 452/2/5
f 457/5/5 452/5/5 456/5/5
f 458/5/5 454/5/5 453/5/5
f 458/2/5 453/2/5 457/2/5
f 459/5/5 454/5/5 458/5/5
f 462/5/5 456/5/5 455/5/5
f 463/2/5 457/2/5 456/2/5
f 463/2/5 458/2/5 457/2/5
f 463/5/5 456/5/5 462/5/5
f 463/2/5 459/2/5 458/2/5
f 464/5/5 460/5/5 459/5/5
f 464/2/5 459/2/5 463/2/5
f 465/5/5 460/5/5 464/5/5
f 468/5/5 462/5/5 461/5/5
f 469/2/5 463/2/5 462/2/5
f 469/2/5 464/2/5 463/2/5
f 469/5/5 462/5/5 468/5/5
f 469/2/5 465/2/5 464/2/5
f 470/5/5 466/5/5 465/5/5
f 470/2/5 465/2/5 469/2/5
f 471/5/5 466/5/5 470/5/5
f 473/5/5 468/5/5 467/5/5
f 474/2/5 469/2/5 468/2/5
f 474/5/5 468/5/5 473/5/5
f 474/2/5 470/2/5 469/2/5
f 474/2/5 471/2/5 470/2/5
f 475/2/5 471/2/5 474/2/5
f 476/2/5 471/2/5 475/2/5
f 477/5/5 472/5/5 471/5/5
f 477/2/5 471/2/5 476/2/5
f 478/5/5 472/5/5 477/5/5
f 479/5/5 475/5/5 474/5/5
f 480/2/5 476/2/5 475/2/5
f 480/5/5 475/5/5 479/5/5
f 481/2/5 476/2/5 480/2/5
f 482/2/5 476/2/5 481/2/5
f 483/5/5 477/5/5 476/5/5
f 483/2/5 476/2/5 482/2/5
f 484/5/5 477/5/5 483/5/5
f 485/5/5 481/5/5 480/5/5
f 486/2/5 482/2/5 481/2/5
f 486/5/5 481/5/5 485/5/5
f 487/2/5 482/2/5 486/2/5
f 488/2/5 482/2/5 487/2/5
f 489/5/5 483/5/5 482/5/5
f 489/2/5 482/2/5 488/2/5
f 490/5/5 483/5/5 489/5/5
f 491/5/5 487/5/5 486/5/5
f 492/2/5 488/2/5 487/2/5
f 492/5/5 487/5/5 491/5/5
f 493/5/5 489/5/5 488/5/5
f 493/2/5 488/2/5 492/2/5
f 494/5/5 489/5/5 493/5/5
f 495/5/5 493/5/5 492/5/5
f 496/5/5 493/5/5 495/5/5
f 497/5/6 498/5/6 500/5/6
f 500/5/6 498/5/6 501/5/6
f 499/5/6 500/5/6 504/5/6
f 500/2/6 501/2/6 505/2/6
f 504/5/6 500/5/6 505/5/6
f 501/5/6 502/5/6 506/5/6
f 505/2/6 501/2/6 506/2/6
f 506/5/6 502/5/6 507/5/6
f 503/5/6 504/5/6 510/5/6
f 504/2/6 505/2/6 511/2/6
f 505/2/6 506/2/6 511/2/6
f 510/5/6 504/5/6 511/5/6
f 506/2/6 507/2/6 511/2/6
f 511/2/6 507/2/6 512/2/6
f 512/2/6 507/2/6 513/2/6
f 507/5/6 508/5/6 514/5/6
f 513/2/6 507/2/6 514/2/6
f 514/5/6 508/5/6 515/5/6
f 509/5/6 510/5/6 518/5/6
f 510/2/6 511/2/6 519/2/6
f 511/2/6 512/2/6 519/2/6
f 518/5/6 510/5/6 519/5/6
f 519/2/6 512/2/6 520/2/6
f 514/2/6 515/2/6 521/2/6
f 513/2/6 514/2/6 521/2/6
f 515/5/6 516/5/6 522/5/6
f 521/2/6 515/2/6 522/2/6
f 522/5/6 516/5/6 523/5/6
f 519/2/6 520/2/6 525/2/6
f 520/2/6 521/2/6 525/2/6
f 522/2/6 523/2/6 525/2/6
f 521/2/6 522/2/6 525/2/6
f 518/2/6 519/2/6 525/2/6
f 525/2/6 523/2/6 526/2/6
f 518/2/6 525/2/6 527/2/6
f 525/3/6 526/3/6 527/3/6
f 526/2/6 523/2/6 528/2/6
f 527/3/6 526/3/6 528/3/6
f 518/2/6 527/2/6 529/2/6
f 527/1/6 528/1/6 529/1/6
f 528/2/6 523/2/6 530/2/6
f 529/1/6 528/1/6 530/1/6
f 518/2/6 529/2/6 531/2/6
f 529/2/6 530/2/6 531/2/6
f 531/2/6 530/2/6 532/2/6
f 532/2/6 530/2/6 533/2/6
f 517/5/6 518/5/6 534/5/6
f 518/2/6 531/2/6 535/2/6
f 534/5/6 518/5/6 535/5/6
f 535/2/6 531/2/6 536/2/6
f 531/3/6 532/3/6 537/3/6
f 536/2/6 531/2/6 537/2/6
f 532/1/6 533/1/6 538/1/6
f 537/3/6 532/3/6 538/3/6
f 533/2/6 530/2/6 539/2/6
f 530/2/6 523/2/6 539/2/6
f 523/5/6 524/5/6 540/5/6
f 539/2/6 523/2/6 540/2/6
f 540/5/6 524/5/6 541/5/6
f 537/1/6 538/1/6 542/1/6
f 536/2/6 537/2/6 542/2/6
f 533/2/6 539/2/6 543/2/6
f 542/1/6 538/1/6 543/1/6
f 538/1/6 533/1/6 543/1/6
f 535/5/6 536/5/6 544/5/6
f 536/2/6 542/2/6 545/2/6
f 544/5/6 536/5/6 545/5/6
f 542/2/6 543/2/6 545/2/6
f 545/2/6 543/2/6 546/2/6
f 543/2/6 539/2/6 547/2/6
f 546/2/6 543/2/6 547/2/6
f 539/5/6 540/5/6 548/5/6
f 547/2/6 539/2/6 548/2/6
f 548/5/6 540/5/6 549/5/6
f 545/5/6 546/5/6 550/5/6
f 546/2/6 547/2/6 551/2/6
f 550/5/6 546/5/6 551/5/6
f 551/2/6 547/2/6 552/2/6
f 552/2/6 547/2/6 553/2/6
f 547/5/6 548/5/6 554/5/6
f 553/2/6 547/2/6 554/2/6
f 554/5/6 548/5/6 555/5/6
f 551/5/6 552/5/6 556/5/6
f 552/2/6 553/2/6 557/2/6
f 556/5/6 552/5/6 557/5/6
f 553/5/6 554/5/6 558/5/6
f 557/2/6 553/2/6 558/2/6
f 558/5/6 554/5/6 559/5/6
f 557/5/6 558/5/6 560/5/6
f 560/5/6 558/5/6 561/5/6
f 562/1/6 563/1/6 564/1/6
f 564/1/6 563/1/6 565/1/6
