# MagicaVoxel @ Ephtracy

# group
o 

# material
mtllib CargoTrain1.mtl
usemtl palette

# normals
vn -1 0 0
vn 1 0 0
vn 0 0 1
vn 0 0 -1
vn 0 -1 0
vn 0 1 0

# texcoords
vt 0.0175781 0.5
vt 0.240234 0.5
vt 0.244141 0.5

# verts
v -0.8 0.1 0.3
v -0.8 0.1 -0.3
v -0.8 0.7 0.3
v -0.8 0.7 0.2
v -0.8 0.7 -0.2
v -0.8 0.7 -0.3
v -0.8 0.8 0.2
v -0.8 0.8 -0.2
v -0.7 0 0.3
v -0.7 0 0.2
v -0.7 0 -0.2
v -0.7 0 -0.3
v -0.7 0.1 0.3
v -0.7 0.1 0.2
v -0.7 0.1 -0.2
v -0.7 0.1 -0.3
v 0.3 0.2 0.3
v 0.3 0.2 0.2
v 0.3 0.2 -0.2
v 0.3 0.2 -0.3
v 0.3 0.6 0.3
v 0.3 0.6 0.2
v 0.3 0.6 -0.2
v 0.3 0.6 -0.3
v 0.5 0 0.3
v 0.5 0 0.2
v 0.5 0 -0.2
v 0.5 0 -0.3
v 0.5 0.1 0.3
v 0.5 0.1 0.2
v 0.5 0.1 -0.2
v 0.5 0.1 -0.3
v -0.5 0 0.3
v -0.5 0 0.2
v -0.5 0 -0.2
v -0.5 0 -0.3
v -0.5 0.1 0.3
v -0.5 0.1 0.2
v -0.5 0.1 -0.2
v -0.5 0.1 -0.3
v -0.3 0.2 0.3
v -0.3 0.2 0.2
v -0.3 0.2 -0.2
v -0.3 0.2 -0.3
v -0.3 0.6 0.3
v -0.3 0.6 0.2
v -0.3 0.6 -0.2
v -0.3 0.6 -0.3
v 0.7 0 0.3
v 0.7 0 0.2
v 0.7 0 -0.2
v 0.7 0 -0.3
v 0.7 0.1 0.3
v 0.7 0.1 0.2
v 0.7 0.1 -0.2
v 0.7 0.1 -0.3
v 0.8 0.1 0.3
v 0.8 0.1 -0.3
v 0.8 0.7 0.3
v 0.8 0.7 0.2
v 0.8 0.7 -0.2
v 0.8 0.7 -0.3
v 0.8 0.8 0.2
v 0.8 0.8 -0.2
v -0.8 0.1 0.3
v -0.8 0.7 0.3
v -0.7 0 0.3
v -0.7 0.1 0.3
v -0.7 0.2 0.3
v -0.5 0 0.3
v -0.5 0.1 0.3
v -0.5 0.2 0.3
v -0.3 0.2 0.3
v -0.3 0.6 0.3
v 0.3 0.2 0.3
v 0.3 0.6 0.3
v 0.5 0 0.3
v 0.5 0.1 0.3
v 0.5 0.2 0.3
v 0.7 0 0.3
v 0.7 0.1 0.3
v 0.7 0.2 0.3
v 0.8 0.1 0.3
v 0.8 0.7 0.3
v -0.8 0.7 0.2
v -0.8 0.8 0.2
v -0.7 0.7 0.2
v -0.7 0.8 0.2
v -0.6 0.7 0.2
v -0.6 0.8 0.2
v -0.4 0.7 0.2
v -0.4 0.8 0.2
v -0.3 0.7 0.2
v -0.3 0.8 0.2
v -0.1 0.7 0.2
v -0.1 0.8 0.2
v 0.1 0.7 0.2
v 0.1 0.8 0.2
v 0.3 0.7 0.2
v 0.3 0.8 0.2
v 0.4 0.7 0.2
v 0.4 0.8 0.2
v 0.6 0.7 0.2
v 0.6 0.8 0.2
v 0.7 0.7 0.2
v 0.7 0.8 0.2
v 0.8 0.7 0.2
v 0.8 0.8 0.2
v -0.7 0 -0.2
v -0.7 0.1 -0.2
v -0.5 0 -0.2
v -0.5 0.1 -0.2
v 0.5 0 -0.2
v 0.5 0.1 -0.2
v 0.7 0 -0.2
v 0.7 0.1 -0.2
v -0.7 0 0.2
v -0.7 0.1 0.2
v -0.5 0 0.2
v -0.5 0.1 0.2
v 0.5 0 0.2
v 0.5 0.1 0.2
v 0.7 0 0.2
v 0.7 0.1 0.2
v -0.8 0.7 -0.2
v -0.8 0.8 -0.2
v -0.7 0.7 -0.2
v -0.7 0.8 -0.2
v -0.6 0.7 -0.2
v -0.6 0.8 -0.2
v -0.4 0.7 -0.2
v -0.4 0.8 -0.2
v -0.3 0.7 -0.2
v -0.3 0.8 -0.2
v -0.1 0.7 -0.2
v -0.1 0.8 -0.2
v 0.1 0.7 -0.2
v 0.1 0.8 -0.2
v 0.3 0.7 -0.2
v 0.3 0.8 -0.2
v 0.4 0.7 -0.2
v 0.4 0.8 -0.2
v 0.6 0.7 -0.2
v 0.6 0.8 -0.2
v 0.7 0.7 -0.2
v 0.7 0.8 -0.2
v 0.8 0.7 -0.2
v 0.8 0.8 -0.2
v -0.8 0.1 -0.3
v -0.8 0.7 -0.3
v -0.7 0 -0.3
v -0.7 0.1 -0.3
v -0.7 0.2 -0.3
v -0.5 0 -0.3
v -0.5 0.1 -0.3
v -0.5 0.2 -0.3
v -0.3 0.2 -0.3
v -0.3 0.6 -0.3
v 0.3 0.2 -0.3
v 0.3 0.6 -0.3
v 0.5 0 -0.3
v 0.5 0.1 -0.3
v 0.5 0.2 -0.3
v 0.7 0 -0.3
v 0.7 0.1 -0.3
v 0.7 0.2 -0.3
v 0.8 0.1 -0.3
v 0.8 0.7 -0.3
v -0.7 0 0.3
v -0.5 0 0.3
v 0.5 0 0.3
v 0.7 0 0.3
v -0.7 0 0.2
v -0.5 0 0.2
v 0.5 0 0.2
v 0.7 0 0.2
v -0.7 0 -0.2
v -0.5 0 -0.2
v 0.5 0 -0.2
v 0.7 0 -0.2
v -0.7 0 -0.3
v -0.5 0 -0.3
v 0.5 0 -0.3
v 0.7 0 -0.3
v -0.8 0.1 0.3
v -0.7 0.1 0.3
v -0.5 0.1 0.3
v 0.5 0.1 0.3
v 0.7 0.1 0.3
v 0.8 0.1 0.3
v -0.7 0.1 0.2
v -0.5 0.1 0.2
v 0.5 0.1 0.2
v 0.7 0.1 0.2
v -0.7 0.1 -0.2
v -0.5 0.1 -0.2
v 0.5 0.1 -0.2
v 0.7 0.1 -0.2
v -0.8 0.1 -0.3
v -0.7 0.1 -0.3
v -0.5 0.1 -0.3
v 0.5 0.1 -0.3
v 0.7 0.1 -0.3
v 0.8 0.1 -0.3
v -0.3 0.6 0.3
v 0.3 0.6 0.3
v -0.3 0.6 0.2
v 0.3 0.6 0.2
v -0.3 0.6 -0.2
v 0.3 0.6 -0.2
v -0.3 0.6 -0.3
v 0.3 0.6 -0.3
v -0.3 0.2 0.3
v 0.3 0.2 0.3
v -0.3 0.2 0.2
v 0.3 0.2 0.2
v -0.3 0.2 -0.2
v 0.3 0.2 -0.2
v -0.3 0.2 -0.3
v 0.3 0.2 -0.3
v -0.8 0.7 0.3
v 0.8 0.7 0.3
v -0.8 0.7 0.2
v -0.7 0.7 0.2
v -0.6 0.7 0.2
v -0.4 0.7 0.2
v -0.3 0.7 0.2
v -0.1 0.7 0.2
v 0.1 0.7 0.2
v 0.3 0.7 0.2
v 0.4 0.7 0.2
v 0.6 0.7 0.2
v 0.7 0.7 0.2
v 0.8 0.7 0.2
v -0.8 0.7 -0.2
v -0.7 0.7 -0.2
v -0.6 0.7 -0.2
v -0.4 0.7 -0.2
v -0.3 0.7 -0.2
v -0.1 0.7 -0.2
v 0.1 0.7 -0.2
v 0.3 0.7 -0.2
v 0.4 0.7 -0.2
v 0.6 0.7 -0.2
v 0.7 0.7 -0.2
v 0.8 0.7 -0.2
v -0.8 0.7 -0.3
v 0.8 0.7 -0.3
v -0.8 0.8 0.2
v -0.7 0.8 0.2
v -0.6 0.8 0.2
v -0.4 0.8 0.2
v -0.3 0.8 0.2
v -0.1 0.8 0.2
v 0.1 0.8 0.2
v 0.3 0.8 0.2
v 0.4 0.8 0.2
v 0.6 0.8 0.2
v 0.7 0.8 0.2
v 0.8 0.8 0.2
v -0.8 0.8 -0.2
v -0.7 0.8 -0.2
v -0.6 0.8 -0.2
v -0.4 0.8 -0.2
v -0.3 0.8 -0.2
v -0.1 0.8 -0.2
v 0.1 0.8 -0.2
v 0.3 0.8 -0.2
v 0.4 0.8 -0.2
v 0.6 0.8 -0.2
v 0.7 0.8 -0.2
v 0.8 0.8 -0.2

# faces
f 3/2/1 2/2/1 1/2/1
f 4/2/1 2/2/1 3/2/1
f 5/2/1 2/2/1 4/2/1
f 6/2/1 2/2/1 5/2/1
f 7/2/1 5/2/1 4/2/1
f 8/2/1 5/2/1 7/2/1
f 13/1/1 10/1/1 9/1/1
f 14/1/1 10/1/1 13/1/1
f 15/1/1 12/1/1 11/1/1
f 16/1/1 12/1/1 15/1/1
f 21/2/1 18/2/1 17/2/1
f 22/3/1 19/3/1 18/3/1
f 22/2/1 18/2/1 21/2/1
f 23/2/1 20/2/1 19/2/1
f 23/3/1 19/3/1 22/3/1
f 24/2/1 20/2/1 23/2/1
f 29/1/1 26/1/1 25/1/1
f 30/1/1 26/1/1 29/1/1
f 31/1/1 28/1/1 27/1/1
f 32/1/1 28/1/1 31/1/1
f 33/1/2 34/1/2 37/1/2
f 37/1/2 34/1/2 38/1/2
f 35/1/2 36/1/2 39/1/2
f 39/1/2 36/1/2 40/1/2
f 41/2/2 42/2/2 45/2/2
f 42/3/2 43/3/2 46/3/2
f 45/2/2 42/2/2 46/2/2
f 43/2/2 44/2/2 47/2/2
f 46/3/2 43/3/2 47/3/2
f 47/2/2 44/2/2 48/2/2
f 49/1/2 50/1/2 53/1/2
f 53/1/2 50/1/2 54/1/2
f 51/1/2 52/1/2 55/1/2
f 55/1/2 52/1/2 56/1/2
f 57/2/2 58/2/2 59/2/2
f 59/2/2 58/2/2 60/2/2
f 60/2/2 58/2/2 61/2/2
f 61/2/2 58/2/2 62/2/2
f 60/2/2 61/2/2 63/2/2
f 63/2/2 61/2/2 64/2/2
f 68/2/3 66/2/3 65/2/3
f 69/2/3 66/2/3 68/2/3
f 70/1/3 68/1/3 67/1/3
f 70/1/3 69/1/3 68/1/3
f 71/1/3 69/1/3 70/1/3
f 72/2/3 66/2/3 69/2/3
f 72/1/3 69/1/3 71/1/3
f 73/2/3 66/2/3 72/2/3
f 73/2/3 72/2/3 71/2/3
f 74/2/3 66/2/3 73/2/3
f 75/2/3 73/2/3 71/2/3
f 76/2/3 66/2/3 74/2/3
f 78/2/3 75/2/3 71/2/3
f 78/2/3 76/2/3 75/2/3
f 79/2/3 76/2/3 78/2/3
f 80/1/3 78/1/3 77/1/3
f 80/1/3 79/1/3 78/1/3
f 81/1/3 79/1/3 80/1/3
f 82/2/3 76/2/3 79/2/3
f 82/1/3 79/1/3 81/1/3
f 83/2/3 82/2/3 81/2/3
f 84/2/3 66/2/3 76/2/3
f 84/2/3 82/2/3 83/2/3
f 84/2/3 76/2/3 82/2/3
f 87/2/3 86/2/3 85/2/3
f 88/2/3 86/2/3 87/2/3
f 89/3/3 88/3/3 87/3/3
f 90/3/3 88/3/3 89/3/3
f 91/2/3 90/2/3 89/2/3
f 92/2/3 90/2/3 91/2/3
f 93/3/3 92/3/3 91/3/3
f 94/3/3 92/3/3 93/3/3
f 95/2/3 94/2/3 93/2/3
f 96/2/3 94/2/3 95/2/3
f 97/3/3 96/3/3 95/3/3
f 98/3/3 96/3/3 97/3/3
f 99/2/3 98/2/3 97/2/3
f 100/2/3 98/2/3 99/2/3
f 101/3/3 100/3/3 99/3/3
f 102/3/3 100/3/3 101/3/3
f 103/2/3 102/2/3 101/2/3
f 104/2/3 102/2/3 103/2/3
f 105/3/3 104/3/3 103/3/3
f 106/3/3 104/3/3 105/3/3
f 107/2/3 106/2/3 105/2/3
f 108/2/3 106/2/3 107/2/3
f 111/1/3 110/1/3 109/1/3
f 112/1/3 110/1/3 111/1/3
f 115/1/3 114/1/3 113/1/3
f 116/1/3 114/1/3 115/1/3
f 117/1/4 118/1/4 119/1/4
f 119/1/4 118/1/4 120/1/4
f 121/1/4 122/1/4 123/1/4
f 123/1/4 122/1/4 124/1/4
f 125/2/4 126/2/4 127/2/4
f 127/2/4 126/2/4 128/2/4
f 127/3/4 128/3/4 129/3/4
f 129/3/4 128/3/4 130/3/4
f 129/2/4 130/2/4 131/2/4
f 131/2/4 130/2/4 132/2/4
f 131/3/4 132/3/4 133/3/4
f 133/3/4 132/3/4 134/3/4
f 133/2/4 134/2/4 135/2/4
f 135/2/4 134/2/4 136/2/4
f 135/3/4 136/3/4 137/3/4
f 137/3/4 136/3/4 138/3/4
f 137/2/4 138/2/4 139/2/4
f 139/2/4 138/2/4 140/2/4
f 139/3/4 140/3/4 141/3/4
f 141/3/4 140/3/4 142/3/4
f 141/2/4 142/2/4 143/2/4
f 143/2/4 142/2/4 144/2/4
f 143/3/4 144/3/4 145/3/4
f 145/3/4 144/3/4 146/3/4
f 145/2/4 146/2/4 147/2/4
f 147/2/4 146/2/4 148/2/4
f 149/2/4 150/2/4 152/2/4
f 152/2/4 150/2/4 153/2/4
f 151/1/4 152/1/4 154/1/4
f 152/1/4 153/1/4 154/1/4
f 154/1/4 153/1/4 155/1/4
f 153/2/4 150/2/4 156/2/4
f 155/1/4 153/1/4 156/1/4
f 156/2/4 150/2/4 157/2/4
f 155/2/4 156/2/4 157/2/4
f 157/2/4 150/2/4 158/2/4
f 155/2/4 157/2/4 159/2/4
f 158/2/4 150/2/4 160/2/4
f 155/2/4 159/2/4 162/2/4
f 159/2/4 160/2/4 162/2/4
f 162/2/4 160/2/4 163/2/4
f 161/1/4 162/1/4 164/1/4
f 162/1/4 163/1/4 164/1/4
f 164/1/4 163/1/4 165/1/4
f 163/2/4 160/2/4 166/2/4
f 165/1/4 163/1/4 166/1/4
f 165/2/4 166/2/4 167/2/4
f 160/2/4 150/2/4 168/2/4
f 167/2/4 166/2/4 168/2/4
f 166/2/4 160/2/4 168/2/4
f 173/1/5 170/1/5 169/1/5
f 174/1/5 170/1/5 173/1/5
f 175/1/5 172/1/5 171/1/5
f 176/1/5 172/1/5 175/1/5
f 181/1/5 178/1/5 177/1/5
f 182/1/5 178/1/5 181/1/5
f 183/1/5 180/1/5 179/1/5
f 184/1/5 180/1/5 183/1/5
f 191/2/5 186/2/5 185/2/5
f 192/2/5 188/2/5 187/2/5
f 193/2/5 188/2/5 192/2/5
f 194/2/5 190/2/5 189/2/5
f 195/2/5 193/2/5 192/2/5
f 195/2/5 194/2/5 193/2/5
f 195/2/5 191/2/5 185/2/5
f 195/2/5 192/2/5 191/2/5
f 196/2/5 194/2/5 195/2/5
f 197/2/5 194/2/5 196/2/5
f 198/2/5 190/2/5 194/2/5
f 198/2/5 194/2/5 197/2/5
f 199/2/5 195/2/5 185/2/5
f 200/2/5 195/2/5 199/2/5
f 201/2/5 197/2/5 196/2/5
f 202/2/5 197/2/5 201/2/5
f 203/2/5 190/2/5 198/2/5
f 204/2/5 190/2/5 203/2/5
f 207/2/5 206/2/5 205/2/5
f 208/2/5 206/2/5 207/2/5
f 209/2/5 208/2/5 207/2/5
f 210/2/5 208/2/5 209/2/5
f 211/2/5 210/2/5 209/2/5
f 212/2/5 210/2/5 211/2/5
f 213/2/6 214/2/6 215/2/6
f 215/2/6 214/2/6 216/2/6
f 215/2/6 216/2/6 217/2/6
f 217/2/6 216/2/6 218/2/6
f 217/2/6 218/2/6 219/2/6
f 219/2/6 218/2/6 220/2/6
f 221/2/6 222/2/6 223/2/6
f 223/2/6 222/2/6 224/2/6
f 224/2/6 222/2/6 225/2/6
f 225/2/6 222/2/6 226/2/6
f 226/2/6 222/2/6 227/2/6
f 227/2/6 222/2/6 228/2/6
f 228/2/6 222/2/6 229/2/6
f 229/2/6 222/2/6 230/2/6
f 230/2/6 222/2/6 231/2/6
f 231/2/6 222/2/6 232/2/6
f 232/2/6 222/2/6 233/2/6
f 233/2/6 222/2/6 234/2/6
f 235/2/6 236/2/6 247/2/6
f 245/2/6 246/2/6 247/2/6
f 244/2/6 245/2/6 247/2/6
f 243/2/6 244/2/6 247/2/6
f 242/2/6 243/2/6 247/2/6
f 241/2/6 242/2/6 247/2/6
f 240/2/6 241/2/6 247/2/6
f 239/2/6 240/2/6 247/2/6
f 238/2/6 239/2/6 247/2/6
f 237/2/6 238/2/6 247/2/6
f 236/2/6 237/2/6 247/2/6
f 247/2/6 246/2/6 248/2/6
f 249/2/6 250/2/6 261/2/6
f 250/3/6 251/3/6 262/3/6
f 261/2/6 250/2/6 262/2/6
f 251/2/6 252/2/6 263/2/6
f 262/3/6 251/3/6 263/3/6
f 252/3/6 253/3/6 264/3/6
f 263/2/6 252/2/6 264/2/6
f 253/2/6 254/2/6 265/2/6
f 264/3/6 253/3/6 265/3/6
f 254/3/6 255/3/6 266/3/6
f 265/2/6 254/2/6 266/2/6
f 255/2/6 256/2/6 267/2/6
f 266/3/6 255/3/6 267/3/6
f 256/3/6 257/3/6 268/3/6
f 267/2/6 256/2/6 268/2/6
f 257/2/6 258/2/6 269/2/6
f 268/3/6 257/3/6 269/3/6
f 258/3/6 259/3/6 270/3/6
f 269/2/6 258/2/6 270/2/6
f 259/2/6 260/2/6 271/2/6
f 270/3/6 259/3/6 271/3/6
f 271/2/6 260/2/6 272/2/6
