# MagicaVoxel @ Ephtracy

# group
o 

# material
mtllib CargoTrain2.mtl
usemtl palette

# normals
vn -1 0 0
vn 1 0 0
vn 0 0 1
vn 0 0 -1
vn 0 -1 0
vn 0 1 0

# texcoords
vt 0.0136719 0.5
vt 0.0175781 0.5
vt 0.240234 0.5
vt 0.244141 0.5

# verts
v -0.8 0.1 0.3
v -0.8 0.1 -0.3
v -0.8 0.6 0.4
v -0.8 0.6 0.3
v -0.8 0.6 -0.3
v -0.8 0.6 -0.4
v -0.8 0.7 0.4
v -0.8 0.7 0.3
v -0.8 0.7 -0.3
v -0.8 0.7 -0.4
v -0.8 0.8 0.3
v -0.8 0.8 -0.3
v -0.7 0 0.3
v -0.7 0 0.2
v -0.7 0 -0.2
v -0.7 0 -0.3
v -0.7 0.1 0.3
v -0.7 0.1 0.2
v -0.7 0.1 -0.2
v -0.7 0.1 -0.3
v -0.5 0.3 0.3
v -0.5 0.3 0.2
v -0.5 0.3 -0.2
v -0.5 0.3 -0.3
v -0.5 0.5 0.3
v -0.5 0.5 0.2
v -0.5 0.5 -0.2
v -0.5 0.5 -0.3
v -0.3 0.9 0.4
v -0.3 0.9 -0.4
v -0.3 1 0.4
v -0.3 1 0.3
v -0.3 1 -0.3
v -0.3 1 -0.4
v -0.3 1.1 0.3
v -0.3 1.1 -0.3
v -0.2 0.8 0.3
v -0.2 0.8 -0.3
v -0.2 0.9 0.3
v -0.2 0.9 -0.3
v -0.1 0.3 0.3
v -0.1 0.3 0.2
v -0.1 0.3 -0.2
v -0.1 0.3 -0.3
v -0.1 0.5 0.3
v -0.1 0.5 0.2
v -0.1 0.5 -0.2
v -0.1 0.5 -0.3
v 0.3 0.3 0.3
v 0.3 0.3 0.2
v 0.3 0.3 -0.2
v 0.3 0.3 -0.3
v 0.3 0.5 0.3
v 0.3 0.5 0.2
v 0.3 0.5 -0.2
v 0.3 0.5 -0.3
v 0.4 0 0.3
v 0.4 0 0.2
v 0.4 0 -0.2
v 0.4 0 -0.3
v 0.4 0.1 0.3
v 0.4 0.1 0.2
v 0.4 0.1 -0.2
v 0.4 0.1 -0.3
v 0.7 0.3 0.3
v 0.7 0.3 0.2
v 0.7 0.3 -0.2
v 0.7 0.3 -0.3
v 0.7 0.5 0.3
v 0.7 0.5 0.2
v 0.7 0.5 -0.2
v 0.7 0.5 -0.3
v -0.7 0.3 0.3
v -0.7 0.3 0.2
v -0.7 0.3 -0.2
v -0.7 0.3 -0.3
v -0.7 0.5 0.3
v -0.7 0.5 0.2
v -0.7 0.5 -0.2
v -0.7 0.5 -0.3
v -0.4 0 0.3
v -0.4 0 0.2
v -0.4 0 -0.2
v -0.4 0 -0.3
v -0.4 0.1 0.3
v -0.4 0.1 0.2
v -0.4 0.1 -0.2
v -0.4 0.1 -0.3
v -0.3 0.3 0.3
v -0.3 0.3 0.2
v -0.3 0.3 -0.2
v -0.3 0.3 -0.3
v -0.3 0.5 0.3
v -0.3 0.5 0.2
v -0.3 0.5 -0.2
v -0.3 0.5 -0.3
v 0.1 0.3 0.3
v 0.1 0.3 0.2
v 0.1 0.3 -0.2
v 0.1 0.3 -0.3
v 0.1 0.5 0.3
v 0.1 0.5 0.2
v 0.1 0.5 -0.2
v 0.1 0.5 -0.3
v 0.2 0.8 0.3
v 0.2 0.8 -0.3
v 0.2 0.9 0.3
v 0.2 0.9 -0.3
v 0.3 0.9 0.4
v 0.3 0.9 -0.4
v 0.3 1 0.4
v 0.3 1 0.3
v 0.3 1 -0.3
v 0.3 1 -0.4
v 0.3 1.1 0.3
v 0.3 1.1 -0.3
v 0.5 0.3 0.3
v 0.5 0.3 0.2
v 0.5 0.3 -0.2
v 0.5 0.3 -0.3
v 0.5 0.5 0.3
v 0.5 0.5 0.2
v 0.5 0.5 -0.2
v 0.5 0.5 -0.3
v 0.7 0 0.3
v 0.7 0 0.2
v 0.7 0 -0.2
v 0.7 0 -0.3
v 0.7 0.1 0.3
v 0.7 0.1 0.2
v 0.7 0.1 -0.2
v 0.7 0.1 -0.3
v 0.8 0.1 0.3
v 0.8 0.1 -0.3
v 0.8 0.6 0.4
v 0.8 0.6 0.3
v 0.8 0.6 -0.3
v 0.8 0.6 -0.4
v 0.8 0.7 0.4
v 0.8 0.7 0.3
v 0.8 0.7 -0.3
v 0.8 0.7 -0.4
v 0.8 0.8 0.3
v 0.8 0.8 -0.3
v -0.8 0.6 0.4
v -0.8 0.7 0.4
v -0.3 0.9 0.4
v -0.3 1 0.4
v 0.3 0.9 0.4
v 0.3 1 0.4
v 0.8 0.6 0.4
v 0.8 0.7 0.4
v -0.8 0.1 0.3
v -0.8 0.6 0.3
v -0.8 0.7 0.3
v -0.8 0.8 0.3
v -0.7 0 0.3
v -0.7 0.1 0.3
v -0.7 0.2 0.3
v -0.7 0.3 0.3
v -0.7 0.5 0.3
v -0.6 0 0.3
v -0.6 0.1 0.3
v -0.5 0 0.3
v -0.5 0.1 0.3
v -0.5 0.2 0.3
v -0.5 0.3 0.3
v -0.5 0.5 0.3
v -0.4 0 0.3
v -0.4 0.1 0.3
v -0.4 0.2 0.3
v -0.3 0.3 0.3
v -0.3 0.5 0.3
v -0.3 1 0.3
v -0.3 1.1 0.3
v -0.2 0.8 0.3
v -0.2 0.9 0.3
v -0.1 0.3 0.3
v -0.1 0.5 0.3
v 0.1 0.3 0.3
v 0.1 0.5 0.3
v 0.2 0.8 0.3
v 0.2 0.9 0.3
v 0.3 0.3 0.3
v 0.3 0.5 0.3
v 0.3 1 0.3
v 0.3 1.1 0.3
v 0.4 0 0.3
v 0.4 0.1 0.3
v 0.4 0.2 0.3
v 0.5 0 0.3
v 0.5 0.1 0.3
v 0.5 0.3 0.3
v 0.5 0.5 0.3
v 0.6 0 0.3
v 0.6 0.1 0.3
v 0.6 0.2 0.3
v 0.7 0 0.3
v 0.7 0.1 0.3
v 0.7 0.2 0.3
v 0.7 0.3 0.3
v 0.7 0.5 0.3
v 0.8 0.1 0.3
v 0.8 0.6 0.3
v 0.8 0.7 0.3
v 0.8 0.8 0.3
v -0.7 0.3 0.2
v -0.7 0.5 0.2
v -0.5 0.3 0.2
v -0.5 0.5 0.2
v -0.3 0.3 0.2
v -0.3 0.5 0.2
v -0.1 0.3 0.2
v -0.1 0.5 0.2
v 0.1 0.3 0.2
v 0.1 0.5 0.2
v 0.3 0.3 0.2
v 0.3 0.5 0.2
v 0.5 0.3 0.2
v 0.5 0.5 0.2
v 0.7 0.3 0.2
v 0.7 0.5 0.2
v -0.7 0 -0.2
v -0.7 0.1 -0.2
v -0.6 0 -0.2
v -0.6 0.1 -0.2
v -0.5 0 -0.2
v -0.5 0.1 -0.2
v -0.4 0 -0.2
v -0.4 0.1 -0.2
v 0.4 0 -0.2
v 0.4 0.1 -0.2
v 0.5 0 -0.2
v 0.5 0.1 -0.2
v 0.6 0 -0.2
v 0.6 0.1 -0.2
v 0.7 0 -0.2
v 0.7 0.1 -0.2
v -0.7 0 0.2
v -0.7 0.1 0.2
v -0.6 0 0.2
v -0.6 0.1 0.2
v -0.5 0 0.2
v -0.5 0.1 0.2
v -0.4 0 0.2
v -0.4 0.1 0.2
v 0.4 0 0.2
v 0.4 0.1 0.2
v 0.5 0 0.2
v 0.5 0.1 0.2
v 0.6 0 0.2
v 0.6 0.1 0.2
v 0.7 0 0.2
v 0.7 0.1 0.2
v -0.7 0.3 -0.2
v -0.7 0.5 -0.2
v -0.5 0.3 -0.2
v -0.5 0.5 -0.2
v -0.3 0.3 -0.2
v -0.3 0.5 -0.2
v -0.1 0.3 -0.2
v -0.1 0.5 -0.2
v 0.1 0.3 -0.2
v 0.1 0.5 -0.2
v 0.3 0.3 -0.2
v 0.3 0.5 -0.2
v 0.5 0.3 -0.2
v 0.5 0.5 -0.2
v 0.7 0.3 -0.2
v 0.7 0.5 -0.2
v -0.8 0.1 -0.3
v -0.8 0.6 -0.3
v -0.8 0.7 -0.3
v -0.8 0.8 -0.3
v -0.7 0 -0.3
v -0.7 0.1 -0.3
v -0.7 0.2 -0.3
v -0.7 0.3 -0.3
v -0.7 0.5 -0.3
v -0.6 0 -0.3
v -0.6 0.1 -0.3
v -0.5 0 -0.3
v -0.5 0.1 -0.3
v -0.5 0.2 -0.3
v -0.5 0.3 -0.3
v -0.5 0.5 -0.3
v -0.4 0 -0.3
v -0.4 0.1 -0.3
v -0.4 0.2 -0.3
v -0.3 0.3 -0.3
v -0.3 0.5 -0.3
v -0.3 1 -0.3
v -0.3 1.1 -0.3
v -0.2 0.8 -0.3
v -0.2 0.9 -0.3
v -0.1 0.3 -0.3
v -0.1 0.5 -0.3
v 0.1 0.3 -0.3
v 0.1 0.5 -0.3
v 0.2 0.8 -0.3
v 0.2 0.9 -0.3
v 0.3 0.3 -0.3
v 0.3 0.5 -0.3
v 0.3 1 -0.3
v 0.3 1.1 -0.3
v 0.4 0 -0.3
v 0.4 0.1 -0.3
v 0.4 0.2 -0.3
v 0.5 0 -0.3
v 0.5 0.1 -0.3
v 0.5 0.3 -0.3
v 0.5 0.5 -0.3
v 0.6 0 -0.3
v 0.6 0.1 -0.3
v 0.6 0.2 -0.3
v 0.7 0 -0.3
v 0.7 0.1 -0.3
v 0.7 0.2 -0.3
v 0.7 0.3 -0.3
v 0.7 0.5 -0.3
v 0.8 0.1 -0.3
v 0.8 0.6 -0.3
v 0.8 0.7 -0.3
v 0.8 0.8 -0.3
v -0.8 0.6 -0.4
v -0.8 0.7 -0.4
v -0.3 0.9 -0.4
v -0.3 1 -0.4
v 0.3 0.9 -0.4
v 0.3 1 -0.4
v 0.8 0.6 -0.4
v 0.8 0.7 -0.4
v -0.7 0 0.3
v -0.6 0 0.3
v -0.5 0 0.3
v -0.4 0 0.3
v 0.4 0 0.3
v 0.5 0 0.3
v 0.6 0 0.3
v 0.7 0 0.3
v -0.7 0 0.2
v -0.6 0 0.2
v -0.5 0 0.2
v -0.4 0 0.2
v 0.4 0 0.2
v 0.5 0 0.2
v 0.6 0 0.2
v 0.7 0 0.2
v -0.7 0 -0.2
v -0.6 0 -0.2
v -0.5 0 -0.2
v -0.4 0 -0.2
v 0.4 0 -0.2
v 0.5 0 -0.2
v 0.6 0 -0.2
v 0.7 0 -0.2
v -0.7 0 -0.3
v -0.6 0 -0.3
v -0.5 0 -0.3
v -0.4 0 -0.3
v 0.4 0 -0.3
v 0.5 0 -0.3
v 0.6 0 -0.3
v 0.7 0 -0.3
v -0.8 0.1 0.3
v -0.7 0.1 0.3
v -0.4 0.1 0.3
v 0.4 0.1 0.3
v 0.7 0.1 0.3
v 0.8 0.1 0.3
v -0.7 0.1 0.2
v -0.6 0.1 0.2
v -0.5 0.1 0.2
v -0.4 0.1 0.2
v 0.4 0.1 0.2
v 0.5 0.1 0.2
v 0.6 0.1 0.2
v 0.7 0.1 0.2
v -0.7 0.1 -0.2
v -0.6 0.1 -0.2
v -0.5 0.1 -0.2
v -0.4 0.1 -0.2
v 0.4 0.1 -0.2
v 0.5 0.1 -0.2
v 0.6 0.1 -0.2
v 0.7 0.1 -0.2
v -0.8 0.1 -0.3
v -0.7 0.1 -0.3
v -0.4 0.1 -0.3
v 0.4 0.1 -0.3
v 0.7 0.1 -0.3
v 0.8 0.1 -0.3
v -0.7 0.5 0.3
v -0.5 0.5 0.3
v -0.3 0.5 0.3
v -0.1 0.5 0.3
v 0.1 0.5 0.3
v 0.3 0.5 0.3
v 0.5 0.5 0.3
v 0.7 0.5 0.3
v -0.7 0.5 0.2
v -0.5 0.5 0.2
v -0.3 0.5 0.2
v -0.1 0.5 0.2
v 0.1 0.5 0.2
v 0.3 0.5 0.2
v 0.5 0.5 0.2
v 0.7 0.5 0.2
v -0.7 0.5 -0.2
v -0.5 0.5 -0.2
v -0.3 0.5 -0.2
v -0.1 0.5 -0.2
v 0.1 0.5 -0.2
v 0.3 0.5 -0.2
v 0.5 0.5 -0.2
v 0.7 0.5 -0.2
v -0.7 0.5 -0.3
v -0.5 0.5 -0.3
v -0.3 0.5 -0.3
v -0.1 0.5 -0.3
v 0.1 0.5 -0.3
v 0.3 0.5 -0.3
v 0.5 0.5 -0.3
v 0.7 0.5 -0.3
v -0.8 0.6 0.4
v 0.8 0.6 0.4
v -0.8 0.6 0.3
v 0.8 0.6 0.3
v -0.8 0.6 -0.3
v 0.8 0.6 -0.3
v -0.8 0.6 -0.4
v 0.8 0.6 -0.4
v -0.3 0.9 0.4
v 0.3 0.9 0.4
v -0.2 0.9 0.3
v 0.2 0.9 0.3
v -0.2 0.9 -0.3
v 0.2 0.9 -0.3
v -0.3 0.9 -0.4
v 0.3 0.9 -0.4
v -0.7 0.3 0.3
v -0.5 0.3 0.3
v -0.3 0.3 0.3
v -0.1 0.3 0.3
v 0.1 0.3 0.3
v 0.3 0.3 0.3
v 0.5 0.3 0.3
v 0.7 0.3 0.3
v -0.7 0.3 0.2
v -0.5 0.3 0.2
v -0.3 0.3 0.2
v -0.1 0.3 0.2
v 0.1 0.3 0.2
v 0.3 0.3 0.2
v 0.5 0.3 0.2
v 0.7 0.3 0.2
v -0.7 0.3 -0.2
v -0.5 0.3 -0.2
v -0.3 0.3 -0.2
v -0.1 0.3 -0.2
v 0.1 0.3 -0.2
v 0.3 0.3 -0.2
v 0.5 0.3 -0.2
v 0.7 0.3 -0.2
v -0.7 0.3 -0.3
v -0.5 0.3 -0.3
v -0.3 0.3 -0.3
v -0.1 0.3 -0.3
v 0.1 0.3 -0.3
v 0.3 0.3 -0.3
v 0.5 0.3 -0.3
v 0.7 0.3 -0.3
v -0.8 0.7 0.4
v 0.8 0.7 0.4
v -0.8 0.7 0.3
v 0.8 0.7 0.3
v -0.8 0.7 -0.3
v 0.8 0.7 -0.3
v -0.8 0.7 -0.4
v 0.8 0.7 -0.4
v -0.8 0.8 0.3
v -0.2 0.8 0.3
v 0.2 0.8 0.3
v 0.8 0.8 0.3
v -0.8 0.8 -0.3
v -0.2 0.8 -0.3
v 0.2 0.8 -0.3
v 0.8 0.8 -0.3
v -0.3 1 0.4
v 0.3 1 0.4
v -0.3 1 0.3
v 0.3 1 0.3
v -0.3 1 -0.3
v 0.3 1 -0.3
v -0.3 1 -0.4
v 0.3 1 -0.4
v -0.3 1.1 0.3
v 0.3 1.1 0.3
v -0.3 1.1 -0.3
v 0.3 1.1 -0.3

# faces
f 4/3/1 2/3/1 1/3/1
f 5/3/1 2/3/1 4/3/1
f 7/2/1 4/2/1 3/2/1
f 7/2/1 6/2/1 5/2/1
f 7/2/1 5/2/1 4/2/1
f 8/2/1 6/2/1 7/2/1
f 9/2/1 6/2/1 8/2/1
f 10/2/1 6/2/1 9/2/1
f 11/2/1 9/2/1 8/2/1
f 12/2/1 9/2/1 11/2/1
f 17/2/1 14/2/1 13/2/1
f 18/2/1 14/2/1 17/2/1
f 19/2/1 16/2/1 15/2/1
f 20/2/1 16/2/1 19/2/1
f 25/4/1 22/4/1 21/4/1
f 26/4/1 22/4/1 25/4/1
f 27/4/1 24/4/1 23/4/1
f 28/4/1 24/4/1 27/4/1
f 31/2/1 30/2/1 29/2/1
f 32/2/1 30/2/1 31/2/1
f 33/2/1 30/2/1 32/2/1
f 34/2/1 30/2/1 33/2/1
f 35/2/1 33/2/1 32/2/1
f 36/2/1 33/2/1 35/2/1
f 39/3/1 38/3/1 37/3/1
f 40/3/1 38/3/1 39/3/1
f 45/4/1 42/4/1 41/4/1
f 46/4/1 42/4/1 45/4/1
f 47/4/1 44/4/1 43/4/1
f 48/4/1 44/4/1 47/4/1
f 53/4/1 50/4/1 49/4/1
f 54/4/1 50/4/1 53/4/1
f 55/4/1 52/4/1 51/4/1
f 56/4/1 52/4/1 55/4/1
f 61/2/1 58/2/1 57/2/1
f 62/2/1 58/2/1 61/2/1
f 63/2/1 60/2/1 59/2/1
f 64/2/1 60/2/1 63/2/1
f 69/3/1 66/3/1 65/3/1
f 70/3/1 66/3/1 69/3/1
f 71/3/1 68/3/1 67/3/1
f 72/3/1 68/3/1 71/3/1
f 73/3/2 74/3/2 77/3/2
f 77/3/2 74/3/2 78/3/2
f 75/3/2 76/3/2 79/3/2
f 79/3/2 76/3/2 80/3/2
f 81/2/2 82/2/2 85/2/2
f 85/2/2 82/2/2 86/2/2
f 83/2/2 84/2/2 87/2/2
f 87/2/2 84/2/2 88/2/2
f 89/4/2 90/4/2 93/4/2
f 93/4/2 90/4/2 94/4/2
f 91/4/2 92/4/2 95/4/2
f 95/4/2 92/4/2 96/4/2
f 97/4/2 98/4/2 101/4/2
f 101/4/2 98/4/2 102/4/2
f 99/4/2 100/4/2 103/4/2
f 103/4/2 100/4/2 104/4/2
f 105/3/2 106/3/2 107/3/2
f 107/3/2 106/3/2 108/3/2
f 109/2/2 110/2/2 111/2/2
f 111/2/2 110/2/2 112/2/2
f 112/2/2 110/2/2 113/2/2
f 113/2/2 110/2/2 114/2/2
f 112/2/2 113/2/2 115/2/2
f 115/2/2 113/2/2 116/2/2
f 117/4/2 118/4/2 121/4/2
f 121/4/2 118/4/2 122/4/2
f 119/4/2 120/4/2 123/4/2
f 123/4/2 120/4/2 124/4/2
f 125/2/2 126/2/2 129/2/2
f 129/2/2 126/2/2 130/2/2
f 127/2/2 128/2/2 131/2/2
f 131/2/2 128/2/2 132/2/2
f 133/3/2 134/3/2 136/3/2
f 136/3/2 134/3/2 137/3/2
f 135/2/2 136/2/2 139/2/2
f 137/2/2 138/2/2 139/2/2
f 136/2/2 137/2/2 139/2/2
f 139/2/2 138/2/2 140/2/2
f 140/2/2 138/2/2 141/2/2
f 141/2/2 138/2/2 142/2/2
f 140/2/2 141/2/2 143/2/2
f 143/2/2 141/2/2 144/2/2
f 149/2/3 148/2/3 147/2/3
f 150/2/3 148/2/3 149/2/3
f 151/2/3 146/2/3 145/2/3
f 152/2/3 146/2/3 151/2/3
f 158/3/3 154/3/3 153/3/3
f 159/3/3 154/3/3 158/3/3
f 160/3/3 154/3/3 159/3/3
f 161/3/3 154/3/3 160/3/3
f 162/2/3 158/2/3 157/2/3
f 162/2/3 159/2/3 158/2/3
f 163/2/3 159/2/3 162/2/3
f 164/1/3 163/1/3 162/1/3
f 165/2/3 159/2/3 163/2/3
f 165/1/3 163/1/3 164/1/3
f 166/3/3 160/3/3 159/3/3
f 166/2/3 159/2/3 165/2/3
f 167/3/3 160/3/3 166/3/3
f 168/3/3 154/3/3 161/3/3
f 169/2/3 165/2/3 164/2/3
f 170/1/3 166/1/3 165/1/3
f 170/2/3 165/2/3 169/2/3
f 171/3/3 167/3/3 166/3/3
f 171/1/3 166/1/3 170/1/3
f 172/3/3 167/3/3 171/3/3
f 172/3/3 171/3/3 170/3/3
f 172/4/3 168/4/3 167/4/3
f 173/3/3 154/3/3 168/3/3
f 173/4/3 168/4/3 172/4/3
f 176/2/3 156/2/3 155/2/3
f 178/3/3 172/3/3 170/3/3
f 179/3/3 154/3/3 173/3/3
f 180/3/3 178/3/3 170/3/3
f 180/4/3 179/4/3 178/4/3
f 181/3/3 154/3/3 179/3/3
f 181/4/3 179/4/3 180/4/3
f 182/3/3 177/3/3 176/3/3
f 182/2/3 176/2/3 155/2/3
f 183/3/3 177/3/3 182/3/3
f 184/3/3 180/3/3 170/3/3
f 185/3/3 154/3/3 181/3/3
f 186/2/3 175/2/3 174/2/3
f 187/2/3 175/2/3 186/2/3
f 189/3/3 184/3/3 170/3/3
f 190/3/3 184/3/3 189/3/3
f 191/2/3 189/2/3 188/2/3
f 191/2/3 190/2/3 189/2/3
f 192/2/3 190/2/3 191/2/3
f 193/4/3 185/4/3 184/4/3
f 193/3/3 184/3/3 190/3/3
f 194/3/3 154/3/3 185/3/3
f 194/4/3 185/4/3 193/4/3
f 195/1/3 192/1/3 191/1/3
f 196/2/3 190/2/3 192/2/3
f 196/1/3 192/1/3 195/1/3
f 197/3/3 193/3/3 190/3/3
f 197/2/3 190/2/3 196/2/3
f 198/2/3 196/2/3 195/2/3
f 199/1/3 197/1/3 196/1/3
f 199/2/3 196/2/3 198/2/3
f 200/3/3 193/3/3 197/3/3
f 200/1/3 197/1/3 199/1/3
f 201/3/3 193/3/3 200/3/3
f 202/3/3 154/3/3 194/3/3
f 203/3/3 202/3/3 201/3/3
f 203/3/3 201/3/3 200/3/3
f 203/3/3 200/3/3 199/3/3
f 204/3/3 154/3/3 202/3/3
f 204/3/3 202/3/3 203/3/3
f 205/2/3 182/2/3 155/2/3
f 206/2/3 182/2/3 205/2/3
f 209/2/3 208/2/3 207/2/3
f 210/2/3 208/2/3 209/2/3
f 213/2/3 212/2/3 211/2/3
f 214/2/3 212/2/3 213/2/3
f 217/2/3 216/2/3 215/2/3
f 218/2/3 216/2/3 217/2/3
f 221/2/3 220/2/3 219/2/3
f 222/2/3 220/2/3 221/2/3
f 225/2/3 224/2/3 223/2/3
f 226/2/3 224/2/3 225/2/3
f 227/1/3 226/1/3 225/1/3
f 228/1/3 226/1/3 227/1/3
f 229/2/3 228/2/3 227/2/3
f 230/2/3 228/2/3 229/2/3
f 233/2/3 232/2/3 231/2/3
f 234/2/3 232/2/3 233/2/3
f 235/1/3 234/1/3 233/1/3
f 236/1/3 234/1/3 235/1/3
f 237/2/3 236/2/3 235/2/3
f 238/2/3 236/2/3 237/2/3
f 239/2/4 240/2/4 241/2/4
f 241/2/4 240/2/4 242/2/4
f 241/1/4 242/1/4 243/1/4
f 243/1/4 242/1/4 244/1/4
f 243/2/4 244/2/4 245/2/4
f 245/2/4 244/2/4 246/2/4
f 247/2/4 248/2/4 249/2/4
f 249/2/4 248/2/4 250/2/4
f 249/1/4 250/1/4 251/1/4
f 251/1/4 250/1/4 252/1/4
f 251/2/4 252/2/4 253/2/4
f 253/2/4 252/2/4 254/2/4
f 255/2/4 256/2/4 257/2/4
f 257/2/4 256/2/4 258/2/4
f 259/2/4 260/2/4 261/2/4
f 261/2/4 260/2/4 262/2/4
f 263/2/4 264/2/4 265/2/4
f 265/2/4 264/2/4 266/2/4
f 267/2/4 268/2/4 269/2/4
f 269/2/4 268/2/4 270/2/4
f 271/3/4 272/3/4 276/3/4
f 276/3/4 272/3/4 277/3/4
f 277/3/4 272/3/4 278/3/4
f 278/3/4 272/3/4 279/3/4
f 275/2/4 276/2/4 280/2/4
f 276/2/4 277/2/4 280/2/4
f 280/2/4 277/2/4 281/2/4
f 280/1/4 281/1/4 282/1/4
f 281/2/4 277/2/4 283/2/4
f 282/1/4 281/1/4 283/1/4
f 277/3/4 278/3/4 284/3/4
f 283/2/4 277/2/4 284/2/4
f 284/3/4 278/3/4 285/3/4
f 279/3/4 272/3/4 286/3/4
f 282/2/4 283/2/4 287/2/4
f 283/1/4 284/1/4 288/1/4
f 287/2/4 283/2/4 288/2/4
f 284/3/4 285/3/4 289/3/4
f 288/1/4 284/1/4 289/1/4
f 289/3/4 285/3/4 290/3/4
f 288/3/4 289/3/4 290/3/4
f 285/4/4 286/4/4 290/4/4
f 286/3/4 272/3/4 291/3/4
f 290/4/4 286/4/4 291/4/4
f 273/2/4 274/2/4 294/2/4
f 288/3/4 290/3/4 296/3/4
f 291/3/4 272/3/4 297/3/4
f 288/3/4 296/3/4 298/3/4
f 296/4/4 297/4/4 298/4/4
f 297/3/4 272/3/4 299/3/4
f 298/4/4 297/4/4 299/4/4
f 294/3/4 295/3/4 300/3/4
f 273/2/4 294/2/4 300/2/4
f 300/3/4 295/3/4 301/3/4
f 288/3/4 298/3/4 302/3/4
f 299/3/4 272/3/4 303/3/4
f 292/2/4 293/2/4 304/2/4
f 304/2/4 293/2/4 305/2/4
f 288/3/4 302/3/4 307/3/4
f 307/3/4 302/3/4 308/3/4
f 306/2/4 307/2/4 309/2/4
f 307/2/4 308/2/4 309/2/4
f 309/2/4 308/2/4 310/2/4
f 302/4/4 303/4/4 311/4/4
f 308/3/4 302/3/4 311/3/4
f 303/3/4 272/3/4 312/3/4
f 311/4/4 303/4/4 312/4/4
f 309/1/4 310/1/4 313/1/4
f 310/2/4 308/2/4 314/2/4
f 313/1/4 310/1/4 314/1/4
f 308/3/4 311/3/4 315/3/4
f 314/2/4 308/2/4 315/2/4
f 313/2/4 314/2/4 316/2/4
f 314/1/4 315/1/4 317/1/4
f 316/2/4 314/2/4 317/2/4
f 315/3/4 311/3/4 318/3/4
f 317/1/4 315/1/4 318/1/4
f 318/3/4 311/3/4 319/3/4
f 312/3/4 272/3/4 320/3/4
f 319/3/4 320/3/4 321/3/4
f 318/3/4 319/3/4 321/3/4
f 317/3/4 318/3/4 321/3/4
f 320/3/4 272/3/4 322/3/4
f 321/3/4 320/3/4 322/3/4
f 273/2/4 300/2/4 323/2/4
f 323/2/4 300/2/4 324/2/4
f 327/2/4 328/2/4 329/2/4
f 329/2/4 328/2/4 330/2/4
f 325/2/4 326/2/4 331/2/4
f 331/2/4 326/2/4 332/2/4
f 341/2/5 334/2/5 333/2/5
f 342/1/5 335/1/5 334/1/5
f 342/2/5 334/2/5 341/2/5
f 343/2/5 336/2/5 335/2/5
f 343/1/5 335/1/5 342/1/5
f 344/2/5 336/2/5 343/2/5
f 345/2/5 338/2/5 337/2/5
f 346/1/5 339/1/5 338/1/5
f 346/2/5 338/2/5 345/2/5
f 347/2/5 340/2/5 339/2/5
f 347/1/5 339/1/5 346/1/5
f 348/2/5 340/2/5 347/2/5
f 357/2/5 350/2/5 349/2/5
f 358/1/5 351/1/5 350/1/5
f 358/2/5 350/2/5 357/2/5
f 359/2/5 352/2/5 351/2/5
f 359/1/5 351/1/5 358/1/5
f 360/2/5 352/2/5 359/2/5
f 361/2/5 354/2/5 353/2/5
f 362/1/5 355/1/5 354/1/5
f 362/2/5 354/2/5 361/2/5
f 363/2/5 356/2/5 355/2/5
f 363/1/5 355/1/5 362/1/5
f 364/2/5 356/2/5 363/2/5
f 371/3/5 366/3/5 365/3/5
f 374/3/5 368/3/5 367/3/5
f 375/3/5 368/3/5 374/3/5
f 378/3/5 370/3/5 369/3/5
f 379/3/5 377/3/5 376/3/5
f 379/3/5 378/3/5 377/3/5
f 379/3/5 373/3/5 372/3/5
f 379/3/5 371/3/5 365/3/5
f 379/3/5 376/3/5 375/3/5
f 379/3/5 375/3/5 374/3/5
f 379/3/5 374/3/5 373/3/5
f 379/3/5 372/3/5 371/3/5
f 380/3/5 378/3/5 379/3/5
f 381/3/5 378/3/5 380/3/5
f 382/3/5 378/3/5 381/3/5
f 383/3/5 378/3/5 382/3/5
f 384/3/5 378/3/5 383/3/5
f 385/3/5 378/3/5 384/3/5
f 386/3/5 370/3/5 378/3/5
f 386/3/5 378/3/5 385/3/5
f 387/3/5 379/3/5 365/3/5
f 388/3/5 379/3/5 387/3/5
f 389/3/5 383/3/5 382/3/5
f 390/3/5 383/3/5 389/3/5
f 391/3/5 370/3/5 386/3/5
f 392/3/5 370/3/5 391/3/5
f 401/3/5 394/3/5 393/3/5
f 402/3/5 394/3/5 401/3/5
f 403/3/5 396/3/5 395/3/5
f 404/3/5 396/3/5 403/3/5
f 405/3/5 398/3/5 397/3/5
f 406/3/5 398/3/5 405/3/5
f 407/3/5 400/3/5 399/3/5
f 408/3/5 400/3/5 407/3/5
f 417/3/5 410/3/5 409/3/5
f 418/3/5 410/3/5 417/3/5
f 419/3/5 412/3/5 411/3/5
f 420/3/5 412/3/5 419/3/5
f 421/3/5 414/3/5 413/3/5
f 422/3/5 414/3/5 421/3/5
f 423/3/5 416/3/5 415/3/5
f 424/3/5 416/3/5 423/3/5
f 427/2/5 426/2/5 425/2/5
f 428/2/5 426/2/5 427/2/5
f 431/2/5 430/2/5 429/2/5
f 432/2/5 430/2/5 431/2/5
f 435/2/5 434/2/5 433/2/5
f 436/2/5 434/2/5 435/2/5
f 437/2/5 435/2/5 433/2/5
f 438/2/5 434/2/5 436/2/5
f 439/2/5 437/2/5 433/2/5
f 439/2/5 438/2/5 437/2/5
f 440/2/5 434/2/5 438/2/5
f 440/2/5 438/2/5 439/2/5
f 441/3/6 442/3/6 449/3/6
f 449/3/6 442/3/6 450/3/6
f 443/3/6 444/3/6 451/3/6
f 451/3/6 444/3/6 452/3/6
f 445/3/6 446/3/6 453/3/6
f 453/3/6 446/3/6 454/3/6
f 447/3/6 448/3/6 455/3/6
f 455/3/6 448/3/6 456/3/6
f 457/3/6 458/3/6 465/3/6
f 465/3/6 458/3/6 466/3/6
f 459/3/6 460/3/6 467/3/6
f 467/3/6 460/3/6 468/3/6
f 461/3/6 462/3/6 469/3/6
f 469/3/6 462/3/6 470/3/6
f 463/3/6 464/3/6 471/3/6
f 471/3/6 464/3/6 472/3/6
f 473/2/6 474/2/6 475/2/6
f 475/2/6 474/2/6 476/2/6
f 477/2/6 478/2/6 479/2/6
f 479/2/6 478/2/6 480/2/6
f 481/2/6 482/2/6 485/2/6
f 485/2/6 482/2/6 486/2/6
f 483/2/6 484/2/6 487/2/6
f 487/2/6 484/2/6 488/2/6
f 489/2/6 490/2/6 491/2/6
f 491/2/6 490/2/6 492/2/6
f 493/2/6 494/2/6 495/2/6
f 495/2/6 494/2/6 496/2/6
f 497/2/6 498/2/6 499/2/6
f 499/2/6 498/2/6 500/2/6
