# MagicaVoxel @ Ephtracy

# group
o 

# material
mtllib CoalCar.mtl
usemtl palette

# normals
vn -1 0 0
vn 1 0 0
vn 0 0 1
vn 0 0 -1
vn 0 -1 0
vn 0 1 0

# texcoords
vt 0.00976563 0.5
vt 0.0136719 0.5

# verts
v -0.6 0.1 0.4
v -0.6 0.1 -0.4
v -0.6 0.7 0.4
v -0.6 0.7 -0.4
v -0.5 0 0.3
v -0.5 0 0.2
v -0.5 0 -0.2
v -0.5 0 -0.3
v -0.5 0.1 0.3
v -0.5 0.1 0.2
v -0.5 0.1 -0.2
v -0.5 0.1 -0.3
v -0.5 0.7 0.3
v -0.5 0.7 -0.3
v -0.5 0.8 0.3
v -0.5 0.8 -0.3
v 0.3 0 0.3
v 0.3 0 0.2
v 0.3 0 -0.2
v 0.3 0 -0.3
v 0.3 0.1 0.3
v 0.3 0.1 0.2
v 0.3 0.1 -0.2
v 0.3 0.1 -0.3
v -0.3 0 0.3
v -0.3 0 0.2
v -0.3 0 -0.2
v -0.3 0 -0.3
v -0.3 0.1 0.3
v -0.3 0.1 0.2
v -0.3 0.1 -0.2
v -0.3 0.1 -0.3
v 0.5 0 0.3
v 0.5 0 0.2
v 0.5 0 -0.2
v 0.5 0 -0.3
v 0.5 0.1 0.3
v 0.5 0.1 0.2
v 0.5 0.1 -0.2
v 0.5 0.1 -0.3
v 0.5 0.7 0.3
v 0.5 0.7 -0.3
v 0.5 0.8 0.3
v 0.5 0.8 -0.3
v 0.6 0.1 0.4
v 0.6 0.1 -0.4
v 0.6 0.7 0.4
v 0.6 0.7 -0.4
v -0.6 0.1 0.4
v -0.6 0.7 0.4
v 0.6 0.1 0.4
v 0.6 0.7 0.4
v -0.5 0 0.3
v -0.5 0.1 0.3
v -0.5 0.7 0.3
v -0.5 0.8 0.3
v -0.3 0 0.3
v -0.3 0.1 0.3
v 0.3 0 0.3
v 0.3 0.1 0.3
v 0.5 0 0.3
v 0.5 0.1 0.3
v 0.5 0.7 0.3
v 0.5 0.8 0.3
v -0.5 0 -0.2
v -0.5 0.1 -0.2
v -0.3 0 -0.2
v -0.3 0.1 -0.2
v 0.3 0 -0.2
v 0.3 0.1 -0.2
v 0.5 0 -0.2
v 0.5 0.1 -0.2
v -0.5 0 0.2
v -0.5 0.1 0.2
v -0.3 0 0.2
v -0.3 0.1 0.2
v 0.3 0 0.2
v 0.3 0.1 0.2
v 0.5 0 0.2
v 0.5 0.1 0.2
v -0.5 0 -0.3
v -0.5 0.1 -0.3
v -0.5 0.7 -0.3
v -0.5 0.8 -0.3
v -0.3 0 -0.3
v -0.3 0.1 -0.3
v 0.3 0 -0.3
v 0.3 0.1 -0.3
v 0.5 0 -0.3
v 0.5 0.1 -0.3
v 0.5 0.7 -0.3
v 0.5 0.8 -0.3
v -0.6 0.1 -0.4
v -0.6 0.7 -0.4
v 0.6 0.1 -0.4
v 0.6 0.7 -0.4
v -0.5 0 0.3
v -0.3 0 0.3
v 0.3 0 0.3
v 0.5 0 0.3
v -0.5 0 0.2
v -0.3 0 0.2
v 0.3 0 0.2
v 0.5 0 0.2
v -0.5 0 -0.2
v -0.3 0 -0.2
v 0.3 0 -0.2
v 0.5 0 -0.2
v -0.5 0 -0.3
v -0.3 0 -0.3
v 0.3 0 -0.3
v 0.5 0 -0.3
v -0.6 0.1 0.4
v 0.6 0.1 0.4
v -0.5 0.1 0.3
v -0.3 0.1 0.3
v 0.3 0.1 0.3
v 0.5 0.1 0.3
v -0.5 0.1 0.2
v -0.3 0.1 0.2
v 0.3 0.1 0.2
v 0.5 0.1 0.2
v -0.5 0.1 -0.2
v -0.3 0.1 -0.2
v 0.3 0.1 -0.2
v 0.5 0.1 -0.2
v -0.5 0.1 -0.3
v -0.3 0.1 -0.3
v 0.3 0.1 -0.3
v 0.5 0.1 -0.3
v -0.6 0.1 -0.4
v 0.6 0.1 -0.4
v -0.6 0.7 0.4
v 0.6 0.7 0.4
v -0.5 0.7 0.3
v 0.5 0.7 0.3
v -0.5 0.7 -0.3
v 0.5 0.7 -0.3
v -0.6 0.7 -0.4
v 0.6 0.7 -0.4
v -0.5 0.8 0.3
v 0.5 0.8 0.3
v -0.5 0.8 -0.3
v 0.5 0.8 -0.3

# faces
f 3/2/1 2/2/1 1/2/1
f 4/2/1 2/2/1 3/2/1
f 9/1/1 6/1/1 5/1/1
f 10/1/1 6/1/1 9/1/1
f 11/1/1 8/1/1 7/1/1
f 12/1/1 8/1/1 11/1/1
f 15/1/1 14/1/1 13/1/1
f 16/1/1 14/1/1 15/1/1
f 21/1/1 18/1/1 17/1/1
f 22/1/1 18/1/1 21/1/1
f 23/1/1 20/1/1 19/1/1
f 24/1/1 20/1/1 23/1/1
f 25/1/2 26/1/2 29/1/2
f 29/1/2 26/1/2 30/1/2
f 27/1/2 28/1/2 31/1/2
f 31/1/2 28/1/2 32/1/2
f 33/1/2 34/1/2 37/1/2
f 37/1/2 34/1/2 38/1/2
f 35/1/2 36/1/2 39/1/2
f 39/1/2 36/1/2 40/1/2
f 41/1/2 42/1/2 43/1/2
f 43/1/2 42/1/2 44/1/2
f 45/2/2 46/2/2 47/2/2
f 47/2/2 46/2/2 48/2/2
f 51/2/3 50/2/3 49/2/3
f 52/2/3 50/2/3 51/2/3
f 57/1/3 54/1/3 53/1/3
f 58/1/3 54/1/3 57/1/3
f 61/1/3 60/1/3 59/1/3
f 62/1/3 60/1/3 61/1/3
f 63/1/3 56/1/3 55/1/3
f 64/1/3 56/1/3 63/1/3
f 67/1/3 66/1/3 65/1/3
f 68/1/3 66/1/3 67/1/3
f 71/1/3 70/1/3 69/1/3
f 72/1/3 70/1/3 71/1/3
f 73/1/4 74/1/4 75/1/4
f 75/1/4 74/1/4 76/1/4
f 77/1/4 78/1/4 79/1/4
f 79/1/4 78/1/4 80/1/4
f 81/1/4 82/1/4 85/1/4
f 85/1/4 82/1/4 86/1/4
f 87/1/4 88/1/4 89/1/4
f 89/1/4 88/1/4 90/1/4
f 83/1/4 84/1/4 91/1/4
f 91/1/4 84/1/4 92/1/4
f 93/2/4 94/2/4 95/2/4
f 95/2/4 94/2/4 96/2/4
f 101/1/5 98/1/5 97/1/5
f 102/1/5 98/1/5 101/1/5
f 103/1/5 100/1/5 99/1/5
f 104/1/5 100/1/5 103/1/5
f 109/1/5 106/1/5 105/1/5
f 110/1/5 106/1/5 109/1/5
f 111/1/5 108/1/5 107/1/5
f 112/1/5 108/1/5 111/1/5
f 115/2/5 114/2/5 113/2/5
f 116/2/5 114/2/5 115/2/5
f 117/2/5 114/2/5 116/2/5
f 118/2/5 114/2/5 117/2/5
f 119/2/5 115/2/5 113/2/5
f 120/2/5 117/2/5 116/2/5
f 121/2/5 117/2/5 120/2/5
f 122/2/5 114/2/5 118/2/5
f 123/2/5 121/2/5 120/2/5
f 123/2/5 122/2/5 121/2/5
f 123/2/5 119/2/5 113/2/5
f 123/2/5 120/2/5 119/2/5
f 124/2/5 122/2/5 123/2/5
f 125/2/5 122/2/5 124/2/5
f 126/2/5 114/2/5 122/2/5
f 126/2/5 122/2/5 125/2/5
f 127/2/5 123/2/5 113/2/5
f 128/2/5 125/2/5 124/2/5
f 129/2/5 125/2/5 128/2/5
f 130/2/5 114/2/5 126/2/5
f 131/2/5 127/2/5 113/2/5
f 131/2/5 130/2/5 129/2/5
f 131/2/5 129/2/5 128/2/5
f 131/2/5 128/2/5 127/2/5
f 132/2/5 114/2/5 130/2/5
f 132/2/5 130/2/5 131/2/5
f 133/2/6 134/2/6 135/2/6
f 135/2/6 134/2/6 136/2/6
f 133/2/6 135/2/6 137/2/6
f 136/2/6 134/2/6 138/2/6
f 133/2/6 137/2/6 139/2/6
f 137/2/6 138/2/6 139/2/6
f 138/2/6 134/2/6 140/2/6
f 139/2/6 138/2/6 140/2/6
f 141/1/6 142/1/6 143/1/6
f 143/1/6 142/1/6 144/1/6
