# MagicaVoxel @ Ephtracy

# group
g Train1

# material
mtllib Train1.mtl
usemtl palette

# normals
vn -1 0 0
vn 1 0 0
vn 0 0 1
vn 0 0 -1
vn 0 -1 0
vn 0 1 0

# texcoords
vt 0.0136719 0.5
vt 0.0175781 0.5
vt 0.0371094 0.5
vt 0.0488281 0.5
vt 0.166016 0.5

# verts
v -7 2 1.5
v -7 2 -1.5
v -7 3 2.5
v -7 3 1.5
v -7 3 -1.5
v -7 3 -2.5
v -7 5 2.5
v -7 5 1.5
v -7 5 -1.5
v -7 5 -2.5
v -7 6 1.5
v -7 6 -1.5
v -7 7 1.5
v -7 7 -1.5
v -6 1 1.5
v -6 1 -1.5
v -6 2 2.5
v -6 2 1.5
v -6 2 -1.5
v -6 2 -2.5
v -6 3 2.5
v -6 3 1.5
v -6 3 -1.5
v -6 3 -2.5
v -6 5 2.5
v -6 5 1.5
v -6 5 -1.5
v -6 5 -2.5
v -6 6 2.5
v -6 6 1.5
v -6 6 -1.5
v -6 6 -2.5
v -6 7 2.5
v -6 7 1.5
v -6 7 -1.5
v -6 7 -2.5
v -6 8 1.5
v -6 8 -1.5
v -4 0 2.5
v -4 0 1.5
v -4 0 -1.5
v -4 0 -2.5
v -4 1 1.5
v -4 1 -1.5
v -4 2 2.5
v -4 2 1.5
v -4 2 -1.5
v -4 2 -2.5
v 2 0 2.5
v 2 0 1.5
v 2 0 -1.5
v 2 0 -2.5
v 2 1 1.5
v 2 1 -1.5
v 2 2 2.5
v 2 2 1.5
v 2 2 -1.5
v 2 2 -2.5
v -2 0 2.5
v -2 0 1.5
v -2 0 -1.5
v -2 0 -2.5
v -2 1 1.5
v -2 1 -1.5
v -2 2 2.5
v -2 2 1.5
v -2 2 -1.5
v -2 2 -2.5
v 4 0 2.5
v 4 0 1.5
v 4 0 -1.5
v 4 0 -2.5
v 4 1 1.5
v 4 1 -1.5
v 4 2 2.5
v 4 2 1.5
v 4 2 -1.5
v 4 2 -2.5
v 6 1 1.5
v 6 1 -1.5
v 6 2 2.5
v 6 2 1.5
v 6 2 -1.5
v 6 2 -2.5
v 6 3 2.5
v 6 3 1.5
v 6 3 -1.5
v 6 3 -2.5
v 6 5 2.5
v 6 5 1.5
v 6 5 -1.5
v 6 5 -2.5
v 6 6 2.5
v 6 6 1.5
v 6 6 -1.5
v 6 6 -2.5
v 6 7 2.5
v 6 7 1.5
v 6 7 -1.5
v 6 7 -2.5
v 6 8 1.5
v 6 8 -1.5
v 7 2 1.5
v 7 2 -1.5
v 7 3 2.5
v 7 3 1.5
v 7 3 -1.5
v 7 3 -2.5
v 7 5 2.5
v 7 5 1.5
v 7 5 -1.5
v 7 5 -2.5
v 7 6 1.5
v 7 6 -1.5
v 7 7 1.5
v 7 7 -1.5
v -7 3 2.5
v -7 5 2.5
v -6 2 2.5
v -6 3 2.5
v -6 5 2.5
v -6 6 2.5
v -6 7 2.5
v -5 3 2.5
v -5 5 2.5
v -4 0 2.5
v -4 2 2.5
v -3 3 2.5
v -3 5 2.5
v -2 0 2.5
v -2 2 2.5
v -1 3 2.5
v -1 5 2.5
v 1 3 2.5
v 1 5 2.5
v 2 0 2.5
v 2 2 2.5
v 3 3 2.5
v 3 5 2.5
v 4 0 2.5
v 4 2 2.5
v 5 3 2.5
v 5 5 2.5
v 6 2 2.5
v 6 3 2.5
v 6 5 2.5
v 6 6 2.5
v 6 7 2.5
v 7 3 2.5
v 7 5 2.5
v -7 2 1.5
v -7 3 1.5
v -7 5 1.5
v -7 6 1.5
v -7 7 1.5
v -6 1 1.5
v -6 2 1.5
v -6 3 1.5
v -6 5 1.5
v -6 6 1.5
v -6 7 1.5
v -6 8 1.5
v -4 1 1.5
v -4 2 1.5
v -2 1 1.5
v -2 2 1.5
v 2 1 1.5
v 2 2 1.5
v 4 1 1.5
v 4 2 1.5
v 6 1 1.5
v 6 2 1.5
v 6 3 1.5
v 6 5 1.5
v 6 6 1.5
v 6 7 1.5
v 6 8 1.5
v 7 2 1.5
v 7 3 1.5
v 7 5 1.5
v 7 6 1.5
v 7 7 1.5
v -4 0 -1.5
v -4 1 -1.5
v -2 0 -1.5
v -2 1 -1.5
v 2 0 -1.5
v 2 1 -1.5
v 4 0 -1.5
v 4 1 -1.5
v -4 0 1.5
v -4 1 1.5
v -2 0 1.5
v -2 1 1.5
v 2 0 1.5
v 2 1 1.5
v 4 0 1.5
v 4 1 1.5
v -7 2 -1.5
v -7 3 -1.5
v -7 5 -1.5
v -7 6 -1.5
v -7 7 -1.5
v -6 1 -1.5
v -6 2 -1.5
v -6 3 -1.5
v -6 5 -1.5
v -6 6 -1.5
v -6 7 -1.5
v -6 8 -1.5
v -4 1 -1.5
v -4 2 -1.5
v -2 1 -1.5
v -2 2 -1.5
v 2 1 -1.5
v 2 2 -1.5
v 4 1 -1.5
v 4 2 -1.5
v 6 1 -1.5
v 6 2 -1.5
v 6 3 -1.5
v 6 5 -1.5
v 6 6 -1.5
v 6 7 -1.5
v 6 8 -1.5
v 7 2 -1.5
v 7 3 -1.5
v 7 5 -1.5
v 7 6 -1.5
v 7 7 -1.5
v -7 3 -2.5
v -7 5 -2.5
v -6 2 -2.5
v -6 3 -2.5
v -6 5 -2.5
v -6 6 -2.5
v -6 7 -2.5
v -5 3 -2.5
v -5 5 -2.5
v -4 0 -2.5
v -4 2 -2.5
v -3 3 -2.5
v -3 5 -2.5
v -2 0 -2.5
v -2 2 -2.5
v -1 3 -2.5
v -1 5 -2.5
v 1 3 -2.5
v 1 5 -2.5
v 2 0 -2.5
v 2 2 -2.5
v 3 3 -2.5
v 3 5 -2.5
v 4 0 -2.5
v 4 2 -2.5
v 5 3 -2.5
v 5 5 -2.5
v 6 2 -2.5
v 6 3 -2.5
v 6 5 -2.5
v 6 6 -2.5
v 6 7 -2.5
v 7 3 -2.5
v 7 5 -2.5
v -4 0 2.5
v -2 0 2.5
v 2 0 2.5
v 4 0 2.5
v -4 0 1.5
v -2 0 1.5
v 2 0 1.5
v 4 0 1.5
v -4 0 -1.5
v -2 0 -1.5
v 2 0 -1.5
v 4 0 -1.5
v -4 0 -2.5
v -2 0 -2.5
v 2 0 -2.5
v 4 0 -2.5
v -6 1 1.5
v -4 1 1.5
v -2 1 1.5
v 2 1 1.5
v 4 1 1.5
v 6 1 1.5
v -6 1 -1.5
v -4 1 -1.5
v -2 1 -1.5
v 2 1 -1.5
v 4 1 -1.5
v 6 1 -1.5
v -6 2 2.5
v -4 2 2.5
v -2 2 2.5
v 2 2 2.5
v 4 2 2.5
v 6 2 2.5
v -7 2 1.5
v -6 2 1.5
v -4 2 1.5
v -2 2 1.5
v 2 2 1.5
v 4 2 1.5
v 6 2 1.5
v 7 2 1.5
v -7 2 -1.5
v -6 2 -1.5
v -4 2 -1.5
v -2 2 -1.5
v 2 2 -1.5
v 4 2 -1.5
v 6 2 -1.5
v 7 2 -1.5
v -6 2 -2.5
v -4 2 -2.5
v -2 2 -2.5
v 2 2 -2.5
v 4 2 -2.5
v 6 2 -2.5
v -7 3 2.5
v -6 3 2.5
v 6 3 2.5
v 7 3 2.5
v -7 3 1.5
v -6 3 1.5
v 6 3 1.5
v 7 3 1.5
v -7 3 -1.5
v -6 3 -1.5
v 6 3 -1.5
v 7 3 -1.5
v -7 3 -2.5
v -6 3 -2.5
v 6 3 -2.5
v 7 3 -2.5
v -7 5 2.5
v -6 5 2.5
v 6 5 2.5
v 7 5 2.5
v -7 5 1.5
v -6 5 1.5
v 6 5 1.5
v 7 5 1.5
v -7 5 -1.5
v -6 5 -1.5
v 6 5 -1.5
v 7 5 -1.5
v -7 5 -2.5
v -6 5 -2.5
v 6 5 -2.5
v 7 5 -2.5
v -6 7 2.5
v 6 7 2.5
v -7 7 1.5
v -6 7 1.5
v 6 7 1.5
v 7 7 1.5
v -7 7 -1.5
v -6 7 -1.5
v 6 7 -1.5
v 7 7 -1.5
v -6 7 -2.5
v 6 7 -2.5
v -6 8 1.5
v 6 8 1.5
v -6 8 -1.5
v 6 8 -1.5

# faces
f 4/5/1 2/5/1 1/5/1
f 5/5/1 2/5/1 4/5/1
f 7/5/1 4/5/1 3/5/1
f 7/5/1 6/5/1 5/5/1
f 7/5/1 5/5/1 4/5/1
f 8/5/1 6/5/1 7/5/1
f 9/5/1 6/5/1 8/5/1
f 10/5/1 6/5/1 9/5/1
f 11/5/1 9/5/1 8/5/1
f 12/5/1 9/5/1 11/5/1
f 13/4/1 12/4/1 11/4/1
f 14/4/1 12/4/1 13/4/1
f 18/2/1 16/2/1 15/2/1
f 19/2/1 16/2/1 18/2/1
f 21/5/1 18/5/1 17/5/1
f 22/5/1 18/5/1 21/5/1
f 23/5/1 20/5/1 19/5/1
f 24/5/1 20/5/1 23/5/1
f 29/5/1 26/5/1 25/5/1
f 30/5/1 26/5/1 29/5/1
f 31/5/1 28/5/1 27/5/1
f 32/5/1 28/5/1 31/5/1
f 33/4/1 30/4/1 29/4/1
f 34/4/1 30/4/1 33/4/1
f 35/4/1 32/4/1 31/4/1
f 36/4/1 32/4/1 35/4/1
f 37/4/1 35/4/1 34/4/1
f 38/4/1 35/4/1 37/4/1
f 43/1/1 40/1/1 39/1/1
f 44/1/1 42/1/1 41/1/1
f 45/1/1 43/1/1 39/1/1
f 46/1/1 43/1/1 45/1/1
f 47/1/1 42/1/1 44/1/1
f 48/1/1 42/1/1 47/1/1
f 53/1/1 50/1/1 49/1/1
f 54/1/1 52/1/1 51/1/1
f 55/1/1 53/1/1 49/1/1
f 56/1/1 53/1/1 55/1/1
f 57/1/1 52/1/1 54/1/1
f 58/1/1 52/1/1 57/1/1
f 59/1/2 60/1/2 63/1/2
f 61/1/2 62/1/2 64/1/2
f 59/1/2 63/1/2 65/1/2
f 65/1/2 63/1/2 66/1/2
f 64/1/2 62/1/2 67/1/2
f 67/1/2 62/1/2 68/1/2
f 69/1/2 70/1/2 73/1/2
f 71/1/2 72/1/2 74/1/2
f 69/1/2 73/1/2 75/1/2
f 75/1/2 73/1/2 76/1/2
f 74/1/2 72/1/2 77/1/2
f 77/1/2 72/1/2 78/1/2
f 79/2/2 80/2/2 82/2/2
f 82/2/2 80/2/2 83/2/2
f 81/5/2 82/5/2 85/5/2
f 85/5/2 82/5/2 86/5/2
f 83/5/2 84/5/2 87/5/2
f 87/5/2 84/5/2 88/5/2
f 89/5/2 90/5/2 93/5/2
f 93/5/2 90/5/2 94/5/2
f 91/5/2 92/5/2 95/5/2
f 95/5/2 92/5/2 96/5/2
f 93/4/2 94/4/2 97/4/2
f 97/4/2 94/4/2 98/4/2
f 95/4/2 96/4/2 99/4/2
f 99/4/2 96/4/2 100/4/2
f 98/4/2 99/4/2 101/4/2
f 101/4/2 99/4/2 102/4/2
f 103/5/2 104/5/2 106/5/2
f 106/5/2 104/5/2 107/5/2
f 105/5/2 106/5/2 109/5/2
f 107/5/2 108/5/2 109/5/2
f 106/5/2 107/5/2 109/5/2
f 109/5/2 108/5/2 110/5/2
f 110/5/2 108/5/2 111/5/2
f 111/5/2 108/5/2 112/5/2
f 110/5/2 111/5/2 113/5/2
f 113/5/2 111/5/2 114/5/2
f 113/4/2 114/4/2 115/4/2
f 115/4/2 114/4/2 116/4/2
f 120/5/3 118/5/3 117/5/3
f 121/5/3 118/5/3 120/5/3
f 124/5/3 120/5/3 119/5/3
f 124/5/3 121/5/3 120/5/3
f 124/5/3 122/5/3 121/5/3
f 125/5/3 122/5/3 124/5/3
f 127/5/3 124/5/3 119/5/3
f 128/3/3 125/3/3 124/3/3
f 128/5/3 124/5/3 127/5/3
f 129/5/3 122/5/3 125/5/3
f 129/3/3 125/3/3 128/3/3
f 130/1/3 127/1/3 126/1/3
f 131/5/3 128/5/3 127/5/3
f 131/1/3 127/1/3 130/1/3
f 131/5/3 129/5/3 128/5/3
f 132/5/3 129/5/3 131/5/3
f 133/5/3 122/5/3 129/5/3
f 133/5/3 129/5/3 132/5/3
f 134/5/3 132/5/3 131/5/3
f 134/3/3 133/3/3 132/3/3
f 135/5/3 122/5/3 133/5/3
f 135/3/3 133/3/3 134/3/3
f 137/5/3 134/5/3 131/5/3
f 137/5/3 135/5/3 134/5/3
f 138/5/3 135/5/3 137/5/3
f 139/5/3 122/5/3 135/5/3
f 139/5/3 135/5/3 138/5/3
f 140/1/3 137/1/3 136/1/3
f 141/5/3 138/5/3 137/5/3
f 141/1/3 137/1/3 140/1/3
f 142/3/3 139/3/3 138/3/3
f 142/5/3 138/5/3 141/5/3
f 143/5/3 122/5/3 139/5/3
f 143/3/3 139/3/3 142/3/3
f 144/5/3 142/5/3 141/5/3
f 144/5/3 143/5/3 142/5/3
f 145/5/3 143/5/3 144/5/3
f 146/5/3 122/5/3 143/5/3
f 146/5/3 143/5/3 145/5/3
f 147/4/3 123/4/3 122/4/3
f 147/5/3 122/5/3 146/5/3
f 148/4/3 123/4/3 147/4/3
f 149/5/3 146/5/3 145/5/3
f 150/5/3 146/5/3 149/5/3
f 157/5/3 152/5/3 151/5/3
f 158/5/3 152/5/3 157/5/3
f 159/5/3 154/5/3 153/5/3
f 160/4/3 155/4/3 154/4/3
f 160/5/3 154/5/3 159/5/3
f 161/4/3 155/4/3 160/4/3
f 163/2/3 157/2/3 156/2/3
f 164/2/3 157/2/3 163/2/3
f 167/2/3 166/2/3 165/2/3
f 168/2/3 166/2/3 167/2/3
f 171/2/3 170/2/3 169/2/3
f 172/2/3 170/2/3 171/2/3
f 176/4/3 162/4/3 161/4/3
f 177/4/3 162/4/3 176/4/3
f 178/5/3 173/5/3 172/5/3
f 179/5/3 173/5/3 178/5/3
f 180/5/3 175/5/3 174/5/3
f 181/4/3 176/4/3 175/4/3
f 181/5/3 175/5/3 180/5/3
f 182/4/3 176/4/3 181/4/3
f 185/1/3 184/1/3 183/1/3
f 186/1/3 184/1/3 185/1/3
f 189/1/3 188/1/3 187/1/3
f 190/1/3 188/1/3 189/1/3
f 191/1/4 192/1/4 193/1/4
f 193/1/4 192/1/4 194/1/4
f 195/1/4 196/1/4 197/1/4
f 197/1/4 196/1/4 198/1/4
f 199/5/4 200/5/4 205/5/4
f 205/5/4 200/5/4 206/5/4
f 201/5/4 202/5/4 207/5/4
f 202/4/4 203/4/4 208/4/4
f 207/5/4 202/5/4 208/5/4
f 208/4/4 203/4/4 209/4/4
f 204/2/4 205/2/4 211/2/4
f 211/2/4 205/2/4 212/2/4
f 213/2/4 214/2/4 215/2/4
f 215/2/4 214/2/4 216/2/4
f 217/2/4 218/2/4 219/2/4
f 219/2/4 218/2/4 220/2/4
f 209/4/4 210/4/4 224/4/4
f 224/4/4 210/4/4 225/4/4
f 220/5/4 221/5/4 226/5/4
f 226/5/4 221/5/4 227/5/4
f 222/5/4 223/5/4 228/5/4
f 223/4/4 224/4/4 229/4/4
f 228/5/4 223/5/4 229/5/4
f 229/4/4 224/4/4 230/4/4
f 231/5/4 232/5/4 234/5/4
f 234/5/4 232/5/4 235/5/4
f 233/5/4 234/5/4 238/5/4
f 234/5/4 235/5/4 238/5/4
f 235/5/4 236/5/4 238/5/4
f 238/5/4 236/5/4 239/5/4
f 233/5/4 238/5/4 241/5/4
f 238/3/4 239/3/4 242/3/4
f 241/5/4 238/5/4 242/5/4
f 239/5/4 236/5/4 243/5/4
f 242/3/4 239/3/4 243/3/4
f 240/1/4 241/1/4 244/1/4
f 241/5/4 242/5/4 245/5/4
f 244/1/4 241/1/4 245/1/4
f 242/5/4 243/5/4 245/5/4
f 245/5/4 243/5/4 246/5/4
f 243/5/4 236/5/4 247/5/4
f 246/5/4 243/5/4 247/5/4
f 245/5/4 246/5/4 248/5/4
f 246/3/4 247/3/4 248/3/4
f 247/5/4 236/5/4 249/5/4
f 248/3/4 247/3/4 249/3/4
f 245/5/4 248/5/4 251/5/4
f 248/5/4 249/5/4 251/5/4
f 251/5/4 249/5/4 252/5/4
f 249/5/4 236/5/4 253/5/4
f 252/5/4 249/5/4 253/5/4
f 250/1/4 251/1/4 254/1/4
f 251/5/4 252/5/4 255/5/4
f 254/1/4 251/1/4 255/1/4
f 252/3/4 253/3/4 256/3/4
f 255/5/4 252/5/4 256/5/4
f 253/5/4 236/5/4 257/5/4
f 256/3/4 253/3/4 257/3/4
f 255/5/4 256/5/4 258/5/4
f 256/5/4 257/5/4 258/5/4
f 258/5/4 257/5/4 259/5/4
f 257/5/4 236/5/4 260/5/4
f 259/5/4 257/5/4 260/5/4
f 236/4/4 237/4/4 261/4/4
f 260/5/4 236/5/4 261/5/4
f 261/4/4 237/4/4 262/4/4
f 259/5/4 260/5/4 263/5/4
f 263/5/4 260/5/4 264/5/4
f 269/1/5 266/1/5 265/1/5
f 270/1/5 266/1/5 269/1/5
f 271/1/5 268/1/5 267/1/5
f 272/1/5 268/1/5 271/1/5
f 277/1/5 274/1/5 273/1/5
f 278/1/5 274/1/5 277/1/5
f 279/1/5 276/1/5 275/1/5
f 280/1/5 276/1/5 279/1/5
f 287/2/5 282/2/5 281/2/5
f 287/2/5 286/2/5 285/2/5
f 287/2/5 285/2/5 284/2/5
f 287/2/5 284/2/5 283/2/5
f 287/2/5 283/2/5 282/2/5
f 288/2/5 286/2/5 287/2/5
f 289/2/5 286/2/5 288/2/5
f 290/2/5 286/2/5 289/2/5
f 291/2/5 286/2/5 290/2/5
f 292/2/5 286/2/5 291/2/5
f 300/5/5 294/5/5 293/5/5
f 301/5/5 294/5/5 300/5/5
f 302/5/5 296/5/5 295/5/5
f 303/5/5 296/5/5 302/5/5
f 304/5/5 298/5/5 297/5/5
f 305/5/5 298/5/5 304/5/5
f 307/5/5 300/5/5 299/5/5
f 308/5/5 300/5/5 307/5/5
f 313/5/5 306/5/5 305/5/5
f 314/5/5 306/5/5 313/5/5
f 315/5/5 309/5/5 308/5/5
f 316/5/5 309/5/5 315/5/5
f 317/5/5 311/5/5 310/5/5
f 318/5/5 311/5/5 317/5/5
f 319/5/5 313/5/5 312/5/5
f 320/5/5 313/5/5 319/5/5
f 325/5/5 322/5/5 321/5/5
f 326/5/5 322/5/5 325/5/5
f 327/5/5 324/5/5 323/5/5
f 328/5/5 324/5/5 327/5/5
f 333/5/5 330/5/5 329/5/5
f 334/5/5 330/5/5 333/5/5
f 335/5/5 332/5/5 331/5/5
f 336/5/5 332/5/5 335/5/5
f 337/5/6 338/5/6 341/5/6
f 341/5/6 338/5/6 342/5/6
f 339/5/6 340/5/6 343/5/6
f 343/5/6 340/5/6 344/5/6
f 345/5/6 346/5/6 349/5/6
f 349/5/6 346/5/6 350/5/6
f 347/5/6 348/5/6 351/5/6
f 351/5/6 348/5/6 352/5/6
f 353/4/6 354/4/6 356/4/6
f 356/4/6 354/4/6 357/4/6
f 355/4/6 356/4/6 359/4/6
f 359/4/6 356/4/6 360/4/6
f 357/4/6 358/4/6 361/4/6
f 361/4/6 358/4/6 362/4/6
f 360/4/6 361/4/6 363/4/6
f 363/4/6 361/4/6 364/4/6
f 365/4/6 366/4/6 367/4/6
f 367/4/6 366/4/6 368/4/6
