# MagicaVoxel @ Ephtracy

# group
g BranchOak

# material
mtllib BranchOak.mtl
usemtl palette

# normals
vn -1 0 0
vn 1 0 0
vn 0 0 1
vn 0 0 -1
vn 0 -1 0
vn 0 1 0

# texcoords
vt 0.0761719 0.5
vt 0.0800781 0.5

# verts
v -2 0 1
v -2 0 -1
v -2 2 -0
v -2 2 -1
v -2 4 -0
v -2 4 -1
v -2 5 -0
v -2 5 -1
v -2 6 -0
v -2 6 -1
v -2 8 1
v -2 8 -1
v -1 0 2
v -1 0 1
v -1 0 -1
v -1 0 -2
v -1 1 2
v -1 1 1
v -1 2 2
v -1 2 1
v -1 2 -1
v -1 4 2
v -1 4 1
v -1 4 -1
v -1 5 -1
v -1 6 2
v -1 6 1
v -1 6 -1
v -1 6 -2
v -1 7 2
v -1 7 1
v -1 7 -1
v -1 7 -2
v -1 8 2
v -1 8 1
v -1 8 -1
v -1 8 -2
v 1 0 2
v 1 0 1
v 1 0 -1
v 1 0 -2
v 1 1 1
v 1 2 -1
v 1 3 -1
v 1 3 -2
v 1 4 1
v 1 5 -1
v 1 5 -2
v 1 6 1
v 1 8 2
v 1 8 1
v 1 8 -1
v 1 8 -2
v 2 0 1
v 2 0 -0
v 2 0 -1
v 2 1 1
v 2 1 -0
v 2 2 -0
v 2 2 -1
v 2 3 -0
v 2 3 -1
v 2 4 1
v 2 4 -0
v 2 6 1
v 2 6 -0
v 2 8 1
v 2 8 -1
v -1 0 2
v -1 1 2
v -1 2 2
v -1 4 2
v -1 6 2
v -1 7 2
v -1 8 2
v 0 0 2
v 0 1 2
v 0 2 2
v 0 4 2
v 0 6 2
v 0 7 2
v 1 0 2
v 1 8 2
v -2 0 1
v -2 8 1
v -1 0 1
v -1 1 1
v -1 2 1
v -1 4 1
v -1 6 1
v -1 7 1
v -1 8 1
v 1 0 1
v 1 1 1
v 1 4 1
v 1 6 1
v 1 8 1
v 2 0 1
v 2 1 1
v 2 4 1
v 2 6 1
v 2 8 1
v -2 0 -1
v -2 2 -1
v -2 4 -1
v -2 5 -1
v -2 6 -1
v -2 8 -1
v -1 0 -1
v -1 2 -1
v -1 4 -1
v -1 5 -1
v -1 6 -1
v -1 7 -1
v -1 8 -1
v 1 0 -1
v 1 2 -1
v 1 3 -1
v 1 5 -1
v 1 8 -1
v 2 0 -1
v 2 2 -1
v 2 3 -1
v 2 8 -1
v -1 0 -2
v -1 6 -2
v -1 7 -2
v -1 8 -2
v 0 3 -2
v 0 5 -2
v 0 6 -2
v 0 7 -2
v 1 0 -2
v 1 3 -2
v 1 5 -2
v 1 8 -2
v -1 0 2
v 0 0 2
v 1 0 2
v -2 0 1
v -1 0 1
v 0 0 1
v 1 0 1
v 2 0 1
v 1 0 -0
v 2 0 -0
v -2 0 -1
v -1 0 -1
v 1 0 -1
v 2 0 -1
v -1 0 -2
v 1 0 -2
v -1 8 2
v 1 8 2
v -2 8 1
v -1 8 1
v 1 8 1
v 2 8 1
v -2 8 -1
v -1 8 -1
v 1 8 -1
v 2 8 -1
v -1 8 -2
v 1 8 -2

# faces
f 3/2/1 2/2/1 1/2/1
f 4/2/1 2/2/1 3/2/1
f 5/2/1 3/2/1 1/2/1
f 5/1/1 4/1/1 3/1/1
f 6/1/1 4/1/1 5/1/1
f 7/2/1 5/2/1 1/2/1
f 7/2/1 6/2/1 5/2/1
f 8/2/1 6/2/1 7/2/1
f 9/2/1 7/2/1 1/2/1
f 9/1/1 8/1/1 7/1/1
f 10/1/1 8/1/1 9/1/1
f 11/2/1 9/2/1 1/2/1
f 11/2/1 10/2/1 9/2/1
f 12/2/1 10/2/1 11/2/1
f 17/1/1 14/1/1 13/1/1
f 18/1/1 14/1/1 17/1/1
f 19/2/1 18/2/1 17/2/1
f 20/2/1 18/2/1 19/2/1
f 21/2/1 16/2/1 15/2/1
f 22/1/1 20/1/1 19/1/1
f 23/1/1 20/1/1 22/1/1
f 24/2/1 16/2/1 21/2/1
f 25/2/1 16/2/1 24/2/1
f 26/2/1 23/2/1 22/2/1
f 27/2/1 23/2/1 26/2/1
f 28/2/1 16/2/1 25/2/1
f 29/2/1 16/2/1 28/2/1
f 30/1/1 27/1/1 26/1/1
f 31/1/1 27/1/1 30/1/1
f 32/1/1 29/1/1 28/1/1
f 33/1/1 29/1/1 32/1/1
f 34/2/1 31/2/1 30/2/1
f 35/2/1 31/2/1 34/2/1
f 36/2/1 33/2/1 32/2/1
f 37/2/1 33/2/1 36/2/1
f 38/2/2 39/2/2 42/2/2
f 40/2/2 41/2/2 43/2/2
f 43/2/2 41/2/2 44/2/2
f 44/2/2 41/2/2 45/2/2
f 38/2/2 42/2/2 46/2/2
f 44/1/2 45/1/2 47/1/2
f 47/1/2 45/1/2 48/1/2
f 38/2/2 46/2/2 49/2/2
f 38/2/2 49/2/2 50/2/2
f 50/2/2 49/2/2 51/2/2
f 47/2/2 48/2/2 52/2/2
f 52/2/2 48/2/2 53/2/2
f 54/1/2 55/1/2 57/1/2
f 55/2/2 56/2/2 58/2/2
f 57/1/2 55/1/2 58/1/2
f 57/2/2 58/2/2 59/2/2
f 58/2/2 56/2/2 59/2/2
f 59/2/2 56/2/2 60/2/2
f 57/2/2 59/2/2 61/2/2
f 59/1/2 60/1/2 61/1/2
f 61/1/2 60/1/2 62/1/2
f 57/2/2 61/2/2 63/2/2
f 61/2/2 62/2/2 63/2/2
f 63/2/2 62/2/2 64/2/2
f 63/1/2 64/1/2 65/1/2
f 64/2/2 62/2/2 66/2/2
f 65/1/2 64/1/2 66/1/2
f 65/2/2 66/2/2 67/2/2
f 66/2/2 62/2/2 68/2/2
f 67/2/2 66/2/2 68/2/2
f 76/1/3 70/1/3 69/1/3
f 77/2/3 71/2/3 70/2/3
f 77/1/3 70/1/3 76/1/3
f 78/1/3 72/1/3 71/1/3
f 78/2/3 71/2/3 77/2/3
f 79/2/3 73/2/3 72/2/3
f 79/1/3 72/1/3 78/1/3
f 80/1/3 74/1/3 73/1/3
f 80/2/3 73/2/3 79/2/3
f 81/2/3 75/2/3 74/2/3
f 81/1/3 74/1/3 80/1/3
f 82/2/3 80/2/3 79/2/3
f 82/2/3 77/2/3 76/2/3
f 82/2/3 81/2/3 80/2/3
f 82/2/3 79/2/3 78/2/3
f 82/2/3 78/2/3 77/2/3
f 83/2/3 75/2/3 81/2/3
f 83/2/3 81/2/3 82/2/3
f 86/2/3 85/2/3 84/2/3
f 87/2/3 85/2/3 86/2/3
f 88/2/3 85/2/3 87/2/3
f 89/2/3 85/2/3 88/2/3
f 90/2/3 85/2/3 89/2/3
f 91/2/3 85/2/3 90/2/3
f 92/2/3 85/2/3 91/2/3
f 98/1/3 94/1/3 93/1/3
f 99/2/3 95/2/3 94/2/3
f 99/1/3 94/1/3 98/1/3
f 100/1/3 96/1/3 95/1/3
f 100/2/3 95/2/3 99/2/3
f 101/2/3 97/2/3 96/2/3
f 101/1/3 96/1/3 100/1/3
f 102/2/3 97/2/3 101/2/3
f 103/2/4 104/2/4 109/2/4
f 104/1/4 105/1/4 110/1/4
f 109/2/4 104/2/4 110/2/4
f 105/2/4 106/2/4 111/2/4
f 110/1/4 105/1/4 111/1/4
f 106/1/4 107/1/4 112/1/4
f 111/2/4 106/2/4 112/2/4
f 107/2/4 108/2/4 113/2/4
f 112/1/4 107/1/4 113/1/4
f 113/2/4 108/2/4 114/2/4
f 114/2/4 108/2/4 115/2/4
f 116/2/4 117/2/4 121/2/4
f 117/1/4 118/1/4 122/1/4
f 121/2/4 117/2/4 122/2/4
f 119/2/4 120/2/4 123/2/4
f 122/1/4 118/1/4 123/1/4
f 118/2/4 119/2/4 123/2/4
f 123/2/4 120/2/4 124/2/4
f 125/2/4 126/2/4 129/2/4
f 129/2/4 126/2/4 130/2/4
f 126/1/4 127/1/4 131/1/4
f 130/2/4 126/2/4 131/2/4
f 127/2/4 128/2/4 132/2/4
f 131/1/4 127/1/4 132/1/4
f 125/2/4 129/2/4 133/2/4
f 129/1/4 130/1/4 134/1/4
f 133/2/4 129/2/4 134/2/4
f 130/2/4 131/2/4 135/2/4
f 134/1/4 130/1/4 135/1/4
f 131/2/4 132/2/4 135/2/4
f 132/2/4 128/2/4 136/2/4
f 135/2/4 132/2/4 136/2/4
f 141/1/5 138/1/5 137/1/5
f 142/2/5 139/2/5 138/2/5
f 142/1/5 138/1/5 141/1/5
f 143/2/5 139/2/5 142/2/5
f 145/2/5 141/2/5 140/2/5
f 145/1/5 144/1/5 143/1/5
f 145/2/5 143/2/5 142/2/5
f 145/2/5 142/2/5 141/2/5
f 146/1/5 144/1/5 145/1/5
f 147/2/5 145/2/5 140/2/5
f 147/2/5 146/2/5 145/2/5
f 148/2/5 146/2/5 147/2/5
f 149/2/5 146/2/5 148/2/5
f 150/2/5 146/2/5 149/2/5
f 151/2/5 149/2/5 148/2/5
f 152/2/5 149/2/5 151/2/5
f 153/2/6 154/2/6 156/2/6
f 156/2/6 154/2/6 157/2/6
f 155/2/6 156/2/6 159/2/6
f 157/2/6 158/2/6 159/2/6
f 156/2/6 157/2/6 159/2/6
f 159/2/6 158/2/6 160/2/6
f 160/2/6 158/2/6 161/2/6
f 161/2/6 158/2/6 162/2/6
f 160/2/6 161/2/6 163/2/6
f 163/2/6 161/2/6 164/2/6
